/* XPM */
static char *maximize_toggled_prelight[] = {
/* columns rows colors chars-per-pixel */
"25 24 13 1 ",
"  c gray8",
". c gray31",
"X c #5B5B5B",
"o c gray42",
"O c gray43",
"+ c #797979",
"@ c #7C7C7C",
"# c #888888",
"$ c #8E8E8E",
"% c gray65",
"& c #D2D2D2",
"* c gray83",
"= c gray85",
/* pixels */
"$$$$$$$$$$$$$$$$$$$$$$$$$",
"$$$$$$$$$$$$$$$$$$$$$$$$$",
"%.......................%",
"%.......................%",
"%.......................%",
"%.......................%",
"%...........X...........%",
"%..........+=@..........%",
"%.........@*#&@.........%",
"%........+&O.O&@........%",
"%.......+*O...o&@.......%",
"%.......+&O...O&+.......%",
"%........+*O.O&+........%",
"%.........@*#&@.........%",
"%..........+=@..........%",
"%...........X...........%",
"%.......................%",
"%.......................%",
"%.......................%",
"%.......................%",
"%%%%%%%%%%%%%%%%%%%%%%%%%",
"$$$$$$$$$$$$$$$$$$$$$$$$$",
"                         ",
"                         "
};
