/* XPM */
static char *stick_pressed[] = {
/* columns rows colors chars-per-pixel */
"29 24 26 1 ",
"  c gray8",
". c gray9",
"X c #181818",
"o c gray13",
"O c #24244E",
"+ c #2B2B53",
"@ c #2C2C54",
"# c #484848",
"$ c #464669",
"% c #474769",
"& c #4A4A6B",
"* c #747474",
"= c gray46",
"- c #777777",
"; c #6F6F88",
": c #76768E",
"> c #888888",
", c #898989",
"< c #8E8E8E",
"1 c #88889B",
"2 c #909095",
"3 c #91919A",
"4 c #93939F",
"5 c #9494A4",
"6 c #9494A5",
"7 c #DEDEDF",
/* pixels */
"<<<<<<<<<<<<<<<<<<<<<<<<<<<<<",
"<<<<<<<<<<<<<<<<<<<<<<<<<<<<<",
" <6OOOOOOOOOOOOOOOOOOOOOOO6< ",
" <6OOOOOOOOOOOOOOOOOOOOOOO6< ",
" <6OOOOOOOOOOOOOOOOOOOOOOO6< ",
" <6OOOOOOOOOOOOOOOOOOOOOOO6< ",
" <6OOOOOOOOOOOOOOOOOOOOOOO6< ",
" <6OOOOOOOOOOOOOOOOOOOOOOO6< ",
" <5OOOOOOOOOOOOOOOOOOOOOOO6< ",
" <5OOOOOOOOOOO$OOOOOOOOOOO6< ",
" <5OOOOOOOOOO;7:OOOOOOOOOO6< ",
" <6OOOOOOOOOO;7:OOOOOOOOOO6< ",
" <5OOOOOOOOOOO$OOOOOOOOOOO6< ",
" <5OOOOOOOOOOOOOOOOOOOOOOO6< ",
" <6OOOOOOOOOOOOOOOOOOOOOOO6< ",
" <6OOOOOOOOOOOOOOOOOOOOOOO6< ",
" ,5+OOOOOOOOOOOOOOOOOOOOO@5> ",
" =4&OOOOOOOOOOOOOOOOOOOOO&4* ",
" #11+OOOOOOOOOOOOOOOOOOO@12# ",
" X=31&+OOOOOOOOOOOOOOO@&13-X ",
"  o-245566666666665566652-o  ",
"    #*,<<<<<<<<<<<<<<<>*#    ",
"                             ",
"                             "
};
