/* XPM */
static char *close_active[] = {
/* columns rows colors chars-per-pixel */
"24 24 19 1 ",
"  c gray5",
". c #202020",
"X c #232323",
"o c gray14",
"O c #252525",
"+ c gray16",
"@ c #363630",
"# c #303036",
"$ c #3F3F3F",
"% c #737375",
"& c #888878",
"* c #787888",
"= c #9A9A9A",
"- c #A4A4A4",
"; c #A5A5A5",
": c gray66",
"> c #A9A9A9",
", c gray82",
"< c None",
/* pixels */
"                    <<<<",
"                    <<<<",
"@&&&&&&&&&&&&&&&&&&&<<<<",
" &..................<<<<",
" &..................<<<<",
" &..................<<<<",
" &.....................*",
" &......$=o...o=$......*",
" &.......;>o.o;;o......*",
" &.......o;>+;>o.......*",
" &........o;,;o........*",
" &........o;,;o........*",
" &.......o;>+;>o.......*",
" &......o;;o.o;>o......*",
" &......$=o...o=$......*",
" &.....................*",
" &.....................*",
" &.....................*",
" &.....................*",
" %**********************",
"                       #",
"                       #",
"&&&&&&&&&&&&&&&&&&&&&&&*",
".......................*"
};
