/* XPM */
static char *hide_pressed[] = {
/* columns rows colors chars-per-pixel */
"39 32 35 1 ",
"  c black",
". c #0B0B0B",
"X c #0C0C0C",
"o c #373738",
"O c #3E3E3F",
"+ c #3F3F40",
"@ c gray25",
"# c #434344",
"$ c #444444",
"% c #494949",
"& c #525253",
"* c #555557",
"= c #585859",
"- c #5E5E60",
"; c gray40",
": c #676769",
"> c #69696B",
", c #6A6A6C",
"< c #717172",
"1 c #7A7A7C",
"2 c #7D7D7F",
"3 c #868687",
"4 c #888889",
"5 c #8B8B8D",
"6 c #8E8E8F",
"7 c #919193",
"8 c #969698",
"9 c #A0A0A1",
"0 c #A5A5A6",
"q c #A7A7A9",
"w c #A8A8AA",
"e c #B4B4B5",
"r c #C5C5C6",
"t c #D9D9DA",
"y c #DCDCDD",
/* pixels */
"@@@@@@@@@@@@@@@@@@@@@@@@@@@@@@@@@@@@@@@",
"@@@@@@@@@O@@@@@@@@@@@@@@@@@@@@@@@@@@@@@",
"y@@00000000000000000000000000000000000@",
"3@@22222222222222222222222222222222222@",
"3@@22222222222222222222222222222222222@",
"3@@22222222222222222222222222222222222@",
"3@@22222222222222222222222222222222222@",
"3@@22222222222222222222222222222222222@",
"3@@22222222222222222222222222222222222@",
"3@@22222222222222222222222222222222222@",
"3@@22222222222222222222222222222222222@",
"3@@22222222222o>222222222>o22222222222@",
"3@@2222222222* .>2222222>. *2222222222@",
"3@@22222222222# .:22222,X +22222222222@",
"3@@222222222222# .:222,X +222222222222@",
"3@@2222222222222# .:2,X +2222222222222@",
"3@@22222222222222O .*. O22222222222222@",
"3@@222222222222222#   +222222222222222@",
"3@@2222222222222222# +2222222222222222@",
"3@@22222222222222222-22222222222222222@",
"3@@22222222222222222222222222222222222@",
"3@@22222222222222222222222222222222222@",
"3@@22222222222222222222222222222222222@",
"3@@22222222222222222222222222222222222@",
"4$@12222222222222222222222222222222222@",
"5&@>2222222222222222222222222222222222@",
"8<@%1222222222222222222222222222222222@",
"05*O$>12222222222222222222222222222222@",
"q97=@@@@@@@@@@@@@@@@@@@@@@@@@@@@@@@@@@@",
"qw006;%@@@@@@@@@@@@@@@@@@@@@@@@@@@@@@@@",
"qqqwertyyyyyyyyyyyyyyyyyyyyyyyyyyyyyyyy",
"qqww0wwwqqqqqqqqqqqqqqqqqqqqqqqqqqqqqqq"
};
