/* XPM */
static char *maximize_active[] = {
/* columns rows colors chars-per-pixel */
"37 32 20 1 ",
"  c #19191A",
". c #1D1D1D",
"X c #1E1E1E",
"o c #222222",
"O c #232323",
"+ c #323232",
"@ c #414142",
"# c gray27",
"$ c #777779",
"% c #7E7E7F",
"& c #7F7F80",
"* c #818183",
"= c #828284",
"- c #8B8B8C",
"; c #A1A1A3",
": c #A5A5A7",
"> c #A7A7A9",
", c #AAAAAC",
"< c #B4B4B4",
"1 c #FBFBFB",
/* pixels */
"ooooooooooooooooooooooooooooooooooooo",
"ooooooooooooooooooooooooooooooooooooo",
"+11111111111111111111111111111111111+",
"o1,,,,,,,,,,,,,,,,,,,,,,,,,,,,,,,,,$o",
"o1,,,,,,,,,,,,,,,,,,,,,,,,,,,,,,,,,$o",
"o1,,,,,,,,,,,,,,,,,,,,,,,,,,,,,,,,,$o",
"o1,,,,,,,,,,,,,,,,,,,,,,,,,,,,,,,,,$o",
"o1,,,,,,,,,,,,,,,,,,,,,,,,,,,,,,,,,$o",
"o1,,,,,,,,,,,,,,,,,,,,,,,,,,,,,,,,,$o",
"o1,,,,,,,,,,,,,,,,;,,,,,,,,,,,,,,,,$o",
"o1,,,,,,,,,,,,,,,=o%,,,,,,,,,,,,,,,$o",
"o1,,,,,,,,,,,,,,=X .%,,,,,,,,,,,,,,$o",
"o1,,,,,,,,,,,,,*X O X*,,,,,,,,,,,,,$o",
"o1,,,,,,,,,,,,=X @;# .%,,,,,,,,,,,,$o",
"o1,,,,,,,,,,,=X @:,># .%,,,,,,,,,,,$o",
"o1,,,,,,,,,,=X @:,,,># .%,,,,,,,,,,$o",
"o1,,,,,,,,,=X @:,,,,,># .%,,,,,,,,,$o",
"o1,,,,,,,,=X @:,,,,,,,># .%,,,,,,,,$o",
"o1,,,,,,,,=X@:,,,,,,,,,>#.&,,,,,,,,$o",
"o1,,,,,,,,,-:,,,,,,,,,,,:-,,,,,,,,,$o",
"o1,,,,,,,,,,,,,,,,,,,,,,,,,,,,,,,,,$o",
"o1,,,,,,,,,,,,,,,,,,,,,,,,,,,,,,,,,$o",
"o1,,,,,,,,,,,,,,,,,,,,,,,,,,,,,,,,,$o",
"o1,,,,,,,,,,,,,,,,,,,,,,,,,,,,,,,,,$o",
"o1,,,,,,,,,,,,,,,,,,,,,,,,,,,,,,,,,$o",
"o1,,,,,,,,,,,,,,,,,,,,,,,,,,,,,,,,,$o",
"o1,,,,,,,,,,,,,,,,,,,,,,,,,,,,,,,,,$o",
"o<$$$$$$$$$$$$$$$$$$$$$$$$$$$$$$$$$$o",
"ooooooooooooooooooooooooooooooooooooo",
"ooooooooooooooooooooooooooooooooooooo",
"1111111111111111111111111111111111111",
",,,,,,,,,,,,,,,,,,,,,,,,,,,,,,,,,,,,,"
};
