/* XPM */
static char *shade_active[] = {
/* columns rows colors chars-per-pixel */
"37 32 20 1 ",
"  c #19191A",
". c #232323",
"X c gray17",
"o c #2D2D2D",
"O c #3D3D3E",
"+ c #585859",
"@ c #5D5D5E",
"# c #616162",
"$ c #626263",
"% c #676768",
"& c #6B6B6C",
"* c #737375",
"= c #777779",
"- c #868688",
"; c #979798",
": c #99999A",
"> c #A1A1A3",
", c #A5A5A7",
"< c #AAAAAC",
"1 c #FBFBFB",
/* pixels */
".....................................",
".....................................",
".11111111111111111111111111111111111.",
".1<<<<<<<<<<<<<<<<<<<<<<<<<<<<<<<<<=.",
".1<<<<<<<<<<<<<<<<<<<<<<<<<<<<<<<<<=.",
".1<<<<<<<<<<<<<<<<<<<<<<<<<<<<<<<<<=.",
".1<<<<<<<<<<<<<<<<<<<<<<<<<<<<<<<<<=.",
".1<<<<<<<<*###############*<<<<<<<<=.",
".1<<<<<<<<O               O<<<<<<<<=.",
".1<<<<<<<<+OOOOOOOOOOOOOOO+<<<<<<<<=.",
".1<<<<<<<<<<<<<<<<<<<<<<<<<<<<<<<<<=.",
".1<<<<<<<<<<<<<<<<<<<<<<<<<<<<<<<<<=.",
".1<<<<<<<<<<<<<<<<<<<<<<<<<<<<<<<<<=.",
".1<<<<<<<<<<<<<<<<-<<<<<<<<<<<<<<<<=.",
".1<<<<<<<<<<<<<<<# @<<<<<<<<<<<<<<<=.",
".1<<<<<<<<<<<<<<#   @<<<<<<<<<<<<<<=.",
".1<<<<<<<<<<<<<#  O  #<<<<<<<<<<<<<=.",
".1<<<<<<<<<<<<#  $<%  @<<<<<<<<<<<<=.",
".1<<<<<<<<<<<#  $<<<%  @<<<<<<<<<<<=.",
".1<<<<<<<<<<#  $<<<<<%  @<<<<<<<<<<=.",
".1<<<<<<<<<#  $<<<<<<<%  @<<<<<<<<<=.",
".1<<<<<<<<&  #<<<<<<<<<#  &<<<<<<<<=.",
".1<<<<<<<<:o$<<<<<<<<<<<%X;<<<<<<<<=.",
".1<<<<<<<<<><<<<<<<<<<<<<><<<<<<<<<=.",
".1<<<<<<<<<<<<<<<<<<<<<<<<<<<<<<<<<=.",
".1<<<<<<<<<<<<<<<<<<<<<<<<<<<<<<<<<=.",
".1<<<<<<<<<<<<<<<<<<<<<<<<<<<<<<<<<=.",
".,==================================.",
".....................................",
".....................................",
"1111111111111111111111111111111111111",
"<<<<<<<<<<<<<<<<<<<<<<<<<<<<<<<<<<<<<"
};
