/* XPM */
static char *shade_active[] = {
/* columns rows colors chars-per-pixel */
"35 31 39 1 ",
"  c black",
". c #060606",
"X c gray13",
"o c #222222",
"O c #242425",
"+ c #252525",
"@ c gray15",
"# c #262627",
"$ c #272727",
"% c #282828",
"& c #282829",
"* c gray16",
"= c #2A2A2A",
"- c #2A2A2B",
"; c gray17",
": c #2B2B2C",
"> c #2C2C2D",
", c #2D2D2D",
"< c #333334",
"1 c #383839",
"2 c #3A3A3B",
"3 c #454546",
"4 c #4A4A4B",
"5 c #5B5B5C",
"6 c #7B7B7C",
"7 c #8C8C8E",
"8 c #99999B",
"9 c #9C9C9E",
"0 c #9D9D9F",
"q c #9E9EA0",
"w c #9F9FA1",
"e c #A0A0A2",
"r c #A1A1A3",
"t c #A2A2A4",
"y c #A3A3A5",
"u c #A6A6A8",
"i c #A8A8AA",
"p c #B8B8B9",
"a c #E9E9EA",
/* pixels */
"                                   ",
"-----------------------------------",
"2aaaaaaaaaaaaaaaaaaaaaaaaaaaaaaaaa2",
"-aiiiiiiiiiiiiiiiiiiiiiiiiiiiiiii7-",
"-aiiiiiiiiiiiiiiiiiiiiiiiiiiiiiii7-",
"-aiiiiiiiiiiiiiiiiiiiiiiiiiiiiiii7-",
"-aiiiiiiiiiiiiiiiiiiiiiiiiiiiiiii7-",
"-aiiiiiiy<<<<<<<<<<<<<<<<<yiiiiii7-",
"-aiiiiiiw                 wiiiiii7-",
"-aiiiiiiu66666666666666666uiiiiii7-",
"-aiiiiiiiiiiiiiiiiiiiiiiiiiiiiiii7-",
"-aiiiiiiiiiiiiiiiiiiiiiiiiiiiiiii7-",
"-aiiiiiiiiiiiiiiiiiiiiiiiiiiiiiii7-",
"-aiiiiiiiiiiiiiie4eiiiiiiiiiiiiii7-",
"-aiiiiiiiiiiiiir- #wiiiiiiiiiiiii7-",
"-aiiiiiiiiiiiiw$ . $wiiiiiiiiiiii7-",
"-aiiiiiiiiiiir= %8; @wiiiiiiiiiii7-",
"-aiiiiiiiiiiw+ %wir: o0iiiiiiiiii7-",
"-aiiiiiiiiiq+ &eiiir: o9iiiiiiiii7-",
"-aiiiiiiiiqO &eiiiiir> X9iiiiiiii7-",
"-aiiiiiiiqO *eiiiiiiir, X9iiiiiii7-",
"-aiiiiiii513tiiiiiiiiit315iiiiiii7-",
"-aiiiiiiiiiiiiiiiiiiiiiiiiiiiiiii7-",
"-aiiiiiiiiiiiiiiiiiiiiiiiiiiiiiii7-",
"-aiiiiiiiiiiiiiiiiiiiiiiiiiiiiiii7-",
"-aiiiiiiiiiiiiiiiiiiiiiiiiiiiiiii7-",
"-p77777777777777777777777777777777-",
"-----------------------------------",
"-----------------------------------",
"aaaaaaaaaaaaaaaaaaaaaaaaaaaaaaaaaaa",
"iiiiiiiiiiiiiiiiiiiiiiiiiiiiiiiiiii"
};
