/* XPM */
static char *stick_prelight[] = {
/* columns rows colors chars-per-pixel */
"41 32 61 1 ",
"  c #1B1B1B",
". c #2D2D2E",
"X c #2F2F30",
"o c gray25",
"O c #414142",
"+ c #444444",
"@ c #494949",
"# c gray29",
"$ c #4B4B4B",
"% c #4C4C4C",
"& c #4D4D4E",
"* c #525253",
"= c #545455",
"- c #585858",
"; c #585859",
": c gray40",
"> c #676767",
", c #6D6D6D",
"< c #6D6D6E",
"1 c #717172",
"2 c #7A7A7C",
"3 c #7B7B7C",
"4 c #868687",
"5 c #888889",
"6 c #8B8B8D",
"7 c #8C8C8D",
"8 c #8C8C8E",
"9 c #8D8D8E",
"0 c #8D8D8F",
"q c #8E8E8F",
"w c #909092",
"e c #919193",
"r c #969698",
"t c #9C9C9D",
"y c #A0A0A1",
"u c #A1A1A3",
"i c #A2A2A3",
"p c #A3A3A5",
"a c #A4A4A5",
"s c #A4A4A6",
"d c #A5A5A6",
"f c #A7A7A8",
"g c #A7A7A9",
"h c #A9A9A9",
"j c #A8A8AA",
"k c #A9A9AA",
"l c #ABABAD",
"z c #B0B0B2",
"x c #B1B1B3",
"c c #B4B4B5",
"v c #B4B4B6",
"b c #B6B6B8",
"n c #B8B8BA",
"m c #C2C2C3",
"M c #C5C5C6",
"N c #D1D1D2",
"B c #D2D2D3",
"V c #D6D6D7",
"C c #D9D9DA",
"Z c #DCDCDD",
"A c #E1E1E2",
/* pixels */
"ooooooooooooooooooooooooooooooooooooooooo",
"ooooooooooooooooooooooooooooooooooooooooo",
"ZooAAAAAAAAAAAAAAAAAAAAAAAAAAAAAAAAAAAooZ",
"4ooAvvvvvvvvvvvvvvvvvvvvvvvvvvvvvvvvvwooZ",
"4ooAvvvvvvvvvvvvvvvvvvvvvvvvvvvvvvvvvwooZ",
"4ooAvvvvvvvvvvvvvvvvvvvvvvvvvvvvvvvvvwooZ",
"4ooAvvvvvvvvvvvvvvvvvvvvvvvvvvvvvvvvvwooZ",
"4ooAvvvvvvvvvvvvvvvvvvvvvvvvvvvvvvvvvwooZ",
"4ooAvvvvvvvvvvvvvvvvvvvvvvvvvvvvvvvvvwooZ",
"4ooAvvvvvvvvvvvvvvvvvvvvvvvvvvvvvvvvvwooZ",
"4ooAvvvvvvvvvvvvvvvvvvvvvvvvvvvvvvvvvwooZ",
"4ooAvvvvvvvvvvvvvvvvvvvvvvvvvvvvvvvvvwooZ",
"4ooAvvvvvvvvvvvvvvviOyvvvvvvvvvvvvvvvwooZ",
"4ooAvvvvvvvvvvvvvviX .yvvvvvvvvvvvvvvwooZ",
"4ooAvvvvvvvvvvvvviX   .yvvvvvvvvvvvvvwooZ",
"4ooAvvvvvvvvvvvvviX   .yvvvvvvvvvvvvvwooZ",
"4ooAvvvvvvvvvvvvvviX .yvvvvvvvvvvvvvvwooZ",
"4ooAvvvvvvvvvvvvvvvuOuvvvvvvvvvvvvvvvwooZ",
"4ooAvvvvvvvvvvvvvvvvvvvvvvvvvvvvvvvvvwooZ",
"4ooAvvvvvvvvvvvvvvvvvvvvvvvvvvvvvvvvvwooZ",
"4ooAvvvvvvvvvvvvvvvvvvvvvvvvvvvvvvvvvwooZ",
"4ooAvvvvvvvvvvvvvvvvvvvvvvvvvvvvvvvvvwooZ",
"4ooAvvvvvvvvvvvvvvvvvvvvvvvvvvvvvvvvvwooZ",
"4ooAvvvvvvvvvvvvvvvvvvvvvvvvvvvvvvvvvwooZ",
"5+oZbvvvvvvvvvvvvvvvvvvvvvvvvvvvvvvvz8o%C",
"6*okxvvvvvvvvvvvvvvvvvvvvvvvvvvvvvvvp2o,B",
"r1o-tdzvvvvvvvvvvvvvvvvvvvvvvvvvvvzp9$ohm",
"s7=o&30wwwwwwwwwwwwwwwwwwwwwwwwwww02$o>Vl",
"gye;ooooooooooooooooooooooooooooooooo>Nng",
"ggafq:@ooooooooooooooooooooooooooo#<hVngg",
"gggjcMCZZZZZZZZZZZZZZZZZZZZZZZZZZZCNmlggg",
"ggggggggggggggggggggggggggggggggggggggggg"
};
