/* XPM */
static char *stick_active[] = {
/* columns rows colors chars-per-pixel */
"41 32 59 1 ",
"  c #191919",
". c #202020",
"X c #2A2A2B",
"o c #2C2C2D",
"O c #2F2F30",
"+ c #363637",
"@ c #373738",
"# c #393939",
"$ c #3A3A3B",
"% c gray23",
"& c gray24",
"* c #434343",
"= c #454546",
"- c #464647",
"; c #4A4A4B",
": c #5B5B5C",
"> c #5D5D5E",
", c #646465",
"< c #656566",
"1 c #686869",
"2 c #6F6F70",
"3 c #707071",
"4 c #878789",
"5 c #888889",
"6 c #8B8B8C",
"7 c #8C8C8E",
"8 c #8D8D8F",
"9 c #8E8E8F",
"0 c #8E8E90",
"q c #909091",
"w c #929293",
"e c #959597",
"r c #969698",
"t c #979799",
"y c #989899",
"u c #9A9A9B",
"i c #9B9B9D",
"p c #9F9FA1",
"a c #A4A4A6",
"s c #A5A5A7",
"d c #A6A6A7",
"f c #A7A7A8",
"g c #A8A8AA",
"h c #A9A9AA",
"j c #A9A9AB",
"k c #ABABAD",
"l c #ADADAF",
"z c #AFAFB0",
"x c #B7B7B8",
"c c #BDBDBE",
"v c #C9C9CA",
"b c #CDCDCE",
"n c #DDDDDD",
"m c #DDDDDE",
"M c gray89",
"N c #E4E4E4",
"B c #E6E6E6",
"V c #E6E6E7",
"C c #E9E9EA",
/* pixels */
".........................................",
"XXXXXXXXXXXXXXXXXXXXXXXXXXXXXXXXXXXXXXXXX",
"C$$CCCCCCCCCCCCCCCCCCCCCCCCCCCCCCCCCCC$$C",
"7XXCggggggggggggggggggggggggggggggggg7XXC",
"7XXCggggggggggggggggggggggggggggggggg7XXC",
"7XXCggggggggggggggggggggggggggggggggg7XXC",
"7XXCggggggggggggggggggggggggggggggggg7XXC",
"7XXCggggggggggggggggggggggggggggggggg7XXC",
"7XXCggggggggggggggggggggggggggggggggg7XXC",
"7XXCggggggggggggggggggggggggggggggggg7XXC",
"7XXCggggggggggggggggggggggggggggggggg7XXC",
"7XXCggggggggggggggggggggggggggggggggg7XXC",
"7XXCgggggggggggggggt&eggggggggggggggg7XXC",
"7XXCggggggggggggggto Xegggggggggggggg7XXC",
"7XXCgggggggggggggto   Xeggggggggggggg7XXC",
"7XXCgggggggggggggto   Xeggggggggggggg7XXC",
"7XXCggggggggggggggto Xegggggggggggggg7XXC",
"7XXCgggggggggggggggr&rggggggggggggggg7XXC",
"7XXCggggggggggggggggggggggggggggggggg7XXC",
"7XXCggggggggggggggggggggggggggggggggg7XXC",
"7XXCggggggggggggggggggggggggggggggggg7XXC",
"7XXCggggggggggggggggggggggggggggggggg7XXC",
"7XXCggggggggggggggggggggggggggggggggg7XXC",
"7XXCggggggggggggggggggggggggggggggggg7XXC",
"8OXNkgggggggggggggggggggggggggggggggs5X#B",
"0*Xdhgggggggggggggggggggggggggggggggi3X,n",
"y1X-wuagggggggggggggggggggggggggggsi4@Xzv",
"s6=X%2477777777777777777777777777753@X>Ml",
"gpq;XXXXXXXXXXXXXXXXXXXXXXXXXXXXXXXXX>mcg",
"ggsf9:+XXXXXXXXXXXXXXXXXXXXXXXXXXX@<zMcgg",
"gggjxbVCCCCCCCCCCCCCCCCCCCCCCCCCCCVnvlggg",
"ggggggggggggggggggggggggggggggggggggggggg"
};
