/* XPM */
static char *stick_pressed[] = {
/* columns rows colors chars-per-pixel */
"41 32 52 1 ",
"  c black",
". c gray6",
"X c #111111",
"o c gray12",
"O c gray25",
"+ c #444444",
"@ c gray28",
"# c #494949",
"$ c gray29",
"% c #4C4C4C",
"& c #525253",
"* c #545455",
"= c #585859",
"- c gray40",
"; c #676767",
": c #68686A",
"> c #69696A",
", c #6A6A6B",
"< c #6D6D6D",
"1 c #6C6C6E",
"2 c #6D6D6E",
"3 c #6D6D6F",
"4 c #6E6E70",
"5 c #717172",
"6 c #79797B",
"7 c #7A7A7C",
"8 c #7D7D7F",
"9 c #868687",
"0 c #888889",
"q c #8B8B8D",
"w c #8C8C8D",
"e c #8E8E8F",
"r c #919193",
"t c #969698",
"y c #A0A0A1",
"u c #A4A4A5",
"i c #A4A4A6",
"p c #A5A5A6",
"a c #A7A7A8",
"s c #A7A7A9",
"d c #A9A9A9",
"f c #A8A8AA",
"g c #ABABAD",
"h c #B4B4B5",
"j c #B8B8BA",
"k c #C2C2C3",
"l c #C5C5C6",
"z c #D1D1D2",
"x c #D2D2D3",
"c c #D6D6D7",
"v c #D9D9DA",
"b c #DCDCDD",
/* pixels */
"OOOOOOOOOOOOOOOOOOOOOOOOOOOOOOOOOOOOOOOOO",
"OOOOOOOOOOOOOOOOOOOOOOOOOOOOOOOOOOOOOOOOO",
"bOOpppppppppppppppppppppppppppppppppppOOb",
"9OO88888888888888888888888888888888888OOb",
"9OO88888888888888888888888888888888888OOb",
"9OO88888888888888888888888888888888888OOb",
"9OO88888888888888888888888888888888888OOb",
"9OO88888888888888888888888888888888888OOb",
"9OO88888888888888888888888888888888888OOb",
"9OO88888888888888888888888888888888888OOb",
"9OO88888888888888888888888888888888888OOb",
"9OO88888888888888888888888888888888888OOb",
"9OO88888888888888884o18888888888888888OOb",
"9OO8888888888888884X .1888888888888888OOb",
"9OO888888888888884X   .188888888888888OOb",
"9OO888888888888884X   .188888888888888OOb",
"9OO8888888888888884X .1888888888888888OOb",
"9OO88888888888888883o38888888888888888OOb",
"9OO88888888888888888888888888888888888OOb",
"9OO88888888888888888888888888888888888OOb",
"9OO88888888888888888888888888888888888OOb",
"9OO88888888888888888888888888888888888OOb",
"9OO88888888888888888888888888888888888OOb",
"9OO88888888888888888888888888888888888OOb",
"0+O78888888888888888888888888888888887O%v",
"q&O,888888888888888888888888888888888>O<x",
"t5O#688888888888888888888888888888886@Odk",
"iw*O@:78888888888888888888888888887>@O;cg",
"syr=OOOOOOOOOOOOOOOOOOOOOOOOOOOOOOOOO;zjs",
"ssuae-#OOOOOOOOOOOOOOOOOOOOOOOOOOO$2dcjss",
"sssfhlvbbbbbbbbbbbbbbbbbbbbbbbbbbbvzkgsss",
"sssssssssssssssssssssssssssssssssssssssss"
};
