/* XPM */
static char *stick_prelight[] = {
/* columns rows colors chars-per-pixel */
"41 32 62 1 ",
"  c #1B1B1B",
". c #232323",
"X c #2D2D2D",
"o c gray18",
"O c gray19",
"+ c #323232",
"@ c gray20",
"# c gray21",
"$ c #3A3A3A",
"% c #414141",
"& c gray26",
"* c #505050",
"= c #515151",
"- c gray32",
"; c #565656",
": c #606060",
"> c #646465",
", c #69696A",
"< c #6A6A6A",
"1 c #777779",
"2 c #7A7A7C",
"3 c #7C7C7D",
"4 c #7C7C7E",
"5 c #878788",
"6 c #8A8A8B",
"7 c #8B8B8C",
"8 c #99999A",
"9 c #9A9A9A",
"0 c #9B9B9D",
"q c #A2A2A3",
"w c #A3A3A4",
"e c #A4A4A5",
"r c #A8A8AA",
"t c #AAAAAC",
"y c #ABABAD",
"u c #AEAEAE",
"i c #AEAEAF",
"p c #AEAEB0",
"a c #B0B0B1",
"s c #B1B1B3",
"d c #B2B2B4",
"f c #B3B3B4",
"g c #B6B6B7",
"h c #B7B7B8",
"j c gray72",
"k c #BBBBBC",
"l c #C1C1C1",
"z c #C3C3C3",
"x c #C4C4C6",
"c c #C8C8C8",
"v c #C8C8C9",
"b c #CCCCCD",
"n c #D3D3D4",
"m c #E2E2E3",
"M c #EBEBEC",
"N c #ECECEC",
"B c gray94",
"V c #F4F4F4",
"C c #F6F6F6",
"Z c gray97",
"A c #FBFBFB",
"S c gray99",
/* pixels */
".........................................",
".........................................",
"A..SSSSSSSSSSSSSSSSSSSSSSSSSSSSSSSSSSS..A",
"1..Ahhhhhhhhhhhhhhhhhhhhhhhhhhhhhhhhh1..A",
"1..Ahhhhhhhhhhhhhhhhhhhhhhhhhhhhhhhhh1..A",
"1..Ahhhhhhhhhhhhhhhhhhhhhhhhhhhhhhhhh1..A",
"1..Ahhhhhhhhhhhhhhhhhhhhhhhhhhhhhhhhh1..A",
"1..Ahhhhhhhhhhhhhhhhhhhhhhhhhhhhhhhhh1..A",
"1..Ahhhhhhhhhhhhhhhhhhhhhhhhhhhhhhhhh1..A",
"1..Ahhhhhhhhhhhhhhhhhhhhhhhhhhhhhhhhh1..A",
"1..Ahhhhhhhhhhhhhhhhhhhhhhhhhhhhhhhhh1..A",
"1..Ahhhhhhhhhhhhhhhhhhhhhhhhhhhhhhhhh1..A",
"1..Ahhhhhhhhhhhhhhhe&qhhhhhhhhhhhhhhh1..A",
"1..AhhhhhhhhhhhhhheO oqhhhhhhhhhhhhhh1..A",
"1..AhhhhhhhhhhhhheO   oqhhhhhhhhhhhhh1..A",
"1..AhhhhhhhhhhhhheO   oqhhhhhhhhhhhhh1..A",
"1..AhhhhhhhhhhhhhheO oqhhhhhhhhhhhhhh1..A",
"1..Ahhhhhhhhhhhhhhhe&ehhhhhhhhhhhhhhh1..A",
"1..Ahhhhhhhhhhhhhhhhhhhhhhhhhhhhhhhhh1..A",
"1..Ahhhhhhhhhhhhhhhhhhhhhhhhhhhhhhhhh1..A",
"1..Ahhhhhhhhhhhhhhhhhhhhhhhhhhhhhhhhh1..A",
"1..Ahhhhhhhhhhhhhhhhhhhhhhhhhhhhhhhhh1..A",
"1..Ahhhhhhhhhhhhhhhhhhhhhhhhhhhhhhhhh1..A",
"1..Ahhhhhhhhhhhhhhhhhhhhhhhhhhhhhhhhh1..A",
"2X.Zkhhhhhhhhhhhhhhhhhhhhhhhhhhhhhhha2.#C",
"6*.czhhhhhhhhhhhhhhhhhhhhhhhhhhhhhhh83.,N",
"05.=jidhhhhhhhhhhhhhhhhhhhhhhhhhhha94$.ln",
"rw-.%7211111111111111111111111111123$.:Vs",
"tyg;.................................:Bxt",
"ttfbu>+...........................@<lVxtt",
"tttpvmZAAAAAAAAAAAAAAAAAAAAAAAAAAAZMnsttt",
"ttttttttttttttttttttttttttttttttttttttttt"
};
