/* XPM */
static char *hide_active[] = {
/* columns rows colors chars-per-pixel */
"33 28 54 1 ",
"  c #251F21",
". c #211F26",
"X c #281F21",
"o c #211F28",
"O c #2A1C2F",
"+ c #301C2A",
"@ c #3A1A2A",
"# c #2A1A3A",
"$ c #202020",
"% c #222222",
"& c #3A393A",
"* c #3E3D3E",
"= c #61161D",
"- c #751414",
"; c #771616",
": c #791313",
"> c #441922",
", c #541534",
"< c #662838",
"1 c #221945",
"2 c #351555",
"3 c #1D1661",
"4 c #141475",
"5 c #171677",
"6 c #131379",
"7 c #382966",
"8 c #461846",
"9 c #481A48",
"0 c #413F41",
"q c #623045",
"w c #453062",
"e c #545254",
"r c #565456",
"t c #5A575A",
"y c #61516F",
"u c #6C5469",
"i c #6E5769",
"p c #69546C",
"a c #705061",
"s c #6E5B72",
"d c #776373",
"f c #736377",
"g c #796879",
"h c #AF6071",
"j c #807C80",
"k c #B2A1B2",
"l c #BEB7BE",
"z c #C3BCC3",
"x c #CDC6CD",
"c c #D0C8D0",
"v c #D1C9D1",
"b c #DAD2DA",
"n c #DCD4DC",
"m c #E0D8E0",
/* pixels */
"kkkkkkkkkkkkkkkkkkkkkkkkkkkkkkkkk",
"ggggggggggggggggggggggggggggggggg",
":hh:::::::::::::::::::::::::::::h",
"6gg:$$$$$$$$$$$$$$$$$$$$$$$$$$$6g",
"6gg:$$$$$$$$$$$$$$$$$$$$$$$$$$$6g",
"6gg:$$$$$$$$$$$$$$$$$$$$$$$$$$$6g",
"6gg:$$$$$$$$$$$$$$$$$$$$$$$$$$$6g",
"6gg:$$$$$$$$$$$$$$$$$$$$$$$$$$$6g",
"6gg:$$$$$$$$$$$$$$$$$$$$$$$$$$$6g",
"6gg:$$$$$$$$$$$$$$$$$$$$$$$$$$$6g",
"6gg:$$$$$$&zvr$$$$$$$rvz&$$$$$$6g",
"6gg:$$$$$$$*xnt$$$$$ebc0$$$$$$$6g",
"6gg:$$$$$$$$*xnt$$$ebc0$$$$$$$$6g",
"6gg:$$$$$$$$$*xnt$ebc0$$$$$$$$$6g",
"6gg:$$$$$$$$$$0cbjbc0$$$$$$$$$$6g",
"6gg:$$$$$$$$$$$*xmc0$$$$$$$$$$$6g",
"6gg:$$$$$$$$$$$$*l0$$$$$$$$$$$$6g",
"6gg:$$$$$$$$$$$$$%$$$$$$$$$$$$$6g",
"6gg:$$$$$$$$$$$$$$$$$$$$$$$$$$$6g",
"6gg:$$$$$$$$$$$$$$$$$$$$$$$$$$$6g",
"4fg;X$$$$$$$$$$$$$$$$$$$$$$$$$$6g",
"3yg<@$$$$$$$$$$$$$$$$$$$$$$$$$$6g",
"1wgi8#o$$$$$$$$$$$$$$$$$$$$$$$$6g",
".2pgs756666666666666666666666666g",
"$O9uggggggggggggggggggggggggggggg",
"$$+,qadgggggggggggggggggggggggggg",
"$$$ >=-::::::::::::::::::::::::::",
"$$$$$$$$$$$$$$$$$$$$$$$$$$$$$$$$$"
};
