/* XPM */
static char *maximize_toggled_prelight[] = {
/* columns rows colors chars-per-pixel */
"31 28 23 1 ",
"  c gray6",
". c #343434",
"X c #700909",
"o c #4B2155",
"O c #474647",
"+ c #494849",
"@ c #4A494A",
"# c #705F70",
"$ c #6B696B",
"% c #6F6C6F",
"& c #786578",
"* c #861F1F",
"= c #862F2F",
"- c #1F1F86",
"; c #867586",
": c #B67283",
"> c #949094",
", c #AFAAAF",
"< c #C3BDC3",
"1 c #C5BFC5",
"2 c #D5CED5",
"3 c #D5CFD5",
"4 c #D7D0D7",
/* pixels */
"&&&&&&&&&&&&&&&&&&&&&&&&&&&&&&&",
"###############################",
":=============================:",
";*...........................-;",
";*...........................-;",
";*...........................-;",
";*............O,@............-;",
";*...........O<41@...........-;",
";*..........+<3>3<+..........-;",
";*.........O<3%.$21@.........-;",
";*........O<3%...$21@........-;",
";*.......O<3%.....$21@.......-;",
";*......O<3%.......$21@......-;",
";*......O<3%.......$21@......-;",
";*.......O<3%.....$21@.......-;",
";*........O<3%...$21@........-;",
";*.........O<3%.$21@.........-;",
";*..........+<3>3<+..........-;",
";*...........O<41@...........-;",
";*............+,+............-;",
";*...........................-;",
";*...........................-;",
";*...........................-;",
";o----------------------------;",
";;;;;;;;;;;;;;;;;;;;;;;;;;;;;;;",
"###############################",
"XXXXXXXXXXXXXXXXXXXXXXXXXXXXXXX",
"                               "
};
