/* XPM */
static char *maximize_toggled_pressed[] = {
/* columns rows colors chars-per-pixel */
"31 28 21 1 ",
"  c gray6",
". c #2B1C3A",
"X c #700909",
"o c #731835",
"O c #3F324D",
"+ c #41344E",
"@ c #42344F",
"# c #65596F",
"$ c #6A5D73",
"% c #705F70",
"& c #786578",
"* c #806789",
"= c #AB6387",
"- c #908696",
"; c #ADA4B1",
": c #C1B9C4",
"> c #C2BAC4",
", c #C4BCC6",
"< c #D4CED5",
"1 c #D5CDD6",
"2 c #D7CFD8",
/* pixels */
"&&&&&&&&&&&&&&&&&&&&&&&&&&&&&&&",
"%%%%%%%%%%%%%%%%%%%%%%%%%%%%%%%",
"=ooooooooooooooooooooooooooooo=",
"*.............................*",
"*.............................*",
"*.............................*",
"*.............O;@.............*",
"*............O:2,@............*",
"*...........+><-<>+...........*",
"*..........O:<$.#1,@..........*",
"*.........O:<$...#1,@.........*",
"*........O:<$.....#1,@........*",
"*.......O:<$.......#1,@.......*",
"*.......O:<$.......#1,@.......*",
"*........O:<$.....#1,@........*",
"*.........O:<$...#1,@.........*",
"*..........O:<$.#1,@..........*",
"*...........+><-<>+...........*",
"*............O:2,@............*",
"*.............+;+.............*",
"*.............................*",
"*.............................*",
"*.............................*",
"*.............................*",
"*******************************",
"%%%%%%%%%%%%%%%%%%%%%%%%%%%%%%%",
"XXXXXXXXXXXXXXXXXXXXXXXXXXXXXXX",
"                               "
};
