/* XPM */
static char *maximize_toggled_active[] = {
/* columns rows colors chars-per-pixel */
"29 27 16 1 ",
"  c gray6",
". c #2B2A2B",
"X c #2D2C2D",
"o c #2F2E2F",
"O c #790909",
"+ c #360941",
"@ c #090979",
"# c #494749",
"$ c #796679",
"% c #B25F71",
"& c #B2ACB2",
"* c #C8C1C8",
"= c #CAC3CA",
"- c #CBC4CB",
"; c #E0D8E0",
": c None",
/* pixels */
":::::::::::::::::::::::::::::",
"$$$$$$$$$$$$$$$$$$$$$$$$$$$$$",
"%OOOOOOOOOOOOOOOOOOOOOOOOOOO%",
"$O                         @$",
"$O                         @$",
"$O                         @$",
"$O           .&o           @$",
"$O          .*;-o          @$",
"$O         .*-#*-o         @$",
"$O        .*-o .*-o        @$",
"$O       .*-o   .*-o       @$",
"$O      .*-o     .*-o      @$",
"$O      &;#       #;&      @$",
"$O      .*-o     .*-o      @$",
"$O       .*-o   .*-o       @$",
"$O        .*-o .*-o        @$",
"$O         X==#==X         @$",
"$O          .*;-o          @$",
"$O           X&X           @$",
"$O                         @$",
"$O                         @$",
"$O                         @$",
"$+@@@@@@@@@@@@@@@@@@@@@@@@@@$",
"$$$$$$$$$$$$$$$$$$$$$$$$$$$$$",
"$$$$$$$$$$$$$$$$$$$$$$$$$$$$$",
"OOOOOOOOOOOOOOOOOOOOOOOOOOOOO",
"                             "
};
