/* XPM */
static char *maximize_toggled_active[] = {
/* columns rows colors chars-per-pixel */
"31 28 19 1 ",
"  c gray6",
". c #330A3E",
"X c #272627",
"o c #292829",
"O c #2A292A",
"+ c #700909",
"@ c #090970",
"# c #525052",
"$ c #585558",
"% c #705F70",
"& c #786578",
"* c #AA5B6C",
"= c #848084",
"- c #A5A0A5",
"; c #BDB7BD",
": c #BFB9BF",
"> c #D3CCD3",
", c #D3CDD3",
"< c #D6CFD6",
/* pixels */
"&&&&&&&&&&&&&&&&&&&&&&&&&&&&&&&",
"%%%%%%%%%%%%%%%%%%%%%%%%%%%%%%%",
"*+++++++++++++++++++++++++++++*",
"%+                           @%",
"%+                           @%",
"%+                           @%",
"%+            X-O            @%",
"%+           X;<:O           @%",
"%+          o;,=,;o          @%",
"%+         X;,$ #>:O         @%",
"%+        X;,$   #>:O        @%",
"%+       X;,$     #>:O       @%",
"%+      X;,$       #>:O      @%",
"%+      X;,$       #>:O      @%",
"%+       X;,$     #>:O       @%",
"%+        X;,$   #>:O        @%",
"%+         X;,$ #>:O         @%",
"%+          o;,=,;o          @%",
"%+           X;<:O           @%",
"%+            o-o            @%",
"%+                           @%",
"%+                           @%",
"%+                           @%",
"%.@@@@@@@@@@@@@@@@@@@@@@@@@@@@%",
"%%%%%%%%%%%%%%%%%%%%%%%%%%%%%%%",
"%%%%%%%%%%%%%%%%%%%%%%%%%%%%%%%",
"+++++++++++++++++++++++++++++++",
"                               "
};
