/* XPM */
static char *shade_pressed[] = {
/* columns rows colors chars-per-pixel */
"31 28 26 1 ",
"  c #070707",
". c #2C193E",
"X c #780404",
"o c #7B173B",
"O c #2E1B40",
"+ c #311E42",
"@ c #483858",
"# c #4F3F5E",
"$ c #524361",
"% c #534462",
"& c #564765",
"* c #745890",
"= c #7B5D99",
"- c #756982",
"; c #A85EA8",
": c #8460A9",
"> c #968BA0",
", c #B1A9B9",
"< c #BEB6C4",
"1 c #BEB8C6",
"2 c #C9C3D0",
"3 c #CBC5D1",
"4 c #CEC8D3",
"5 c #CFC9D5",
"6 c #D2CCD7",
"7 c #D9D4DE",
/* pixels */
"===============================",
"*******************************",
";ooooooooooooooooooooooooooooo;",
":.............................:",
":.............................:",
":.............................:",
":.............................:",
":........,<<<<<<<<<<<,........:",
":........1333333333331........:",
":.............................:",
":.............................:",
":..............+..............:",
":.............%2&.............:",
":............%576&............:",
":...........%55-55%...........:",
":..........%55$.#46&..........:",
":.........%55$...#46&.........:",
":........%55$.....#46&........:",
":........>5%.......%5>........:",
":........O@.........@O........:",
":.............................:",
":.............................:",
":.............................:",
":.............................:",
":::::::::::::::::::::::::::::::",
"*******************************",
"XXXXXXXXXXXXXXXXXXXXXXXXXXXXXXX",
"                               "
};
