/* XPM */
static char *shade_prelight[] = {
/* columns rows colors chars-per-pixel */
"31 28 29 1 ",
"  c #070707",
". c #2D2D2D",
"X c #2F2E2F",
"o c #323232",
"O c #6B0404",
"+ c #461C50",
"@ c #494849",
"# c #504F51",
"$ c #535254",
"% c #545355",
"& c #575658",
"* c #685978",
"= c #757477",
"- c #811A1A",
"; c #822929",
": c #1A1A81",
"> c #6E5E80",
", c #7C6D8C",
"< c #AA6C8B",
"1 c #969398",
"2 c #B1AEB4",
"3 c #BEBAC1",
"4 c #BFBCC3",
"5 c #C9C5CD",
"6 c #CBC7CF",
"7 c #CECAD1",
"8 c #CFCBD3",
"9 c #D2CED6",
"0 c #D9D5DD",
/* pixels */
">>>>>>>>>>>>>>>>>>>>>>>>>>>>>>>",
"*******************************",
"<;;;;;;;;;;;;;;;;;;;;;;;;;;;;;<",
",-...........................:,",
",-...........................:,",
",-...........................:,",
",-...........................:,",
",-.......2333333333332.......:,",
",-.......4666666666664.......:,",
",-...........................:,",
",-...........................:,",
",-.............o.............:,",
",-............%5&............:,",
",-...........%809&...........:,",
",-..........%88=88%..........:,",
",-.........%88$.#79&.........:,",
",-........%88$...#79&........:,",
",-.......%88$.....#79&.......:,",
",-.......18%.......%81.......:,",
",-.......X@.........@X.......:,",
",-...........................:,",
",-...........................:,",
",-...........................:,",
",+::::::::::::::::::::::::::::,",
",,,,,,,,,,,,,,,,,,,,,,,,,,,,,,,",
"*******************************",
"OOOOOOOOOOOOOOOOOOOOOOOOOOOOOOO",
"                               "
};
