/* XPM */
static char *stick_prelight[] = {
/* columns rows colors chars-per-pixel */
"35 28 74 1 ",
"  c #070707",
". c #0F0707",
"X c #0D0709",
"o c #09070E",
"O c #1A0614",
"+ c #140619",
"@ c #280606",
"# c #3B0606",
"$ c #32060F",
"% c #0F0633",
"& c #390A3A",
"* c #2D2D2D",
"= c #342B2D",
"- c #2B2B35",
"; c #2D2B34",
": c #580505",
"> c #51050C",
", c #650404",
"< c #660404",
"1 c #650606",
"2 c #6B0404",
"3 c #660A0C",
"4 c #460625",
"5 c #452435",
"6 c #52203A",
"7 c #61202B",
"8 c #0C0551",
"9 c #250646",
"0 c #352445",
"q c #242455",
"w c #352057",
"e c #040466",
"r c #04046B",
"t c #1F1F7E",
"y c #3E3071",
"u c #33307D",
"i c #4F1F50",
"p c #403F40",
"a c #6D2E43",
"s c #5F425C",
"d c #634157",
"f c #624258",
"g c #62445B",
"h c #574466",
"j c #5A4463",
"k c #51426B",
"l c #67536F",
"z c #655371",
"x c #665371",
"c c #615375",
"v c #685978",
"b c #6E5F7E",
"n c #735D7A",
"m c #676568",
"M c #6C6A6D",
"N c #811A1A",
"B c #801D1E",
"V c #822929",
"C c #9E5776",
"Z c #1A1A81",
"A c #1E1E80",
"S c #1F1E80",
"D c #6E5E80",
"F c #6E6286",
"G c #726083",
"H c #726383",
"J c #776887",
"K c #7B6C8B",
"L c #7C6D8C",
"P c #AA6C8B",
"I c #D4D0D8",
"U c #D7D3DB",
"Y c #D7D4DB",
"T c #D9D5DD",
/* pixels */
"DDDDDDDDDDDDDDDDDDDDDDDDDDDDDDDDDDD",
"vvvvvvvvvvvvvvvvvvvvvvvvvvvvvvvvvvv",
"2CPVVVVVVVVVVVVVVVVVVVVVVVVVVVVVPC2",
"rvLN***************************ZLv2",
"rvLN***************************ZLv2",
"rvLN***************************ZLv2",
"rvLN***************************ZLv2",
"rvLN***************************ZLv2",
"rvLN***************************ZLv2",
"rvLN***************************ZLv2",
"rvLN*************p*************ZLv2",
"rvLN************mIM************ZLv2",
"rvLN***********mUTYM***********ZLv2",
"rvLN***********mUTYM***********ZLv2",
"rvLN************mIM************ZLv2",
"rvLN*************p*************ZLv2",
"rvLN***************************ZLv2",
"rvLN***************************ZLv2",
"rvLN***************************ZLv2",
"rvLN***************************ZLv2",
"ecKB=*************************-SKl,",
"8kJa5*************************quJf:",
"%wbni0;*********************-qtFb7#",
"o9hHGyAZZZZZZZZZZZZZZZZZZZZZAuFHg1.",
" +&jbJKLLLLLLLLLLLLLLLLLLLLLKJbg3@ ",
"  O46szvvvvvvvvvvvvvvvvvvvvvxd71@  ",
"   X$><222222222222222222222<:#.   ",
"                                   "
};
