/* XPM */
static char *top_right_active[] = {
/* columns rows colors chars-per-pixel */
"6 28 23 1 ",
"  c #070707",
". c #100709",
"X c #090710",
"o c #270616",
"O c #160627",
"+ c #380A39",
"@ c #69080A",
"# c #561E34",
"$ c #30205C",
"% c #04046B",
"& c #090969",
"* c #604C69",
"= c #604F70",
"- c #665775",
"; c #665776",
": c #655876",
"> c #685978",
", c #695979",
"< c #6A5B7B",
"1 c #6C5C7D",
"2 c #6D5C7D",
"3 c #6E5E80",
"4 c None",
/* pixels */
"2-4444",
">,1;44",
"@#*<;4",
".o+=14",
"  O$,:",
"  X&>1",
"   %>3",
"   %>3",
"   %>3",
"   %>3",
"   %>3",
"   %>3",
"   %>3",
"   %>3",
"   %>3",
"   %>3",
"   %>3",
"   %>3",
"   %>3",
"   %>3",
"   %>3",
"   %>3",
"   %>3",
"   %>3",
"   %>3",
"   %>3",
"   %>3",
"   %>3"
};
