/* XPM */
static char *bottom_right_active[] = {
/* columns rows colors chars-per-pixel */
"6 6 16 1 ",
"  c gray37",
". c #646464",
"X c #656565",
"o c #747474",
"O c #777777",
"+ c #7A7474",
"@ c gray47",
"# c #939393",
"$ c #DDBBBB",
"% c #F5C7C7",
"& c #F7C6C6",
"* c #F7C7C7",
"= c #F3DBDB",
"- c #EDE8E8",
"; c #ECECEC",
": c None",
/* pixels */
";;-* .",
";;=$ O",
"-=%+ #",
"&$+ o:",
"   o::",
"X@#:::"
};
