/* XPM */
static char *close_pressed[] = {
/* columns rows colors chars-per-pixel */
"30 28 21 1 ",
"  c gray11",
". c #232323",
"X c #252525",
"o c #272727",
"O c #3E3E3E",
"+ c gray27",
"@ c gray37",
"# c gray48",
"$ c gray59",
"% c gray60",
"& c #9D9D9D",
"* c gray67",
"= c gray74",
"- c gray",
"; c #C89F9F",
": c #9FC8C8",
"> c #C0C0C0",
", c #FAC7C7",
"< c #C7FAFA",
"1 c #ECECEC",
"2 c None",
/* pixels */
"@@@@@@@@@@@@@@@@@@@@@@@@@@2222",
"@@@@@@@@@@@@@@@@@@@@@@@@@@2222",
"@:::::::::::::::::::::::::->22",
"@============================2",
"@============================>",
"@=============================",
"@============================;",
"@=======*+O%=======%O+*======;",
"@========&o.$=====%XX%=======;",
"@=========&o.$===%XX%========;",
"@==========&o.$=%XX%=========;",
"@===========%XX#XX%==========;",
"@============&o X%===========;",
"@============%X .$===========;",
"@===========%XX#XX%==========;",
"@==========%XX%=&o.$=========;",
"@=========%XX%===&o.$========;",
"@========%XX%=====&o.$=======;",
"@=======*+O%=======%O+*======;",
"@============================;",
"@============================;",
"@============================;",
"@============================;",
"@============================;",
"@@@@@@@@@@@@@@@@@@@@@@@@@@@@@@",
"@@@@@@@@@@@@@@@@@@@@@@@@@@@@@@",
"<<<<<<<<<<<<<<<<<<<<<<<<<<<<<,",
"11111111111111111111111111111,"
};
