/* XPM */
static char *maximize_pressed[] = {
/* columns rows colors chars-per-pixel */
"29 27 11 1 ",
"  c gray10",
". c #3F3F3F",
"X c gray37",
"o c #5F5F5F",
"O c #646464",
"+ c DimGray",
"@ c #898989",
"# c #92B8B8",
"$ c #AEAEAE",
"% c #C3F6F6",
"& c gray91",
/* pixels */
"XXXXXXXXXXXXXXXXXXXXXXXXXXXXX",
"XXXXXXXXXXXXXXXXXXXXXXXXXXXXX",
"X###########################X",
"X$$$$$$$$$$$$$$$$$$$$$$$$$$$X",
"X$$$$$$$$$$$$$$$$$$$$$$$$$$$X",
"X$$$$$$$$$$$$$$$$$$$$$$$$$$$X",
"X$$$$$$$$$$$$$$$$$$$$$$$$$$$X",
"X$$$$$$$$$$$$$$$$$$$$$$$$$$$X",
"X$$$$$$$$$$$$$@$$$$$$$$$$$$$X",
"X$$$$$$$$$$$$O o$$$$$$$$$$$$X",
"X$$$$$$$$$$$O . O$$$$$$$$$$$X",
"X$$$$$$$$$$O O$+ o$$$$$$$$$$X",
"X$$$$$$$$$O O$$$+ o$$$$$$$$$X",
"X$$$$$$$$O O$$$$$+ o$$$$$$$$X",
"X$$$$$$$O O$$$$$$$+ o$$$$$$$X",
"X$$$$$$$$$$$$$$$$$$$$$$$$$$$X",
"X$$$$$$$$$$$$$$$$$$$$$$$$$$$X",
"X$$$$$$$$$$$$$$$$$$$$$$$$$$$X",
"X$$$$$$$$$$$$$$$$$$$$$$$$$$$X",
"X$$$$$$$$$$$$$$$$$$$$$$$$$$$X",
"X$$$$$$$$$$$$$$$$$$$$$$$$$$$X",
"X$$$$$$$$$$$$$$$$$$$$$$$$$$$X",
"X$$$$$$$$$$$$$$$$$$$$$$$$$$$X",
"XXXXXXXXXXXXXXXXXXXXXXXXXXXXX",
"XXXXXXXXXXXXXXXXXXXXXXXXXXXXX",
"%%%%%%%%%%%%%%%%%%%%%%%%%%%%%",
"&&&&&&&&&&&&&&&&&&&&&&&&&&&&&"
};
