/* XPM */
static char *maximize_toggled_active[] = {
/* columns rows colors chars-per-pixel */
"31 28 17 1 ",
"  c #232323",
". c #252525",
"X c #3A3A3A",
"o c gray23",
"O c gray24",
"+ c gray33",
"@ c #5F5F5F",
"# c #767676",
"$ c #A2A2A2",
"% c #A7A7A7",
"& c gray81",
"* c #D0D0D0",
"= c gray82",
"- c #F7C1C1",
"; c #E2DADA",
": c #C1F7F7",
"> c #E9E9E9",
/* pixels */
"@@@@@@@@@@@@@@@@@@@@@@@@@@@@@@@",
"@@@@@@@@@@@@@@@@@@@@@@@@@@@@@@@",
"@:::::::::::::::::::::::::::::@",
"@:>>>>>>>>>>>>>>>>>>>>>>>>>>>-@",
"@:>>>>>>>>>>>>>>>>>>>>>>>>>>>-@",
"@:>>>>>>>>>>>>>>>>>>>>>>>>>>>-@",
"@:>>>>>>>>>>>>=+&>>>>>>>>>>>>-@",
"@:>>>>>>>>>>>=O X&>>>>>>>>>>>-@",
"@:>>>>>>>>>>*o.#.o*>>>>>>>>>>-@",
"@:>>>>>>>>>=O.$>%.X&>>>>>>>>>-@",
"@:>>>>>>>>=O.$>>>%.X&>>>>>>>>-@",
"@:>>>>>>>=O.$>>>>>%.X&>>>>>>>-@",
"@:>>>>>>=O.$>>>>>>>%.X&>>>>>>-@",
"@:>>>>>>=O.$>>>>>>>%.X&>>>>>>-@",
"@:>>>>>>>=O.$>>>>>%.X&>>>>>>>-@",
"@:>>>>>>>>=O.$>>>%.X&>>>>>>>>-@",
"@:>>>>>>>>>=O.$>%.X&>>>>>>>>>-@",
"@:>>>>>>>>>>*o.#.o*>>>>>>>>>>-@",
"@:>>>>>>>>>>>=O X&>>>>>>>>>>>-@",
"@:>>>>>>>>>>>>*+*>>>>>>>>>>>>-@",
"@:>>>>>>>>>>>>>>>>>>>>>>>>>>>-@",
"@:>>>>>>>>>>>>>>>>>>>>>>>>>>>-@",
"@:>>>>>>>>>>>>>>>>>>>>>>>>>>>-@",
"@;----------------------------@",
"@@@@@@@@@@@@@@@@@@@@@@@@@@@@@@@",
"@@@@@@@@@@@@@@@@@@@@@@@@@@@@@@@",
":::::::::::::::::::::::::::::::",
">>>>>>>>>>>>>>>>>>>>>>>>>>>>>>>"
};
