/* XPM */
static char *maximize_pressed[] = {
/* columns rows colors chars-per-pixel */
"31 28 26 1 ",
"  c gray7",
". c #151515",
"X c #161616",
"o c gray12",
"O c #202020",
"+ c gray13",
"@ c #222222",
"# c gray18",
"$ c #3E4949",
"% c #434343",
"& c #4C4C4C",
"* c #535353",
"= c #626262",
"- c #838383",
"; c gray52",
": c gray53",
"> c #909090",
", c gray59",
"< c #989898",
"1 c #9A9A9A",
"2 c #AEAEAE",
"3 c #B2B2B2",
"4 c gray70",
"5 c #A2C2C2",
"6 c #CAF3F3",
"7 c gray88",
/* pixels */
"*******************************",
"*******************************",
"$55555555555555555555555555555$",
"%44444444444444444444444444444%",
"%44444444444444444444444444444%",
"%44444444444444444444444444444%",
"%44444444444444444444444444444%",
"%44444444444444444444444444444%",
"%44444444444444344444444444444%",
"%44444444444441#,4444444444444%",
"%4444444444441@ o,444444444444%",
"%44444444444<OX=XO<44444444444%",
"%44444444441@.-4:Xo,4444444444%",
"%4444444441+.-444:Xo,444444444%",
"%444444441+.-44444:Xo,44444444%",
"%44444444&X;4444444;X&44444444%",
"%444444442>444444444>244444444%",
"%44444444444444444444444444444%",
"%44444444444444444444444444444%",
"%44444444444444444444444444444%",
"%44444444444444444444444444444%",
"%44444444444444444444444444444%",
"%44444444444444444444444444444%",
"%44444444444444444444444444444%",
"%%%%%%%%%%%%%%%%%%%%%%%%%%%%%%%",
"*******************************",
"6666666666666666666666666666666",
"7777777777777777777777777777777"
};
