/* XPM */
static char *shade_active[] = {
/* columns rows colors chars-per-pixel */
"31 28 23 1 ",
"  c gray14",
". c #2C2C2C",
"X c gray18",
"o c gray19",
"O c gray20",
"+ c #373737",
"@ c gray26",
"# c #434343",
"$ c #4D5959",
"% c #505050",
"& c #535353",
"* c gray43",
"= c gray57",
"- c #B2B2B2",
"; c #B6B6B6",
": c #BBBBBB",
"> c #C1C1C1",
", c gray86",
"< c #DDDDDD",
"1 c #F0CDCD",
"2 c #E1DDDD",
"3 c #CDF0F0",
"4 c gray88",
/* pixels */
"&&&&&&&&&&&&&&&&&&&&&&&&&&&&&&&",
"&&&&&&&&&&&&&&&&&&&&&&&&&&&&&&&",
"$33333333333333333333333333333$",
"&34444444444444444444444444441&",
"&34444444444444444444444444441&",
"&34444444444444444444444444441&",
"&34444444444444444444444444441&",
"&34444444%###########%44444441&",
"&34444444@OOOOOOOOOOO@44444441&",
"&34444444444444444444444444441&",
"&34444444444444444444444444441&",
"&34444444444444,44444444444441&",
"&3444444444444;+-4444444444441&",
"&344444444444;X .-444444444441&",
"&34444444444;XX=XX;44444444441&",
"&3444444444;XX;4:o.-4444444441&",
"&344444444;XX;444:o.-444444441&",
"&34444444;XX;44444:o.-44444441&",
"&34444444*X;4444444;X*44444441&",
"&34444444<>444444444><44444441&",
"&34444444444444444444444444441&",
"&34444444444444444444444444441&",
"&34444444444444444444444444441&",
"&21111111111111111111111111111&",
"&&&&&&&&&&&&&&&&&&&&&&&&&&&&&&&",
"&&&&&&&&&&&&&&&&&&&&&&&&&&&&&&&",
"3333333333333333333333333333333",
"4444444444444444444444444444444"
};
