/* XPM */
static char *shade_prelight[] = {
/* columns rows colors chars-per-pixel */
"29 27 15 1 ",
"  c gray14",
". c gray34",
"X c gray37",
"o c #838383",
"O c gray54",
"+ c #8B8B8B",
"@ c #929292",
"# c gray",
"$ c #F9C6C6",
"% c #E6DEDE",
"& c #C3F6F6",
"* c #C6F9F9",
"= c #DBFAFA",
"- c gray91",
"; c #F1F1F1",
/* pixels */
"XXXXXXXXXXXXXXXXXXXXXXXXXXXXX",
"XXXXXXXXXXXXXXXXXXXXXXXXXXXXX",
"X===========================X",
"X*;;;;;;;;;;;;;;;;;;;;;;;;;$X",
"X*;;;;;;;;;;;;;;;;;;;;;;;;;$X",
"X*;;;;;;;;;;;;;;;;;;;;;;;;;$X",
"X*;;;;;;;;;;;;;;;;;;;;;;;;;$X",
"X*;;;;;;             ;;;;;;$X",
"X*;;;;;;OOOOOOOOOOOOO;;;;;;$X",
"X*;;;;;;;;;;;;;;;;;;;;;;;;;$X",
"X*;;;;;;;;;;;;;;;;;;;;;;;;;$X",
"X*;;;;;;;;;;;;#;;;;;;;;;;;;$X",
"X*;;;;;;;;;;;O o;;;;;;;;;;;$X",
"X*;;;;;;;;;;O . O;;;;;;;;;;$X",
"X*;;;;;;;;;O +;@ o;;;;;;;;;$X",
"X*;;;;;;;;O +;;;@ o;;;;;;;;$X",
"X*;;;;;;;O +;;;;;@ o;;;;;;;$X",
"X*;;;;;;O +;;;;;;;@ o;;;;;;$X",
"X*;;;;;;;;;;;;;;;;;;;;;;;;;$X",
"X*;;;;;;;;;;;;;;;;;;;;;;;;;$X",
"X*;;;;;;;;;;;;;;;;;;;;;;;;;$X",
"X*;;;;;;;;;;;;;;;;;;;;;;;;;$X",
"X%$$$$$$$$$$$$$$$$$$$$$$$$$$X",
"XXXXXXXXXXXXXXXXXXXXXXXXXXXXX",
"XXXXXXXXXXXXXXXXXXXXXXXXXXXXX",
"&&&&&&&&&&&&&&&&&&&&&&&&&&&&&",
"-----------------------------"
};
