/* XPM */
static char *stick_pressed[] = {
/* columns rows colors chars-per-pixel */
"35 28 51 1 ",
"  c #131313",
". c #151515",
"X c gray9",
"o c #585858",
"O c #636161",
"+ c #616363",
"@ c gray39",
"# c #636565",
"$ c #686868",
"% c gray50",
"& c #807E7E",
"* c #7B8383",
"= c #7E8080",
"- c #878181",
"; c #848484",
": c #838989",
"> c #828B8B",
", c #9B9B9B",
"< c gray62",
"1 c #AAAAAA",
"2 c #B6B6B6",
"3 c #B7B7B7",
"4 c gray72",
"5 c gray74",
"6 c #C3B7B7",
"7 c #A5C6C6",
"8 c #B7C3C3",
"9 c #B2C9C9",
"0 c #DDDDDD",
"q c #F7CECE",
"w c #E8DCDC",
"e c #F7D0D0",
"r c #F3D7D7",
"t c #CAEFEF",
"y c #DCE8E8",
"u c #CEF7F7",
"i c #D7F3F3",
"p c #D0F5F5",
"a c #D3F5F5",
"s c #D0F7F7",
"d c #D4F5F5",
"f c #DEF2F2",
"g c #EEE0E0",
"h c #E1EEEE",
"j c #EBE8E8",
"k c #E8EBEB",
"l c #ECEBEB",
"z c #EAECEC",
"x c #EAEDED",
"c c #ECECEC",
"v c #E3F0F0",
/* pixels */
"ooooooooooooooooooooooooooooooooooo",
"ooooooooooooooooooooooooooooooooooo",
"uoo77777777777777777777777777777oou",
"qoo55555555555555555555555555555oou",
"qoo55555555555555555555555555555oou",
"qoo55555555555555555555555555555oou",
"qoo55555555555555555555555555555oou",
"qoo55555555555555555555555555555oou",
"qoo55555555555555555555555555555oou",
"qoo55555555555555555555555555555oou",
"qoo55555555555555155555555555555oou",
"qoo5555555555555;X%5555555555555oou",
"qoo555555555555;. .%555555555555oou",
"qoo555555555555;. .%555555555555oou",
"qoo5555555555555;X%5555555555555oou",
"qoo55555555555555155555555555555oou",
"qoo55555555555555555555555555555oou",
"qoo55555555555555555555555555555oou",
"qoo55555555555555555555555555555oou",
"qoo55555555555555555555555555555oou",
"eOo35555555555555555555555555553o#s",
"r-o<555555555555555555555555555,o>a",
"g6o$255555555555555555555555552@o9f",
"lw&o@,45555555555555555555554,@o*px",
"cj0=ooooooooooooooooooooooooooo*tvc",
"ccky8:+ooooooooooooooooooooo+>9pvcc",
"ccczhisuuuuuuuuuuuuuuuuuuuuusdfxccc",
"ccccccccccccccccccccccccccccccccccc"
};
