/* XPM */
static char *stick_prelight[] = {
/* columns rows colors chars-per-pixel */
"35 28 64 1 ",
"  c #252525",
". c #272727",
"X c #2A2A2A",
"o c #535353",
"O c #605E5E",
"+ c #5E6060",
"@ c #5F6161",
"# c #726C6C",
"$ c #716F6F",
"% c #777A7A",
"& c #7F7D7D",
"* c #7D7F7F",
"= c #798383",
"- c #888181",
"; c #838A8A",
": c #808C8C",
"> c #818C8C",
", c #AAAAAA",
"< c gray69",
"1 c #C7B9B9",
"2 c #DEBCBC",
"3 c #B2CFCF",
"4 c #B9C8C8",
"5 c #DAC3C3",
"6 c #C4DCDC",
"7 c #DDDDDD",
"8 c gray87",
"9 c #FAC7C7",
"0 c #F9C9C9",
"q c #FAC9C9",
"w c #F8CACA",
"e c #FCC9C9",
"r c #E8D9D9",
"t c #EFDEDE",
"y c #F5D2D2",
"u c #D9E8E8",
"i c #DEEFEF",
"p c #C6F3F3",
"a c #CEF7F7",
"s c #C7FAFA",
"d c #C9F8F8",
"f c #C8F9F9",
"g c #C9FAFA",
"h c #CAFAFA",
"j c #C9FCFC",
"k c #D1F3F3",
"l c #D9F3F3",
"z c #E2E2E2",
"x c #EAE7E7",
"c c #E7EAEA",
"v c #ECEAEA",
"b c #E9EDED",
"n c #EAECEC",
"m c #ECECEC",
"M c #F8E0E0",
"N c #F9E1E1",
"B c #F0E8E8",
"V c #E1F1F1",
"C c #E8F0F0",
"Z c #E0FCFC",
"A c #F6F1F1",
"S c #F6F2F2",
"D c #F2F6F6",
"F c gray96",
/* pixels */
"ooooooooooooooooooooooooooooooooooo",
"ooooooooooooooooooooooooooooooooooo",
"sooZZZZZZZZZZZZZZZZZZZZZZZZZZZZZoos",
"9oojFFFFFFFFFFFFFFFFFFFFFFFFFFFeoos",
"9oojFFFFFFFFFFFFFFFFFFFFFFFFFFFeoos",
"9oojFFFFFFFFFFFFFFFFFFFFFFFFFFFeoos",
"9oojFFFFFFFFFFFFFFFFFFFFFFFFFFFeoos",
"9oojFFFFFFFFFFFFFFFFFFFFFFFFFFFeoos",
"9oojFFFFFFFFFFFFFFFFFFFFFFFFFFFeoos",
"9oojFFFFFFFFFFFFFFFFFFFFFFFFFFFeoos",
"9oojFFFFFFFFFFFFF8FFFFFFFFFFFFFeoos",
"9oojFFFFFFFFFFFF<X,FFFFFFFFFFFFeoos",
"9oojFFFFFFFFFFF<. .,FFFFFFFFFFFeoos",
"9oojFFFFFFFFFFF<. .,FFFFFFFFFFFeoos",
"9oojFFFFFFFFFFFF<X,FFFFFFFFFFFFeoos",
"9oojFFFFFFFFFFFFF8FFFFFFFFFFFFFeoos",
"9oojFFFFFFFFFFFFFFFFFFFFFFFFFFFeoos",
"9oojFFFFFFFFFFFFFFFFFFFFFFFFFFFeoos",
"9oojFFFFFFFFFFFFFFFFFFFFFFFFFFFeoos",
"9oojFFFFFFFFFFFFFFFFFFFFFFFFFFFeoos",
"0OohDFFFFFFFFFFFFFFFFFFFFFFFFFA0o@f",
"y-o6CFFFFFFFFFFFFFFFFFFFFFFFFFN2o>a",
"t1o%zBSFFFFFFFFFFFFFFFFFFFFFAMw#o3l",
"vr&o$5qeeeeeeeeeeeeeeeeeeeeeq2#o=db",
"mx7*ooooooooooooooooooooooooooo=pVm",
"mmcu4;+ooooooooooooooooooooo+:3dVmm",
"mmmnikgsssssssssssssssssssssgalbmmm",
"mmmmmmmmmmmmmmmmmmmmmmmmmmmmmmmmmmm"
};
