/* XPM */
static char *stick_active[] = {
/* columns rows colors chars-per-pixel */
"35 28 59 1 ",
"  c #232323",
". c gray15",
"X c gray16",
"o c #5D5D5D",
"O c #696767",
"+ c #676969",
"@ c #686A6A",
"# c #797373",
"$ c #787676",
"% c #7E8181",
"& c #868484",
"* c #848686",
"= c #808A8A",
"- c #8F8888",
"; c #879292",
": c #879393",
"> c #899090",
", c #A4A4A4",
"< c #A9A9A9",
"1 c #CABCBC",
"2 c #DDBBBB",
"3 c #BCCBCB",
"4 c #B5D2D2",
"5 c #D8C1C1",
"6 c #C3DBDB",
"7 c gray84",
"8 c gray87",
"9 c #DFDFDF",
"0 c #F5C7C7",
"q c #F7C6C6",
"w c #F7C7C7",
"e c #FAC7C7",
"r c #F9C9C9",
"t c #E8D9D9",
"y c #EFDEDE",
"u c #F5D2D2",
"i c #F3DBDB",
"p c #D9E8E8",
"a c #DEEFEF",
"s c #C7F4F4",
"d c #C7F7F7",
"f c #CEF7F7",
"g c #C7FAFA",
"h c #C9F8F8",
"j c #C8F9F9",
"k c #C9FAFA",
"l c #D1F3F3",
"z c #D9F3F3",
"x c #EBE3E3",
"c c #EAE7E7",
"v c #E3EBEB",
"b c #E7EAEA",
"n c #EDE8E8",
"m c #EDE9E9",
"M c #ECEAEA",
"N c #E9EDED",
"B c #EAECEC",
"V c #ECECEC",
"C c #E1F1F1",
/* pixels */
"ooooooooooooooooooooooooooooooooooo",
"ooooooooooooooooooooooooooooooooooo",
"googggggggggggggggggggggggggggggoog",
"eoogVVVVVVVVVVVVVVVVVVVVVVVVVVVeoog",
"eoogVVVVVVVVVVVVVVVVVVVVVVVVVVVeoog",
"eoogVVVVVVVVVVVVVVVVVVVVVVVVVVVeoog",
"eoogVVVVVVVVVVVVVVVVVVVVVVVVVVVeoog",
"eoogVVVVVVVVVVVVVVVVVVVVVVVVVVVeoog",
"eoogVVVVVVVVVVVVVVVVVVVVVVVVVVVeoog",
"eoogVVVVVVVVVVVVVVVVVVVVVVVVVVVeoog",
"eoogVVVVVVVVVVVVV7VVVVVVVVVVVVVeoog",
"eoogVVVVVVVVVVVV<X,VVVVVVVVVVVVeoog",
"eoogVVVVVVVVVVV<. .,VVVVVVVVVVVeoog",
"eoogVVVVVVVVVVV<. .,VVVVVVVVVVVeoog",
"eoogVVVVVVVVVVVV<X,VVVVVVVVVVVVeoog",
"eoogVVVVVVVVVVVVV7VVVVVVVVVVVVVeoog",
"eoogVVVVVVVVVVVVVVVVVVVVVVVVVVVeoog",
"eoogVVVVVVVVVVVVVVVVVVVVVVVVVVVeoog",
"eoogVVVVVVVVVVVVVVVVVVVVVVVVVVVeoog",
"eoogVVVVVVVVVVVVVVVVVVVVVVVVVVVeoog",
"rOodNVVVVVVVVVVVVVVVVVVVVVVVVVnwo@j",
"u-o6vVVVVVVVVVVVVVVVVVVVVVVVVVi2o;f",
"y1o%9xmVVVVVVVVVVVVVVVVVVVVVni0#o4z",
"Mt&o$5qeeeeeeeeeeeeeeeeeeeeeq2#o=hN",
"Vc8*ooooooooooooooooooooooooooo=sCV",
"VVbp3>+ooooooooooooooooooooo+:4hCVV",
"VVVBalkgggggggggggggggggggggkfzNVVV",
"VVVVVVVVVVVVVVVVVVVVVVVVVVVVVVVVVVV"
};
