/* XPM */
static char *stick_prelight[] = {
/* columns rows colors chars-per-pixel */
"35 28 61 1 ",
"  c #181818",
". c #1B1B1B",
"X c gray11",
"o c #1E1E1E",
"O c #585858",
"+ c #636161",
"@ c #616363",
"# c #636565",
"$ c #736E6E",
"% c #737171",
"& c #7A7C7C",
"* c #807E7E",
"= c #7B8383",
"- c #7E8080",
"; c #878181",
": c #838989",
"> c #828B8B",
", c gray65",
"< c #ACACAC",
"1 c #C3B7B7",
"2 c #DABFBF",
"3 c #B7C3C3",
"4 c #B2C9C9",
"5 c #D5C3C3",
"6 c #C6D8D8",
"7 c #DDDDDD",
"8 c gray87",
"9 c #F7CECE",
"0 c #E8DCDC",
"q c #F7D0D0",
"w c #F6D1D1",
"e c #F3D7D7",
"r c #FBD2D2",
"t c #CAEFEF",
"y c #DCE8E8",
"u c #CEF7F7",
"i c #D7F3F3",
"p c #D0F5F5",
"a c #D3F5F5",
"s c #D0F7F7",
"d c #D4F5F5",
"f c #DEF2F2",
"g c #D2FBFB",
"h c gray89",
"j c #EEE0E0",
"k c #E1EEEE",
"l c #EBE8E8",
"z c #E8EBEB",
"x c #ECEBEB",
"c c #EAECEC",
"v c #EAEDED",
"b c #ECECEC",
"n c #F9E6E6",
"m c #F3EDED",
"M c #E3F0F0",
"N c #EDF3F3",
"B c #E7FBFB",
"V c #F7F2F2",
"C c #F6F3F3",
"Z c #F3F6F6",
"A c #F6F6F6",
/* pixels */
"OOOOOOOOOOOOOOOOOOOOOOOOOOOOOOOOOOO",
"OOOOOOOOOOOOOOOOOOOOOOOOOOOOOOOOOOO",
"uOOBBBBBBBBBBBBBBBBBBBBBBBBBBBBBOOu",
"9OOgAAAAAAAAAAAAAAAAAAAAAAAAAAArOOu",
"9OOgAAAAAAAAAAAAAAAAAAAAAAAAAAArOOu",
"9OOgAAAAAAAAAAAAAAAAAAAAAAAAAAArOOu",
"9OOgAAAAAAAAAAAAAAAAAAAAAAAAAAArOOu",
"9OOgAAAAAAAAAAAAAAAAAAAAAAAAAAArOOu",
"9OOgAAAAAAAAAAAAAAAAAAAAAAAAAAArOOu",
"9OOgAAAAAAAAAAAAAAAAAAAAAAAAAAArOOu",
"9OOgAAAAAAAAAAAAA8AAAAAAAAAAAAArOOu",
"9OOgAAAAAAAAAAAA<o,AAAAAAAAAAAArOOu",
"9OOgAAAAAAAAAAA<X .,AAAAAAAAAAArOOu",
"9OOgAAAAAAAAAAA<X .,AAAAAAAAAAArOOu",
"9OOgAAAAAAAAAAAA<o,AAAAAAAAAAAArOOu",
"9OOgAAAAAAAAAAAAA8AAAAAAAAAAAAArOOu",
"9OOgAAAAAAAAAAAAAAAAAAAAAAAAAAArOOu",
"9OOgAAAAAAAAAAAAAAAAAAAAAAAAAAArOOu",
"9OOgAAAAAAAAAAAAAAAAAAAAAAAAAAArOOu",
"9OOgAAAAAAAAAAAAAAAAAAAAAAAAAAArOOu",
"q+OsZAAAAAAAAAAAAAAAAAAAAAAAAAVqO#s",
"e;O6NAAAAAAAAAAAAAAAAAAAAAAAAAn2O>a",
"j1O&hmCAAAAAAAAAAAAAAAAAAAAAVnw$O4f",
"x0*O%5qrrrrrrrrrrrrrrrrrrrrrq2$O=pv",
"bl7-OOOOOOOOOOOOOOOOOOOOOOOOOOO=tMb",
"bbzy3:@OOOOOOOOOOOOOOOOOOOOO@>4pMbb",
"bbbckisuuuuuuuuuuuuuuuuuuuuusdfvbbb",
"bbbbbbbbbbbbbbbbbbbbbbbbbbbbbbbbbbb"
};
