/* XPM */
static char *top_right_active[] = {
/* columns rows colors chars-per-pixel */
"6 28 20 1 ",
"  c #5F5F5F",
". c #606060",
"X c #646464",
"o c #656565",
"O c gray40",
"+ c gray42",
"@ c #767474",
"# c #7C7F7F",
"$ c #D2BABA",
"% c #BCD4D4",
"& c #D8D8D8",
"* c #F3C0C0",
"= c #F7C1C1",
"- c #E7DEDE",
"; c #DEE7E7",
": c #C0F3F3",
"> c #E9E6E6",
", c #E6E9E9",
"< c #E9E9E9",
"1 c None",
/* pixels */
".O+111",
"   X11",
":%# X1",
",;&@ +",
"<<-$ o",
"<<>* .",
"<<<=  ",
"<<<=  ",
"<<<=  ",
"<<<=  ",
"<<<=  ",
"<<<=  ",
"<<<=  ",
"<<<=  ",
"<<<=  ",
"<<<=  ",
"<<<=  ",
"<<<=  ",
"<<<=  ",
"<<<=  ",
"<<<=  ",
"<<<=  ",
"<<<=  ",
"<<<=  ",
"<<<=  ",
"<<<=  ",
"<<<=  ",
"<<<=  "
};
