<?xml version="1.0" encoding="UTF-8" standalone="no"?>
<!-- Created with Inkscape (http://www.inkscape.org/) -->

<svg
   xmlns:dc="http://purl.org/dc/elements/1.1/"
   xmlns:cc="http://creativecommons.org/ns#"
   xmlns:rdf="http://www.w3.org/1999/02/22-rdf-syntax-ns#"
   xmlns:svg="http://www.w3.org/2000/svg"
   xmlns="http://www.w3.org/2000/svg"
   xmlns:xlink="http://www.w3.org/1999/xlink"
   xmlns:sodipodi="http://sodipodi.sourceforge.net/DTD/sodipodi-0.dtd"
   xmlns:inkscape="http://www.inkscape.org/namespaces/inkscape"
   height="168"
   width="168"
   id="svg3124"
   sodipodi:version="0.32"
   inkscape:version="0.92.1 r15371"
   version="1.0"
   sodipodi:docname="clock.svg"
   inkscape:output_extension="org.inkscape.output.svg.inkscape">
  <sodipodi:namedview
     id="base"
     pagecolor="#a060a0"
     bordercolor="#646064"
     borderopacity="1.0"
     inkscape:pageopacity="0.5"
     inkscape:pageshadow="2"
     inkscape:cx="26"
     inkscape:cy="26"
     inkscape:zoom="15.596154"
     inkscape:document-units="px"
     inkscape:current-layer="layer1"
     showgrid="true"
     gridtolerance="10000"
     inkscape:grid-points="true"
     inkscape:window-width="1866"
     inkscape:window-height="1055"
     inkscape:window-x="0"
     inkscape:window-y="0"
     showguides="true"
     inkscape:guide-bbox="true"
     inkscape:window-maximized="1"
     fit-margin-top="0"
     fit-margin-left="0"
     fit-margin-right="0"
     fit-margin-bottom="0"
     inkscape:snap-bbox="true"
     inkscape:bbox-nodes="true"
     inkscape:snap-bbox-midpoints="true"
     inkscape:snap-nodes="true"
     inkscape:snap-others="false"
     inkscape:snap-grids="true"
     inkscape:bbox-paths="false">
    <inkscape:grid
       originy="-84"
       originx="-204"
       snapvisiblegridlinesonly="true"
       empspacing="5"
       type="xygrid"
       id="grid3133"
       visible="true"
       enabled="true"
       spacingx="1"
       spacingy="1" />
  </sodipodi:namedview>
  <defs
     id="defs3126">
    <linearGradient
       inkscape:collect="always"
       id="linearGradient4601">
      <stop
         style="stop-color:#c1ffff;stop-opacity:0.5"
         offset="0"
         id="stop4597" />
      <stop
         style="stop-color:#ffc1c1;stop-opacity:0.5"
         offset="1"
         id="stop4599" />
    </linearGradient>
    <linearGradient
       inkscape:collect="always"
       xlink:href="#linearGradient4601"
       id="linearGradient4569"
       x1="152"
       y1="458"
       x2="233"
       y2="539"
       gradientUnits="userSpaceOnUse"
       gradientTransform="translate(174.5,-590.13782)" />
  </defs>
  <metadata
     id="metadata3129">
    <rdf:RDF>
      <cc:Work
         rdf:about="">
        <dc:format>image/svg+xml</dc:format>
        <dc:type
           rdf:resource="http://purl.org/dc/dcmitype/StillImage" />
        <dc:title />
      </cc:Work>
    </rdf:RDF>
  </metadata>
  <g
     inkscape:groupmode="layer"
     inkscape:label="Warstwa 1"
     id="layer1"
     transform="translate(-167.5,213.13782)">
    <rect
       style="opacity:1;vector-effect:none;fill:#101010;fill-opacity:1;stroke:none;stroke-width:0.78315598;stroke-linecap:square;stroke-linejoin:miter;stroke-miterlimit:8.30000019;stroke-dasharray:none;stroke-dashoffset:0;stroke-opacity:1;marker:none"
       id="rect4571"
       width="3"
       height="10.999997"
       x="162.5"
       y="-212.13782" />
    <g
       id="ClockFace"
       inkscape:label="#g4625"
       transform="translate(-156,3)">
      <circle
         r="83"
         cy="-132.13782"
         cx="407.5"
         id="path4526-6"
         style="opacity:1;vector-effect:none;fill:#f7f7f7;fill-opacity:0.86;stroke:none;stroke-width:0.78790236;stroke-linecap:square;stroke-linejoin:miter;stroke-miterlimit:8.30000019;stroke-dasharray:none;stroke-dashoffset:0;stroke-opacity:1;marker:none" />
      <path
         id="path4526"
         transform="translate(167.5,-213.13782)"
         d="m 240,-3 a 84,84 0 0 0 -84,84 84,84 0 0 0 84,84 84,84 0 0 0 84,-84 84,84 0 0 0 -84,-84 z m 0,2 a 82,82 0 0 1 82,82 82,82 0 0 1 -82,82 82,82 0 0 1 -82,-82 82,82 0 0 1 82,-82 z"
         style="opacity:1;vector-effect:none;fill:#101010;fill-opacity:0.625;stroke:none;stroke-width:0.79739517;stroke-linecap:square;stroke-linejoin:miter;stroke-miterlimit:8.30000019;stroke-dasharray:none;stroke-dashoffset:0;stroke-opacity:1;marker:none"
         inkscape:connector-curvature="0" />
      <path
         inkscape:connector-curvature="0"
         id="path4526-7"
         d="m 407.5,-214.13782 a 82,82 0 0 0 -82,82 82,82 0 0 0 82,82 82,82 0 0 0 82,-82 82,82 0 0 0 -82,-82 z m 0,1 a 81,81 0 0 1 81,81 81,81 0 0 1 -81,81 81,81 0 0 1 -81,-81 81,81 0 0 1 81,-81 z"
         style="opacity:1;vector-effect:none;fill:url(#linearGradient4569);fill-opacity:1;stroke:none;stroke-width:0.7784096;stroke-linecap:square;stroke-linejoin:miter;stroke-miterlimit:8.30000019;stroke-dasharray:none;stroke-dashoffset:0;stroke-opacity:1;marker:none" />
      <use
         height="100%"
         width="100%"
         transform="translate(243.5,2.0000068)"
         id="use4573"
         xlink:href="#rect4571"
         y="0"
         x="0" />
      <use
         height="100%"
         width="100%"
         transform="rotate(180,285.75,-133.13782)"
         id="use4573-3"
         xlink:href="#rect4571"
         y="0"
         x="0" />
      <use
         x="0"
         y="0"
         xlink:href="#rect4571"
         id="use4590"
         transform="rotate(-90,286.75,-254.88782)"
         width="100%"
         height="100%" />
      <use
         x="0"
         y="0"
         xlink:href="#rect4571"
         id="use4592"
         transform="rotate(90,284.75,-11.387824)"
         width="100%"
         height="100%" />
      <use
         x="0"
         y="0"
         xlink:href="#rect4571"
         id="use4594"
         transform="rotate(-30,289.48207,-587.51501)"
         width="100%"
         height="100%" />
      <use
         x="0"
         y="0"
         xlink:href="#rect4571"
         id="use4596"
         transform="rotate(150,285.48204,-100.51501)"
         width="100%"
         height="100%" />
      <use
         height="100%"
         width="100%"
         transform="rotate(-120,286.32736,-203.43023)"
         id="use4598"
         xlink:href="#rect4571"
         y="0"
         x="0" />
      <use
         height="100%"
         width="100%"
         transform="rotate(60,284.01794,77.73936)"
         id="use4600"
         xlink:href="#rect4571"
         y="0"
         x="0" />
      <use
         x="0"
         y="0"
         xlink:href="#rect4571"
         id="use4602"
         transform="rotate(30,282.01793,321.23936)"
         width="100%"
         height="100%" />
      <use
         x="0"
         y="0"
         xlink:href="#rect4571"
         id="use4604"
         transform="rotate(-150,286.01796,-165.76064)"
         width="100%"
         height="100%" />
      <use
         height="100%"
         width="100%"
         transform="rotate(-60,287.48206,-344.01501)"
         id="use4606"
         xlink:href="#rect4571"
         y="0"
         x="0" />
      <use
         height="100%"
         width="100%"
         transform="rotate(120,285.17264,-62.845431)"
         id="use4608"
         xlink:href="#rect4571"
         y="0"
         x="0" />
    </g>
    <g
       transform="translate(25.646298,-27.279689)"
       id="MinuteHand"
       style="fill:#101010;fill-opacity:1"
       inkscape:label="#g4179">
      <circle
         id="path4143"
         style="color:#000000;display:inline;overflow:visible;visibility:visible;fill:#101010;fill-opacity:1;fill-rule:nonzero;stroke:none;stroke-width:1.25;marker:none;enable-background:accumulate"
         cx="225.8537"
         cy="-101.85813"
         r="2.5" />
      <rect
         y="-101.85813"
         x="224.3537"
         height="66"
         width="3"
         id="rect3373"
         style="color:#000000;display:inline;overflow:visible;visibility:visible;fill:#101010;fill-opacity:1;fill-rule:nonzero;stroke:none;stroke-width:4.34248114;marker:none;enable-background:accumulate" />
    </g>
    <g
       inkscape:label="#g4179"
       style="fill:#aa0000;fill-opacity:1"
       id="SecondHand"
       transform="translate(16.646302,-27.279689)">
      <ellipse
         cy="-101.85813"
         cx="225.8537"
         style="color:#000000;display:inline;overflow:visible;visibility:visible;fill:#aa0000;fill-opacity:1;fill-rule:nonzero;stroke:none;stroke-width:0.99999994;marker:none;enable-background:accumulate"
         id="circle4817"
         rx="2.000001"
         ry="1.9999988" />
      <rect
         style="color:#000000;display:inline;overflow:visible;visibility:visible;fill:#aa0000;fill-opacity:1;fill-rule:nonzero;stroke:none;stroke-width:3.07059765;marker:none;enable-background:accumulate"
         id="rect4819"
         width="1.5"
         height="66"
         x="225.1037"
         y="-101.85813" />
    </g>
    <g
       inkscape:label="#g4179"
       style="fill:#101010;fill-opacity:1"
       id="HourHand"
       transform="translate(34.646301,-27.279689)">
      <ellipse
         cy="-101.85813"
         cx="225.8537"
         style="color:#000000;display:inline;overflow:visible;visibility:visible;fill:#101010;fill-opacity:1;fill-rule:nonzero;stroke:none;stroke-width:1.5;marker:none;enable-background:accumulate"
         id="circle4823"
         rx="3"
         ry="2.9999998" />
      <rect
         style="color:#000000;display:inline;overflow:visible;visibility:visible;fill:#101010;fill-opacity:1;fill-rule:nonzero;stroke:none;stroke-width:4.09413052;marker:none;enable-background:accumulate"
         id="rect4825"
         width="4"
         height="44"
         x="223.8537"
         y="-101.85813" />
    </g>
  </g>
</svg>
