/* XPM */
static char *bottom_left_active[] = {
/* columns rows colors chars-per-pixel */
"6 6 19 1 ",
"  c #010101",
". c gray6",
"X c #111111",
"o c #131313",
"O c #151515",
"+ c #181818",
"@ c gray12",
"# c #202020",
"$ c #3E3E3E",
"% c #868686",
"& c #888888",
"* c #A2A2A2",
"= c gray65",
"- c #A7A7A7",
"; c #ACACAC",
": c #B2B2B2",
"> c #BBBBBB",
", c #BCBCBC",
"< c None",
/* pixels */
",*#+++",
">=$o++",
"<:%X.O",
"<>;&@ ",
"<<>:-*",
"<<<<,,"
};
