/* XPM */
static char *close_pressed[] = {
/* columns rows colors chars-per-pixel */
"30 28 20 1 ",
"  c gray8",
". c #222247",
"X c #23234A",
"o c #24244D",
"O c #24244E",
"+ c #272750",
"@ c #424265",
"# c #4A4A6B",
"$ c #4D4D6E",
"% c #4E4E6F",
"& c #515171",
"* c #73738B",
"= c #8E8E8E",
"- c #9494A5",
"; c #9696A7",
": c #D3D3D6",
"> c #D6D6D8",
", c #D8D8D9",
"< c gray88",
"1 c None",
/* pixels */
"==========================1111",
"==========================1111",
"-OOOOOOOOOOOOOOOOOOOOOOOOOOX11",
"-OOOOOOOOOOOOOOOOOOOOOOOOOOOo1",
"-OOOOOOOOOOOOOOOOOOOOOOOOOOOO.",
"-OOOOOOOOOOOOOOOOOOOOOOOOOOOOo",
"-OOOOOOOO+@OOOOOOOOO@+OOOOOOOO",
"-OOOOOOOO;>%OOOOOOO%>;OOOOOOOO",
"-OOOOOOOO#:,&OOOOO%>>$OOOOOOOO",
"-OOOOOOOOO#:,&OOO%>>$OOOOOOOOO",
"-OOOOOOOOOO#:,&O%>>$OOOOOOOOOO",
"-OOOOOOOOOOO%>>*>>%OOOOOOOOOOO",
"-OOOOOOOOOOOO#:<>$OOOOOOOOOOOO",
"-OOOOOOOOOOOO%><,&OOOOOOOOOOOO",
"-OOOOOOOOOOO%>>*>>%OOOOOOOOOOO",
"-OOOOOOOOOO%>>$O#:,&OOOOOOOOOO",
"-OOOOOOOOO%>>$OOO#:,&OOOOOOOOO",
"-OOOOOOOO%>>$OOOOO#:,&OOOOOOOO",
"-OOOOOOOO;>%OOOOOOO%>;OOOOOOOO",
"-OOOOOOOO+@OOOOOOOOO@+OOOOOOOO",
"-OOOOOOOOOOOOOOOOOOOOOOOOOOOOO",
"-OOOOOOOOOOOOOOOOOOOOOOOOOOOOO",
"-OOOOOOOOOOOOOOOOOOOOOOOOOOOOO",
"-OOOOOOOOOOOOOOOOOOOOOOOOOOOOO",
"------------------------------",
"==============================",
"                              ",
"                              "
};
