/* XPM */
static char *close_active[] = {
/* columns rows colors chars-per-pixel */
"30 28 15 1 ",
"  c gray8",
". c gray9",
"X c #353535",
"o c gray24",
"O c #414141",
"+ c gray26",
"@ c gray27",
"# c #6A6A6A",
"$ c #8E8E8E",
"% c #909090",
"& c #D2D2D2",
"* c #D5D5D5",
"= c #D7D7D7",
"- c gray88",
"; c None",
/* pixels */
"$$$$$$$$$$$$$$$$$$$$$$$$$$;;;;",
"$$$$$$$$$$$$$$$$$$$$$$$$$$;;;;",
"$                         ;;;;",
"$                         ;;;;",
"$                         ;;;;",
"$                         ;;;;",
"$        .X         X.        ",
"$        %*+       +*%        ",
"$        o&=@     +**O        ",
"$         o&=@   +**O         ",
"$          o&=@ +**O          ",
"$           +**#**+           ",
"$            o&-*O            ",
"$            +*-=@            ",
"$           +**#**+           ",
"$          +**O o&=@          ",
"$         +**O   o&=@         ",
"$        +**O     o&=@        ",
"$        %*+       +*%        ",
"$        .X         X.        ",
"$                             ",
"$                             ",
"$                             ",
"$                             ",
"$$$$$$$$$$$$$$$$$$$$$$$$$$$$$$",
"$$$$$$$$$$$$$$$$$$$$$$$$$$$$$$",
"                              ",
"                              "
};
