/* XPM */
static char *hide_active[] = {
/* columns rows colors chars-per-pixel */
"33 28 55 1 ",
"  c #070707",
". c #090808",
"X c #080909",
"o c #090909",
"O c #0A0808",
"+ c #080A0A",
"@ c #0D0B0B",
"# c #0B0D0D",
"$ c #1D0606",
"% c #130808",
"& c #100A0A",
"* c #1A0F0F",
"= c #0A1010",
"- c #081313",
"; c #061D1D",
": c #0F1A1A",
"> c gray9",
", c gray10",
"< c #250303",
"1 c #240404",
"2 c #270707",
"3 c #032525",
"4 c #042424",
"5 c #072727",
"6 c #1F2F2F",
"7 c gray14",
"8 c gray16",
"9 c gray17",
"0 c #2C2C2C",
"q c #312121",
"w c #362C2C",
"e c #2C3636",
"r c #414141",
"t c #434343",
"y c gray28",
"u c #5A5555",
"i c #545959",
"p c #5C5B5B",
"a c #5B5C5C",
"s c #5F6161",
"d c #666464",
"f c #6F6E6E",
"g c #6E6F6F",
"h c #717171",
"j c gray46",
"k c #7C7C7C",
"l c #728484",
"z c gray70",
"x c gray72",
"c c gray77",
"v c #C6C6C6",
"b c gray78",
"n c gray82",
"m c #D2D2D2",
"M c #D7D7D7",
/* pixels */
"kkkkkkkkkkkkkkkkkkkkkkkkkkkkkkkkk",
"jjjjjjjjjjjjjjjjjjjjjjjjjjjjjjjjj",
"3ll33333333333333333333333333333l",
"<jj3                           <j",
"<jj3                           <j",
"<jj3                           <j",
"<jj3                           <j",
"<jj3                           <j",
"<jj3                           <j",
"<jj3                           <j",
"<jj3      7xbt       tbx7      <j",
"<jj3       8cmy     rnv0       <j",
"<jj3        8cmy   rnv0        <j",
"<jj3         8cmy rnv0         <j",
"<jj3          9vnhnv9          <j",
"<jj3           8cMv0           <j",
"<jj3            8z0            <j",
"<jj3             o             <j",
"<jj3                           <j",
"<jj3                           <j",
"1fj5+                          <j",
"$uj6=                          <j",
"%wjs>&O                        <j",
".*pjdq2<<<<<<<<<<<<<<<<<<<<<<<<<j",
" @,ajjjjjjjjjjjjjjjjjjjjjjjjjjjjj",
"  #:eigjjjjjjjjjjjjjjjjjjjjjjjjjj",
"   X-;433333333333333333333333333",
"                                 "
};
