/* XPM */
static char *hide_prelight[] = {
/* columns rows colors chars-per-pixel */
"33 28 66 1 ",
"  c #070707",
". c #090808",
"X c #080909",
"o c #0D0B0B",
"O c #0B0D0D",
"+ c #1D0606",
"@ c #130808",
"# c #081313",
"$ c #061D1D",
"% c #1C1111",
"& c #111C1C",
"* c #1E1E1E",
"= c #250303",
"- c #240404",
"; c #381616",
": c #3B1C1C",
"> c #032525",
", c #042424",
"< c #163838",
"1 c #1C3B3B",
"2 c #2E2727",
"3 c #272E2E",
"4 c #2D2D2D",
"5 c #2E2C2C",
"6 c #2C2E2E",
"7 c gray18",
"8 c #2F2F2F",
"9 c gray20",
"0 c #413939",
"q c #294646",
"w c #394141",
"e c #4F4242",
"r c #404C4C",
"t c #484848",
"y c gray29",
"u c #4B4B4B",
"i c #4C4C4C",
"p c gray32",
"a c gray36",
"s c gray37",
"d c #615E5E",
"f c #5D6060",
"g c gray38",
"h c #636262",
"j c #626363",
"k c #717171",
"l c gray46",
"z c #7A7B7B",
"x c #7B7B7B",
"c c #7C7C7C",
"v c #7E7C7C",
"b c gray50",
"n c #728484",
"m c #838383",
"M c #848484",
"N c gray53",
"B c #888888",
"V c #869494",
"C c #9B9B9B",
"Z c #BBBBBB",
"A c gray79",
"S c #CBCBCB",
"D c gray80",
"F c LightGray",
"G c #D5D5D5",
"H c gray85",
/* pixels */
"ccccccccccccccccccccccccccccccccc",
"lllllllllllllllllllllllllllllllll",
">nVqqqqqqqqqqqqqqqqqqqqqqqqqqqqqV",
"=lB<444444444444444444444444444;B",
"=lB<444444444444444444444444444;B",
"=lB<444444444444444444444444444;B",
"=lB<444444444444444444444444444;B",
"=lB<444444444444444444444444444;B",
"=lB<444444444444444444444444444;B",
"=lB<44444449p444444444p94444444;B",
"=lB<4444444CFs4444444sFC4444444;B",
"=lB<4444444tAGg44444aFDi4444444;B",
"=lB<44444444tAGg444aFDi44444444;B",
"=lB<444444444tAGg4aFSi444444444;B",
"=lB<4444444444ySFMFSy4444444444;B",
"=lB<44444444444tAHSu44444444444;B",
"=lB<444444444444tZu444444444444;B",
"=lB<444444444444484444444444444;B",
"=lB<444444444444444444444444444;B",
"=lB<444444444444444444444444444;B",
"-kN1644444444444444444444444444;B",
"+dmr344444444444444444444444444;B",
"@0xz725444444444444444444444444;B",
".%hbve:;;;;;;;;;;;;;;;;;;;;;;;;;B",
" o*jxmNBBBBBBBBBBBBBBBBBBBBBBBBBB",
"  O&wfkllllllllllllllllllllllllll",
"   X#$,>>>>>>>>>>>>>>>>>>>>>>>>>>",
"                                 "
};
