/* XPM */
static char *hide_pressed[] = {
/* columns rows colors chars-per-pixel */
"31 27 35 1 ",
"  c black",
". c #010101",
"X c gray2",
"o c #070707",
"O c #090909",
"+ c gray4",
"@ c #0C0C0C",
"# c #111111",
"$ c gray7",
"% c #131313",
"& c #151515",
"* c #161616",
"= c #181818",
"- c #2A2A2A",
"; c gray17",
": c #2C2C2C",
"> c #2D2D2D",
", c gray27",
"< c gray31",
"1 c #555555",
"2 c #5B5B5B",
"3 c #646464",
"4 c #6F6F6F",
"5 c gray45",
"6 c #747474",
"7 c gray46",
"8 c #797979",
"9 c #808080",
"0 c gray53",
"q c #888888",
"w c #8B8B8B",
"e c #8D8D8D",
"r c gray56",
"t c #929292",
"y c #AAAAAA",
/* pixels */
"yyyyyyyyyyyyyyyyyyyyyyyyyyyyyyy",
"ttttttttttttttttttttttttttttttt",
"=tq                           q",
" tq                           q",
" tq                           q",
" tq                           q",
" tq                           q",
" tq                           q",
" tq                           q",
" tq       <y2       1y1       q",
" tq        <y2     1y1        q",
" tq         <y2   1y1         q",
" tq          <y2 1y1          q",
" tq           1y9y1           q",
" tq            <y1            q",
" tq             -             q",
" tq                           q",
" tq                           q",
" tq                           q",
".0qo                          q",
"X3w;                          q",
"@:r5O                         q",
"*+4e8>o                       q",
"=$%6rwqqqqqqqqqqqqqqqqqqqqqqqqq",
"==%#,7etttttttttttttttttttttttt",
"====&*=========================",
"==============================="
};
