/* XPM */
static char *maximize_toggled_active[] = {
/* columns rows colors chars-per-pixel */
"31 28 15 1 ",
"  c gray8",
". c #2C2C2C",
"X c #2D2D2D",
"o c #2F2F2F",
"O c #585858",
"+ c gray37",
"@ c gray54",
"# c #8E8E8E",
"$ c #AEAEAE",
"% c #C5C5C5",
"& c gray78",
"* c #C8C8C8",
"= c gainsboro",
"- c #DDDDDD",
"; c gray88",
/* pixels */
"###############################",
"###############################",
"#                             #",
"#                             #",
"#                             #",
"#                             #",
"#             .$o             #",
"#            .%;*o            #",
"#           X&-@-&X           #",
"#          .%-+ O=*o          #",
"#         .%-+   O=*o         #",
"#        .%-+     O=*o        #",
"#       .%-+       O=*o       #",
"#       .%-+       O=*o       #",
"#        .%-+     O=*o        #",
"#         .%-+   O=*o         #",
"#          .%-+ O=*o          #",
"#           X&-@-&X           #",
"#            .%;*o            #",
"#             X$X             #",
"#                             #",
"#                             #",
"#                             #",
"#                             #",
"###############################",
"###############################",
"                               ",
"                               "
};
