/* XPM */
static char *shade_prelight[] = {
/* columns rows colors chars-per-pixel */
"29 27 17 1 ",
"  c gray6",
". c #362929",
"X c gray22",
"o c #4E0C0C",
"O c #034646",
"+ c #0C4E4E",
"@ c #2B6262",
"# c gray40",
"$ c #808080",
"% c gray55",
"& c gray57",
"* c #929292",
"= c #979797",
"- c #86A2A2",
"; c #BBBBBB",
": c #DFDFDF",
"> c gray88",
/* pixels */
":::::::::::::::::::::::::::::",
"$$$$$$$$$$$$$$$$$$$$$$$$$$$$$",
"-@@@@@@@@@@@@@@@@@@@@@@@@@@@-",
"&+XXXXXXXXXXXXXXXXXXXXXXXXXo&",
"&+XXXXXXXXXXXXXXXXXXXXXXXXXo&",
"&+XXXXXXXXXXXXXXXXXXXXXXXXXo&",
"&+XXXXXXXXXXXXXXXXXXXXXXXXXo&",
"&+XXXXXX>>>>>>>>>>>>>XXXXXXo&",
"&+XXXXXX&&&&&&&&&&&&&XXXXXXo&",
"&+XXXXXXXXXXXXXXXXXXXXXXXXXo&",
"&+XXXXXXXXXXXXXXXXXXXXXXXXXo&",
"&+XXXXXXXXXXXX#XXXXXXXXXXXXo&",
"&+XXXXXXXXXXX&>=XXXXXXXXXXXo&",
"&+XXXXXXXXXX&>;>&XXXXXXXXXXo&",
"&+XXXXXXXXX&>*X%>=XXXXXXXXXo&",
"&+XXXXXXXX&>*XXX%>=XXXXXXXXo&",
"&+XXXXXXX&>*XXXXX%>=XXXXXXXo&",
"&+XXXXXX&>*XXXXXXX%>=XXXXXXo&",
"&+XXXXXXXXXXXXXXXXXXXXXXXXXo&",
"&+XXXXXXXXXXXXXXXXXXXXXXXXXo&",
"&+XXXXXXXXXXXXXXXXXXXXXXXXXo&",
"&+XXXXXXXXXXXXXXXXXXXXXXXXXo&",
"&.oooooooooooooooooooooooooo&",
"&&&&&&&&&&&&&&&&&&&&&&&&&&&&&",
"$$$$$$$$$$$$$$$$$$$$$$$$$$$$$",
"OOOOOOOOOOOOOOOOOOOOOOOOOOOOO",
"                             "
};
