/* XPM */
static char *shade_pressed[] = {
/* columns rows colors chars-per-pixel */
"31 28 22 1 ",
"  c gray8",
". c #24244E",
"X c #26264F",
"o c #292952",
"O c #3F3F63",
"+ c #464668",
"@ c #49496A",
"# c #4A4A6B",
"$ c #4D4D6E",
"% c #6B6B85",
"& c #8E8E8E",
"* c #8B8B9E",
"= c #9494A5",
"- c #A5A5B2",
"; c #B2B2BC",
": c #B3B3BD",
"> c #BDBDC5",
", c #C0C0C7",
"< c #C3C3C9",
"1 c #C4C4CB",
"2 c #C6C6CC",
"3 c #CECED2",
/* pixels */
"&&&&&&&&&&&&&&&&&&&&&&&&&&&&&&&",
"&&&&&&&&&&&&&&&&&&&&&&&&&&&&&&&",
"=.............................=",
"=.............................=",
"=.............................=",
"=.............................=",
"=.............................=",
"=........-;;;;;;;;;;;-........=",
"=........:,,,,,,,,,,,:........=",
"=.............................=",
"=.............................=",
"=..............o..............=",
"=.............#>$.............=",
"=............#132$............=",
"=...........#11%11#...........=",
"=..........#11@.+<2$..........=",
"=.........#11@...+<2$.........=",
"=........#11@.....+<2$........=",
"=........*1#.......#1*........=",
"=........XO.........OX........=",
"=.............................=",
"=.............................=",
"=.............................=",
"=.............................=",
"===============================",
"&&&&&&&&&&&&&&&&&&&&&&&&&&&&&&&",
"                               ",
"                               "
};
