/* XPM */
static char *stick_prelight[] = {
/* columns rows colors chars-per-pixel */
"33 27 53 1 ",
"  c black",
". c #010101",
"X c gray1",
"o c #040404",
"O c gray2",
"+ c #060606",
"@ c gray4",
"# c #0C0C0C",
"$ c #111111",
"% c gray7",
"& c #131313",
"* c #151515",
"= c #161616",
"- c #181818",
"; c #1B1B1B",
": c gray12",
"> c #222222",
", c gray15",
"< c #272727",
"1 c gray16",
"2 c #2C2C2C",
"3 c gray18",
"4 c #3A3A3A",
"5 c #3E3E3E",
"6 c #3F3F3F",
"7 c gray27",
"8 c gray28",
"9 c #4C4C4C",
"0 c gray32",
"q c #565656",
"w c #626262",
"e c gray39",
"r c #646464",
"t c #6F6F6F",
"y c #747474",
"u c gray46",
"i c gray47",
"p c gray48",
"a c #7C7C7C",
"s c gray49",
"d c #7E7E7E",
"f c #818181",
"g c #868686",
"h c gray53",
"j c #8D8D8D",
"k c #8E8E8E",
"l c #929292",
"z c gray58",
"x c #959595",
"c c #979797",
"v c #989898",
"b c gray60",
"n c #AAAAAA",
/* pixels */
"nnnnnnnnnnnnnnnnnnnnnnnnnnnnnnnnn",
"lllllllllllllllllllllllllllllllll",
"-lb888888888888888888888888888bl-",
" lb88888888888888888888888888 bl-",
" lb88888888888888888888888888 bl-",
" lb88888888888888888888888888 bl-",
" lb88888888888888888888888888 bl-",
" lb88888888888888888888888888 bl-",
" lb88888888888888888888888888 bl-",
" lb88888888888888888888888888 bl-",
" lb8888888888888w888888888888 bl-",
" lb888888888888anf88888888888 bl-",
" lb88888888888ennne8888888888 bl-",
" lb888888888888ins88888888888 bl-",
" lb8888888888888w888888888888 bl-",
" lb88888888888888888888888888 bl-",
" lb88888888888888888888888888 bl-",
" lb88888888888888888888888888 bl-",
" lb88888888888888888888888888 bl-",
".hv97888888888888888888888885ovj-",
"Orcq488888888888888888888888>:cp-",
"#2zg<3688888888888888888885>+fz0-",
"=@txg1X                   X:fxd;-",
"-%&yzcvbbbbbbbbbbbbbbbbbbbvczd,--",
"--&$7ujlllllllllllllllllllkp0;---",
"----*=---------------------------",
"---------------------------------"
};
