/* XPM */
static char *close_pressed[] = {
/* columns rows colors chars-per-pixel */
"36 32 17 1 ",
"  c black",
". c #010101",
"X c #060606",
"o c #0E0E0E",
"O c #181818",
"+ c gray10",
"@ c #1E1E1E",
"# c #3A3A3A",
"$ c #626262",
"% c DimGray",
"& c gray44",
"* c #777777",
"= c #A9A9A9",
"- c gray76",
"; c #C6C6C6",
": c gray88",
"> c None",
/* pixels */
"                                >>>>",
"                                >>>>",
"                                .X>>",
"                                  .>",
"                                   X",
"                                   .",
"           o             o          ",
"          +-*           &;@         ",
"          $::&         &::$         ",
"           %::*       &::&          ",
"            %::*     &::&           ",
"             %::*   &::&            ",
"              %::* &::&             ",
"               &::=::&              ",
"                %:::&               ",
"                &:::*               ",
"               &::=::&              ",
"              &::& %::*             ",
"             &::&   %::*            ",
"            &::&     %::*           ",
"           &::&       %::*          ",
"          $::&         &::$         ",
"          +-&           %;@         ",
"           o             o          ",
"                                    ",
"                                    ",
"                                    ",
"                                    ",
"                                    ",
"                                    ",
"%%%%%%%%%%%%%%%%%%%%%%%%%%%%%%%%%%%#",
"OOOOOOOOOOOOOOOOOOOOOOOOOOOOOOOOOOO#"
};
