/* XPM */
static char *close_active[] = {
/* columns rows colors chars-per-pixel */
"36 32 20 1 ",
"  c gray2",
". c #0C0C0C",
"X c #181818",
"o c gray10",
"O c gray14",
"+ c gray18",
"@ c #313131",
"# c #3A3A3A",
"$ c #5A5A5A",
"% c #6C6C6C",
"& c gray44",
"* c #777777",
"= c gray47",
"- c #7E7E7E",
"; c #808080",
": c #A7A7A7",
"> c gray74",
", c #C0C0C0",
"< c gray84",
"1 c None",
/* pixels */
"                                1111",
"                                1111",
"o;;;;;;;;;;;;;;;;;;;;;;;;;;;;;;;1111",
" ;XXXXXXXXXXXXXXXXXXXXXXXXXXXXXX1111",
" ;XXXXXXXXXXXXXXXXXXXXXXXXXXXXXX1111",
" ;XXXXXXXXXXXXXXXXXXXXXXXXXXXXXX1111",
" ;XXXXXXXXXOXXXXXXXXXXXXXOXXXXXXXXX#",
" ;XXXXXXXX+>-XXXXXXXXXXX=,@XXXXXXXX#",
" ;XXXXXXXX%<<=XXXXXXXXX=<<%XXXXXXXX#",
" ;XXXXXXXXX&<<-XXXXXXX=<<*XXXXXXXXX#",
" ;XXXXXXXXXX&<<-XXXXX=<<*XXXXXXXXXX#",
" ;XXXXXXXXXXX&<<-XXX=<<*XXXXXXXXXXX#",
" ;XXXXXXXXXXXX&<<-X=<<*XXXXXXXXXXXX#",
" ;XXXXXXXXXXXXX=<<:<<=XXXXXXXXXXXXX#",
" ;XXXXXXXXXXXXXX&<<<*XXXXXXXXXXXXXX#",
" ;XXXXXXXXXXXXXX=<<<-XXXXXXXXXXXXXX#",
" ;XXXXXXXXXXXXX=<<:<<=XXXXXXXXXXXXX#",
" ;XXXXXXXXXXXX=<<*X&<<-XXXXXXXXXXXX#",
" ;XXXXXXXXXXX=<<*XXX&<<-XXXXXXXXXXX#",
" ;XXXXXXXXXX=<<*XXXXX&<<-XXXXXXXXXX#",
" ;XXXXXXXXX=<<*XXXXXXX&<<-XXXXXXXXX#",
" ;XXXXXXXX%<<=XXXXXXXXX=<<%XXXXXXXX#",
" ;XXXXXXXX+>*XXXXXXXXXXX&,@XXXXXXXX#",
" ;XXXXXXXXXOXXXXXXXXXXXXXOXXXXXXXXX#",
" ;XXXXXXXXXXXXXXXXXXXXXXXXXXXXXXXXX#",
" ;XXXXXXXXXXXXXXXXXXXXXXXXXXXXXXXXX#",
" ;XXXXXXXXXXXXXXXXXXXXXXXXXXXXXXXXX#",
" $##################################",
"                                   .",
"                                   .",
";;;;;;;;;;;;;;;;;;;;;;;;;;;;;;;;;;;#",
"XXXXXXXXXXXXXXXXXXXXXXXXXXXXXXXXXXX#"
};
