/* XPM */
static char *maximize_toggled_prelight[] = {
/* columns rows colors chars-per-pixel */
"35 31 36 1 ",
"  c black",
". c #020202",
"X c #060606",
"o c gray6",
"O c gray7",
"+ c gray17",
"@ c #2C2C2C",
"# c #2D2D2D",
"$ c gray18",
"% c gray26",
"& c #434343",
"* c #444444",
"= c #464646",
"- c gray28",
"; c #484848",
": c #4C4C4C",
"> c #646464",
", c #797979",
"< c gray53",
"1 c gray60",
"2 c #9A9A9A",
"3 c gray62",
"4 c #9F9F9F",
"5 c #A0A0A0",
"6 c gray72",
"7 c gray75",
"8 c gray77",
"9 c gray79",
"0 c #CBCBCB",
"q c gray80",
"w c #CDCDCD",
"e c #CECECE",
"r c gray81",
"t c #D0D0D0",
"y c gray82",
"u c gray88",
/* pixels */
"                                   ",
"...................................",
"O<<<<<<<<<<<<<<<<<<<<<<<<<<<<<<<<<O",
"X<+++++++++++++++++++++++++++++++%X",
"X<+++++++++++++++++++++++++++++++%X",
"X<+++++++++++++++++++++++++++++++%X",
"X<++++++++++++++&6-++++++++++++++%X",
"X<+++++++++++++&0ue-+++++++++++++%X",
"X<++++++++++++=wu9uw=++++++++++++%X",
"X<+++++++++++&qu4$2ue;+++++++++++%X",
"X<++++++++++*qu4#+@2ue;++++++++++%X",
"X<+++++++++;eu3#+++@1ut:+++++++++%X",
"X<++++++++;ru3#+++++@1ut:++++++++%X",
"X<+++++++;ru3@+++++++@1uy:+++++++%X",
"X<++++++@7u8#+++++++++#8u7@++++++%X",
"X<+++++++;ru3#+++++++@1ut:+++++++%X",
"X<++++++++;eu3#+++++@1ut:++++++++%X",
"X<+++++++++*qu4#+++@2ue;+++++++++%X",
"X<++++++++++*qu4#+@2ue;++++++++++%X",
"X<+++++++++++&0u5$2ue-+++++++++++%X",
"X<++++++++++++=wu9uw=++++++++++++%X",
"X<+++++++++++++&0uw-+++++++++++++%X",
"X<++++++++++++++*6*++++++++++++++%X",
"X<+++++++++++++++++++++++++++++++%X",
"X<+++++++++++++++++++++++++++++++%X",
"X<+++++++++++++++++++++++++++++++%X",
"X>%%%%%%%%%%%%%%%%%%%%%%%%%%%%%%%%X",
"XXXXXXXXXXXXXXXXXXXXXXXXXXXXXXXXXXX",
"...................................",
",,,,,,,,,,,,,,,,,,,,,,,,,,,,,,,,,,,",
"ooooooooooooooooooooooooooooooooooo"
};
