/* XPM */
static char *maximize_toggled_pressed[] = {
/* columns rows colors chars-per-pixel */
"37 32 13 1 ",
"  c black",
". c gray2",
"X c #181818",
"o c #191919",
"O c #1B1B1B",
"+ c gray11",
"@ c #353535",
"# c #808080",
"$ c #A0A0A0",
"% c #B9B9B9",
"& c gray73",
"* c #BCBCBC",
"= c #D5D5D5",
/* pixels */
".....................................",
".....................................",
"                                     ",
"                                     ",
"                                     ",
"                                     ",
"                 o$+                 ",
"                o%=*+                ",
"               o%===*+               ",
"              o%=*@%=*+              ",
"             o%=*+ o%=*+             ",
"            o%=*+   o%=*+            ",
"           o%=*+     o%=*+           ",
"          o%=*+       o%=*+          ",
"         o%=*+         o%=*+         ",
"         o%=*+         o%=*+         ",
"          o%=*+       o%=*+          ",
"           o%=*+     o%=*+           ",
"            o%=*+   o%=*+            ",
"             o%=*+ o%=*+             ",
"              O&=&@&=&O              ",
"               o%===*+               ",
"                o%=*+                ",
"                 O$O                 ",
"                                     ",
"                                     ",
"                                     ",
"                                     ",
"                                     ",
".....................................",
"#####################################",
"XXXXXXXXXXXXXXXXXXXXXXXXXXXXXXXXXXXXX"
};
