/* XPM */
static char *shade_prelight[] = {
/* columns rows colors chars-per-pixel */
"37 32 17 1 ",
"  c gray2",
". c gray3",
"X c #131313",
"o c gray8",
"O c #202020",
"+ c gray21",
"@ c gray29",
"# c #4E4E4E",
"$ c #606060",
"% c gray40",
"& c #767676",
"* c #797979",
"= c #868686",
"- c #8B8B8B",
"; c #909090",
": c #B6B6B6",
"> c gray88",
/* pixels */
"XXXXXXXXXXXXXXXXXXXXXXXXXXXXXXXXXXXXX",
"                                     ",
"o===================================o",
".=+++++++++++++++++++++++++++++++++@.",
".=+++++++++++++++++++++++++++++++++@.",
".=+++++++++++++++++++++++++++++++++@.",
".=+++++++++++++++++++++++++++++++++@.",
".=+++++++$-----------------$+++++++@.",
".=+++++++->>>>>>>>>>>>>>>>>-+++++++@.",
".=+++++++&:::::::::::::::::&+++++++@.",
".=+++++++++++++++++++++++++++++++++@.",
".=+++++++++++++++++++++++++++++++++@.",
".=+++++++++++++++++++++++++++++++++@.",
".=++++++++++++++++$++++++++++++++++@.",
".=+++++++++++++++->;+++++++++++++++@.",
".=++++++++++++++->>>;++++++++++++++@.",
".=+++++++++++++->>:>>-+++++++++++++@.",
".=++++++++++++->>-+=>>;++++++++++++@.",
".=+++++++++++->>-+++=>>;+++++++++++@.",
".=++++++++++->>-+++++=>>;++++++++++@.",
".=+++++++++->>-+++++++=>>;+++++++++@.",
".=++++++++->>-+++++++++=>>;++++++++@.",
".=+++++++#;;*+++++++++++*;;#+++++++@.",
".=+++++++++++++++++++++++++++++++++@.",
".=+++++++++++++++++++++++++++++++++@.",
".=+++++++++++++++++++++++++++++++++@.",
".=+++++++++++++++++++++++++++++++++@.",
".%@@@@@@@@@@@@@@@@@@@@@@@@@@@@@@@@@@.",
".....................................",
"                                     ",
"*************************************",
"OOOOOOOOOOOOOOOOOOOOOOOOOOOOOOOOOOOOO"
};
