/* XPM */
static char *stick_pressed[] = {
/* columns rows colors chars-per-pixel */
"41 32 44 1 ",
"  c black",
". c #010101",
"X c #020202",
"o c gray1",
"O c gray2",
"+ c gray3",
"@ c #0B0B0B",
"# c #0C0C0C",
"$ c gray7",
"% c #131313",
"& c #151515",
"* c #161616",
"= c gray10",
"- c gray11",
"; c #1E1E1E",
": c #202020",
"> c gray13",
", c #232323",
"< c gray15",
"1 c #272727",
"2 c #2C2C2C",
"3 c #313131",
"4 c #343434",
"5 c gray21",
"6 c #373737",
"7 c gray24",
"8 c gray25",
"9 c gray28",
"0 c #484848",
"q c gray29",
"w c gray30",
"e c #505050",
"r c #5D5D5D",
"t c gray39",
"y c #686868",
"u c #6D6D6D",
"i c #727272",
"p c #747474",
"a c gray46",
"s c #797979",
"d c #A9A9A9",
"f c gray76",
"g c #C6C6C6",
"h c gray88",
/* pixels */
"%%%%%%%%%%%%%%%%%%%%%%%%%%%%%%%%%%%%%%%%%",
"OOOOOOOOOOOOOOOOOOOOOOOOOOOOOOOOOOOOOOOOO",
"s$                                     $s",
"5O                                     Os",
"5O                                     Os",
"5O                                     Os",
"5O                                     Os",
"5O                                     Os",
"5O                                     Os",
"5O                                     Os",
"5O                                     Os",
"5O                                     Os",
"5O                 =d;                 Os",
"5O                =fhg;                Os",
"5O               =fhhhg;               Os",
"5O               =fhhhg;               Os",
"5O                =fhg;                Os",
"5O                 -d-                 Os",
"5O                                     Os",
"5O                                     Os",
"5O                                     Os",
"5O                                     Os",
"5O                                     Os",
"5O                                     Os",
"5+                                     #p",
"6%.                                   .:y",
"32o                                   oqw",
",0&X                                 X-i1",
":3e*o.                             .o-u7:",
"::4r8;@OOOOOOOOOOOOOOOOOOOOOOOOOOO@>qi7::",
":::<9tasssssssssssssssssssssssssssayw1:::",
":::::::::::::::::::::::::::::::::::::::::"
};
