/* XPM */
static char *top_right_active[] = {
/* columns rows colors chars-per-pixel */
"6 32 19 1 ",
"  c black",
". c #010101",
"X c #070707",
"o c #090909",
"O c gray6",
"+ c #181818",
"@ c gray11",
"# c #1D1D1D",
"$ c #1E1E1E",
"% c gray12",
"& c #2D2D2D",
"* c gray19",
"= c #373737",
"- c gray22",
"; c #3A3A3A",
": c #444444",
"> c #4B4B4B",
", c gray39",
"< c None",
/* pixels */
".o@<<<",
"...X<<",
",:O.X<",
"$=>o.$",
"++*&.o",
"++$=..",
"+++;..",
"+++;..",
"+++;..",
"+++;..",
"+++;..",
"+++;..",
"+++;..",
"+++;..",
"+++;..",
"+++;..",
"+++;..",
"+++;..",
"+++;..",
"+++;..",
"+++;..",
"+++;..",
"+++;..",
"+++;..",
"+++;..",
"+++;..",
"+++;..",
"+++;..",
"+++;..",
"+++;..",
"+++;..",
"+++;.."
};
