/* XPM */
static char *close_pressed[] = {
/* columns rows colors chars-per-pixel */
"30 28 24 1 ",
"  c #070707",
". c #161634",
"X c #161635",
"o c #171735",
"O c #181835",
"+ c #171738",
"@ c #181838",
"# c #191938",
"$ c #181839",
"% c #35354E",
"& c #3C3C54",
"* c #404057",
"= c #414158",
"- c #44445B",
"; c #656577",
": c gray46",
"> c #7C7C7C",
", c #7D7D8B",
"< c #878794",
"1 c #C2C2C7",
"2 c #C5C5CA",
"3 c #C7C7CB",
"4 c #CECED1",
"5 c None",
/* pixels */
">>>>>>>>>>>>>>>>>>>>>>>>>>5555",
"::::::::::::::::::::::::::5555",
",.........................$o55",
",.........................++#5",
",.........................+++X",
",.........................+++@",
",........O%.........%O........",
",........<2=.......=2<........",
",........&13-.....=22*........",
",.........&13-...=22*.........",
",..........&13-.=22*..........",
",...........=22;22=...........",
",............&142*............",
",............=243-............",
",...........=22;22=...........",
",..........=22*.&13-..........",
",.........=22*...&13-.........",
",........=22*.....&13-........",
",........<2=.......=2<........",
",........O%.........%O........",
",.............................",
",.............................",
",.............................",
",.............................",
",,,,,,,,,,,,,,,,,,,,,,,,,,,,,,",
"::::::::::::::::::::::::::::::",
"                              ",
"                              "
};
