/* XPM */
static char *hide_active[] = {
/* columns rows colors chars-per-pixel */
"33 28 35 1 ",
"  c #070707",
". c #090909",
"X c gray4",
"o c #0B0B0B",
"O c #0E0E0E",
"+ c #101010",
"@ c #151515",
"# c #2A2A2A",
"$ c #2D2D2D",
"% c gray18",
"& c #2F2F2F",
"* c #313131",
"= c #343434",
"- c gray21",
"; c #3F3F3F",
": c #434343",
"> c gray27",
", c gray29",
"< c gray43",
"1 c #6F6F6F",
"2 c #727272",
"3 c #747474",
"4 c #767676",
"5 c #7B7B7B",
"6 c #848484",
"7 c gray54",
"8 c #909090",
"9 c #939393",
"0 c gray73",
"q c #CBCBCB",
"w c #CECECE",
"e c gray81",
"r c gray85",
"t c gray86",
"y c gray88",
/* pixels */
"888888888888888888888888888888888",
"777777777777777777777777777777777",
" 77                             7",
" 77                             7",
" 77                             7",
" 77                             7",
" 77                             7",
" 77                             7",
" 77                             7",
" 77        O-         -O        7",
" 77        9r>       >r9        7",
" 77        #qt,     :re&        7",
" 77         #qt,   :re&         7",
" 77          #qt, :rw&          7",
" 77           $wr3rw$           7",
" 77            #qyw%            7",
" 77             #0%             7",
" 77              .              7",
" 77                             7",
" 77                             7",
" 67O                            7",
" 17*                            7",
" ;74+                           7",
" o275=O                         7",
"  @277777777777777777777777777777",
"   X;<677777777777777777777777777",
"                                 ",
"                                 "
};
