/* XPM */
static char *maximize_active[] = {
/* columns rows colors chars-per-pixel */
"31 28 22 1 ",
"  c #070707",
". c #090909",
"X c #0E0E0E",
"o c #2A2A2A",
"O c #2D2D2D",
"+ c #2F2F2F",
"@ c gray21",
"# c #434343",
"$ c gray27",
"% c #494949",
"& c #747474",
"* c gray54",
"= c #909090",
"- c #939393",
"; c gray73",
": c #CBCBCB",
"> c gray80",
", c #CECECE",
"< c gray81",
"1 c gray85",
"2 c gray86",
"3 c gray88",
/* pixels */
"===============================",
"*******************************",
"*                             *",
"*                             *",
"*                             *",
"*                             *",
"*                             *",
"*                             *",
"*              .              *",
"*             o;+             *",
"*            o:3<+            *",
"*           O,1&1,O           *",
"*          o:2% #1<+          *",
"*         o>2%   #1<+         *",
"*        o>2%     #1<+        *",
"*        -1$       $1-        *",
"*        X@         @X        *",
"*                             *",
"*                             *",
"*                             *",
"*                             *",
"*                             *",
"*                             *",
"*                             *",
"*******************************",
"*******************************",
"                               ",
"                               "
};
