/* XPM */
static char *stick_prelight[] = {
/* columns rows colors chars-per-pixel */
"35 28 31 1 ",
"  c #070707",
". c gray4",
"X c #131313",
"o c #2D2D2D",
"O c #323232",
"+ c gray20",
"@ c gray21",
"# c #373737",
"$ c #3F3F3F",
"% c #494949",
"& c #4C4C4C",
"* c #5D5D5D",
"= c gray37",
"- c gray38",
"; c #646464",
": c DimGray",
"> c gray44",
", c #717171",
"< c gray46",
"1 c gray48",
"2 c #7B7B7B",
"3 c #7C7C7C",
"4 c #7E7E7E",
"5 c gray50",
"6 c #838383",
"7 c gray53",
"8 c #888888",
"9 c #CBCBCB",
"0 c #CECECE",
"q c gray81",
"w c #D0D0D0",
/* pixels */
"33333333333333333333333333333333333",
"<<<<<<<<<<<<<<<<<<<<<<<<<<<<<<<<<<<",
" <8ooooooooooooooooooooooooooooo8< ",
" <8ooooooooooooooooooooooooooooo8< ",
" <8ooooooooooooooooooooooooooooo8< ",
" <8ooooooooooooooooooooooooooooo8< ",
" <8ooooooooooooooooooooooooooooo8< ",
" <8ooooooooooooooooooooooooooooo8< ",
" <8ooooooooooooooooooooooooooooo8< ",
" <8ooooooooooooooooooooooooooooo8< ",
" <8oooooooooooooo$oooooooooooooo8< ",
" <8ooooooooooooo;9:ooooooooooooo8< ",
" <8oooooooooooo;0wq:oooooooooooo8< ",
" <8oooooooooooo;0wq:oooooooooooo8< ",
" <8ooooooooooooo;9:ooooooooooooo8< ",
" <8oooooooooooooo$oooooooooooooo8< ",
" <8ooooooooooooooooooooooooooooo8< ",
" <8ooooooooooooooooooooooooooooo8< ",
" <8ooooooooooooooooooooooooooooo8< ",
" <8ooooooooooooooooooooooooooooo8< ",
" ,7Oooooooooooooooooooooooooooo+7> ",
" =6%ooooooooooooooooooooooooooo&6* ",
" @21+ooooooooooooooooooooooooo+42# ",
" .-54&OoooooooooooooooooooooO&45-. ",
"  X-267888888888888888888888762-X  ",
"   .#*,<<<<<<<<<<<<<<<<<<<<<,*#.   ",
"                                   ",
"                                   "
};
