/* XPM */
static char *hide_prelight[] = {
/* columns rows colors chars-per-pixel */
"33 28 56 1 ",
"  c #1B1B1B",
". c #201A1C",
"X c #1C1A21",
"o c #2B1725",
"O c #25172A",
"+ c gray24",
"@ c #3F3F3F",
"# c #40151E",
"$ c #5D1219",
"% c #721111",
"& c #761010",
"* c #511231",
"= c #443B3D",
"- c #1E1541",
"; c #19125D",
": c #311251",
"> c #3D3B44",
", c #111172",
"< c #101076",
"1 c #441744",
"2 c #5F2D42",
"3 c #523242",
"4 c #412D5E",
"5 c #582958",
"6 c #423252",
"7 c #733645",
"8 c #463774",
"9 c #535253",
"0 c #565556",
"q c #595759",
"w c #6D4E5E",
"e c #5E4F6C",
"r c #685165",
"t c #655168",
"y c #70596B",
"u c #735F6F",
"i c #6F5C73",
"p c #6F5F73",
"a c #696769",
"s c #6B696B",
"d c #6F6C6F",
"f c #766576",
"g c #8B2525",
"h c #892728",
"j c #8A3434",
"k c #25258B",
"l c #282888",
"z c #8E8A8E",
"x c #C3BCC3",
"c c #C7C0C7",
"v c #D0C9D0",
"b c #D2CAD2",
"n c #D3CBD3",
"m c #DBD3DB",
"M c #DCD4DC",
"N c #E0D8E0",
/* pixels */
"fffffffffffffffffffffffffffffffff",
"fffffffffffffffffffffffffffffffff",
"&ffjjjjjjjjjjjjjjjjjjjjjjjjjjjjjf",
"<ffg+++++++++++++++++++++++++++kf",
"<ffg+++++++++++++++++++++++++++kf",
"<ffg+++++++++++++++++++++++++++kf",
"<ffg+++++++++++++++++++++++++++kf",
"<ffg+++++++++++++++++++++++++++kf",
"<ffg+++++++++++++++++++++++++++kf",
"<ffg+++++++++++++++++++++++++++kf",
"<ffg++++++9cns+++++++snc9++++++kf",
"<ffg+++++++0vMd+++++ambq+++++++kf",
"<ffg++++++++0vMd+++ambq++++++++kf",
"<ffg+++++++++0vMd+ambq+++++++++kf",
"<ffg++++++++++qbmzmbq++++++++++kf",
"<ffg+++++++++++0vNbq+++++++++++kf",
"<ffg++++++++++++0xq++++++++++++kf",
"<ffg+++++++++++++@+++++++++++++kf",
"<ffg+++++++++++++++++++++++++++kf",
"<ffg+++++++++++++++++++++++++++kf",
",pfh=++++++++++++++++++++++++++kf",
";ef73++++++++++++++++++++++++++kf",
"-4fy56>++++++++++++++++++++++++kf",
"X:tfi8lkkkkkkkkkkkkkkkkkkkkkkkkkf",
" O1rfffffffffffffffffffffffffffff",
"  o*2wuffffffffffffffffffffffffff",
"   .#$%&&&&&&&&&&&&&&&&&&&&&&&&&&",
"                                 "
};
