/* XPM */
static char *maximize_toggled_prelight[] = {
/* columns rows colors chars-per-pixel */
"31 28 21 1 ",
"  c #131313",
". c gray21",
"X c #710B0B",
"o c #4B2255",
"O c #49494A",
"+ c #4B4A4B",
"@ c #4C4B4C",
"# c #6D5E7D",
"$ c #6D6B6E",
"% c #716F72",
"& c #862020",
"* c #862F2F",
"= c #202086",
"- c #959297",
"; c #B1AEB4",
": c #C3C0C7",
"> c #C5C2C9",
", c #C7C3CA",
"< c #D7D3DB",
"1 c #D7D4DB",
"2 c #DAD6DE",
/* pixels */
"###############################",
"###############################",
"#*****************************#",
"#&...........................=#",
"#&...........................=#",
"#&...........................=#",
"#&............O;@............=#",
"#&...........O:2,@...........=#",
"#&..........+>1-1>+..........=#",
"#&.........O:1%.$<,@.........=#",
"#&........O:1%...$<,@........=#",
"#&.......O:1%.....$<,@.......=#",
"#&......O:1%.......$<,@......=#",
"#&......O:1%.......$<,@......=#",
"#&.......O:1%.....$<,@.......=#",
"#&........O:1%...$<,@........=#",
"#&.........O:1%.$<,@.........=#",
"#&..........+>1-1>+..........=#",
"#&...........O:2,@...........=#",
"#&............+;+............=#",
"#&...........................=#",
"#&...........................=#",
"#&...........................=#",
"#o============================#",
"###############################",
"###############################",
"XXXXXXXXXXXXXXXXXXXXXXXXXXXXXXX",
"                               "
};
