/* XPM */
static char *maximize_prelight[] = {
/* columns rows colors chars-per-pixel */
"31 28 25 1 ",
"  c #1B1B1B",
". c gray24",
"X c #3F3F3F",
"o c #761010",
"O c #50275A",
"+ c #535253",
"@ c #565556",
"# c #595759",
"$ c #5A585A",
"% c #696769",
"& c #6B696B",
"* c #6E6B6E",
"= c #766576",
"- c #8B2525",
"; c #8A3434",
": c #25258B",
"> c #8E8A8E",
", c #C3BCC3",
"< c #C7C0C7",
"1 c #D0C9D0",
"2 c #D2CAD2",
"3 c #D3CBD3",
"4 c #DBD3DB",
"5 c #DCD4DC",
"6 c #E0D8E0",
/* pixels */
"===============================",
"===============================",
"=;;;;;;;;;;;;;;;;;;;;;;;;;;;;;=",
"=-...........................:=",
"=-...........................:=",
"=-...........................:=",
"=-...........................:=",
"=-...........................:=",
"=-.............X.............:=",
"=-............@,$............:=",
"=-...........@163$...........:=",
"=-..........#24>42#..........:=",
"=-.........@15*.%43$.........:=",
"=-........@15*...%43$........:=",
"=-.......@15*.....%43$.......:=",
"=-......+<3&.......&3<+......:=",
"=-...........................:=",
"=-...........................:=",
"=-...........................:=",
"=-...........................:=",
"=-...........................:=",
"=-...........................:=",
"=-...........................:=",
"=O::::::::::::::::::::::::::::=",
"===============================",
"===============================",
"ooooooooooooooooooooooooooooooo",
"                               "
};
