/* XPM */
static char *stick_pressed[] = {
/* columns rows colors chars-per-pixel */
"35 28 54 1 ",
"  c #131313",
". c #1A1212",
"X c #181214",
"o c #141219",
"O c #3A0F18",
"+ c #24101E",
"@ c #321111",
"# c #1E1023",
"$ c #180F3B",
"% c #2E1F3C",
"& c #31233F",
"* c #32223F",
"= c #430F0F",
"- c #5F0D0D",
"; c #580D14",
": c #6B0E0F",
"> c #6C0C0C",
", c #6D0C0C",
"< c #710B0B",
"1 c #671518",
"2 c #4C0E2D",
"3 c #751936",
"4 c #59313E",
"5 c #140D58",
"6 c #2D0F4C",
"7 c #3F1540",
"8 c #312240",
"9 c #322340",
"0 c #332441",
"q c #0C0C6D",
"w c #0B0B71",
"e c #41334E",
"r c #503146",
"t c #423250",
"y c #433452",
"u c #433552",
"i c #403157",
"p c #5E4D65",
"a c #5D4D67",
"s c #5E4D66",
"d c #5A4E6A",
"f c #5F4F68",
"g c #5D4F6A",
"h c #635573",
"j c #665776",
"k c #675B72",
"l c #685A78",
"z c #695B78",
"x c #6D5E7D",
"c c #6C6076",
"v c #D4CFD9",
"b c #D7D2DC",
"n c #D7D3DC",
"m c #D9D4DE",
/* pixels */
"xxxxxxxxxxxxxxxxxxxxxxxxxxxxxxxxxxx",
"xxxxxxxxxxxxxxxxxxxxxxxxxxxxxxxxxxx",
"<xx33333333333333333333333333333xx<",
"wxx%%%%%%%%%%%%%%%%%%%%%%%%%%%%%xx<",
"wxx%%%%%%%%%%%%%%%%%%%%%%%%%%%%%xx<",
"wxx%%%%%%%%%%%%%%%%%%%%%%%%%%%%%xx<",
"wxx%%%%%%%%%%%%%%%%%%%%%%%%%%%%%xx<",
"wxx%%%%%%%%%%%%%%%%%%%%%%%%%%%%%xx<",
"wxx%%%%%%%%%%%%%%%%%%%%%%%%%%%%%xx<",
"wxx%%%%%%%%%%%%%%%%%%%%%%%%%%%%%xx<",
"wxx%%%%%%%%%%%%%%e%%%%%%%%%%%%%%xx<",
"wxx%%%%%%%%%%%%%kvc%%%%%%%%%%%%%xx<",
"wxx%%%%%%%%%%%%kbmnc%%%%%%%%%%%%xx<",
"wxx%%%%%%%%%%%%kbmnc%%%%%%%%%%%%xx<",
"wxx%%%%%%%%%%%%%kvc%%%%%%%%%%%%%xx<",
"wxx%%%%%%%%%%%%%%e%%%%%%%%%%%%%%xx<",
"wxx%%%%%%%%%%%%%%%%%%%%%%%%%%%%%xx<",
"wxx%%%%%%%%%%%%%%%%%%%%%%%%%%%%%xx<",
"wxx%%%%%%%%%%%%%%%%%%%%%%%%%%%%%xx<",
"wxx%%%%%%%%%%%%%%%%%%%%%%%%%%%%%xx<",
"qzx*%%%%%%%%%%%%%%%%%%%%%%%%%%%&xl>",
"5dxt%%%%%%%%%%%%%%%%%%%%%%%%%%%uxs-",
"$ixh9%%%%%%%%%%%%%%%%%%%%%%%%%0jx4=",
"o6gxjy8%%%%%%%%%%%%%%%%%%%%%8ujxf:.",
" #7gxxxxxxxxxxxxxxxxxxxxxxxxxxxf1@ ",
"  +2razxxxxxxxxxxxxxxxxxxxxxzp4:@  ",
"   XO;,<<<<<<<<<<<<<<<<<<<<<,-=.   ",
"                                   "
};
