/* XPM */
static char *bottom_right_active[] = {
/* columns rows colors chars-per-pixel */
"6 6 17 1 ",
"  c gray38",
". c #626262",
"X c gray39",
"o c #646464",
"O c #6F6F6F",
"+ c #717171",
"@ c #727272",
"# c #7C7979",
"$ c gray51",
"% c #D8C3C3",
"& c #F3D7D7",
"* c #F5D7D7",
"= c #F6D8D8",
"- c #F7E8E8",
"; c #F6F3F3",
": c gray96",
"> c None",
/* pixels */
"::;*.o",
"::-%.@",
";-&#.$",
"=%#.O>",
"o..O>>",
"o@$>>>"
};
