<?xml version="1.0" encoding="UTF-8" standalone="no"?>
<!-- Created with Inkscape (http://www.inkscape.org/) -->

<svg
   xmlns:dc="http://purl.org/dc/elements/1.1/"
   xmlns:cc="http://creativecommons.org/ns#"
   xmlns:rdf="http://www.w3.org/1999/02/22-rdf-syntax-ns#"
   xmlns:svg="http://www.w3.org/2000/svg"
   xmlns="http://www.w3.org/2000/svg"
   xmlns:xlink="http://www.w3.org/1999/xlink"
   xmlns:sodipodi="http://sodipodi.sourceforge.net/DTD/sodipodi-0.dtd"
   xmlns:inkscape="http://www.inkscape.org/namespaces/inkscape"
   height="32"
   width="65"
   id="svg3124"
   sodipodi:version="0.32"
   inkscape:version="0.92.1 r15371"
   version="1.0"
   sodipodi:docname="actionbutton.svg"
   inkscape:output_extension="org.inkscape.output.svg.inkscape">
  <sodipodi:namedview
     id="base"
     pagecolor="#a060a0"
     bordercolor="#646064"
     borderopacity="1.0"
     inkscape:pageopacity="0.5"
     inkscape:pageshadow="2"
     inkscape:cx="178"
     inkscape:cy="28.000002"
     inkscape:zoom="4.8567416"
     inkscape:document-units="px"
     inkscape:current-layer="layer1"
     showgrid="true"
     gridtolerance="10000"
     inkscape:grid-points="true"
     inkscape:window-width="1866"
     inkscape:window-height="1055"
     inkscape:window-x="0"
     inkscape:window-y="0"
     showguides="true"
     inkscape:guide-bbox="true"
     inkscape:window-maximized="1"
     fit-margin-top="0"
     fit-margin-left="0"
     fit-margin-right="0"
     fit-margin-bottom="0"
     inkscape:snap-bbox="true"
     inkscape:bbox-nodes="true">
    <inkscape:grid
       enabled="true"
       visible="true"
       id="grid3133"
       type="xygrid"
       empspacing="5"
       snapvisiblegridlinesonly="true"
       originx="1"
       originy="-183.99998"
       spacingx="1"
       spacingy="1" />
  </sodipodi:namedview>
  <defs
     id="defs3126">
    <linearGradient
       inkscape:collect="always"
       id="linearGradient4562">
      <stop
         style="stop-color:#ff0000;stop-opacity:0.4"
         offset="0"
         id="stop4558" />
      <stop
         style="stop-color:#0000ff;stop-opacity:0.4"
         offset="1"
         id="stop4560" />
    </linearGradient>
    <linearGradient
       inkscape:collect="always"
       xlink:href="#linearGradient4562"
       id="linearGradient4564"
       x1="-22.5"
       y1="-161.13782"
       x2="-10.5"
       y2="-149.13782"
       gradientUnits="userSpaceOnUse" />
    <linearGradient
       inkscape:collect="always"
       xlink:href="#linearGradient4562"
       id="linearGradient4572"
       x1="-10.5"
       y1="-146.13782"
       x2="-25.5"
       y2="-161.13782"
       gradientUnits="userSpaceOnUse" />
    <linearGradient
       inkscape:collect="always"
       xlink:href="#linearGradient4562"
       id="linearGradient4572-9"
       x1="-10.5"
       y1="-146.13782"
       x2="-25.5"
       y2="-161.13782"
       gradientUnits="userSpaceOnUse" />
  </defs>
  <metadata
     id="metadata3129">
    <rdf:RDF>
      <cc:Work
         rdf:about="">
        <dc:format>image/svg+xml</dc:format>
        <dc:type
           rdf:resource="http://purl.org/dc/dcmitype/StillImage" />
        <dc:title />
      </cc:Work>
    </rdf:RDF>
  </metadata>
  <g
     transform="translate(37.5,177.1378)"
     id="layer1"
     inkscape:label="Warstwa 1"
     inkscape:groupmode="layer">
    <g
       id="normal"
       transform="translate(-11)"
       inkscape:label="#g4578">
      <circle
         r="14"
         cy="-161.13782"
         cx="-10.5"
         id="path4508-5"
         style="opacity:1;vector-effect:none;fill:#ff00ff;fill-opacity:0;stroke:none;stroke-width:2.19283676;stroke-linecap:square;stroke-linejoin:miter;stroke-miterlimit:8.30000019;stroke-dasharray:none;stroke-dashoffset:0;stroke-opacity:1;marker:none" />
      <path
         inkscape:connector-curvature="0"
         id="path4508-6"
         d="m -10.5,-176.13782 a 15,15 0 0 0 -15,15 15,15 0 0 0 15,15 15,15 0 0 0 15,-15 15,15 0 0 0 -15,-15 z m 0,2 a 13,13 0 0 1 13,13 13,13 0 0 1 -13,13 13,13 0 0 1 -13,-13 13,13 0 0 1 13,-13 z"
         style="opacity:1;vector-effect:none;fill:#ddbbff;fill-opacity:0.45;stroke:none;stroke-width:2.34946799;stroke-linecap:square;stroke-linejoin:miter;stroke-miterlimit:8.30000019;stroke-dasharray:none;stroke-dashoffset:0;stroke-opacity:1;marker:none" />
      <path
         inkscape:connector-curvature="0"
         id="path4508"
         d="m -10.5,-177.13782 a 16,16 0 0 0 -16,16 16,16 0 0 0 16,16 16,16 0 0 0 16,-16 16,16 0 0 0 -16,-16 z m 0,1 a 15,15 0 0 1 15,15 15,15 0 0 1 -15,15 15,15 0 0 1 -15,-15 15,15 0 0 1 15,-15 z"
         style="opacity:1;vector-effect:none;fill:url(#linearGradient4572);fill-opacity:1;stroke:none;stroke-width:2.50609899;stroke-linecap:square;stroke-linejoin:miter;stroke-miterlimit:8.30000019;stroke-dasharray:none;stroke-dashoffset:0;stroke-opacity:1;marker:none" />
      <path
         inkscape:connector-curvature="0"
         id="path4508-35"
         d="m -10.5,-174.13782 a 13,13 0 0 0 -13,13 13,13 0 0 0 13,13 13,13 0 0 0 13,-13 13,13 0 0 0 -13,-13 z m 0,1 a 12,12 0 0 1 12,12 12,12 0 0 1 -12,12 12,12 0 0 1 -12,-12 12,12 0 0 1 12,-12 z"
         style="opacity:1;vector-effect:none;fill:url(#linearGradient4564);fill-opacity:1;stroke:none;stroke-width:2.03620553;stroke-linecap:square;stroke-linejoin:miter;stroke-miterlimit:8.30000019;stroke-dasharray:none;stroke-dashoffset:0;stroke-opacity:1;marker:none" />
    </g>
    <g
       id="pressed"
       transform="translate(22)"
       inkscape:label="#g4578-0">
      <circle
         r="14"
         cy="-161.13782"
         cx="-10.5"
         id="path4508-5-9"
         style="opacity:1;vector-effect:none;fill:#8044bb;fill-opacity:0.25;stroke:none;stroke-width:2.19283676;stroke-linecap:square;stroke-linejoin:miter;stroke-miterlimit:8.30000019;stroke-dasharray:none;stroke-dashoffset:0;stroke-opacity:1;marker:none" />
      <path
         inkscape:connector-curvature="0"
         id="path4508-6-3"
         d="m -10.5,-176.13782 a 15,15 0 0 0 -15,15 15,15 0 0 0 15,15 15,15 0 0 0 15,-15 15,15 0 0 0 -15,-15 z m 0,2 a 13,13 0 0 1 13,13 13,13 0 0 1 -13,13 13,13 0 0 1 -13,-13 13,13 0 0 1 13,-13 z"
         style="opacity:1;vector-effect:none;fill:#ddbbff;fill-opacity:0.45;stroke:none;stroke-width:2.34946799;stroke-linecap:square;stroke-linejoin:miter;stroke-miterlimit:8.30000019;stroke-dasharray:none;stroke-dashoffset:0;stroke-opacity:1;marker:none" />
      <path
         inkscape:connector-curvature="0"
         id="path4508-60"
         d="m -10.5,-177.13782 a 16,16 0 0 0 -16,16 16,16 0 0 0 16,16 16,16 0 0 0 16,-16 16,16 0 0 0 -16,-16 z m 0,1 a 15,15 0 0 1 15,15 15,15 0 0 1 -15,15 15,15 0 0 1 -15,-15 15,15 0 0 1 15,-15 z"
         style="opacity:1;vector-effect:none;fill:url(#linearGradient4572-9);fill-opacity:1;stroke:none;stroke-width:2.50609899;stroke-linecap:square;stroke-linejoin:miter;stroke-miterlimit:8.30000019;stroke-dasharray:none;stroke-dashoffset:0;stroke-opacity:1;marker:none" />
    </g>
  </g>
</svg>
