/* XPM */
static char *bottom_left_active[] = {
/* columns rows colors chars-per-pixel */
"6 6 19 1 ",
"  c gray25",
". c #444445",
"X c #4C4C4C",
"o c #515151",
"O c gray32",
"+ c #535353",
"@ c #565656",
"# c #656565",
"$ c #666668",
"% c #747475",
"& c #848485",
"* c #949496",
"= c #9A9A9B",
"- c #A3A3A5",
"; c #A4A4A4",
": c #A7A7A9",
"> c #AAAAAC",
", c #D6D6D7",
"< c None",
/* pixels */
". ,>::",
"O ;:::",
"# @*=-",
"<o X%&",
"<<o   ",
"<<<$+."
};
