/* XPM */
static char *close_pressed[] = {
/* columns rows colors chars-per-pixel */
"30 28 28 1 ",
"  c gray7",
". c #131313",
"X c #171718",
"o c #181818",
"O c #191919",
"+ c #19191A",
"@ c gray10",
"# c #222222",
"$ c gray15",
"% c #29292A",
"& c #2E2E2F",
"* c #525253",
"= c #59595B",
"- c #656566",
"; c #676768",
": c #676769",
"> c #6A6A6B",
", c #737375",
"< c #777779",
"1 c #7F7F81",
"2 c #818182",
"3 c #818183",
"4 c #838384",
"5 c #828285",
"6 c #AAAAAC",
"7 c #BCBCBC",
"8 c #FBFBFB",
"9 c None",
/* pixels */
"##########################9999",
"##########################9999",
"$77777777777777777777777771499",
"+11111111111111111111111111129",
"+11111111111111111111111111115",
"+11111111111111111111111111113",
"+1111111111111111111111111111=",
"+1111111,&%:1111111:%&,111111=",
"+11111111>@X-11111;OO:1111111=",
"+111111111>@X-111;OO:11111111=",
"+1111111111>@X-1;OO:111111111=",
"+11111111111;OO*OO;1111111111=",
"+111111111111>@.O:11111111111=",
"+111111111111;O.X-11111111111=",
"+11111111111;OO*OO;1111111111=",
"+1111111111;OO:1>@X-111111111=",
"+111111111;OO:111>@X-11111111=",
"+11111111;OO:11111>@X-1111111=",
"+1111111,&%:1111111:%&,111111=",
"+1111111111111111111111111111=",
"+1111111111111111111111111111=",
"+1111111111111111111111111111=",
"+1111111111111111111111111111=",
"+1111111111111111111111111111=",
"+++++++++++++++++++++++++++++ ",
"#############################o",
"88888888888888888888888888888<",
"66666666666666666666666666666<"
};
