/* XPM */
static char *close_active[] = {
/* columns rows colors chars-per-pixel */
"30 28 17 1 ",
"  c black",
". c #070707",
"X c #090909",
"o c #0B0B0B",
"O c gray25",
"+ c #414142",
"@ c #616162",
"# c #7E7E80",
"$ c #828283",
"% c #828284",
"& c #868687",
"* c #8C8C8E",
"= c #A5A5A7",
"- c #A7A7A9",
"; c #AEAEAF",
": c #DCDCDD",
"> c None",
/* pixels */
"OOOOOOOOOOOOOOOOOOOOOOOOOO>>>>",
"OOOOOOOOOOOOOOOOOOOOOOOOOO>>>>",
"O:::::::::::::::::::::::::>>>>",
"O:------------------------>>>>",
"O:------------------------>>>>",
"O:------------------------>>>>",
"O:-------=*---------*=-------&",
"O:-------+X$-------$X+-------&",
"O:-------&o.#-----$XX%-------&",
"O:--------&o.#---$XX%--------&",
"O:---------&o.#-$XX%---------&",
"O:----------$XX@XX$----------&",
"O:-----------&o X%-----------&",
"O:-----------$X .#-----------&",
"O:----------$XX@XX$----------&",
"O:---------$XX%-&o.#---------&",
"O:--------$XX%---&o.#--------&",
"O:-------$XX%-----&o.#-------&",
"O:-------+X$-------$X+-------&",
"O:-------=*---------*=-------&",
"O:---------------------------&",
"O:---------------------------&",
"O:---------------------------&",
"O;&&&&&&&&&&&&&&&&&&&&&&&&&&&&",
"OOOOOOOOOOOOOOOOOOOOOOOOOOOOOO",
"OOOOOOOOOOOOOOOOOOOOOOOOOOOOOO",
":::::::::::::::::::::::::::::&",
"-----------------------------&"
};
