/* XPM */
static char *maximize_toggled_pressed[] = {
/* columns rows colors chars-per-pixel */
"31 28 19 1 ",
"  c #131313",
". c #141415",
"X c #19191A",
"o c #202020",
"O c #202021",
"+ c #212122",
"@ c #222222",
"# c gray15",
"$ c #2E2E2F",
"% c #404041",
"& c #58585A",
"* c #5B5B5D",
"= c #717172",
"- c #727273",
"; c #727274",
": c #7F7F81",
"> c #AAAAAC",
", c #BCBCBC",
"< c #FBFBFB",
/* pixels */
"@@@@@@@@@@@@@@@@@@@@@@@@@@@@@@@",
"@@@@@@@@@@@@@@@@@@@@@@@@@@@@@@@",
"#,,,,,,,,,,,,,,,,,,,,,,,,,,,,,#",
"X:::::::::::::::::::::::::::::X",
"X:::::::::::::::::::::::::::::X",
"X:::::::::::::::::::::::::::::X",
"X:::::::::::::;$=:::::::::::::X",
"X::::::::::::;+ o=::::::::::::X",
"X:::::::::::-O.%.O-:::::::::::X",
"X::::::::::;+.&:*.o=::::::::::X",
"X:::::::::;+.&:::*.o=:::::::::X",
"X::::::::;+.&:::::*.o=::::::::X",
"X:::::::;+.&:::::::*.o=:::::::X",
"X:::::::;+.&:::::::*.o=:::::::X",
"X::::::::;+.&:::::*.o=::::::::X",
"X:::::::::;+.&:::*.o=:::::::::X",
"X::::::::::;+.&:*.o=::::::::::X",
"X:::::::::::-O.%.O-:::::::::::X",
"X::::::::::::;+ o=::::::::::::X",
"X:::::::::::::-$-:::::::::::::X",
"X:::::::::::::::::::::::::::::X",
"X:::::::::::::::::::::::::::::X",
"X:::::::::::::::::::::::::::::X",
"X:::::::::::::::::::::::::::::X",
"XXXXXXXXXXXXXXXXXXXXXXXXXXXXXXX",
"@@@@@@@@@@@@@@@@@@@@@@@@@@@@@@@",
"<<<<<<<<<<<<<<<<<<<<<<<<<<<<<<<",
">>>>>>>>>>>>>>>>>>>>>>>>>>>>>>>"
};
