/* XPM */
static char *maximize_active[] = {
/* columns rows colors chars-per-pixel */
"31 28 24 1 ",
"  c black",
". c #040404",
"X c gray2",
"o c #0E0E0E",
"O c #0E0E0F",
"+ c #101011",
"@ c gray10",
"# c #1E1E1F",
"$ c #202020",
"% c #2A2A2B",
"& c #3A3A3B",
"* c #545455",
"= c #767677",
"- c #79797A",
"; c #7A7A7B",
": c #8A8A8C",
"> c #8C8C8D",
", c #8C8C8E",
"< c #8E8E8F",
"1 c #929293",
"2 c #A7A7A9",
"3 c #A8A8AA",
"4 c #B8B8B9",
"5 c #E9E9EA",
/* pixels */
"$$$$$$$$$$$$$$$$$$$$$$$$$$$$$$$",
"%%%%%%%%%%%%%%%%%%%%%%%%%%%%%%%",
"&55555555555555555555555555555&",
"%5333333333333333333333333333,%",
"%5333333333333333333333333333,%",
"%5333333333333333333333333333,%",
"%5333333333333333333333333333,%",
"%5333333333333333333333333333,%",
"%5333333333333323333333333333,%",
"%5333333333333<#:333333333333,%",
"%533333333333<+ o:33333333333,%",
"%53333333333>OX*XO>3333333333,%",
"%5333333333<+.=3;Xo:333333333,%",
"%533333333<+.=333;Xo:33333333,%",
"%53333333<+.=33333;Xo:3333333,%",
"%53333331@o-3333333-o@1333333,%",
"%5333333333333333333333333333,%",
"%5333333333333333333333333333,%",
"%5333333333333333333333333333,%",
"%5333333333333333333333333333,%",
"%5333333333333333333333333333,%",
"%5333333333333333333333333333,%",
"%5333333333333333333333333333,%",
"%4,,,,,,,,,,,,,,,,,,,,,,,,,,,,%",
"%%%%%%%%%%%%%%%%%%%%%%%%%%%%%%%",
"%%%%%%%%%%%%%%%%%%%%%%%%%%%%%%%",
"5555555555555555555555555555555",
"3333333333333333333333333333333"
};
