/* XPM */
static char *maximize_prelight[] = {
/* columns rows colors chars-per-pixel */
"31 28 26 1 ",
"  c #191919",
". c #1B1B1B",
"X c gray12",
"o c #202020",
"O c #222222",
"+ c #252525",
"@ c #282828",
"# c gray16",
"$ c #2A2A2B",
"% c #323232",
"& c gray20",
"* c #373738",
"= c DimGray",
"- c #808081",
"; c #888889",
": c #8B8B8C",
"> c #8C8C8D",
", c #9C9C9D",
"< c #9F9F9F",
"1 c #A2A2A3",
"2 c #AAAAAC",
"3 c #B6B6B7",
"4 c #B7B7B8",
"5 c #B9B9BA",
"6 c #FBFBFB",
"7 c gray99",
/* pixels */
"                               ",
"OOOOOOOOOOOOOOOOOOOOOOOOOOOOOOO",
"%77777777777777777777777777777%",
"+7444444444444444444444444444-+",
"+7444444444444444444444444444-+",
"+7444444444444444444444444444-+",
"+7444444444444444444444444444-+",
"+7444444444444444444444444444-+",
"+7444444444444434444444444444-+",
"+7444444444444<*,444444444444-+",
"+744444444444<$.@,44444444444-+",
"+74444444444,#o=o#,4444444444-+",
"+7444444444<$X;4>o@,444444444-+",
"+744444444<$X;444>o@,44444444-+",
"+74444444<$X;44444>o@,4444444-+",
"+74444441&@:4444444:@&1444444-+",
"+7444444444444444444444444444-+",
"+7444444444444444444444444444-+",
"+7444444444444444444444444444-+",
"+7444444444444444444444444444-+",
"+7444444444444444444444444444-+",
"+7444444444444444444444444444-+",
"+7444444444444444444444444444-+",
"+5----------------------------+",
"+++++++++++++++++++++++++++++++",
"OOOOOOOOOOOOOOOOOOOOOOOOOOOOOOO",
"6666666666666666666666666666666",
"2222222222222222222222222222222"
};
