/* XPM */
static char *menu_prelight[] = {
/* columns rows colors chars-per-pixel */
"28 24 3 1 ",
"  c #A8A8AA",
". c #E9E9EA",
"X c None",
/* pixels */
"XXXX........................",
"XXXX                        ",
"XXXX                        ",
"XXXX                        ",
".                           ",
".                           ",
".                           ",
".                           ",
".                           ",
".                           ",
".                           ",
".                           ",
".                           ",
".                           ",
".                           ",
".                           ",
".                           ",
".                           ",
".                           ",
".                           ",
".                           ",
".                           ",
".                           ",
".                           "
};
