/* XPM */
static char *shade_pressed[] = {
/* columns rows colors chars-per-pixel */
"29 27 14 1 ",
"  c black",
". c #151515",
"X c gray10",
"o c #1C1C1D",
"O c #222222",
"+ c #313132",
"@ c #343435",
"# c #353536",
"$ c #383839",
"% c #4F4F51",
"& c #69696B",
"* c #8C8C8F",
"= c #A9A9AA",
"- c #E2E2E3",
/* pixels */
"                             ",
"ooooooooooooooooooooooooooooo",
"O===========================O",
".&&&&&&&&&&&&&&&&&&&&&&&&&&&.",
".&&&&&&&&&&&&&&&&&&&&&&&&&&&.",
".&&&&&&&&&&&&&&&&&&&&&&&&&&&.",
".&&&&&&&&&&&&&&&&&&&&&&&&&&&.",
".&&&&&&&             &&&&&&&.",
".&&&&&&&@@@@@@@@@@@@@&&&&&&&.",
".&&&&&&&&&&&&&&&&&&&&&&&&&&&.",
".&&&&&&&&&&&&&&&&&&&&&&&&&&&.",
".&&&&&&&&&&&&&%&&&&&&&&&&&&&.",
".&&&&&&&&&&&&@ +&&&&&&&&&&&&.",
".&&&&&&&&&&&@ X @&&&&&&&&&&&.",
".&&&&&&&&&&@ #&$ +&&&&&&&&&&.",
".&&&&&&&&&@ #&&&$ +&&&&&&&&&.",
".&&&&&&&&@ #&&&&&$ +&&&&&&&&.",
".&&&&&&&@ #&&&&&&&$ +&&&&&&&.",
".&&&&&&&&&&&&&&&&&&&&&&&&&&&.",
".&&&&&&&&&&&&&&&&&&&&&&&&&&&.",
".&&&&&&&&&&&&&&&&&&&&&&&&&&&.",
".&&&&&&&&&&&&&&&&&&&&&&&&&&&.",
".&&&&&&&&&&&&&&&&&&&&&&&&&&&.",
".............................",
"ooooooooooooooooooooooooooooo",
"-----------------------------",
"*****************************"
};
