/* XPM */
static char *close_pressed[] = {
/* columns rows colors chars-per-pixel */
"24 24 25 1 ",
"  c #1D1D1D",
". c #3E3E3E",
"X c #3F3F3F",
"o c gray26",
"O c #434343",
"+ c #4B4B4B",
"@ c gray30",
"# c #524949",
"$ c #495252",
"% c #5D5D5D",
"& c #635858",
"* c gray60",
"= c gray67",
"- c #AEAEAE",
"; c #AFAFAF",
": c gray70",
"> c #B4B4B4",
", c gray71",
"< c #B6B6B6",
"1 c #C0A6A6",
"2 c #A6C0C0",
"3 c #F0D0D0",
"4 c #D0F0F0",
"5 c gray88",
"6 c None",
/* pixels */
"%%%%%%%%%%%%%%%%%%%%6666",
"%%%%%%%%%%%%%%%%%%%%6666",
"$222222222222222222<>>66",
"@:::::::::::::::::>:>:>6",
"@::::::::::::::::::::::<",
"@:::::::::::::::::::::::",
"@::::::::::::::::::::::1",
"@:::::::*+;:::;+*::::::1",
"@:::::::;O.;:;O.;::::::1",
"@::::::::;O.=O.;:::::::1",
"@:::::::::;O O;::::::::1",
"@:::::::::;O O;::::::::-",
"@::::::::;O.=O.;:::::::1",
"@:::::::;O.=:;O.;::::::1",
"@:::::::*+;:::;+*::::::1",
"@::::::::::::::::::::::1",
"@::::::::::::::::::::::1",
"@::::::::::::::::::::::1",
"@::::::::::::::::::::::1",
"@::::::::::::::::::::::1",
"@@@@@@@@@@@@@@@@@@@@@@@#",
"%%%%%%%%%%%%%%%%%%%%%%%&",
"444444444444444444444443",
"555555555555555555555553"
};
