/* XPM */
static char *close_active[] = {
/* columns rows colors chars-per-pixel */
"24 24 19 1 ",
"  c #1D1D1D",
". c #494949",
"X c gray29",
"o c gray30",
"O c #4E4E4E",
"+ c #5A5A5A",
"@ c #5D5D5D",
"# c #635858",
"$ c #586363",
"% c gray",
"& c gray84",
"* c #DADADA",
"= c gray86",
"- c gainsboro",
"; c #E2DEDE",
": c #F0D0D0",
"> c #D0F0F0",
", c gray88",
"< c None",
/* pixels */
"@@@@@@@@@@@@@@@@@@@@<<<<",
"@@@@@@@@@@@@@@@@@@@@<<<<",
"$>>>>>>>>>>>>>>>>>>><<<<",
"@>,,,,,,,,,,,,,,,,,,<<<<",
"@>,,,,,,,,,,,,,,,,,,<<<<",
"@>,,,,,,,,,,,,,,,,,,<<<<",
"@>,,,,,,,,,,,,,,,,,,,,,:",
"@>,,,,,,%+=,,,=+%,,,,,,:",
"@>,,,,,,-O.=--O.-,,,,,,:",
"@>,,,,,,,-O.&O.=,,,,,,,:",
"@>,,,,,,,,=O O-,,,,,,,,:",
"@>,,,,,,,,=O O=,,,,,,,,:",
"@>,,,,,,,-O.&O.=-,,,,,,:",
"@>,,,,,,=O.=--O.=,,,,,,:",
"@>,,,,,,%+=,,,-+%,,,,,,:",
"@>,,,,,,,,,,,,,,,,,,,,,:",
"@>,,,,,,,,,,,,,,,,,,,,,:",
"@>,,,,,,,,,,,,,,,,,,,,,:",
"@>,,,,,,,,,,,,,,,,,,,,,:",
"@;::::::::::::::::::::::",
"@@@@@@@@@@@@@@@@@@@@@@@#",
"@@@@@@@@@@@@@@@@@@@@@@@#",
">>>>>>>>>>>>>>>>>>>>>>>:",
",,,,,,,,,,,,,,,,,,,,,,,:"
};
