/* XPM */
static char *hide_pressed[] = {
/* columns rows colors chars-per-pixel */
"27 24 42 1 ",
"  c #111111",
". c gray16",
"X c #2C2C2C",
"o c gray30",
"O c #485252",
"+ c gray32",
"@ c #555555",
"# c gray35",
"$ c gray36",
"% c gray37",
"& c #586464",
"* c gray38",
"= c gray40",
"- c #676868",
"; c #828181",
": c #878383",
"> c #838888",
", c #8B8B8B",
"< c gray57",
"1 c #959595",
"2 c gray64",
"3 c #A4A4A4",
"4 c #ACACAC",
"5 c #AFAFAF",
"6 c gray70",
"7 c #BDB4B4",
"8 c #B4BDBD",
"9 c #A6C0C0",
"0 c #D8D8D8",
"q c #EFD2D2",
"w c #EAD5D5",
"e c #E2D9D9",
"r c #E5DADA",
"t c #E1DFDF",
"y c #F0D0D0",
"u c #D9E2E2",
"i c #DFE0E0",
"p c #DBE5E5",
"a c #D6EAEA",
"s c #D1EFEF",
"d c #D0F0F0",
"f c gray88",
/* pixels */
"%%%%%%%%%%%%%%%%%%%%%%%%%%%",
"%%%%%%%%%%%%%%%%%&%%%%$&%%%",
"d&O99999999999999998899999O",
"y%o66666666666666656566666o",
"y%o66666666666666666666666o",
"y%o66666666666666666666666o",
"y%o66666666666666666666666o",
"y%o66666666666666666666666o",
"y%o66666666566666666666666o",
"y%o66666661X36663X16666666o",
"y%o66666666=.263X*66666666o",
"y%o666666666=.1X*666666666o",
"y%o6666666666* *6666666666o",
"y%o66666666666,66666666666o",
"y%o66666666666666666666666o",
"y%o66666666666666666666666o",
"q=o56666666666666666666666o",
"w:+<6666666666666666666666o",
"r7#%5666666666666666666666o",
"te;@@<56666666666666666666o",
"ff0;#+ooooooooooooooooooooo",
"fifu8>-%%%%%%%%%%%%%%%%%%%%",
"ffffpaddddddddddddddddddddd",
"fffffffffffffffffffffffffff"
};
