/* XPM */
static char *shade_pressed[] = {
/* columns rows colors chars-per-pixel */
"25 24 18 1 ",
"  c #1D1D1D",
". c #3F3F3F",
"X c gray26",
"o c #474F4F",
"O c #4B4B4B",
"+ c #565656",
"@ c #5A5A5A",
"# c gray38",
"$ c #676767",
"% c #8B8B8B",
"& c gray56",
"* c gray60",
"= c gray67",
"- c #AFAFAF",
"; c gray70",
": c #A6C0C0",
"> c #D0F0F0",
", c gray88",
/* pixels */
"@@@@@@@@@@@@@@@@@@@@@@@@@",
"@@@@@@@@@@@@@@@@@@@@@@@@@",
"o::::::::::::::::::;::::o",
"O;;;;;;;;;;;;;;;;;;;;;;;o",
"O;;;;;;;;;;;;;;;;;;;;;;;o",
"O;;;;;;;;;;;;;;;;;;;;;;;o",
"O;;;;;;;;;;;;;;;;;;;;;;;O",
"O;;;;;;;%+++++++%;;;;;;;O",
"O;;;;;;;&#######&;;;;;;;O",
"O;;;;;;;;;;;;;;;;;;;;;;;O",
"O;;;;;;;;;;-$-;;;;;;;;;;O",
"O;;;;;;;;;-X X-;;;;;;;;;O",
"O;;;;;;;;-X.=X.-;;;;;;;;O",
"O;;;;;;;-X.-;-X.-;;;;;;;O",
"O;;;;;;;*O-;;;-O*;;;;;;;O",
"O;;;;;;;;;;;;;;;;;;;;;;;O",
"O;;;;;;;;;;;;;;;;;;;;;;;O",
"O;;;;;;;;;;;;;;;;;;;;;;;O",
"O;;;;;;;;;;;;;;;;;;;;;;;O",
"O;;;;;;;;;;;;;;;;;;;;;;;O",
"OOOOOOOOOOOOOOOOOOOOOOOOO",
"@@@@@@@@@@@@@@@@@@@@@@@@@",
">>>>>>>>>>>>>>>>>>>>>>>>>",
",,,,,,,,,,,,,,,,,,,,,,,,,"
};
