/* XPM */
static char *stick_pressed[] = {
/* columns rows colors chars-per-pixel */
"29 24 46 1 ",
"  c #111111",
". c #474F4F",
"X c #4B4B4B",
"o c #4C4C4C",
"O c gray32",
"+ c #565656",
"@ c #555F5F",
"# c #5A5A5A",
"$ c #5B5B5B",
"% c #646363",
"& c #636565",
"* c #6C6C6C",
"= c #717171",
"- c #7E7D7D",
"; c #7D7E7E",
": c #7A8080",
"> c #848080",
", c #808585",
"< c gray56",
"1 c #929292",
"2 c #959595",
"3 c gray67",
"4 c gray68",
"5 c gray70",
"6 c #BCB3B3",
"7 c #B3BCBC",
"8 c #A6C0C0",
"9 c #AEC1C1",
"0 c #D8D8D8",
"q c #EFD2D2",
"w c #EAD5D5",
"e c #E2D9D9",
"r c #E5DADA",
"t c #E0DFDF",
"y c #F0D0D0",
"u c #CAE6E6",
"i c #CFECEC",
"p c #D9E2E2",
"a c #DFE1E1",
"s c #DBE5E5",
"d c #D6EAEA",
"f c #D1EFEF",
"g c #D4EDED",
"h c #D8E8E8",
"j c #D0F0F0",
"k c gray88",
/* pixels */
"#############################",
"#############################",
"j@.88888888888888887888888.@j",
"y#X55555555555555555555555X#j",
"y#X55555555555555555555555X#j",
"y#X55555555555555555555555X#j",
"y#X55555555555555555555555X#j",
"y#X55555555555555555555555X#j",
"y#X55555555555555555555555o$j",
"y#X55555555555255555555555o$j",
"y#X5555555555= *5555555555o$j",
"y#o5555555555= *5555555555o$j",
"y#X55555555555255555555555o$j",
"y#X55555555555555555555555o$j",
"y#X55555555555555555555555o+j",
"y#X55555555555555555555555o$j",
"q%X45555555555555555555554o&j",
"w>O1555555555555555555555<o:j",
"r6+#355555555555555555553++9h",
"te-O+145555555555555554<+O:ik",
"kk0-+oooXXXXXXXoXXoooXoo#-usk",
"kaap7,&###############&,9fsak",
"kkkkshjjjjjjjjjjjjjjjjjgdkkkk",
"kkkkkkkkkkkkkkkk0akkkkkkkkkkk"
};
