/* XPM */
static char *close_pressed[] = {
/* columns rows colors chars-per-pixel */
"36 32 28 1 ",
"  c #020202",
". c gray2",
"X c #060606",
"o c gray3",
"O c #090908",
"+ c #080809",
"@ c gray7",
"# c #151515",
"$ c #1A1A17",
"% c #17171A",
"& c #181818",
"* c #28282E",
"= c #3F3F3F",
"- c #444444",
"; c gray27",
": c #484848",
"> c #494949",
", c gray48",
"< c #848474",
"1 c #747484",
"2 c #ACACAC",
"3 c #AFAFAF",
"4 c gray69",
"5 c #DADADA",
"6 c gray86",
"7 c gainsboro",
"8 c gray88",
"9 c None",
/* pixels */
"oooooooooooooooooooooooooooooooo9999",
"oooooooooooooooooooooooooooooooo9999",
"o$$$$$$$$$$$$$$$$$$$$$$$$$$$$$$$Xo99",
" .................................X9",
" ..................................o",
" ..................................X",
" ..................................%",
" .......................o..........%",
" ..........@2:.........-4#.........%",
" ..........=67:.......:66=.........%",
" ...........-57:.....-57:..........%",
" ............-57:...-67:...........%",
" .............-57:.-67:............%",
" ..............:77,77:.............%",
" ...............-587:..............%",
" ...............-587:..............%",
" ..............:77,67:.............%",
" .............-57:.-57:............%",
" ............-56:...-57:...........%",
" ...........-67:.....-57:..........%",
" ..........-76:.......:75-.........%",
" ......... @2:.........-2#.........%",
" ...........o......................%",
" ..................................%",
" ..................................%",
" ..................................%",
" ..................................%",
" ..................................&",
"                                   o",
"ooooooooooooooooooooooooooooooooooo*",
"<<<<<<<<<<<<<<<<<<<<<<<<<<<<<<<<<<<1",
"&&&&&&&&&&&&&&&&&&&&&&&&&&&&&&&&&&&1"
};
