/* XPM */
static char *hide_active[] = {
/* columns rows colors chars-per-pixel */
"39 32 51 1 ",
"  c gray5",
". c #141413",
"X c #131314",
"o c #1A1A1B",
"O c #202020",
"+ c #212120",
"@ c #232323",
"# c gray14",
"$ c gray15",
"% c #272727",
"& c #292926",
"* c #262628",
"= c #292928",
"- c #282829",
"; c #2A2A29",
": c #29292A",
"> c gray17",
", c #2C2C2C",
"< c #363630",
"1 c gray25",
"2 c #494949",
"3 c #4E4E4B",
"4 c #4B4B4E",
"5 c #54544F",
"6 c #4F4F53",
"7 c #4F4F54",
"8 c gray33",
"9 c #565656",
"0 c gray35",
"q c #5A5A5A",
"w c #58585F",
"e c #61615A",
"r c #737367",
"t c #686874",
"y c gray46",
"u c #767676",
"i c #7B7B75",
"p c #75757B",
"a c #828273",
"s c #838374",
"d c #888878",
"f c #727281",
"g c #747483",
"h c #787888",
"j c #A7A7A7",
"k c #ACACAC",
"l c gray83",
"z c #D5D5D5",
"x c #DADADA",
"c c gainsboro",
"v c gray88",
/* pixels */
"                                       ",
"                                       ",
"d<<ddddddddddddddddddddddddddddddddddd<",
"h  dOOOOOOOOOOOOOOOOOOOOOOOOOOOOOOOOOh ",
"h  dOOOOOOOOOOOOOOOOOOOOOOOOOOOOOOOOOh ",
"h  dOOOOOOOOOOOOOOOOOOOOOOOOOOOOOOOOOh ",
"h  dOOOOOOOOOOOOOOOOOOOOOOOOOOOOOOOOOh ",
"h  dOOOOOOOOOOOOOOOOOOOOOOOOOOOOOOOOOh ",
"h  dOOOOOOOOOOOOOOOOOOOOOOOOOOOOOOOOOh ",
"h  dOOOOOOOOOOOOOOOOOOOOOOOOOOOOOOOOOh ",
"h  dOOOOOOOOO2$OOOOOOOOOOO$2OOOOOOOOOh ",
"h  dOOOOOOOO8xk%OOOOOOOOO#jcqOOOOOOOOh ",
"h  dOOOOOOOO8xvk%OOOOOOO#jvc0OOOOOOOOh ",
"h  dOOOOOOOOO8xvk%OOOOO#jvc0OOOOOOOOOh ",
"h  dOOOOOOOOOO8xvk%OOO#jvc0OOOOOOOOOOh ",
"h  dOOOOOOOOOOO8xvk%O#jvc0OOOOOOOOOOOh ",
"h  dOOOOOOOOOOOO8xvk>jvc0OOOOOOOOOOOOh ",
"h  dOOOOOOOOOOOOO9xvlvx9OOOOOOOOOOOOOh ",
"h  dOOOOOOOOOOOOOO8xvc0OOOOOOOOOOOOOOh ",
"h  dOOOOOOOOOOOOOOO8z0OOOOOOOOOOOOOOOh ",
"h  dOOOOOOOOOOOOOOOO,OOOOOOOOOOOOOOOOh ",
"h  dOOOOOOOOOOOOOOOOOOOOOOOOOOOOOOOOOh ",
"h  dOOOOOOOOOOOOOOOOOOOOOOOOOOOOOOOOOh ",
"h  dOOOOOOOOOOOOOOOOOOOOOOOOOOOOOOOOOh ",
"gX a;OOOOOOOOOOOOOOOOOOOOOOOOOOOOOOOOh ",
"t* e3OOOOOOOOOOOOOOOOOOOOOOOOOOOOOOOOh ",
"76 +u4:OOOOOOOOOOOOOOOOOOOOOOOOOOOOOOh ",
"-p@ owfhhhhhhhhhhhhhhhhhhhhhhhhhhhhhhh ",
"O1y@                                   ",
"OO1i5&.                                ",
"OOO=5rsdddddddddddddddddddddddddddddddd",
"OOOOOOOOOOOOOOOOOOOOOOOOOOOOOOOOOOOOOOO"
};
