/* XPM */
static char *hide_active[] = {
/* columns rows colors chars-per-pixel */
"39 32 39 1 ",
"  c gray3",
". c #0F0F0E",
"X c #0E0E0F",
"o c #151516",
"O c #181818",
"+ c #1C1C1B",
"@ c gray12",
"# c #202021",
"$ c #232322",
"% c #2E2E28",
"& c gray21",
"* c gray22",
"= c gray23",
"- c #484845",
"; c #454548",
": c #494949",
"> c #4E4E49",
", c #4F4F4A",
"< c #49494E",
"1 c gray34",
"2 c #5C5C55",
"3 c #54545B",
"4 c #6E6E62",
"5 c #63636F",
"6 c #7E7E6F",
"7 c gray44",
"8 c #727272",
"9 c #777771",
"0 c #717177",
"q c #767676",
"w c #70707F",
"e c #7C7C7C",
"r c #848474",
"t c #747484",
"y c #898989",
"u c gray80",
"i c #CECECE",
"p c gray81",
"a c gray88",
/* pixels */
"                                       ",
"                                       ",
"r%%rrrrrrrrrrrrrrrrrrrrrrrrrrrrrrrrrrr%",
"t  rOOOOOOOOOOOOOOOOOOOOOOOOOOOOOOOOOt ",
"t  rOOOOOOOOOOOOOOOOOOOOOOOOOOOOOOOOOt ",
"t  rOOOOOOOOOOOOOOOOOOOOOOOOOOOOOOOOOt ",
"t  rOOOOOOOOOOOOOOOOOOOOOOOOOOOOOOOOOt ",
"t  rOOOOOOOOOOOOOOOOOOOOOOOOOOOOOOOOOt ",
"t  rOOOOOOOOOOOOOOOOOOOOOOOOOOOOOOOOOt ",
"t  rOOOOOOOOOOOOOOOOOOOOOOOOOOOOOOOOOt ",
"t  rOOOOOOOOOOOOOOOOOOOOOOOOOOOOOOOOOt ",
"t  rOOOOOOOOOOy*OOOOOOOOO*yOOOOOOOOOOt ",
"t  rOOOOOOOOO1ai*OOOOOOO*ia1OOOOOOOOOt ",
"t  rOOOOOOOOOOqap=OOOOO&iaeOOOOOOOOOOt ",
"t  rOOOOOOOOOOOqap=OoO&iaeOOOOOOOOOOOt ",
"t  rOOOOOOOOOOOOqap=o&iaeOOOOOOOOOOOOt ",
"t  rOOOOOOOOOOOOOeai1iaeOOOOOOOOOOOOOt ",
"t  rOOOOOOOOOOOOOOqaaaeOOOOOOOOOOOOOOt ",
"t  rOOOOOOOOOOOOOOOqaeOOOOOOOOOOOOOOOt ",
"t  rOOOOOOOOOOOOOOOO:OOOOOOOOOOOOOOOOt ",
"t  rOOOOOOOOOOOOOOOOOOOOOOOOOOOOOOOOOt ",
"t  rOOOOOOOOOOOOOOOOOOOOOOOOOOOOOOOOOt ",
"t  rOOOOOOOOOOOOOOOOOOOOOOOOOOOOOOOOOt ",
"t  rOOOOOOOOOOOOOOOOOOOOOOOOOOOOOOOOOt ",
"t. 6#OOOOOOOOOOOOOOOOOOOOOOOOOOOOOOOOt ",
"5# 2-OOOOOOOOOOOOOOOOOOOOOOOOOOOOOOOOt ",
"<< +7;#OOOOOOOOOOOOOOOOOOOOOOOOOOOOOOt ",
"#0# o3tttttttttttttttttttttttttttttttt ",
"O*7@                                   ",
"OO*9,$.                                ",
"OOO@>4rrrrrrrrrrrrrrrrrrrrrrrrrrrrrrrrr",
"OOOOOOOoOOOOOOOOOOOOOOOOOOOOOOOOOOOOOOO"
};
