/* XPM */
static char *hide_pressed[] = {
/* columns rows colors chars-per-pixel */
"39 32 46 1 ",
"  c #020202",
". c gray1",
"X c gray2",
"o c #060606",
"O c gray3",
"+ c gray4",
"@ c #0B0B0A",
"# c #0B0B0B",
"$ c #0C0C0C",
"% c gray5",
"& c gray7",
"* c #131313",
"= c #141413",
"- c #131314",
"; c #1B1B18",
": c #202020",
"> c #232323",
", c #292926",
"< c #262628",
"1 c #292928",
"2 c #282829",
"3 c #313131",
"4 c #363630",
"5 c #3C3C3C",
"6 c gray24",
"7 c gray25",
"8 c #414141",
"9 c #54544F",
"0 c #4F4F53",
"q c #4F4F54",
"w c #737367",
"e c #686874",
"r c gray46",
"t c #7B7B75",
"y c #75757B",
"u c #838374",
"i c #888878",
"p c #747483",
"a c #787888",
"s c #909090",
"d c #959595",
"f c gray",
"g c gray75",
"h c #C5C5C5",
"j c #C6C6C6",
"k c #CBCBCB",
/* pixels */
"%%%%%%%%%%%%%%%%%%%%%%%%%%%%%%%%%%%%%%%",
"%%%%%%%%%%%%%%%%%%%%%%%%%%%%%%%%%%%%%%%",
"i4@;;;;;;;;;;;;;;;;;;;;;;;;;;;;;;;;;;;@",
"a% ooooooooooooooooooooooooooooooooooo ",
"a% ooooooooooooooooooooooooooooooooooo ",
"a% ooooooooooooooooooooooooooooooooooo ",
"a% ooooooooooooooooooooooooooooooooooo ",
"a% ooooooooooooooooooooooooooooooooooo ",
"a% ooooooooooooooooooooooooooooooooooo ",
"a% ooooooooooooooooooooooooooooooooooo ",
"a% oooooooooo3$ooooooooooo$3oooooooooo ",
"a% ooooooooo5hd%ooooooooo#sj8ooooooooo ",
"a% ooooooooo5hkd%ooooooo#skj7ooooooooo ",
"a% oooooooooo5hkd%ooooo#skj7oooooooooo ",
"a% ooooooooooo5hkd%ooo#skj7ooooooooooo ",
"a% oooooooooooo5hkd%o#skj7oooooooooooo ",
"a% ooooooooooooo5hkd&skj7ooooooooooooo ",
"a% oooooooooooooo6hkfkh6oooooooooooooo ",
"a% ooooooooooooooo5hkj7ooooooooooooooo ",
"a% oooooooooooooooo5g7oooooooooooooooo ",
"a% ooooooooooooooooo*ooooooooooooooooo ",
"a% ooooooooooooooooooooooooooooooooooo ",
"a% ooooooooooooooooooooooooooooooooooo ",
"a% ooooooooooooooooooooooooooooooooooo ",
"p-.ooooooooooooooooooooooooooooooooooo ",
"e<XXoooooooooooooooooooooooooooooooooo ",
"q0+.oooooooooooooooooooooooooooooooooo ",
"2y>O.Xoooooooooooooooooooooooooooooooo ",
":7r>+X.                                ",
"::7t9,=%%%%%%%%%%%%%%%%%%%%%%%%%%%%%%%%",
":::19wuiiiiiiiiiiiiiiiiiiiiiiiiiiiiiiii",
":::::::::::::::::::::::::::::::::::::::"
};
