/* XPM */
static char *close_prelight[] = {
/* columns rows colors chars-per-pixel */
"36 32 24 1 ",
"  c #131313",
". c #2A1111",
"X c #112A2A",
"o c #353535",
"O c gray21",
"+ c gray24",
"@ c #4A3131",
"# c #4A3434",
"$ c #314A4A",
"% c #344A4A",
"& c gray25",
"* c #494949",
"= c #4C4C4C",
"- c #7B7B7B",
"; c gray49",
": c gray51",
"> c gray53",
", c #888888",
"< c #8D8D8D",
"1 c #B1B1B1",
"2 c #C3C3C3",
"3 c gray78",
"4 c #DADADA",
"5 c None",
/* pixels */
"--------------------------------5555",
"--------------------------------5555",
"-%%%%%%%%%%%%%%%%%%%%%%%%%%%%%%%oo55",
"-$OOOOOOOOOOOOOOOOOOOOOOOOOOOOOOOOO5",
"-$OOOOOOOOOOOOOOOOOOOOOOOOOOOOOOOOOo",
"-$OOOOOOOOOOOOOOOOOOOOOOOOOOOOOOOOOO",
"-$OOOOOOOOO&OOOOOOOOOOOOO&OOOOOOOOO#",
"-$OOOOOOOO*2<OOOOOOOOOOO,3=OOOOOOOO#",
"-$OOOOOOOO;44,OOOOOOOOO,44;OOOOOOOO#",
"-$OOOOOOOOO:44<OOOOOOO,44>OOOOOOOOO#",
"-$OOOOOOOOOO:44<OOOOO,44>OOOOOOOOOO#",
"-$OOOOOOOOOOO:44<OOO,44>OOOOOOOOOOO#",
"-$OOOOOOOOOOOO:44<O,44>OOOOOOOOOOOO#",
"-$OOOOOOOOOOOOO,44144,OOOOOOOOOOOOO#",
"-$OOOOOOOOOOOOOO:444>OOOOOOOOOOOOOO#",
"-$OOOOOOOOOOOOOO,444<OOOOOOOOOOOOOO#",
"-$OOOOOOOOOOOOO,44144,OOOOOOOOOOOOO#",
"-$OOOOOOOOOOOO,44>O:44<OOOOOOOOOOOO#",
"-$OOOOOOOOOOO,44>OOO:44<OOOOOOOOOOO#",
"-$OOOOOOOOOO,44>OOOOO:44<OOOOOOOOOO#",
"-$OOOOOOOOO,44>OOOOOOO:44<OOOOOOOOO#",
"-$OOOOOOOO;44,OOOOOOOOO,44;OOOOOOOO#",
"-$OOOOOOOO*2>OOOOOOOOOOO:3=OOOOOOOO#",
"-$OOOOOOOOO&OOOOOOOOOOOOO&OOOOOOOOO#",
"-$OOOOOOOOOOOOOOOOOOOOOOOOOOOOOOOOO#",
"-$OOOOOOOOOOOOOOOOOOOOOOOOOOOOOOOOO#",
"-$OOOOOOOOOOOOOOOOOOOOOOOOOOOOOOOOO#",
"-+@@@@@@@@@@@@@@@@@@@@@@@@@@@@@@@@@#",
"------------------------------------",
"------------------------------------",
"XXXXXXXXXXXXXXXXXXXXXXXXXXXXXXXXXXX.",
"                                   ."
};
