/* XPM */
static char *hide_prelight[] = {
/* columns rows colors chars-per-pixel */
"39 32 52 1 ",
"  c #131313",
". c #141313",
"X c #131414",
"o c #171515",
"O c #151717",
"+ c #1C1111",
"@ c #111C1C",
"# c #240D0D",
"$ c #2B0909",
"% c #2A0A0A",
"& c #211616",
"* c #3D1B1B",
"= c #0D2424",
"- c #092B2B",
"; c #0A2A2A",
": c #172121",
"> c #1B3D3D",
", c gray14",
"< c #342E2E",
"1 c #2E3434",
"2 c #213F3F",
"3 c #313131",
"4 c #363434",
"5 c #343636",
"6 c gray21",
"7 c #3A3A3A",
"8 c gray23",
"9 c #3C3C3C",
"0 c #402121",
"q c #2E4B4B",
"w c #3E4444",
"e c gray25",
"r c #464040",
"t c #4E4444",
"y c #424C4C",
"u c gray35",
"i c gray39",
"p c #646464",
"a c #646565",
"s c #666565",
"d c #676767",
"f c #686868",
"g c gray44",
"h c gray45",
"j c #767676",
"k c #7B7B7B",
"l c #A9A9A9",
"z c gray68",
"x c #D0D0D0",
"c c gray83",
"v c gray84",
"b c #DADADA",
/* pixels */
"kkkkkkkkkkkkkkkkkkkkkkkkkkkkkkkkkkkkkkk",
"kkkkkkkkkkkkkkkkkkkkkkkkkkkkkkkkkkkkkkk",
"-kkqqqqqqqqqqqqqqqqqqqqqqqqqqqqqqqqqqqk",
"$kk>666666666666666666666666666666666*k",
"$kk>666666666666666666666666666666666*k",
"$kk>666666666666666666666666666666666*k",
"$kk>666666666666666666666666666666666*k",
"$kk>666666666666666666666666666666666*k",
"$kk>666666666666666666666666666666666*k",
"$kk>666666666666666666666666666666666*k",
"$kk>666666666u8666666666668u666666666*k",
"$kk>66666666icz96666666667lvf66666666*k",
"$kk>66666666icbz966666667lbvd66666666*k",
"$kk>666666666icbz9666667lbvd666666666*k",
"$kk>6666666666icbz96667lbvd6666666666*k",
"$kk>66666666666icbz967lbvd66666666666*k",
"$kk>666666666666icbzelbvd666666666666*k",
"$kk>6666666666666pcbxbcp6666666666666*k",
"$kk>66666666666666icbvd66666666666666*k",
"$kk>666666666666666ixd666666666666666*k",
"$kk>6666666666666666e6666666666666666*k",
"$kk>666666666666666666666666666666666*k",
"$kk>666666666666666666666666666666666*k",
"$kk>666666666666666666666666666666666*k",
"%jk2566666666666666666666666666666666*k",
"#sky166666666666666666666666666666666*k",
"+rkg3<4666666666666666666666666666666*k",
".&fkht0*******************************k",
" o,fkkkkkkkkkkkkkkkkkkkkkkkkkkkkkkkkkkk",
"  O:wajkkkkkkkkkkkkkkkkkkkkkkkkkkkkkkkk",
"   X@=;--------------------------------",
"                                       "
};
