/* XPM */
static char *hide_pressed[] = {
/* columns rows colors chars-per-pixel */
"33 28 51 1 ",
"  c #020202",
". c gray1",
"X c gray2",
"o c #060606",
"O c gray3",
"+ c gray4",
"@ c #0C0C09",
"# c #0C0C0C",
"$ c gray5",
"% c #141413",
"& c #131314",
"* c #1D1D16",
"= c #202020",
"- c #242423",
"; c #232324",
": c #252525",
"> c #272727",
", c #2A2A25",
"< c #252529",
"1 c #282828",
"2 c #292928",
"3 c #282829",
"4 c gray16",
"5 c #3A3A2D",
"6 c #313131",
"7 c #3C3C3C",
"8 c gray24",
"9 c #41413F",
"0 c #3F3F41",
"q c #414141",
"w c #56564C",
"e c #56564D",
"r c #4D4D56",
"t c #4C4C57",
"y c #686868",
"u c #777763",
"i c #636378",
"p c gray46",
"a c #7D7D74",
"s c #74747D",
"d c #8B8B6D",
"f c #909070",
"g c #6D6D8A",
"h c #707090",
"j c #848484",
"k c gray66",
"l c #B7B7B7",
"z c gray73",
"x c #C5C5C5",
"c c #C6C6C6",
"v c #CBCBCB",
/* pixels */
"$$$$$$$$$$$$$$$$$$$$$$$$$$$$$$$$$",
"$$$$$$$$$$$$$$$$$$$$$$$$$$$$$$$$$",
"f5@*****************************@",
"h$ ooooooooooooooooooooooooooooo ",
"h$ ooooooooooooooooooooooooooooo ",
"h$ ooooooooooooooooooooooooooooo ",
"h$ ooooooooooooooooooooooooooooo ",
"h$ ooooooooooooooooooooooooooooo ",
"h$ ooooooooooooooooooooooooooooo ",
"h$ oooooooo#6ooooooooo6#oooooooo ",
"h$ oooooooojx8ooooooo8xjoooooooo ",
"h$ oooooooo:lcqooooo7xz4oooooooo ",
"h$ ooooooooo:lcqooo7xz4ooooooooo ",
"h$ oooooooooo:lcqo7xz4oooooooooo ",
"h$ ooooooooooo>zxyxz>ooooooooooo ",
"h$ oooooooooooo:lvz1oooooooooooo ",
"h$ ooooooooooooo:k1ooooooooooooo ",
"h$ ooooooooooooooOoooooooooooooo ",
"h$ ooooooooooooooooooooooooooooo ",
"h$ ooooooooooooooooooooooooooooo ",
"g&.ooooooooooooooooooooooooooooo ",
"i<XXoooooooooooooooooooooooooooo ",
"tr+.oooooooooooooooooooooooooooo ",
"3s;O.Xoooooooooooooooooooooooooo ",
"=0p-+X.                          ",
"==9ae,%$$$$$$$$$$$$$$$$$$$$$$$$$$",
"===2wudffffffffffffffffffffffffff",
"================================="
};
