/* XPM */
static char *top_right_active[] = {
/* columns rows colors chars-per-pixel */
"6 28 17 1 ",
"  c #0B0B0B",
". c gray5",
"X c #111111",
"o c #181819",
"O c #1F1F1D",
"+ c #202020",
"@ c #2A2A28",
"# c #28282A",
"$ c #4E4E49",
"% c #49494E",
"& c #646454",
"* c #535362",
"= c #767676",
"- c #898969",
"; c #696989",
": c #6D6D90",
"> c None",
/* pixels */
" .X>>>",
"   .>>",
"-&O .>",
"@$=o X",
"++%* .",
"++#;  ",
"+++:  ",
"+++:  ",
"+++:  ",
"+++:  ",
"+++:  ",
"+++:  ",
"+++:  ",
"+++:  ",
"+++:  ",
"+++:  ",
"+++:  ",
"+++:  ",
"+++:  ",
"+++:  ",
"+++:  ",
"+++:  ",
"+++:  ",
"+++:  ",
"+++:  ",
"+++:  ",
"+++:  ",
"+++:  "
};
