/* XPM */
static char *close_prelight[] = {
/* columns rows colors chars-per-pixel */
"36 32 28 1 ",
"  c gray15",
". c #3F3F3F",
"X c #434343",
"o c #5B5B5B",
"O c #5F5F5F",
"+ c #685C5C",
"@ c gray40",
"# c #696363",
"$ c #636969",
"% c #686868",
"& c #898989",
"* c gray57",
"= c gray60",
"- c #9D9D9D",
"; c #DFDFDF",
": c #FBDBDB",
"> c #FDDDDD",
", c #DBFBFB",
"< c #DDFDFD",
"1 c gray89",
"2 c #EEEEEE",
"3 c #F1EDED",
"4 c #FDEDED",
"5 c #EDFDFD",
"6 c gray97",
"7 c #FBFBFB",
"8 c gray99",
"9 c None",
/* pixels */
"OOOOOOOOOOOOOOOOOOOOOOOOOOOOOOOO9999",
"@@@@@@@@@@@@@@@@@@@@@@@@@@@@@@@@9999",
"$55555555555555555555555555555557799",
"%<7777777777777777777777777777777789",
"%<7777777777777777777777777777777777",
"%<7777777777777777777777777777777778",
"%<7777777772777777777777727777777774",
"%<777777771X&77777777777*.;777777774",
"%<77777777-  *777777777*  -777777774",
"%<777777777=  &7777777*  *7777777774",
"%<7777777777=  &77777*  *77777777774",
"%<77777777777=  &777*  *777777777774",
"%<777777777777=  &7*  *7777777777774",
"%<7777777777777*  o  *77777777777774",
"%<77777777777777=   *777777777777774",
"%<77777777777777*   &777777777777774",
"%<7777777777777*  o  *77777777777774",
"%<777777777777*  *7=  &7777777777774",
"%<77777777777*  *777=  &777777777774",
"%<7777777777*  *77777=  &77777777774",
"%<777777777*  *7777777=  &7777777774",
"%<77777777-  *777777777*  -777777774",
"%<777777771X*77777777777=.;777777774",
"%<7777777772777777777777727777777774",
"%<7777777777777777777777777777777774",
"%<7777777777777777777777777777777774",
"%<7777777777777777777777777777777774",
"%3>>>>>>>>>>>>>>>>>>>>>>>>>>>>>>>>>4",
"%%%%%%%%%%%%%%%%%%%%%%%%%%%%%%%%%%%#",
"@@@@@@@@@@@@@@@@@@@@@@@@@@@@@@@@@@@+",
",,,,,,,,,,,,,,,,,,,,,,,,,,,,,,,,,,,:",
"66666666666666666666666666666666666:"
};
