/* XPM */
static char *maximize_pressed[] = {
/* columns rows colors chars-per-pixel */
"37 32 18 1 ",
"  c #101010",
". c #202020",
"X c #222222",
"o c #4C5555",
"O c gray33",
"+ c #5F5F5F",
"@ c #656565",
"# c gray40",
"$ c #6A6A6A",
"% c #8B8B8B",
"& c #989898",
"* c gray65",
"= c gray66",
"- c #AFC9C9",
"; c #C3C3C3",
": c #C5C5C5",
"> c #DBFBFB",
", c gray97",
/* pixels */
"++++++++++++++++++++++++++++++++@++++",
"##################################@##",
"o-----------------------------------o",
"O:::::::::::::::::::::::::::::::::::O",
"O:::::::::::::::::::::::::::::::::::O",
"O:::::::::::::::::::::::::::::::::::O",
"O:::::::::::::::::::::::::::::::::::O",
"O:::::::::::::::::::::::::::::::::::O",
"O:::::::::::::::::::::::::::::::::::O",
"O:::::::::::::::::::::::::::::::::::O",
"O:::::::::::::::::&:::::::::::::::::O",
"O::::::::::::::::$ #::::::::::::::::O",
"O:::::::::::::::$   #:::::::::::::::O",
"O::::::::::::::$ .%. $::::::::::::::O",
"O:::::::::::::$ .*:=. #:::::::::::::O",
"O::::::::::::$ .*:::=. #::::::::::::O",
"O:::::::::::$  *:::::=. #:::::::::::O",
"O::::::::::% .*:::::::=. %::::::::::O",
"O:::::::::::$*:::::::::=#;::::::::::O",
"O:::::::::::::::::::::::;;::::::::::O",
"O:::::::::::::::::::::::::::::::::::O",
"O:::::::::::::::::::::::::::::::::::O",
"O:::::::::::::::::::::::::::::::::::O",
"O:::::::::::::::::::::::::::::::::::O",
"O:::::::::::::::::::::::::::::::::::O",
"O:::::::::::::::::::::::::::::::::::O",
"O:::::::::::::::::::::::::::::::::::O",
"O:::::::::::::::::::::::::::::::::::O",
"OOOOOOOOOOOOOOOOOOOOOOOOOOOOOOOOOOOOO",
"####$################################",
">>>>>>>>>>>>>>>>>>>>>>>>>>>>>>>>>>>>>",
",,,,,,,,,,,,,,,,,,,,,,,,,,,,,,,,,,,,,"
};
