/* XPM */
static char *bottom_left_active[] = {
/* columns rows colors chars-per-pixel */
"6 6 20 1 ",
"  c #5F5F5F",
". c gray40",
"X c #757474",
"o c gray46",
"O c #777777",
"+ c gray47",
"@ c #7B7D7D",
"# c #939393",
"$ c gray58",
"% c #CFC0C0",
"& c #C2D2D2",
"* c #F1D1D1",
"= c #D1F1F1",
"- c gray88",
"; c #EAE5E5",
": c #E5EAEA",
"> c #ECEAEA",
", c #EAECEC",
"< c #ECECEC",
"1 c None",
/* pixels */
". =,<<",
"O &:<<",
"$ @-;>",
"1o X%*",
"11o   ",
"111#+."
};
