/* XPM */
static char *bottom_right_active[] = {
/* columns rows colors chars-per-pixel */
"6 6 15 1 ",
"  c #535353",
". c #585858",
"X c gray39",
"o c #656565",
"O c #6B6767",
"+ c gray48",
"@ c #CBB4B4",
"# c #E8C9C9",
"$ c #EACACA",
"% c #EBCACA",
"& c #E7D6D6",
"* c #E7D7D7",
"= c #E2DEDE",
"- c gray88",
"; c None",
/* pixels */
"--=$ .",
"--*@ o",
"=&#O +",
"%@O X;",
"   X;;",
".o+;;;"
};
