/* XPM */
static char *close_active[] = {
/* columns rows colors chars-per-pixel */
"36 32 19 1 ",
"  c #161616",
". c gray18",
"X c #323232",
"o c #494949",
"O c #5F5151",
"+ c #515F5F",
"@ c #5A5A5A",
"# c #767676",
"$ c gray49",
"% c #848484",
"& c gray54",
"* c #C8C8C8",
"= c gray80",
"- c #D7D7D7",
"; c #F4CBCB",
": c #E3DDDD",
"> c #CBF4F4",
", c #E4E4E4",
"< c None",
/* pixels */
"@@@@@@@@@@@@@@@@@@@@@@@@@@@@@@@@<<<<",
"@@@@@@@@@@@@@@@@@@@@@@@@@@@@@@@@<<<<",
"+>>>>>>>>>>>>>>>>>>>>>>>>>>>>>>><<<<",
"@>,,,,,,,,,,,,,,,,,,,,,,,,,,,,,,<<<<",
"@>,,,,,,,,,,,,,,,,,,,,,,,,,,,,,,<<<<",
"@>,,,,,,,,,,,,,,,,,,,,,,,,,,,,,,<<<<",
"@>,,,,,,,,,-,,,,,,,,,,,,,-,,,,,,,,,;",
"@>,,,,,,,,=X#,,,,,,,,,,,$.*,,,,,,,,;",
"@>,,,,,,,,&  $,,,,,,,,,$  &,,,,,,,,;",
"@>,,,,,,,,,%  #,,,,,,,$  $,,,,,,,,,;",
"@>,,,,,,,,,,%  #,,,,,$  $,,,,,,,,,,;",
"@>,,,,,,,,,,,%  #,,,$  $,,,,,,,,,,,;",
"@>,,,,,,,,,,,,%  #,$  $,,,,,,,,,,,,;",
"@>,,,,,,,,,,,,,$  o  $,,,,,,,,,,,,,;",
"@>,,,,,,,,,,,,,,%   $,,,,,,,,,,,,,,;",
"@>,,,,,,,,,,,,,,$   #,,,,,,,,,,,,,,;",
"@>,,,,,,,,,,,,,$  o  $,,,,,,,,,,,,,;",
"@>,,,,,,,,,,,,$  $,%  #,,,,,,,,,,,,;",
"@>,,,,,,,,,,,$  $,,,%  #,,,,,,,,,,,;",
"@>,,,,,,,,,,$  $,,,,,%  #,,,,,,,,,,;",
"@>,,,,,,,,,$  $,,,,,,,%  #,,,,,,,,,;",
"@>,,,,,,,,&  $,,,,,,,,,$  &,,,,,,,,;",
"@>,,,,,,,,=X$,,,,,,,,,,,%.*,,,,,,,,;",
"@>,,,,,,,,,-,,,,,,,,,,,,,-,,,,,,,,,;",
"@>,,,,,,,,,,,,,,,,,,,,,,,,,,,,,,,,,;",
"@>,,,,,,,,,,,,,,,,,,,,,,,,,,,,,,,,,;",
"@>,,,,,,,,,,,,,,,,,,,,,,,,,,,,,,,,,;",
"@:;;;;;;;;;;;;;;;;;;;;;;;;;;;;;;;;;;",
"@@@@@@@@@@@@@@@@@@@@@@@@@@@@@@@@@@@O",
"@@@@@@@@@@@@@@@@@@@@@@@@@@@@@@@@@@@O",
">>>>>>>>>>>>>>>>>>>>>>>>>>>>>>>>>>>;",
",,,,,,,,,,,,,,,,,,,,,,,,,,,,,,,,,,,;"
};
