/* XPM */
static char *hide_pressed[] = {
/* columns rows colors chars-per-pixel */
"39 32 50 1 ",
"  c #202020",
". c #232323",
"X c gray14",
"o c #282828",
"O c #434D4D",
"+ c #484848",
"@ c #494949",
"# c #4C4C4C",
"$ c gray30",
"% c #505050",
"& c gray33",
"* c #555555",
"= c #525E5E",
"- c #585858",
"; c #636262",
": c #626363",
"> c #7B7A7A",
", c #7A7B7B",
"< c #837E7E",
"1 c #7F8484",
"2 c gray53",
"3 c #898989",
"4 c #8B8B8B",
"5 c gray56",
"6 c gray57",
"7 c #939393",
"8 c #AAAAAA",
"9 c #ACACAC",
"0 c gray68",
"q c #AEAEAE",
"w c #AFAFAF",
"e c gray70",
"r c #BAB0B0",
"t c #B2BCBC",
"y c #A4C0C0",
"u c #D7D7D7",
"i c #EFCFCF",
"p c #F0CDCD",
"a c #E1D7D7",
"s c #EAD3D3",
"d c #E5D9D9",
"f c #E0DFDF",
"g c #CFEFEF",
"h c #D7E1E1",
"j c #DEE0E0",
"k c #DFE0E0",
"l c #D9E5E5",
"z c #D3EAEA",
"x c #CDF0F0",
"c c gray88",
/* pixels */
"---------------------------------------",
"---------------------------------------",
"x=OyyyyyyyyyyyyyyyyyyyyyyyyyyyyyyyyyyyO",
"p-+eeeeeeeeeeeeeeeeeeeeeeeeeeeeeeeeeee+",
"p-+eeeeeeeeeeeeeeeeeeeeeeeeeeeeeeeeeee+",
"p-+eeeeeeeeeeeeeeeeeeeeeeeeeeeeeeeeeee+",
"p-+eeeeeeeeeeeeeeeeeeeeeeeeeeeeeeeeeee+",
"p-+eeeeeeeeeeeeeeeeeeeeeeeeeeeeeeeeeee+",
"p-+eeeeeeeeeeeeeeeeeeeeeeeeeeeeeeeeeee+",
"p-+eeeeeeeeeeeeeeeeeeeeeeeeeeeeeeeeeee+",
"p-+eeeeeeeeee7qeeeeeeeeeeeq7eeeeeeeeee+",
"p-+eeeeeeeee4X+0eeeeeeeeew#.2eeeeeeeee+",
"p-+eeeeeeeee4X +0eeeeeeew# .2eeeeeeeee+",
"p-+eeeeeeeeee4X +0eeeeew# .2eeeeeeeeee+",
"p-+eeeeeeeeeee4X +0eeew# .2eeeeeeeeeee+",
"p-+eeeeeeeeeeee4X +0ew# .2eeeeeeeeeeee+",
"p-+eeeeeeeeeeeee4X +8# .2eeeeeeeeeeeee+",
"p-+eeeeeeeeeeeeee3X o X3eeeeeeeeeeeeee+",
"p-+eeeeeeeeeeeeeee4X .2eeeeeeeeeeeeeee+",
"p-+eeeeeeeeeeeeeeee4o2eeeeeeeeeeeeeeee+",
"p-+eeeeeeeeeeeeeeeee8eeeeeeeeeeeeeeeee+",
"p-+eeeeeeeeeeeeeeeeeeeeeeeeeeeeeeeeeee+",
"p-+eeeeeeeeeeeeeeeeeeeeeeeeeeeeeeeeeee+",
"p-+eeeeeeeeeeeeeeeeeeeeeeeeeeeeeeeeeee+",
"i;@qeeeeeeeeeeeeeeeeeeeeeeeeeeeeeeeeee+",
"s<$6eeeeeeeeeeeeeeeeeeeeeeeeeeeeeeeeee+",
"dr&-9eeeeeeeeeeeeeeeeeeeeeeeeeeeeeeeee+",
"fa>%*5qeeeeeeeeeeeeeeeeeeeeeeeeeeeeeee+",
"cfu,&$@++++++++++++++++++++++++++++++++",
"cckht1:--------------------------------",
"cccjlzgxxxxxxxxxxxxxxxxxxxxxxxxxxxxxxxx",
"ccccccccccccccccccccccccccccccccccccccc"
};
