/* XPM */
static char *hide_active[] = {
/* columns rows colors chars-per-pixel */
"39 32 48 1 ",
"  c gray14",
". c #282828",
"X c #2A2A2A",
"o c #2F2F2F",
"O c gray34",
"+ c #5D5D5D",
"@ c gray37",
"# c #586464",
"$ c #686767",
"% c #676868",
"& c #747373",
"* c #787A7A",
"= c #828181",
"- c #818282",
"; c #878383",
": c #838888",
"> c #A7A7A7",
", c gray67",
"< c gray68",
"1 c #B7B7B7",
"2 c #BDB4B4",
"3 c #B4BDBD",
"4 c #C9BCBC",
"5 c #BECCCC",
"6 c #D5D5D5",
"7 c #D8D8D8",
"8 c gray85",
"9 c #DADADA",
"0 c gainsboro",
"q c #EBCECE",
"w c #EFD2D2",
"e c #EAD5D5",
"r c #E2D9D9",
"t c #E5DADA",
"y c #E2DDDD",
"u c #E0DFDF",
"i c #E1DFDF",
"p c #F0D0D0",
"a c #CFECEC",
"s c #D9E2E2",
"d c #DFE0E0",
"f c #DFE1E1",
"g c #DDE2E2",
"h c #DBE5E5",
"j c #D6EAEA",
"k c #D1EFEF",
"l c #D0F0F0",
"z c gray88",
/* pixels */
"@@@@@@@@@@@@@@@@@@@@@@@@@@@@@@@@@@@@@@@",
"@@@@@@@@@@@@@@@@@@@@@@@@@@@@@@@@@@@@@@@",
"l##lllllllllllllllllllllllllllllllllll#",
"p@@lzzzzzzzzzzzzzzzzzzzzzzzzzzzzzzzzzp@",
"p@@lzzzzzzzzzzzzzzzzzzzzzzzzzzzzzzzzzp@",
"p@@lzzzzzzzzzzzzzzzzzzzzzzzzzzzzzzzzzp@",
"p@@lzzzzzzzzzzzzzzzzzzzzzzzzzzzzzzzzzp@",
"p@@lzzzzzzzzzzzzzzzzzzzzzzzzzzzzzzzzzp@",
"p@@lzzzzzzzzzzzzzzzzzzzzzzzzzzzzzzzzzp@",
"p@@lzzzzzzzzzzzzzzzzzzzzzzzzzzzzzzzzzp@",
"p@@lzzzzzzzzz19zzzzzzzzzzz91zzzzzzzzzp@",
"p@@lzzzzzzzz<XO8zzzzzzzzz0+.>zzzzzzzzp@",
"p@@lzzzzzzzz<X O8zzzzzzz0+ .>zzzzzzzzp@",
"p@@lzzzzzzzzz<X O8zzzzz0+ .>zzzzzzzzzp@",
"p@@lzzzzzzzzzz<X O8zzz0+ .>zzzzzzzzzzp@",
"p@@lzzzzzzzzzzz<X O8z0+ .>zzzzzzzzzzzp@",
"p@@lzzzzzzzzzzzz<X O6+ .>zzzzzzzzzzzzp@",
"p@@lzzzzzzzzzzzzz,X o X,zzzzzzzzzzzzzp@",
"p@@lzzzzzzzzzzzzzz<X .>zzzzzzzzzzzzzzp@",
"p@@lzzzzzzzzzzzzzzz<o>zzzzzzzzzzzzzzzp@",
"p@@lzzzzzzzzzzzzzzzz6zzzzzzzzzzzzzzzzp@",
"p@@lzzzzzzzzzzzzzzzzzzzzzzzzzzzzzzzzzp@",
"p@@lzzzzzzzzzzzzzzzzzzzzzzzzzzzzzzzzzp@",
"p@@lzzzzzzzzzzzzzzzzzzzzzzzzzzzzzzzzzp@",
"w$@afzzzzzzzzzzzzzzzzzzzzzzzzzzzzzzzzp@",
"e;@5gzzzzzzzzzzzzzzzzzzzzzzzzzzzzzzzzp@",
"t2@*9yizzzzzzzzzzzzzzzzzzzzzzzzzzzzzzp@",
"ur=@&4qppppppppppppppppppppppppppppppp@",
"zi7-@@@@@@@@@@@@@@@@@@@@@@@@@@@@@@@@@@@",
"zzfs3:%@@@@@@@@@@@@@@@@@@@@@@@@@@@@@@@@",
"zzzdhjkllllllllllllllllllllllllllllllll",
"zzzzzzzzzzzzzzzzzzzzzzzzzzzzzzzzzzzzzzz"
};
