/* XPM */
static char *maximize_prelight[] = {
/* columns rows colors chars-per-pixel */
"37 32 23 1 ",
"  c #181818",
". c gray11",
"X c #1E1E1E",
"o c #252525",
"O c gray33",
"+ c gray35",
"@ c #5A5A5A",
"# c gray37",
"$ c #5A6161",
"% c #B1B1B1",
"& c #B4B4B4",
"* c #B6B6B6",
"= c #C3C3C3",
"- c #FAD1D1",
"; c #CBF4F4",
": c #D1FAFA",
"> c #E4E4E4",
", c gray90",
"< c #EAE4E4",
"1 c gray92",
"2 c gray93",
"3 c #E5FAFA",
"4 c gray95",
/* pixels */
"@@@@@@@@@@@@@@@@@@@@@@@@@@@@@@@@@@@@@",
"@@@@@@@@@@@@@@@@@@@@@@@@@@@@@@@@@@@@@",
"$33333333333333333333333333333333333$",
"#:444444444444444444444444444444444-#",
"#:444444444444444444444444444444444-#",
"#:444444444444444444444444444444444-#",
"#:444444444444444444444444444444444-#",
"#:444444444444444444444444444444444-#",
"#:444444444444444444444444444444444-#",
"#:4444444444444444,4444444444444444-#",
"#:444444444444444*o%444444444444444-#",
"#:44444444444444*X .%44444444444444-#",
"#:4444444444444&X o X&4444444444444-#",
"#:444444444444*X O,+ .%444444444444-#",
"#:44444444444*X O142+ .%44444444444-#",
"#:4444444444*X O14442+ .%4444444444-#",
"#:444444444*X O1444442+ .%444444444-#",
"#:44444444*X O144444442+ .%44444444-#",
"#:44444444*XO14444444442+.%44444444-#",
"#:444444444=1444444444441=444444444-#",
"#:444444444444444444444444444444444-#",
"#:444444444444444444444444444444444-#",
"#:444444444444444444444444444444444-#",
"#:444444444444444444444444444444444-#",
"#:444444444444444444444444444444444-#",
"#:444444444444444444444444444444444-#",
"#:444444444444444444444444444444444-#",
"#<----------------------------------#",
"#####################################",
"@@@@@@@@@@@@@@@@@@@@@@@@@@@@@@@@@@@@@",
";;;;;;;;;;;;;;;;;;;;;;;;;;;;;;;;;;;;;",
">>>>>>>>>>>>>>>>>>>>>>>>>>>>>>>>>>>>>"
};
