/* XPM */
static char *maximize_toggled_prelight[] = {
/* columns rows colors chars-per-pixel */
"37 32 18 1 ",
"  c gray15",
". c gray24",
"X c #3F3F3F",
"o c #414141",
"O c #585858",
"+ c gray37",
"@ c #5A6161",
"# c gray74",
"$ c #D5D5D5",
"% c #D7D7D7",
"& c gray85",
"* c #F8D5D5",
"= c #CDF0F0",
"- c #D5F8F8",
"; c gray88",
": c #EAE6E6",
"> c #E6F8F8",
", c gray94",
/* pixels */
"OOOOOOOOOOOOOOOOOOOOOOOOOOOOOOOOOOOOO",
"OOOOOOOOOOOOOOOOOOOOOOOOOOOOOOOOOOOOO",
"@>>>>>>>>>>>>>>>>>>>>>>>>>>>>>>>>>>>@",
"+-,,,,,,,,,,,,,,,,,,,,,,,,,,,,,,,,,*+",
"+-,,,,,,,,,,,,,,,,,,,,,,,,,,,,,,,,,*+",
"+-,,,,,,,,,,,,,,,,,,,,,,,,,,,,,,,,,*+",
"+-,,,,,,,,,,,,,,,&O$,,,,,,,,,,,,,,,*+",
"+-,,,,,,,,,,,,,,&o .$,,,,,,,,,,,,,,*+",
"+-,,,,,,,,,,,,,&o   .$,,,,,,,,,,,,,*+",
"+-,,,,,,,,,,,,&o .#o .$,,,,,,,,,,,,*+",
"+-,,,,,,,,,,,&o .$,&o .$,,,,,,,,,,,*+",
"+-,,,,,,,,,,&o .$,,,&o .$,,,,,,,,,,*+",
"+-,,,,,,,,,&o .$,,,,,&o .$,,,,,,,,,*+",
"+-,,,,,,,,&o .$,,,,,,,&o .$,,,,,,,,*+",
"+-,,,,,,,&o .$,,,,,,,,,&o .$,,,,,,,*+",
"+-,,,,,,,&o .$,,,,,,,,,&o .$,,,,,,,*+",
"+-,,,,,,,,&o .$,,,,,,,&o .$,,,,,,,,*+",
"+-,,,,,,,,,&o .$,,,,,&o .$,,,,,,,,,*+",
"+-,,,,,,,,,,&o .$,,,&o .$,,,,,,,,,,*+",
"+-,,,,,,,,,,,&o .$,&o .$,,,,,,,,,,,*+",
"+-,,,,,,,,,,,,%X X#X X%,,,,,,,,,,,,*+",
"+-,,,,,,,,,,,,,&o   .$,,,,,,,,,,,,,*+",
"+-,,,,,,,,,,,,,,&o .$,,,,,,,,,,,,,,*+",
"+-,,,,,,,,,,,,,,,%O%,,,,,,,,,,,,,,,*+",
"+-,,,,,,,,,,,,,,,,,,,,,,,,,,,,,,,,,*+",
"+-,,,,,,,,,,,,,,,,,,,,,,,,,,,,,,,,,*+",
"+-,,,,,,,,,,,,,,,,,,,,,,,,,,,,,,,,,*+",
"+:**********************************+",
"+++++++++++++++++++++++++++++++++++++",
"OOOOOOOOOOOOOOOOOOOOOOOOOOOOOOOOOOOOO",
"=====================================",
";;;;;;;;;;;;;;;;;;;;;;;;;;;;;;;;;;;;;"
};
