/* XPM */
static char *maximize_prelight[] = {
/* columns rows colors chars-per-pixel */
"37 32 24 1 ",
"  c #252525",
". c gray16",
"X c gray17",
"o c #313131",
"O c #323232",
"+ c gray36",
"@ c gray37",
"# c gray39",
"$ c #747474",
"% c #B6B6B6",
"& c gray73",
"* c #BBBBBB",
"= c gainsboro",
"- c #FBC8C8",
"; c #C4F7F7",
": c #C8FBFB",
"> c #DFFBFB",
", c #E8E0E0",
"< c gray91",
"1 c #E9E9E9",
"2 c #ECECEC",
"3 c #EEEEEE",
"4 c gray94",
"5 c gray96",
/* pixels */
"@@@@@@@@@@@@@@@@@@@@@@@@@@@@@@@@@@@@@",
"@@@@@@@@@@@@@@@@@@@@@@@@@@@@@@@@@@@@@",
"@>>>>>>>>>>>>>>>>>>>>>>>>>>>>>>>>>>>@",
"@:555555555555555555555555555555555-@",
"@:555555555555555555555555555555555-@",
"@:555555555555555555555555555555555-@",
"@:555555555555555555555555555555555-@",
"@:555555555555555555555555555555555-@",
"@:555555555555555555555555555555555-@",
"@:5555555555555555<5555555555555555-@",
"@:555555555555555*o%555555555555555-@",
"@:55555555555555*X .%55555555555555-@",
"@:5555555555555&X O X&5555555555555-@",
"@:555555555555*X @1# .%555555555555-@",
"@:55555555555*X @354# .%55555555555-@",
"@:5555555555*X @35554# .%5555555555-@",
"@:555555555*X @3555554# .%555555555-@",
"@:55555555*X @355555554# .%55555555-@",
"@:5555555=#+$35555555553$+#=5555555-@",
"@:555555555555555555555555555555555-@",
"@:555555555555555555555555555555555-@",
"@:555555555555555555555555555555555-@",
"@:555555555555555555555555555555555-@",
"@:555555555555555555555555555555555-@",
"@:555555555555555555555555555555555-@",
"@:555555555555555555555555555555555-@",
"@:555555555555555555555555555555555-@",
"@,----------------------------------@",
"@@@@@@@@@@@@@@@@@@@@@@@@@@@@@@@@@@@@@",
"@@@@@@@@@@@@@@@@@@@@@@@@@@@@@@@@@@@@@",
";;;;;;;;;;;;;;;;;;;;;;;;;;;;;;;;;;;;;",
"2222222222222222222222222222222222222"
};
