/* XPM */
static char *maximize_toggled_pressed[] = {
/* columns rows colors chars-per-pixel */
"35 31 30 1 ",
"  c #191919",
". c gray15",
"X c #282828",
"o c gray16",
"O c #2A2A2A",
"+ c gray17",
"@ c gray18",
"# c #323232",
"$ c gray21",
"% c #3C3C3C",
"& c gray31",
"* c #505050",
"= c #515151",
"- c gray32",
"; c gray33",
": c #555555",
"> c #565656",
", c #5B5B5B",
"< c gray56",
"1 c #909090",
"2 c #939393",
"3 c gray58",
"4 c #959595",
"5 c gray59",
"6 c #8FB5B5",
"7 c #A5A5A5",
"8 c gray65",
"9 c #A7A7A7",
"0 c #BFF2F2",
"q c #DFDFDF",
/* pixels */
",,,,,,,,,,,,,,,,,,,,,,,,,,,,,,,,,,,",
",,,,,,,,,,,,,,,,,,,,,,,,,,,,,,,,,,,",
",666666666666666666666666666666666,",
",999999999999999999999999999999999,",
",999999999999999999999999999999999,",
",999999999999999999999999999999999,",
",9999999999999995%2999999999999999,",
",999999999999995+ o299999999999999,",
",99999999999993O @ O39999999999999,",
",9999999999995+ *7; o2999999999999,",
",999999999994+ =898; o299999999999,",
",99999999992o =89998: .19999999999,",
",9999999992X =8999998: .<999999999,",
",999999992X -899999998> .<99999999,",
",99999998$ #89999999998# $89999999,",
",999999992X =899999998> .<99999999,",
",9999999992o =8999998: .1999999999,",
",99999999994+ =89998; o29999999999,",
",999999999994+ *898; o299999999999,",
",9999999999995+ &7; o2999999999999,",
",99999999999993O @ O39999999999999,",
",999999999999995+ O299999999999999,",
",9999999999999994%4999999999999999,",
",999999999999999999999999999999999,",
",999999999999999999999999999999999,",
",999999999999999999999999999999999,",
",999999999999999999999999999999999,",
",,,,,,,,,,,,,,,,,,,,,,,,,,,,,,,,,,,",
",,,,,,,,,,,,,,,,,,,,,,,,,,,,,,,,,,,",
"00000000000000000000000000000000000",
"qqqqqqqqqqqqqqqqqqqqqqqqqqqqqqqqqqq"
};
