/* XPM */
static char *maximize_active[] = {
/* columns rows colors chars-per-pixel */
"37 32 22 1 ",
"  c #232323",
". c #272727",
"X c gray16",
"o c #2F2F2F",
"O c gray19",
"+ c #585858",
"@ c #5A5A5A",
"# c gray37",
"$ c #5F5F5F",
"% c #6F6F6F",
"& c gray68",
"* c #B1B1B1",
"= c #B2B2B2",
"- c gray82",
"; c gainsboro",
": c #DDDDDD",
"> c #F7C1C1",
", c #E2DADA",
"< c #C1F7F7",
"1 c gray89",
"2 c #E4E4E4",
"3 c #E9E9E9",
/* pixels */
"$$$$$$$$$$$$$$$$$$$$$$$$$$$$$$$$$$$$$",
"$$$$$$$$$$$$$$$$$$$$$$$$$$$$$$$$$$$$$",
"$<<<<<<<<<<<<<<<<<<<<<<<<<<<<<<<<<<<$",
"$<333333333333333333333333333333333>$",
"$<333333333333333333333333333333333>$",
"$<333333333333333333333333333333333>$",
"$<333333333333333333333333333333333>$",
"$<333333333333333333333333333333333>$",
"$<333333333333333333333333333333333>$",
"$<3333333333333333;3333333333333333>$",
"$<333333333333333=o&333333333333333>$",
"$<33333333333333=X .&33333333333333>$",
"$<3333333333333*X O X*3333333333333>$",
"$<333333333333=X @:# .&333333333333>$",
"$<33333333333=X @132# .&33333333333>$",
"$<3333333333=X @13332# .&3333333333>$",
"$<333333333=X @1333332# .&333333333>$",
"$<33333333=X @133333332# .&33333333>$",
"$<3333333-#+%13333333331%+#-3333333>$",
"$<333333333333333333333333333333333>$",
"$<333333333333333333333333333333333>$",
"$<333333333333333333333333333333333>$",
"$<333333333333333333333333333333333>$",
"$<333333333333333333333333333333333>$",
"$<333333333333333333333333333333333>$",
"$<333333333333333333333333333333333>$",
"$<333333333333333333333333333333333>$",
"$,>>>>>>>>>>>>>>>>>>>>>>>>>>>>>>>>>>$",
"$$$$$$$$$$$$$$$$$$$$$$$$$$$$$$$$$$$$$",
"$$$$$$$$$$$$$$$$$$$$$$$$$$$$$$$$$$$$$",
"<<<<<<<<<<<<<<<<<<<<<<<<<<<<<<<<<<<<<",
"3333333333333333333333333333333333333"
};
