/* XPM */
static char *maximize_toggled_active[] = {
/* columns rows colors chars-per-pixel */
"37 32 14 1 ",
"  c #232323",
". c gray23",
"X c #3C3C3C",
"o c #3E3E3E",
"O c #535353",
"+ c #555555",
"@ c gray73",
"# c gray82",
"$ c LightGray",
"% c gray83",
"& c #FAC7C7",
"* c #E7DEDE",
"= c #C7FAFA",
"- c #ECECEC",
/* pixels */
"OOOOOOOOOOOOOOOOOOOOOOOOOOOOOOOOOOOOO",
"OOOOOOOOOOOOOOOOOOOOOOOOOOOOOOOOOOOOO",
"O===================================O",
"O=---------------------------------&O",
"O=---------------------------------&O",
"O=---------------------------------&O",
"O=---------------%+#---------------&O",
"O=--------------%o .#--------------&O",
"O=-------------%o   .#-------------&O",
"O=------------%o .@o .#------------&O",
"O=-----------%o .#-%o .#-----------&O",
"O=----------%o .#---%o .#----------&O",
"O=---------%o .#-----%o .#---------&O",
"O=--------%o .#-------%o .#--------&O",
"O=-------%o .#---------%o .#-------&O",
"O=-------%o .#---------%o .#-------&O",
"O=--------%o .#-------%o .#--------&O",
"O=---------%o .#-----%o .#---------&O",
"O=----------%o .#---%o .#----------&O",
"O=-----------%o .#-%o .#-----------&O",
"O=------------$X X@X X$------------&O",
"O=-------------%o   .#-------------&O",
"O=--------------%o .#--------------&O",
"O=---------------$+$---------------&O",
"O=---------------------------------&O",
"O=---------------------------------&O",
"O=---------------------------------&O",
"O*&&&&&&&&&&&&&&&&&&&&&&&&&&&&&&&&&&O",
"OOOOOOOOOOOOOOOOOOOOOOOOOOOOOOOOOOOOO",
"OOOOOOOOOOOOOOOOOOOOOOOOOOOOOOOOOOOOO",
"=====================================",
"-------------------------------------"
};
