/* XPM */
static char *shade_pressed[] = {
/* columns rows colors chars-per-pixel */
"37 32 21 1 ",
"  c gray7",
". c #252525",
"X c #282828",
"o c gray23",
"O c #434E4E",
"+ c gray29",
"@ c gray35",
"# c #5A5A5A",
"$ c gray37",
"% c #646464",
"& c #6A6A6A",
"* c gray43",
"= c gray47",
"- c #8D8D8D",
"; c #A0A0A0",
": c gray64",
"> c #ACACAC",
", c #B6B6B6",
"< c #A2C3C3",
"1 c #CBF4F4",
"2 c #E4E4E4",
/* pixels */
"#####################################",
"#####################################",
"O<<<<<<<<<<<<<<<<<<<<<<<<<<<<<<<<<<<O",
"+,,,,,,,,,,,,,,,,,,,,,,,,,,,,,,,,,,,+",
"+,,,,,,,,,,,,,,,,,,,,,,,,,,,,,,,,,,,+",
"+,,,,,,,,,,,,,,,,,,,,,,,,,,,,,,,,,,,+",
"+,,,,,,,,,,,,,,,,,,,,,,,,,,,,,,,,,,,+",
"+,,,,,,,,,=%%%%%%%%%%%%%%%=,,,,,,,,,+",
"+,,,,,,,,,o               o,,,,,,,,,+",
"+,,,,,,,,,@ooooooooooooooo@,,,,,,,,,+",
"+,,,,,,,,,,,,,,,,,,,,,,,,,,,,,,,,,,,+",
"+,,,,,,,,,,,,,,,,,,,,,,,,,,,,,,,,,,,+",
"+,,,,,,,,,,,,,,,,,,,,,,,,,,,,,,,,,,,+",
"+,,,,,,,,,,,,,,,,,-,,,,,,,,,,,,,,,,,+",
"+,,,,,,,,,,,,,,,,% $,,,,,,,,,,,,,,,,+",
"+,,,,,,,,,,,,,,,%   $,,,,,,,,,,,,,,,+",
"+,,,,,,,,,,,,,,%  o  %,,,,,,,,,,,,,,+",
"+,,,,,,,,,,,,,%  %,&  $,,,,,,,,,,,,,+",
"+,,,,,,,,,,,,%  %,,,&  $,,,,,,,,,,,,+",
"+,,,,,,,,,,,%  %,,,,,&  $,,,,,,,,,,,+",
"+,,,,,,,,,,%  %,,,,,,,&  $,,,,,,,,,,+",
"+,,,,,,,,,*  %,,,,,,,,,%  *,,,,,,,,,+",
"+,,,,,,,,,:X%,,,,,,,,,,,&.;,,,,,,,,,+",
"+,,,,,,,,,,>,,,,,,,,,,,,,>,,,,,,,,,,+",
"+,,,,,,,,,,,,,,,,,,,,,,,,,,,,,,,,,,,+",
"+,,,,,,,,,,,,,,,,,,,,,,,,,,,,,,,,,,,+",
"+,,,,,,,,,,,,,,,,,,,,,,,,,,,,,,,,,,,+",
"+,,,,,,,,,,,,,,,,,,,,,,,,,,,,,,,,,,,+",
"+++++++++++++++++++++++++++++++++++++",
"#####################################",
"1111111111111111111111111111111111111",
"2222222222222222222222222222222222222"
};
