/* XPM */
static char *shade_prelight[] = {
/* columns rows colors chars-per-pixel */
"37 32 24 1 ",
"  c #181818",
". c #313131",
"X c #353535",
"o c gray30",
"O c #535353",
"+ c #555C5C",
"@ c gray35",
"# c #767676",
"$ c #7C7C7C",
"% c #848484",
"& c #8B8B8B",
"* c gray57",
"= c gray62",
"- c gray73",
"; c LightGray",
": c #D7D7D7",
"> c #F9D0D0",
", c #CAF3F3",
"< c #D0F9F9",
"1 c gray88",
"2 c gray89",
"3 c #E9E3E3",
"4 c #E5F9F9",
"5 c gray94",
/* pixels */
"OOOOOOOOOOOOOOOOOOOOOOOOOOOOOOOOOOOOO",
"OOOOOOOOOOOOOOOOOOOOOOOOOOOOOOOOOOOOO",
"+44444444444444444444444444444444444+",
"@<555555555555555555555555555555555>@",
"@<555555555555555555555555555555555>@",
"@<555555555555555555555555555555555>@",
"@<555555555555555555555555555555555>@",
"@<55555555=%%%%%%%%%%%%%%%=55555555>@",
"@<55555555o               o55555555>@",
"@<55555555#ooooooooooooooo#55555555>@",
"@<555555555555555555555555555555555>@",
"@<555555555555555555555555555555555>@",
"@<555555555555555555555555555555555>@",
"@<5555555555555555-5555555555555555>@",
"@<555555555555555% $555555555555555>@",
"@<55555555555555%   $55555555555555>@",
"@<5555555555555%  o  %5555555555555>@",
"@<555555555555%  %5&  $555555555555>@",
"@<55555555555%  %555&  $55555555555>@",
"@<5555555555%  %55555&  $5555555555>@",
"@<555555555%  %5555555&  $555555555>@",
"@<55555555*  %555555555%  *55555555>@",
"@<55555555:X%55555555555&.;55555555>@",
"@<555555555255555555555552555555555>@",
"@<555555555555555555555555555555555>@",
"@<555555555555555555555555555555555>@",
"@<555555555555555555555555555555555>@",
"@3>>>>>>>>>>>>>>>>>>>>>>>>>>>>>>>>>>@",
"@@@@@@@@@@@@@@@@@@@@@@@@@@@@@@@@@@@@@",
"OOOOOOOOOOOOOOOOOOOOOOOOOOOOOOOOOOOOO",
",,,,,,,,,,,,,,,,,,,,,,,,,,,,,,,,,,,,,",
"1111111111111111111111111111111111111"
};
