/* XPM */
static char *stick_prelight[] = {
/* columns rows colors chars-per-pixel */
"41 32 63 1 ",
"  c gray14",
". c gray24",
"X c gray25",
"o c #585858",
"O c #5F5F5F",
"+ c #6A6868",
"@ c #686A6A",
"# c #686B6B",
"$ c #7A7474",
"% c #787676",
"& c #7D8080",
"* c #7F8989",
"= c #858383",
"- c #838585",
"; c #8C8585",
": c #868E8E",
"> c #849090",
", c #859191",
"< c #C5B6B6",
"1 c #D6BEBE",
"2 c #DCB8B8",
"3 c #ADCCCC",
"4 c #B4C4C4",
"5 c #C0D8D8",
"6 c #D8D8D8",
"7 c #DADADA",
"8 c gray86",
"9 c #DDDDDD",
"0 c #F7C4C4",
"q c #F6C6C6",
"w c #F8C2C2",
"e c #FBC5C5",
"r c #F1CDCD",
"t c #E5D4D4",
"y c #EDDBDB",
"u c #F7DDDD",
"i c #F7DEDE",
"p c #D4E5E5",
"a c #DAECEC",
"s c #DDEFEF",
"d c #C0F0F0",
"f c #C3F5F5",
"g c #C4F7F7",
"h c #CEF1F1",
"j c #C9F5F5",
"k c #CAF5F5",
"l c #C2F8F8",
"z c #C5F8F8",
"x c #C5FBFB",
"c c #D6F1F1",
"v c #DEFBFB",
"b c #E7E4E4",
"n c #E4E7E7",
"m c #EFE6E6",
"M c #E7ECEC",
"N c #E6EFEF",
"B c #EBE8E8",
"V c #E9EBEB",
"C c gray92",
"Z c #F5F0F0",
"A c #F4F1F1",
"S c #F1F4F4",
"D c #F4F4F4",
/* pixels */
"OOOOOOOOOOOOOOOOOOOOOOOOOOOOOOOOOOOOOOOOO",
"OOOOOOOOOOOOOOOOOOOOOOOOOOOOOOOOOOOOOOOOO",
"lOOvvvvvvvvvvvvvvvvvvvvvvvvvvvvvvvvvvvOOl",
"wOOxDDDDDDDDDDDDDDDDDDDDDDDDDDDDDDDDDeOOl",
"wOOxDDDDDDDDDDDDDDDDDDDDDDDDDDDDDDDDDeOOl",
"wOOxDDDDDDDDDDDDDDDDDDDDDDDDDDDDDDDDDeOOl",
"wOOxDDDDDDDDDDDDDDDDDDDDDDDDDDDDDDDDDeOOl",
"wOOxDDDDDDDDDDDDDDDDDDDDDDDDDDDDDDDDDeOOl",
"wOOxDDDDDDDDDDDDDDDDDDDDDDDDDDDDDDDDDeOOl",
"wOOxDDDDDDDDDDDDDDDDDDDDDDDDDDDDDDDDDeOOl",
"wOOxDDDDDDDDDDDDDDDDDDDDDDDDDDDDDDDDDeOOl",
"wOOxDDDDDDDDDDDDDDDDDDDDDDDDDDDDDDDDDeOOl",
"wOOxDDDDDDDDDDDDDDD8o6DDDDDDDDDDDDDDDeOOl",
"wOOxDDDDDDDDDDDDDD8X .6DDDDDDDDDDDDDDeOOl",
"wOOxDDDDDDDDDDDDD8X   .6DDDDDDDDDDDDDeOOl",
"wOOxDDDDDDDDDDDDD8X   .6DDDDDDDDDDDDDeOOl",
"wOOxDDDDDDDDDDDDDD8X .6DDDDDDDDDDDDDDeOOl",
"wOOxDDDDDDDDDDDDDDD7o7DDDDDDDDDDDDDDDeOOl",
"wOOxDDDDDDDDDDDDDDDDDDDDDDDDDDDDDDDDDeOOl",
"wOOxDDDDDDDDDDDDDDDDDDDDDDDDDDDDDDDDDeOOl",
"wOOxDDDDDDDDDDDDDDDDDDDDDDDDDDDDDDDDDeOOl",
"wOOxDDDDDDDDDDDDDDDDDDDDDDDDDDDDDDDDDeOOl",
"wOOxDDDDDDDDDDDDDDDDDDDDDDDDDDDDDDDDDeOOl",
"wOOxDDDDDDDDDDDDDDDDDDDDDDDDDDDDDDDDDeOOl",
"0+OzSDDDDDDDDDDDDDDDDDDDDDDDDDDDDDDDZ0O#g",
"r;O5NDDDDDDDDDDDDDDDDDDDDDDDDDDDDDDDu2O>j",
"y<O&9mADDDDDDDDDDDDDDDDDDDDDDDDDDDZiq$O3c",
"Bt=O%10eeeeeeeeeeeeeeeeeeeeeeeeeee02$O*fM",
"Cb6-OOOOOOOOOOOOOOOOOOOOOOOOOOOOOOOOO*dsC",
"CCnp4:@OOOOOOOOOOOOOOOOOOOOOOOOOOO#,3fsCC",
"CCCVahglllllllllllllllllllllllllllgkcMCCC",
"CCCCCCCCCCCCCCCCCCCCCCCCCCCCCCCCCCCCCCCCC"
};
