/* XPM */
static char *stick_active[] = {
/* columns rows colors chars-per-pixel */
"41 32 56 1 ",
"  c #232323",
". c gray23",
"X c #3E3E3E",
"o c #555555",
"O c #5F5F5F",
"+ c gray40",
"@ c #6F6F6F",
"# c #747474",
"$ c #797979",
"% c #797A7A",
"& c #7D7C7C",
"* c #7D7E7E",
"= c #7D7F7F",
"- c #B0AAAA",
"; c #ABB1B1",
": c #A8B4B4",
"> c #BFB5B5",
", c #C0B1B1",
"< c #B7C2C2",
"1 c gray82",
"2 c LightGray",
"3 c gray83",
"4 c #D7D7D7",
"5 c #DDDDDD",
"6 c #EACDCD",
"7 c #EDCDCD",
"8 c #EDCECE",
"9 c #E7DDDD",
"0 c #F6D3D3",
"q c #F5D5D5",
"w c #F1DADA",
"e c #F0DFDF",
"r c #C8E4E4",
"t c #CFEEEE",
"y c #DDE6E6",
"u c #D2F1F1",
"i c #D3F6F6",
"p c #D4F5F5",
"a c #D5F5F5",
"s c #DAF1F1",
"d c #DFF1F1",
"f c #D8F4F4",
"g c #EEE2E2",
"h c #EAE5E5",
"j c #E5EAEA",
"k c #E2EEEE",
"l c #E4EFEF",
"z c #EAE9E9",
"x c #E9EAEA",
"c c #EDE9E9",
"v c #ECEAEA",
"b c #ECEBEB",
"n c #EAECEC",
"m c #EAEDED",
"M c #ECECEC",
"N c #F0E0E0",
/* pixels */
"OOOOOOOOOOOOOOOOOOOOOOOOOOOOOOOOOOOOOOOOO",
"OOOOOOOOOOOOOOOOOOOOOOOOOOOOOOOOOOOOOOOOO",
"iOOiiiiiiiiiiiiiiiiiiiiiiiiiiiiiiiiiiiOOi",
"0OOiMMMMMMMMMMMMMMMMMMMMMMMMMMMMMMMMM0OOi",
"0OOiMMMMMMMMMMMMMMMMMMMMMMMMMMMMMMMMM0OOi",
"0OOiMMMMMMMMMMMMMMMMMMMMMMMMMMMMMMMMM0OOi",
"0OOiMMMMMMMMMMMMMMMMMMMMMMMMMMMMMMMMM0OOi",
"0OOiMMMMMMMMMMMMMMMMMMMMMMMMMMMMMMMMM0OOi",
"0OOiMMMMMMMMMMMMMMMMMMMMMMMMMMMMMMMMM0OOi",
"0OOiMMMMMMMMMMMMMMMMMMMMMMMMMMMMMMMMM0OOi",
"0OOiMMMMMMMMMMMMMMMMMMMMMMMMMMMMMMMMM0OOi",
"0OOiMMMMMMMMMMMMMMMMMMMMMMMMMMMMMMMMM0OOi",
"0OOiMMMMMMMMMMMMMMM3o1MMMMMMMMMMMMMMM0OOi",
"0OOiMMMMMMMMMMMMMM3X .1MMMMMMMMMMMMMM0OOi",
"0OOiMMMMMMMMMMMMM3X   .1MMMMMMMMMMMMM0OOi",
"0OOiMMMMMMMMMMMMM3X   .1MMMMMMMMMMMMM0OOi",
"0OOiMMMMMMMMMMMMMM3X .1MMMMMMMMMMMMMM0OOi",
"0OOiMMMMMMMMMMMMMMM2o2MMMMMMMMMMMMMMM0OOi",
"0OOiMMMMMMMMMMMMMMMMMMMMMMMMMMMMMMMMM0OOi",
"0OOiMMMMMMMMMMMMMMMMMMMMMMMMMMMMMMMMM0OOi",
"0OOiMMMMMMMMMMMMMMMMMMMMMMMMMMMMMMMMM0OOi",
"0OOiMMMMMMMMMMMMMMMMMMMMMMMMMMMMMMMMM0OOi",
"0OOiMMMMMMMMMMMMMMMMMMMMMMMMMMMMMMMMM0OOi",
"0OOiMMMMMMMMMMMMMMMMMMMMMMMMMMMMMMMMM0OOi",
"q+OtnMMMMMMMMMMMMMMMMMMMMMMMMMMMMMMMc8O+p",
"w&O<jMMMMMMMMMMMMMMMMMMMMMMMMMMMMMMMN,O*f",
"g-O#5hvMMMMMMMMMMMMMMMMMMMMMMMMMMMce6@O:d",
"b9$O@>80000000000000000000000000007,@O%um",
"Mz4$OOOOOOOOOOOOOOOOOOOOOOOOOOOOOOOOO%rlM",
"MMxy;*+OOOOOOOOOOOOOOOOOOOOOOOOOOO+=:ulMM",
"MMMnksaiiiiiiiiiiiiiiiiiiiiiiiiiiipfdmMMM",
"MMMMMMMMMMMMMMMMMMMMMMMMMMMMMMMMMMMMMMMMM"
};
