/* XPM */
static char *stick_active[] = {
/* columns rows colors chars-per-pixel */
"41 32 61 1 ",
"  c #232323",
". c gray23",
"X c #3E3E3E",
"o c #555555",
"O c #5F5F5F",
"+ c #6A6969",
"@ c #686A6A",
"# c #696A6A",
"$ c #777373",
"% c #757474",
"& c #7B7D7D",
"* c #838282",
"= c #828383",
"- c #808686",
"; c #8A8585",
": c #868B8B",
"> c #848C8C",
", c #868E8E",
"< c #C2B8B8",
"1 c #D2BBBB",
"2 c #B3C7C7",
"3 c #B8C2C2",
"4 c #CFC0C0",
"5 c #C2D2D2",
"6 c gray82",
"7 c LightGray",
"8 c gray83",
"9 c #DDDDDD",
"0 c #EFD0D0",
"q c #E8DEDE",
"w c #F1D0D0",
"e c #F1D1D1",
"r c #F6D3D3",
"t c #F5D5D5",
"y c #F1DADA",
"u c #F0DFDF",
"i c #CDECEC",
"p c #DEE8E8",
"a c #D1F1F1",
"s c #D3F3F3",
"d c #D3F6F6",
"f c #D4F5F5",
"g c #D5F5F5",
"h c #DAF1F1",
"j c #DFF1F1",
"k c #D8F4F4",
"l c gray88",
"z c #EEE2E2",
"x c #EAE5E5",
"c c #E5EAEA",
"v c #E2EEEE",
"b c #E4EFEF",
"n c #EAE9E9",
"m c #E9EAEA",
"M c #EDE9E9",
"N c #ECEAEA",
"B c #ECEBEB",
"V c #EAECEC",
"C c #EAEDED",
"Z c #ECECEC",
"A c #F0E0E0",
/* pixels */
"OOOOOOOOOOOOOOOOOOOOOOOOOOOOOOOOOOOOOOOOO",
"OOOOOOOOOOOOOOOOOOOOOOOOOOOOOOOOOOOOOOOOO",
"dOOdddddddddddddddddddddddddddddddddddOOd",
"rOOdZZZZZZZZZZZZZZZZZZZZZZZZZZZZZZZZZrOOd",
"rOOdZZZZZZZZZZZZZZZZZZZZZZZZZZZZZZZZZrOOd",
"rOOdZZZZZZZZZZZZZZZZZZZZZZZZZZZZZZZZZrOOd",
"rOOdZZZZZZZZZZZZZZZZZZZZZZZZZZZZZZZZZrOOd",
"rOOdZZZZZZZZZZZZZZZZZZZZZZZZZZZZZZZZZrOOd",
"rOOdZZZZZZZZZZZZZZZZZZZZZZZZZZZZZZZZZrOOd",
"rOOdZZZZZZZZZZZZZZZZZZZZZZZZZZZZZZZZZrOOd",
"rOOdZZZZZZZZZZZZZZZZZZZZZZZZZZZZZZZZZrOOd",
"rOOdZZZZZZZZZZZZZZZZZZZZZZZZZZZZZZZZZrOOd",
"rOOdZZZZZZZZZZZZZZZ8o6ZZZZZZZZZZZZZZZrOOd",
"rOOdZZZZZZZZZZZZZZ8X .6ZZZZZZZZZZZZZZrOOd",
"rOOdZZZZZZZZZZZZZ8X   .6ZZZZZZZZZZZZZrOOd",
"rOOdZZZZZZZZZZZZZ8X   .6ZZZZZZZZZZZZZrOOd",
"rOOdZZZZZZZZZZZZZZ8X .6ZZZZZZZZZZZZZZrOOd",
"rOOdZZZZZZZZZZZZZZZ7o7ZZZZZZZZZZZZZZZrOOd",
"rOOdZZZZZZZZZZZZZZZZZZZZZZZZZZZZZZZZZrOOd",
"rOOdZZZZZZZZZZZZZZZZZZZZZZZZZZZZZZZZZrOOd",
"rOOdZZZZZZZZZZZZZZZZZZZZZZZZZZZZZZZZZrOOd",
"rOOdZZZZZZZZZZZZZZZZZZZZZZZZZZZZZZZZZrOOd",
"rOOdZZZZZZZZZZZZZZZZZZZZZZZZZZZZZZZZZrOOd",
"rOOdZZZZZZZZZZZZZZZZZZZZZZZZZZZZZZZZZrOOd",
"t+OaVZZZZZZZZZZZZZZZZZZZZZZZZZZZZZZZMeO@f",
"y;O5cZZZZZZZZZZZZZZZZZZZZZZZZZZZZZZZA1O>k",
"z<O&lxNZZZZZZZZZZZZZZZZZZZZZZZZZZZMu0$O2j",
"Bq*O%4errrrrrrrrrrrrrrrrrrrrrrrrrrw1$O-sC",
"Zn9=OOOOOOOOOOOOOOOOOOOOOOOOOOOOOOOOO-ibZ",
"ZZmp3:#OOOOOOOOOOOOOOOOOOOOOOOOOOO@,2sbZZ",
"ZZZVvhgdddddddddddddddddddddddddddfkjCZZZ",
"ZZZZZZZZZZZZZZZZZZZZZZZZZZZZZZZZZZZZZZZZZ"
};
