/* XPM */
static char *stick_prelight[] = {
/* columns rows colors chars-per-pixel */
"41 32 71 1 ",
"  c gray15",
". c gray24",
"X c #414141",
"o c #525E5E",
"O c #585858",
"+ c #5A5A5A",
"@ c #5B5B5B",
"# c gray36",
"$ c #5D5D5D",
"% c gray37",
"& c #5A6161",
"* c #606262",
"= c #616363",
"- c #636262",
"; c #626363",
": c #767272",
"> c #757474",
", c #7B7A7A",
"< c #7A7B7B",
"1 c #7A7C7C",
"2 c #787E7E",
"3 c #837E7E",
"4 c #7D8585",
"5 c #7F8484",
"6 c #7E8686",
"7 c #BAB0B0",
"8 c #B2BCBC",
"9 c #D4BDBD",
"0 c #ADC1C1",
"q c #D0C1C1",
"w c #C3D3D3",
"e c #D5D5D5",
"r c #D7D7D7",
"t c gray85",
"y c #EFCFCF",
"u c #F0CDCD",
"i c #E1D7D7",
"p c #EAD3D3",
"a c #E5D9D9",
"s c #E0DFDF",
"d c #F1D2D2",
"f c #F3D2D2",
"g c #F3D3D3",
"h c #F8D5D5",
"j c #C6E5E5",
"k c #CCECEC",
"l c #CEEFEF",
"z c #CFEFEF",
"x c #D7E1E1",
"c c #DEE0E0",
"v c #DFE0E0",
"b c #DEE1E1",
"n c #D9E5E5",
"m c #DAE5E5",
"M c #D3EAEA",
"N c #D6E8E8",
"B c #D1EDED",
"V c #CDF0F0",
"C c #D3F3F3",
"Z c #D5F8F8",
"A c gray88",
"S c gray89",
"D c #EEE9E9",
"F c #E9EEEE",
"G c #F4E3E3",
"H c #F4E4E4",
"J c #F1EDED",
"K c #F0EEEE",
"L c #EEF0F0",
"P c #E6F8F8",
"I c gray94",
/* pixels */
"OOOOOOOOOOOOOOOOOOOOOOOOOOOOOOOOOOOOOOOOO",
"OOOOOOOOOOOOOOOOOOOOOOOOOOOOOOOOOOOOOOOOO",
"Vo&PPPPPPPPPPPPPPPPPPPPPPPPPPPPPPPPPPP&oV",
"uO%ZIIIIIIIIIIIIIIIIIIIIIIIIIIIIIIIIIh%OV",
"uO%ZIIIIIIIIIIIIIIIIIIIIIIIIIIIIIIIIIh%OV",
"uO%ZIIIIIIIIIIIIIIIIIIIIIIIIIIIIIIIIIh%OV",
"uO%ZIIIIIIIIIIIIIIIIIIIIIIIIIIIIIIIIIh%OV",
"uO%ZIIIIIIIIIIIIIIIIIIIIIIIIIIIIIIIIIh%OV",
"uO%ZIIIIIIIIIIIIIIIIIIIIIIIIIIIIIIIIIh%OV",
"uO%ZIIIIIIIIIIIIIIIIIIIIIIIIIIIIIIIIIh%OV",
"uO%ZIIIIIIIIIIIIIIIIIIIIIIIIIIIIIIIIIh%OV",
"uO%ZIIIIIIIIIIIIIIIIIIIIIIIIIIIIIIIIIh%OV",
"uO%ZIIIIIIIIIIIIIIItOeIIIIIIIIIIIIIIIh%OV",
"uO%ZIIIIIIIIIIIIIItX .eIIIIIIIIIIIIIIh%OV",
"uO%ZIIIIIIIIIIIIItX   .eIIIIIIIIIIIIIh%OV",
"uO%ZIIIIIIIIIIIIItX   .eIIIIIIIIIIIIIh%OV",
"uO%ZIIIIIIIIIIIIIItX .eIIIIIIIIIIIIIIh%OV",
"uO%ZIIIIIIIIIIIIIIIrOrIIIIIIIIIIIIIIIh%OV",
"uO%ZIIIIIIIIIIIIIIIIIIIIIIIIIIIIIIIIIh%OV",
"uO%ZIIIIIIIIIIIIIIIIIIIIIIIIIIIIIIIIIh%OV",
"uO%ZIIIIIIIIIIIIIIIIIIIIIIIIIIIIIIIIIh%OV",
"uO%ZIIIIIIIIIIIIIIIIIIIIIIIIIIIIIIIIIh%OV",
"uO%ZIIIIIIIIIIIIIIIIIIIIIIIIIIIIIIIIIh%OV",
"uO%ZIIIIIIIIIIIIIIIIIIIIIIIIIIIIIIIIIh%OV",
"y-$CLIIIIIIIIIIIIIIIIIIIIIIIIIIIIIIIJg$*l",
"p3#wFIIIIIIIIIIIIIIIIIIIIIIIIIIIIIIIH9#4B",
"a7+1SDKIIIIIIIIIIIIIIIIIIIIIIIIIIIJGd:+0N",
"si,@>qghhhhhhhhhhhhhhhhhhhhhhhhhhhf9:@2kb",
"Asr<+#$%%%%%%%%%%%%%%%%%%%%%%%%%%%$#+2jmA",
"AAvx85;OOOOOOOOOOOOOOOOOOOOOOOOOOO=60kmAA",
"AAAcnMzVVVVVVVVVVVVVVVVVVVVVVVVVVVlBNbAAA",
"AAAAAAAAAAAAAAAAAAAAAAAAAAAAAAAAAAAAAAAAA"
};
