/* XPM */
static char *title_1_active[] = {
/* columns rows colors chars-per-pixel */
"1 32 3 1 ",
"  c gray33",
". c #CDF0F0",
"X c gray88",
/* pixels */
" ",
" ",
".",
"X",
"X",
"X",
"X",
"X",
"X",
"X",
"X",
"X",
"X",
"X",
"X",
"X",
"X",
"X",
"X",
"X",
"X",
"X",
"X",
"X",
"X",
"X",
"X",
"X",
"X",
"X",
"X",
"X"
};
