/* XPM */
static char *top_left_active[] = {
/* columns rows colors chars-per-pixel */
"6 32 15 1 ",
"  c #5F5F5F",
". c #606060",
"X c gray38",
"o c #646464",
"O c gray40",
"+ c #6A6A6A",
"@ c #727878",
"# c #B4D9D9",
"$ c #D6EFEF",
"% c #C1F2F2",
"& c #C0F3F3",
"* c #C1F7F7",
"= c #E5EAEA",
"- c #E9E9E9",
"; c None",
/* pixels */
";;;+O.",
";;o   ",
";o @#&",
"+ @%$=",
"o #$--",
"X &=--",
"  *---",
"  *---",
"  *---",
"  *---",
"  *---",
"  *---",
"  *---",
"  *---",
"  *---",
"  *---",
"  *---",
"  *---",
"  *---",
"  *---",
"  *---",
"  *---",
"  *---",
"  *---",
"  *---",
"  *---",
"  *---",
"  *---",
"  *---",
"  *---",
"  *---",
"  *---"
};
