/* XPM */
static char *stick_pressed[] = {
/* columns rows colors chars-per-pixel */
"29 24 22 1 ",
"  c black",
". c gray2",
"X c gray7",
"o c gray9",
"O c #181818",
"+ c #1E1E1E",
"@ c gray16",
"# c #2C2C2C",
"$ c gray19",
"% c #323232",
"& c #393939",
"* c gray23",
"= c gray25",
"- c #494949",
"; c #4C4C4C",
": c gray34",
"> c gray35",
", c #5D5D5D",
"< c #626262",
"1 c #656565",
"2 c DimGray",
"3 c gray87",
/* pixels */
"                             ",
"                             ",
"2                           2",
"=                           2",
"=                           2",
"=                           2",
"=                           2",
"=                           2",
"=                           2",
"=             @             2",
"=            >3<            2",
"=            >3<            2",
"=             @             2",
"=                           2",
"=                           1",
"=                           1",
"=                          .1",
"*X                         O>",
"$#                         *=",
"+-X                       O1@",
"O#;X                     O,$O",
"OO#:*o.               .O*<$OO",
"OOO+*:12222222222222221>=+OOO",
"OOOOOOOOOOOOOOOOOOOOOOOOOOOOO"
};
