/* XPM */
static char *hide_prelight[] = {
/* columns rows colors chars-per-pixel */
"39 32 57 1 ",
"  c #131313",
". c #181214",
"X c #141219",
"o c #3A0F18",
"O c #24101E",
"+ c #1E1023",
"@ c #180F3B",
"# c gray21",
"$ c #3D3436",
"% c #36343D",
"& c #3A3A3A",
"* c gray23",
"= c #3C3B3C",
"- c #580D14",
"; c #6D0C0C",
": c #710B0B",
"> c #4D0D2D",
", c #4C2C3C",
"< c #140D58",
"1 c #2C0D4C",
"2 c #3C2C4C",
"3 c #3C275D",
"4 c #0C0C6D",
"5 c #0B0B71",
"6 c #401140",
"7 c #582740",
"8 c #403F40",
"9 c #522453",
"0 c #6E3043",
"q c #403172",
"w c #404041",
"e c #59595A",
"r c #5D4A6C",
"t c #564770",
"y c #644661",
"u c #604A69",
"i c #665577",
"p c #685270",
"a c #6B5976",
"s c #67597A",
"d c #6D5E7D",
"f c #636264",
"g c #646365",
"h c #676668",
"j c #686769",
"k c #862020",
"l c #842323",
"z c #862F2F",
"x c #202086",
"c c #242384",
"v c #A9A6AC",
"b c #ADAAB0",
"n c #D0CCD3",
"m c #D0CDD4",
"M c #D4D0D8",
"N c #D6D2DA",
"B c #DAD6DE",
/* pixels */
"ddddddddddddddddddddddddddddddddddddddd",
"ddddddddddddddddddddddddddddddddddddddd",
":ddzzzzzzzzzzzzzzzzzzzzzzzzzzzzzzzzzzzd",
"5ddk#################################xd",
"5ddk#################################xd",
"5ddk#################################xd",
"5ddk#################################xd",
"5ddk#################################xd",
"5ddk#################################xd",
"5ddk#################################xd",
"5ddk#########e*###########*e#########xd",
"5ddk########fMb=#########&vNj########xd",
"5ddk########fMBb=#######&vBNh########xd",
"5ddk#########fMBb=#####&vBNh#########xd",
"5ddk##########fMBb=###&vBNh##########xd",
"5ddk###########fMBb=#&vBNh###########xd",
"5ddk############fMBb8vBNh############xd",
"5ddk#############gMBnBMg#############xd",
"5ddk##############fMBNh##############xd",
"5ddk###############fmh###############xd",
"5ddk################w################xd",
"5ddk#################################xd",
"5ddk#################################xd",
"5ddk#################################xd",
"4sdl$################################xd",
"<td0,################################xd",
"@3dp92%##############################xd",
"X1rdiqcxxxxxxxxxxxxxxxxxxxxxxxxxxxxxxxd",
" +6uddddddddddddddddddddddddddddddddddd",
"  O>7yadddddddddddddddddddddddddddddddd",
"   .o-;::::::::::::::::::::::::::::::::",
"                                       "
};
