/* XPM */
static char *maximize_toggled_pressed[] = {
/* columns rows colors chars-per-pixel */
"37 32 14 1 ",
"  c gray10",
". c #761010",
"X c #771D3A",
"o c #322441",
"O c #453853",
"+ c #473A54",
"@ c #483A55",
"# c #5B4F67",
"$ c #766576",
"% c #AEA5B2",
"& c #C2B9C4",
"* c #C2BAC5",
"= c #C4BCC6",
"- c #D7D0D8",
/* pixels */
"$$$$$$$$$$$$$$$$$$$$$$$$$$$$$$$$$$$$$",
"$$$$$$$$$$$$$$$$$$$$$$$$$$$$$$$$$$$$$",
"$XXXXXXXXXXXXXXXXXXXXXXXXXXXXXXXXXXX$",
"$ooooooooooooooooooooooooooooooooooo$",
"$ooooooooooooooooooooooooooooooooooo$",
"$ooooooooooooooooooooooooooooooooooo$",
"$ooooooooooooooooO%@oooooooooooooooo$",
"$oooooooooooooooO&-=@ooooooooooooooo$",
"$ooooooooooooooO&---=@oooooooooooooo$",
"$oooooooooooooO&-=#&-=@ooooooooooooo$",
"$ooooooooooooO&-=@oO&-=@oooooooooooo$",
"$oooooooooooO&-=@oooO&-=@ooooooooooo$",
"$ooooooooooO&-=@oooooO&-=@oooooooooo$",
"$oooooooooO&-=@oooooooO&-=@ooooooooo$",
"$ooooooooO&-=@oooooooooO&-=@oooooooo$",
"$ooooooooO&-=@oooooooooO&-=@oooooooo$",
"$oooooooooO&-=@oooooooO&-=@ooooooooo$",
"$ooooooooooO&-=@oooooO&-=@oooooooooo$",
"$oooooooooooO&-=@oooO&-=@ooooooooooo$",
"$ooooooooooooO&-=@oO&-=@oooooooooooo$",
"$ooooooooooooo+*-*#*-*+ooooooooooooo$",
"$ooooooooooooooO&---=@oooooooooooooo$",
"$oooooooooooooooO&-=@ooooooooooooooo$",
"$oooooooooooooooo+%+oooooooooooooooo$",
"$ooooooooooooooooooooooooooooooooooo$",
"$ooooooooooooooooooooooooooooooooooo$",
"$ooooooooooooooooooooooooooooooooooo$",
"$ooooooooooooooooooooooooooooooooooo$",
"$$$$$$$$$$$$$$$$$$$$$$$$$$$$$$$$$$$$$",
"$$$$$$$$$$$$$$$$$$$$$$$$$$$$$$$$$$$$$",
".....................................",
"                                     "
};
