/* XPM */
static char *shade_prelight[] = {
/* columns rows colors chars-per-pixel */
"37 32 19 1 ",
"  c gray10",
". c #3C3C3C",
"X c #761010",
"o c #4F2659",
"O c #525152",
"+ c #636163",
"@ c #636263",
"# c #766576",
"$ c #777577",
"% c #7A777A",
"& c #8A2424",
"* c #8A3434",
"= c #24248A",
"- c #848184",
"; c #8A868A",
": c #8A878A",
"> c #8F8B8F",
", c #B1ACB1",
"< c #D8D1D8",
/* pixels */
"#####################################",
"#####################################",
"#***********************************#",
"#&.................................=#",
"#&.................................=#",
"#&.................................=#",
"#&.................................=#",
"#&.......@;;;;;;;;;;;;;;;;;@.......=#",
"#&.......;<<<<<<<<<<<<<<<<<;.......=#",
"#&.......$,,,,,,,,,,,,,,,,,$.......=#",
"#&.................................=#",
"#&.................................=#",
"#&.................................=#",
"#&................+................=#",
"#&...............;<>...............=#",
"#&..............;<<<>..............=#",
"#&.............;<<,<<;.............=#",
"#&............;<<:.-<<>............=#",
"#&...........;<<:...-<<>...........=#",
"#&..........;<<:.....-<<>..........=#",
"#&.........;<<:.......-<<>.........=#",
"#&........;<<:.........-<<>........=#",
"#&.......O>>%...........%>>O.......=#",
"#&.................................=#",
"#&.................................=#",
"#&.................................=#",
"#&.................................=#",
"#o==================================#",
"#####################################",
"#####################################",
"XXXXXXXXXXXXXXXXXXXXXXXXXXXXXXXXXXXXX",
"                                     "
};
