/* XPM */
static char *stick_active[] = {
/* columns rows colors chars-per-pixel */
"41 32 62 1 ",
"  c #131313",
". c #1A1212",
"X c #181214",
"o c #1B1214",
"O c #141219",
"+ c #14121B",
"@ c #12121C",
"# c #2F0F1F",
"$ c #3A0F18",
"% c #24101E",
"& c #321111",
"* c #1F0F2F",
"= c #1E1023",
"- c #0F0F3F",
"; c #180F3B",
": c #3E0F3F",
"> c #2A2A2B",
", c #2C2B2C",
"< c #2E2D2E",
"1 c #430F0F",
"2 c #5F0D0D",
"3 c #580D14",
"4 c #6C0C0C",
"5 c #6D0C0C",
"6 c #6C0D0E",
"7 c #710B0B",
"8 c #700E0F",
"9 c #6D1113",
"0 c #4D0D2D",
"q c #5C1E32",
"w c #672731",
"e c #140D58",
"r c #2C0D4C",
"t c #3C275D",
"y c #0C0C6D",
"u c #11106D",
"i c #0B0B71",
"p c #0F0E70",
"a c #0F0F70",
"s c #2F2061",
"d c #25216C",
"f c #401140",
"g c #582740",
"h c #67465D",
"j c #68465C",
"k c #5D4A6C",
"l c #564770",
"z c #5F5277",
"x c #644661",
"c c #684A61",
"v c #604A69",
"b c #634E6B",
"n c #625174",
"m c #6B5976",
"M c #6C5875",
"N c #6C5976",
"B c #67597A",
"V c #6D5E7D",
"C c #A7A4AA",
"Z c #BDBAC1",
"A c #C1BDC4",
"S c #D8D4DC",
/* pixels */
"VVVVVVVVVVVVVVVVVVVVVVVVVVVVVVVVVVVVVVVVV",
"VVVVVVVVVVVVVVVVVVVVVVVVVVVVVVVVVVVVVVVVV",
"7VV77777777777777777777777777777777777VV7",
"iVV7                                 iVV7",
"iVV7                                 iVV7",
"iVV7                                 iVV7",
"iVV7                                 iVV7",
"iVV7                                 iVV7",
"iVV7                                 iVV7",
"iVV7                                 iVV7",
"iVV7                                 iVV7",
"iVV7                                 iVV7",
"iVV7               >C<               iVV7",
"iVV7              >ZSA<              iVV7",
"iVV7             >ZSSSA<             iVV7",
"iVV7             >ZSSSA<             iVV7",
"iVV7              >ZSA<              iVV7",
"iVV7               ,C,               iVV7",
"iVV7                                 iVV7",
"iVV7                                 iVV7",
"iVV7                                 iVV7",
"iVV7                                 iVV7",
"iVV7                                 iVV7",
"iVV7                                 iVV7",
"yBV8o                               @aVM4",
"elVq#                               -dVh2",
";tVb:*+                           @-uzVw1",
"OrkVnspiiiiiiiiiiiiiiiiiiiiiiiiiiipdzVc6.",
" =fvVVVVVVVVVVVVVVVVVVVVVVVVVVVVVVVVVc9& ",
"  %0gxmVVVVVVVVVVVVVVVVVVVVVVVVVVVNjw6&  ",
"   X$35777777777777777777777777777521.   ",
"                                         "
};
