/* XPM */
static char *stick_prelight[] = {
/* columns rows colors chars-per-pixel */
"41 32 66 1 ",
"  c #131313",
". c #1A1212",
"X c #181214",
"o c #141219",
"O c #3A0F18",
"+ c #24101E",
"@ c #321111",
"# c #1E1023",
"$ c #180F3B",
"% c gray21",
"& c #3D3436",
"* c #36343D",
"= c #34343E",
"- c #430F0F",
"; c #5F0D0D",
": c #580D14",
"> c #6C0C0C",
", c #6D0C0C",
"< c #6C0D0E",
"1 c #710B0B",
"2 c #6D1113",
"3 c #4D0D2D",
"4 c #4C2C3C",
"5 c #672731",
"6 c #140D58",
"7 c #2C0D4C",
"8 c #3C2C4C",
"9 c #2C2C5C",
"0 c #3C275D",
"q c #0C0C6D",
"w c #0B0B71",
"e c #36327D",
"r c #401140",
"t c #582740",
"y c #522453",
"u c #6E3043",
"i c #403172",
"p c #49494A",
"a c #4B4A4B",
"s c #4C4B4C",
"d c #67465D",
"f c #68465C",
"g c #5D4A6C",
"h c #564770",
"j c #644661",
"k c #684A61",
"l c #604A69",
"z c #665577",
"x c #685270",
"c c #6B5976",
"v c #6C5875",
"b c #6C5976",
"n c #63567B",
"m c #67597A",
"M c #6D5E7D",
"N c #862020",
"B c #842323",
"V c #862F2F",
"C c #252482",
"Z c #202086",
"A c #242384",
"S c #242484",
"D c #B1AEB4",
"F c #C3C0C7",
"G c #C7C3CA",
"H c #DAD6DE",
/* pixels */
"MMMMMMMMMMMMMMMMMMMMMMMMMMMMMMMMMMMMMMMMM",
"MMMMMMMMMMMMMMMMMMMMMMMMMMMMMMMMMMMMMMMMM",
"1MMVVVVVVVVVVVVVVVVVVVVVVVVVVVVVVVVVVVMM1",
"wMMN%%%%%%%%%%%%%%%%%%%%%%%%%%%%%%%%%ZMM1",
"wMMN%%%%%%%%%%%%%%%%%%%%%%%%%%%%%%%%%ZMM1",
"wMMN%%%%%%%%%%%%%%%%%%%%%%%%%%%%%%%%%ZMM1",
"wMMN%%%%%%%%%%%%%%%%%%%%%%%%%%%%%%%%%ZMM1",
"wMMN%%%%%%%%%%%%%%%%%%%%%%%%%%%%%%%%%ZMM1",
"wMMN%%%%%%%%%%%%%%%%%%%%%%%%%%%%%%%%%ZMM1",
"wMMN%%%%%%%%%%%%%%%%%%%%%%%%%%%%%%%%%ZMM1",
"wMMN%%%%%%%%%%%%%%%%%%%%%%%%%%%%%%%%%ZMM1",
"wMMN%%%%%%%%%%%%%%%%%%%%%%%%%%%%%%%%%ZMM1",
"wMMN%%%%%%%%%%%%%%%pDs%%%%%%%%%%%%%%%ZMM1",
"wMMN%%%%%%%%%%%%%%pFHGs%%%%%%%%%%%%%%ZMM1",
"wMMN%%%%%%%%%%%%%pFHHHGs%%%%%%%%%%%%%ZMM1",
"wMMN%%%%%%%%%%%%%pFHHHGs%%%%%%%%%%%%%ZMM1",
"wMMN%%%%%%%%%%%%%%pFHGs%%%%%%%%%%%%%%ZMM1",
"wMMN%%%%%%%%%%%%%%%aDa%%%%%%%%%%%%%%%ZMM1",
"wMMN%%%%%%%%%%%%%%%%%%%%%%%%%%%%%%%%%ZMM1",
"wMMN%%%%%%%%%%%%%%%%%%%%%%%%%%%%%%%%%ZMM1",
"wMMN%%%%%%%%%%%%%%%%%%%%%%%%%%%%%%%%%ZMM1",
"wMMN%%%%%%%%%%%%%%%%%%%%%%%%%%%%%%%%%ZMM1",
"wMMN%%%%%%%%%%%%%%%%%%%%%%%%%%%%%%%%%ZMM1",
"wMMN%%%%%%%%%%%%%%%%%%%%%%%%%%%%%%%%%ZMM1",
"qmMB&%%%%%%%%%%%%%%%%%%%%%%%%%%%%%%%=SMv>",
"6hMu4%%%%%%%%%%%%%%%%%%%%%%%%%%%%%%%9eMd;",
"$0Mxy8*%%%%%%%%%%%%%%%%%%%%%%%%%%%=9CnM5-",
"o7gMziAZZZZZZZZZZZZZZZZZZZZZZZZZZZAenMk<.",
" #rlMMMMMMMMMMMMMMMMMMMMMMMMMMMMMMMMMk2@ ",
"  +3tjcMMMMMMMMMMMMMMMMMMMMMMMMMMMbf5<@  ",
"   XO:,111111111111111111111111111,;-.   ",
"                                         "
};
