/* XPM */
static char *close_pressed[] = {
/* columns rows colors chars-per-pixel */
"36 32 28 1 ",
"  c gray13",
". c #343434",
"X c #373737",
"o c #494949",
"O c #554C4C",
"+ c #4C5555",
"@ c gray33",
"# c #5F5F5F",
"$ c #685C5C",
"% c gray40",
"& c #6C6C6C",
"* c gray45",
"= c #797979",
"- c #7C7C7C",
"; c #AFAFAF",
": c #B2B2B2",
"> c #BBBBBB",
", c gray75",
"< c #C9AFAF",
"1 c #AFC9C9",
"2 c #C0C0C0",
"3 c #C1C1C1",
"4 c #C3C3C3",
"5 c #C5C5C5",
"6 c #FBDBDB",
"7 c #DBFBFB",
"8 c gray97",
"9 c None",
/* pixels */
"################################9999",
"%%%%%%%%%%%%%%%%%%%%%%%%%%%%%%%%9999",
"+11111111111111111111111111111112499",
"@5555555555555555555555555555555,,39",
"@5555555555555555555555555555555,,,4",
"@5555555555555555555555555555555,,,2",
"@5555555555>5555555555555>555555555<",
"@555555555:X&55555555555*.;55555555<",
"@555555555-  *555555555*  -55555555<",
"@5555555555=  &5555555*  *555555555<",
"@55555555555=  &55555*  *5555555555<",
"@555555555555=  &555*  *55555555555<",
"@5555555555555=  &5*  *555555555555<",
"@55555555555555*  o  *5555555555555<",
"@555555555555555=   *55555555555555<",
"@555555555555555*   &55555555555555<",
"@55555555555555*  o  *5555555555555<",
"@5555555555555*  *5=  &555555555555<",
"@555555555555*  *555=  &55555555555<",
"@55555555555*  *55555=  &5555555555<",
"@5555555555*  *5555555=  &555555555<",
"@555555555-  *555555555*  -55555555<",
"@555555555:X*55555555555=.;55555555<",
"@5555555555>5555555555555>555555555<",
"@5555555555555555555555555555555555<",
"@5555555555555555555555555555555555<",
"@5555555555555555555555555555555555<",
"@5555555555555555555555555555555555<",
"@@@@@@@@@@@@@@@@@@@@@@@@@@@@@@@@@@@O",
"%%%%%%%%%%%%%%%%%%%%%%%%%%%%%%%%%%%$",
"777777777777777777777777777777777776",
"888888888888888888888888888888888886"
};
