/* XPM */
static char *close_active[] = {
/* columns rows colors chars-per-pixel */
"36 32 19 1 ",
"  c gray14",
". c #5D4A4A",
"X c #4A5D5D",
"o c #535353",
"O c #585858",
"+ c #5A5A5A",
"@ c #868686",
"# c #8D8D8D",
"$ c #8E8E8E",
"% c gray58",
"& c gray64",
"* c gray67",
"= c #D8D8D8",
"- c #DFDFDF",
"; c #FDCACA",
": c #CAFDFD",
"> c #ECE2E2",
", c gray97",
"< c None",
/* pixels */
"oooooooooooooooooooooooooooooooo<<<<",
"++++++++++++++++++++++++++++++++<<<<",
"X:::::::::::::::::::::::::::::::<<<<",
"+:,,,,,,,,,,,,,,,,,,,,,,,,,,,,,,<<<<",
"+:,,,,,,,,,,,,,,,,,,,,,,,,,,,,,,<<<<",
"+:,,,,,,,,,,,,,,,,,,,,,,,,,,,,,,<<<<",
"+:,,,,,,,,,,,,,,,,,,,,,,,,,,,,,,,,,;",
"+:,,,,,,,-%%*,,,,,,,,,,,*%%-,,,,,,,;",
"+:,,,,,,,,%  @,,,,,,,,,#  $,,,,,,,,;",
"+:,,,,,,,,,%  @,,,,,,,#  $,,,,,,,,,;",
"+:,,,,,,,,,,%  @,,,,,#  $,,,,,,,,,,;",
"+:,,,,,,,,,,,%  @,,,#  $,,,,,,,,,,,;",
"+:,,,,,,,,,,,,%  @,#  $,,,,,,,,,,,,;",
"+:,,,,,,,,,,,,,#  O  #,,,,,,,,,,,,,;",
"+:,,,,,,,,,,,,,,%   $,,,,,,,,,,,,,,;",
"+:,,,,,,,,,,,,,,#   @,,,,,,,,,,,,,,;",
"+:,,,,,,,,,,,,,#  O  #,,,,,,,,,,,,,;",
"+:,,,,,,,,,,,,#  $,%  @,,,,,,,,,,,,;",
"+:,,,,,,,,,,,#  $,,,%  @,,,,,,,,,,,;",
"+:,,,,,,,,,,#  $,,,,,%  @,,,,,,,,,,;",
"+:,,,,,,,,,#  $,,,,,,,%  @,,,,,,,,,;",
"+:,,,,,,,,#  $,,,,,,,,,%  @,,,,,,,,;",
"+:,,,,,,,=@@&,,,,,,,,,,,&@@=,,,,,,,;",
"+:,,,,,,,,,,,,,,,,,,,,,,,,,,,,,,,,,;",
"+:,,,,,,,,,,,,,,,,,,,,,,,,,,,,,,,,,;",
"+:,,,,,,,,,,,,,,,,,,,,,,,,,,,,,,,,,;",
"+:,,,,,,,,,,,,,,,,,,,,,,,,,,,,,,,,,;",
"+>;;;;;;;;;;;;;;;;;;;;;;;;;;;;;;;;;;",
"+++++++++++++++++++++++++++++++++++.",
"+++++++++++++++++++++++++++++++++++.",
":::::::::::::::::::::::::::::::::::;",
",,,,,,,,,,,,,,,,,,,,,,,,,,,,,,,,,,,;"
};
