/* XPM */
static char *hide_active[] = {
/* columns rows colors chars-per-pixel */
"39 32 55 1 ",
"  c gray14",
". c gray16",
"X c gray17",
"o c gray19",
"O c #313131",
"+ c #5A5A5A",
"@ c gray36",
"# c gray37",
"$ c #566464",
"% c #626262",
"& c gray39",
"* c #6C6B6B",
"= c #6B6C6C",
"- c #747474",
"; c #787777",
": c #7F8181",
"> c #878686",
", c #868787",
"< c #8E8989",
"1 c #8B9090",
"2 c #B7B7B7",
"3 c #BBBBBB",
"4 c #BCBCBC",
"5 c #C6BCBC",
"6 c #BDC7C7",
"7 c #D5C5C5",
"8 c #C6D7D7",
"9 c gainsboro",
"0 c #F7D7D7",
"q c #FBD8D8",
"w c #FBDBDB",
"e c #D7F7F7",
"r c #D8FBFB",
"t c #DBFBFB",
"y c #E4E4E4",
"u c #E7E7E7",
"i c #EEE4E4",
"p c #E4EEEE",
"a c #EAEAEA",
"s c gray92",
"d c #EFEFEF",
"f c #F7E0E0",
"g c #F6EAEA",
"h c #F3EEEE",
"j c #E0F7F7",
"k c #EEF3F3",
"l c #EAF6F6",
"z c gray94",
"x c gray95",
"c c #F3F2F2",
"v c #F2F3F3",
"b c #F7F5F5",
"n c #F5F7F7",
"m c #F7F6F6",
"M c gray97",
/* pixels */
"+++++++++++++++++++++++++++++++++++++++",
"%%%%%%%%%%%%%%%%%%%%%%%%%%%%%%%%%%%%%%%",
"r$$rrrrrrrrrrrrrrrrrrrrrrrrrrrrrrrrrrr$",
"q%%rMMMMMMMMMMMMMMMMMMMMMMMMMMMMMMMMMq%",
"q%%rMMMMMMMMMMMMMMMMMMMMMMMMMMMMMMMMMq%",
"q%%rMMMMMMMMMMMMMMMMMMMMMMMMMMMMMMMMMq%",
"q%%rMMMMMMMMMMMMMMMMMMMMMMMMMMMMMMMMMq%",
"q%%rMMMMMMMMMMMMMMMMMMMMMMMMMMMMMMMMMq%",
"q%%rMMMMMMMMMMMMMMMMMMMMMMMMMMMMMMMMMq%",
"q%%rMMMMMMMMMMMMMMMMMMMMMMMMMMMMMMMMMq%",
"q%%rMMMMMMMMMMMMMMMMMMMMMMMMMMMMMMMMMq%",
"q%%rMMMMMMM9&@-zMMMMMMMMMz-@&9MMMMMMMq%",
"q%%rMMMMMMMM4X #dMMMMMMMx& .2MMMMMMMMq%",
"q%%rMMMMMMMMM4X #dMMMMMx& .2MMMMMMMMMq%",
"q%%rMMMMMMMMMM4X #dMMMx& .2MMMMMMMMMMq%",
"q%%rMMMMMMMMMMM4X #dMx& .2MMMMMMMMMMMq%",
"q%%rMMMMMMMMMMMM4X #s& .2MMMMMMMMMMMMq%",
"q%%rMMMMMMMMMMMMM3X O X3MMMMMMMMMMMMMq%",
"q%%rMMMMMMMMMMMMMM4X .2MMMMMMMMMMMMMMq%",
"q%%rMMMMMMMMMMMMMMM4o2MMMMMMMMMMMMMMMq%",
"q%%rMMMMMMMMMMMMMMMMaMMMMMMMMMMMMMMMMq%",
"q%%rMMMMMMMMMMMMMMMMMMMMMMMMMMMMMMMMMq%",
"q%%rMMMMMMMMMMMMMMMMMMMMMMMMMMMMMMMMMq%",
"q%%rMMMMMMMMMMMMMMMMMMMMMMMMMMMMMMMMMq%",
"w*%enMMMMMMMMMMMMMMMMMMMMMMMMMMMMMMMMq%",
"f<%8kMMMMMMMMMMMMMMMMMMMMMMMMMMMMMMMMq%",
"g5%:uhbMMMMMMMMMMMMMMMMMMMMMMMMMMMMMMq%",
"mi>%;70qqqqqqqqqqqqqqqqqqqqqqqqqqqqqqq%",
"Mcy,%%%%%%%%%%%%%%%%%%%%%%%%%%%%%%%%%%%",
"MMvp61=%%%%%%%%%%%%%%%%%%%%%%%%%%%%%%%%",
"MMMnljtrrrrrrrrrrrrrrrrrrrrrrrrrrrrrrrr",
"MMMMMMMMMMMMMMMMMMMMMMMMMMMMMMMMMMMMMMM"
};
