/* XPM */
static char *hide_active[] = {
/* columns rows colors chars-per-pixel */
"39 32 51 1 ",
"  c #181818",
". c gray11",
"X c #1E1E1E",
"o c #252525",
"O c #4E4E4E",
"+ c #495757",
"@ c #555555",
"# c #5A5A5A",
"$ c #615F5F",
"% c #5F6161",
"& c #706E6E",
"* c #767878",
"= c #807E7E",
"- c #7E8080",
"; c #878181",
": c #828888",
"> c #B4B4B4",
", c #B7B7B7",
"< c #B9B9B9",
"1 c #C7BBBB",
"2 c #BBC7C7",
"3 c #C6C6C6",
"4 c #D5C3C3",
"5 c #C6D8D8",
"6 c #F8D1D1",
"7 c #FCD3D3",
"8 c #FBD4D4",
"9 c #F9DDDD",
"0 c #D1F8F8",
"q c #D4FBFB",
"w c #D3FCFC",
"e c #DDF9F9",
"r c #E1E1E1",
"t c #E4E4E4",
"y c #ECE0E0",
"u c #E0ECEC",
"i c #EAEAEA",
"p c #EFEFEF",
"a c #F5E7E7",
"s c #F4EEEE",
"d c #E8F5F5",
"f c #EEF4F4",
"g c gray94",
"h c gray95",
"j c #F4F1F1",
"k c #F1F4F4",
"l c #F7F4F4",
"z c #F4F7F7",
"x c #F5F7F7",
"c c #F7F6F6",
"v c gray97",
/* pixels */
"OOOOOOOOOOOOOOOOOOOOOOOOOOOOOOOOOOOOOOO",
"@@@@@@@@@@@@@@@@@@@@@@@@@@@@@@@@@@@@@@@",
"w++wwwwwwwwwwwwwwwwwwwwwwwwwwwwwwwwwww+",
"7@@wvvvvvvvvvvvvvvvvvvvvvvvvvvvvvvvvv7@",
"7@@wvvvvvvvvvvvvvvvvvvvvvvvvvvvvvvvvv7@",
"7@@wvvvvvvvvvvvvvvvvvvvvvvvvvvvvvvvvv7@",
"7@@wvvvvvvvvvvvvvvvvvvvvvvvvvvvvvvvvv7@",
"7@@wvvvvvvvvvvvvvvvvvvvvvvvvvvvvvvvvv7@",
"7@@wvvvvvvvvvvvvvvvvvvvvvvvvvvvvvvvvv7@",
"7@@wvvvvvvvvvvvvvvvvvvvvvvvvvvvvvvvvv7@",
"7@@wvvvvvvvvv3gvvvvvvvvvvvg3vvvvvvvvv7@",
"7@@wvvvvvvvv<X@pvvvvvvvvvh#.>vvvvvvvv7@",
"7@@wvvvvvvvv<X @pvvvvvvvh# .>vvvvvvvv7@",
"7@@wvvvvvvvvv<X @pvvvvvh# .>vvvvvvvvv7@",
"7@@wvvvvvvvvvv<X @pvvvh# .>vvvvvvvvvv7@",
"7@@wvvvvvvvvvvv<X @pvh# .>vvvvvvvvvvv7@",
"7@@wvvvvvvvvvvvv<X @i# .>vvvvvvvvvvvv7@",
"7@@wvvvvvvvvvvvvv,X o X,vvvvvvvvvvvvv7@",
"7@@wvvvvvvvvvvvvvv<X .>vvvvvvvvvvvvvv7@",
"7@@wvvvvvvvvvvvvvvv<o>vvvvvvvvvvvvvvv7@",
"7@@wvvvvvvvvvvvvvvvvivvvvvvvvvvvvvvvv7@",
"7@@wvvvvvvvvvvvvvvvvvvvvvvvvvvvvvvvvv7@",
"7@@wvvvvvvvvvvvvvvvvvvvvvvvvvvvvvvvvv7@",
"7@@wvvvvvvvvvvvvvvvvvvvvvvvvvvvvvvvvv7@",
"8$@0zvvvvvvvvvvvvvvvvvvvvvvvvvvvvvvvv7@",
"9;@5fvvvvvvvvvvvvvvvvvvvvvvvvvvvvvvvv7@",
"a1@*tslvvvvvvvvvvvvvvvvvvvvvvvvvvvvvv7@",
"cy=@&467777777777777777777777777777777@",
"vjr-@@@@@@@@@@@@@@@@@@@@@@@@@@@@@@@@@@@",
"vvku2:%@@@@@@@@@@@@@@@@@@@@@@@@@@@@@@@@",
"vvvxdeqwwwwwwwwwwwwwwwwwwwwwwwwwwwwwwww",
"vvvvvvvvvvvvvvvvvvvvvvvvvvvvvvvvvvvvvvv"
};
