/* XPM */
static char *hide_pressed[] = {
/* columns rows colors chars-per-pixel */
"39 32 55 1 ",
"  c #1B1B1B",
". c gray12",
"X c #202020",
"o c #252525",
"O c gray15",
"+ c gray20",
"@ c #3E4E4E",
"# c gray27",
"$ c gray28",
"% c gray29",
"& c #4E4E4E",
"* c gray32",
"= c #565656",
"- c gray34",
"; c #5A5A5A",
": c gray36",
"> c #4E6262",
", c #666464",
"< c #646666",
"1 c #828080",
"2 c #808282",
"3 c #888282",
"4 c #838B8B",
"5 c #898989",
"6 c gray55",
"7 c #8D8D8D",
"8 c #939393",
"9 c #959595",
"0 c #A5A5A5",
"q c #AEAEAE",
"w c #AFAFAF",
"e c #B1B1B1",
"r c #B2B2B2",
"t c gray70",
"y c #B4B4B4",
"u c gray72",
"i c #C0B2B2",
"p c #9BC4C4",
"a c #B2C1C1",
"s c #D7D7D7",
"d c #EFCCCC",
"f c #F5C2C2",
"g c #F4C4C4",
"h c #E2D3D3",
"j c #E9D8D8",
"k c #CCEFEF",
"l c #D3E2E2",
"z c #D9E9E9",
"x c #C3F4F4",
"c c #C2F5F5",
"v c #E4E2E2",
"b c #E2E4E4",
"n c #E3E6E6",
"m c #E6E4E4",
"M c #E6E6E6",
/* pixels */
"+++++++++++++++++++++++++++++++++++++++",
":::::::::::::::::::::::::::::::::::::::",
"c>@ppppppppppppppppppppppppppppppppppp@",
"f:%uuuuuuuuuuuuuuuuuuuuuuuuuuuuuuuuuuu%",
"f:%uuuuuuuuuuuuuuuuuuuuuuuuuuuuuuuuuuu%",
"f:%uuuuuuuuuuuuuuuuuuuuuuuuuuuuuuuuuuu%",
"f:%uuuuuuuuuuuuuuuuuuuuuuuuuuuuuuuuuuu%",
"f:%uuuuuuuuuuuuuuuuuuuuuuuuuuuuuuuuuuu%",
"f:%uuuuuuuuuuuuuuuuuuuuuuuuuuuuuuuuuuu%",
"f:%uuuuuuuuuuuuuuuuuuuuuuuuuuuuuuuuuuu%",
"f:%uuuuuuuuuuuuuuuuuuuuuuuuuuuuuuuuuuu%",
"f:%uuuuuuuu0%#-tuuuuuuuuut-#%0uuuuuuuu%",
"f:%uuuuuuuuu7X $ruuuuuuuy% .5uuuuuuuuu%",
"f:%uuuuuuuuuu7X $ruuuuuy% .5uuuuuuuuuu%",
"f:%uuuuuuuuuuu7X $ruuuy% .5uuuuuuuuuuu%",
"f:%uuuuuuuuuuuu7X $ruy% .5uuuuuuuuuuuu%",
"f:%uuuuuuuuuuuuu7X $w% .5uuuuuuuuuuuuu%",
"f:%uuuuuuuuuuuuuu6X O X6uuuuuuuuuuuuuu%",
"f:%uuuuuuuuuuuuuuu7X .5uuuuuuuuuuuuuuu%",
"f:%uuuuuuuuuuuuuuuu7o5uuuuuuuuuuuuuuuu%",
"f:%uuuuuuuuuuuuuuuuuquuuuuuuuuuuuuuuuu%",
"f:%uuuuuuuuuuuuuuuuuuuuuuuuuuuuuuuuuuu%",
"f:%uuuuuuuuuuuuuuuuuuuuuuuuuuuuuuuuuuu%",
"f:%uuuuuuuuuuuuuuuuuuuuuuuuuuuuuuuuuuu%",
"g,%ruuuuuuuuuuuuuuuuuuuuuuuuuuuuuuuuuu%",
"d3&9uuuuuuuuuuuuuuuuuuuuuuuuuuuuuuuuuu%",
"ji=;euuuuuuuuuuuuuuuuuuuuuuuuuuuuuuuuu%",
"mh1*=8ruuuuuuuuuuuuuuuuuuuuuuuuuuuuuuu%",
"Mvs2=&%%%%%%%%%%%%%%%%%%%%%%%%%%%%%%%%%",
"MMbla4<::::::::::::::::::::::::::::::::",
"MMMnzkxcccccccccccccccccccccccccccccccc",
"MMMMMMMMMMMMMMMMMMMMMMMMMMMMMMMMMMMMMMM"
};
