/* XPM */
static char *maximize_toggled_prelight[] = {
/* columns rows colors chars-per-pixel */
"37 32 20 1 ",
"  c #181818",
". c gray20",
"X c #353535",
"o c #373737",
"O c #4E4E4E",
"+ c #505050",
"@ c #555555",
"# c gray34",
"$ c #515858",
"% c #C3C3C3",
"& c #DDDDDD",
"* c #DFDFDF",
"= c #FED5D5",
"- c #D3FCFC",
"; c #D5FEFE",
": c #E1E1E1",
"> c #EFE8E8",
", c #E9FEFE",
"< c gray97",
"1 c #FBFBFB",
/* pixels */
"OOOOOOOOOOOOOOOOOOOOOOOOOOOOOOOOOOOOO",
"@@@@@@@@@@@@@@@@@@@@@@@@@@@@@@@@@@@@@",
"$,,,,,,,,,,,,,,,,,,,,,,,,,,,,,,,,,,,$",
"#;111111111111111111111111111111111=#",
"#;111111111111111111111111111111111=#",
"#;111111111111111111111111111111111=#",
"#;111111111111111:+&111111111111111=#",
"#;11111111111111:o .&11111111111111=#",
"#;1111111111111:o   .&1111111111111=#",
"#;111111111111:o .%o .&111111111111=#",
"#;11111111111:o .&1:o .&11111111111=#",
"#;1111111111:o .&111:o .&1111111111=#",
"#;111111111:o .&11111:o .&111111111=#",
"#;11111111:o .&1111111:o .&11111111=#",
"#;1111111:o .&111111111:o .&1111111=#",
"#;1111111:o .&111111111:o .&1111111=#",
"#;11111111:o .&1111111:o .&11111111=#",
"#;111111111:o .&11111:o .&111111111=#",
"#;1111111111:o .&111:o .&1111111111=#",
"#;11111111111:o .&1:o .&11111111111=#",
"#;111111111111*X X%X X*111111111111=#",
"#;1111111111111:o   .&1111111111111=#",
"#;11111111111111:o .&11111111111111=#",
"#;111111111111111*+*111111111111111=#",
"#;111111111111111111111111111111111=#",
"#;111111111111111111111111111111111=#",
"#;111111111111111111111111111111111=#",
"#>==================================#",
"#####################################",
"@@@@@@@@@@@@@@@@@@@@@@@@@@@@@@@@@@@@@",
"-------------------------------------",
"<<<<<<<<<<<<<<<<<<<<<<<<<<<<<<<<<<<<<"
};
