/* XPM */
static char *maximize_toggled_pressed[] = {
/* columns rows colors chars-per-pixel */
"37 32 16 1 ",
"  c #1D1D1D",
". c #313131",
"X c gray20",
"o c #3F4E4E",
"O c #464646",
"+ c #4C4C4C",
"@ c #585858",
"# c #5F5F5F",
"$ c #9B9B9B",
"% c #AFAFAF",
"& c gray69",
"* c #B1B1B1",
"= c #A2CBCB",
"- c #C5C5C5",
"; c #CAFDFD",
": c gray97",
/* pixels */
"@@@@@@@@@@@@@@@@@@@@@@@@@@@@@@@@@@@@@",
"#####################################",
"o===================================o",
"+-----------------------------------+",
"+-----------------------------------+",
"+-----------------------------------+",
"+----------------*O%----------------+",
"+---------------*X .%---------------+",
"+--------------*X   .%--------------+",
"+-------------*X .$X .%-------------+",
"+------------*X .%-*X .%------------+",
"+-----------*X .%---*X .%-----------+",
"+----------*X .%-----*X .%----------+",
"+---------*X .%-------*X .%---------+",
"+--------*X .%---------*X .%--------+",
"+--------*X .%---------*X .%--------+",
"+---------*X .%-------*X .%---------+",
"+----------*X .%-----*X .%----------+",
"+-----------*X .%---*X .%-----------+",
"+------------*X .%-*X .%------------+",
"+-------------&. .$. .&-------------+",
"+--------------*X   .%--------------+",
"+---------------*X .%---------------+",
"+----------------&O&----------------+",
"+-----------------------------------+",
"+-----------------------------------+",
"+-----------------------------------+",
"+-----------------------------------+",
"+++++++++++++++++++++++++++++++++++++",
"#####################################",
";;;;;;;;;;;;;;;;;;;;;;;;;;;;;;;;;;;;;",
":::::::::::::::::::::::::::::::::::::"
};
