/* XPM */
static char *maximize_pressed[] = {
/* columns rows colors chars-per-pixel */
"37 32 22 1 ",
"  c #1D1D1D",
". c gray13",
"X c #222222",
"o c #272727",
"O c #282828",
"+ c #4C4C4C",
"@ c gray31",
"# c #435050",
"$ c #5A5A5A",
"% c #626262",
"& c #929292",
"* c #939393",
"= c gray59",
"- c #A0A0A0",
"; c gray73",
": c #BBBBBB",
"> c #A8CACA",
", c #C0C0C0",
"< c #C1C1C1",
"1 c #C5C5C5",
"2 c #D3FCFC",
"3 c gray97",
/* pixels */
"$$$$$$$$$$$$$$$$$$$$$$$$$$$$$$$$$$$$$",
"%%%%%%%%%%%%%%%%%%%%%%%%%%%%%%%%%%%%%",
"#>>>>>>>>>>>>>>>>>>>>>>>>>>>>>>>>>>>#",
"@11111111111111111111111111111111111@",
"@11111111111111111111111111111111111@",
"@11111111111111111111111111111111111@",
"@11111111111111111111111111111111111@",
"@11111111111111111111111111111111111@",
"@11111111111111111111111111111111111@",
"@11111111111111111;11111111111111111@",
"@1111111111111111=o&1111111111111111@",
"@111111111111111=X .&111111111111111@",
"@11111111111111=X O X=11111111111111@",
"@1111111111111=X +:@ .&1111111111111@",
"@111111111111=X +,1<@ .&111111111111@",
"@11111111111=X +,111<@ .&11111111111@",
"@1111111111=X +,11111<@ .&1111111111@",
"@111111111=X +,1111111<@ .&111111111@",
"@111111111=X+,111111111<@.*111111111@",
"@1111111111-,11111111111,-1111111111@",
"@11111111111111111111111111111111111@",
"@11111111111111111111111111111111111@",
"@11111111111111111111111111111111111@",
"@11111111111111111111111111111111111@",
"@11111111111111111111111111111111111@",
"@11111111111111111111111111111111111@",
"@11111111111111111111111111111111111@",
"@11111111111111111111111111111111111@",
"@@@@@@@@@@@@@@@@@@@@@@@@@@@@@@@@@@@@@",
"%%%%%%%%%%%%%%%%%%%%%%%%%%%%%%%%%%%%%",
"2222222222222222222222222222222222222",
"3333333333333333333333333333333333333"
};
