/* XPM */
static char *maximize_active[] = {
/* columns rows colors chars-per-pixel */
"37 32 22 1 ",
"  c #101010",
". c #151515",
"X c #161616",
"o c gray11",
"O c #1D1D1D",
"+ c #494949",
"@ c #4E4E4E",
"# c gray37",
"$ c #586464",
"% c gray63",
"& c #A2A2A2",
"* c gray65",
"= c #A7A7A7",
"- c gray70",
"; c LightGray",
": c gray83",
"> c gray85",
", c gray86",
"< c #E2DEDE",
"1 c #F0D0D0",
"2 c #D0F0F0",
"3 c gray88",
/* pixels */
"#####################################",
"#####################################",
"$22222222222222222222222222222222222$",
"#23333333333333333333333333333333331#",
"#23333333333333333333333333333333331#",
"#23333333333333333333333333333333331#",
"#23333333333333333333333333333333331#",
"#23333333333333333333333333333333331#",
"#23333333333333333333333333333333331#",
"#23333333333333333;33333333333333331#",
"#2333333333333333=o%3333333333333331#",
"#233333333333333=X .%333333333333331#",
"#23333333333333*X O X*33333333333331#",
"#2333333333333=X +:@ .%3333333333331#",
"#233333333333=X +>3,@ .%333333333331#",
"#23333333333=X +>333,@ .%33333333331#",
"#2333333333=X +>33333,@ .%3333333331#",
"#233333333=X +>3333333,@ .%333333331#",
"#233333333=X+>333333333,@.&333333331#",
"#2333333333->33333333333>-3333333331#",
"#23333333333333333333333333333333331#",
"#23333333333333333333333333333333331#",
"#23333333333333333333333333333333331#",
"#23333333333333333333333333333333331#",
"#23333333333333333333333333333333331#",
"#23333333333333333333333333333333331#",
"#23333333333333333333333333333333331#",
"#<1111111111111111111111111111111111#",
"#####################################",
"#####################################",
"2222222222222222222222222222222222222",
"3333333333333333333333333333333333333"
};
