/* XPM */
static char *maximize_toggled_active[] = {
/* columns rows colors chars-per-pixel */
"37 32 15 1 ",
"  c #101010",
". c #282828",
"X c #2A2A2A",
"o c #2C2C2C",
"O c #434343",
"+ c gray37",
"@ c #586464",
"# c gray68",
"$ c gray77",
"% c #C6C6C6",
"& c #C8C8C8",
"* c #E2DEDE",
"= c #F0D0D0",
"- c #D0F0F0",
"; c gray88",
/* pixels */
"+++++++++++++++++++++++++++++++++++++",
"+++++++++++++++++++++++++++++++++++++",
"@-----------------------------------@",
"+-;;;;;;;;;;;;;;;;;;;;;;;;;;;;;;;;;=+",
"+-;;;;;;;;;;;;;;;;;;;;;;;;;;;;;;;;;=+",
"+-;;;;;;;;;;;;;;;;;;;;;;;;;;;;;;;;;=+",
"+-;;;;;;;;;;;;;;;&O$;;;;;;;;;;;;;;;=+",
"+-;;;;;;;;;;;;;;&o .$;;;;;;;;;;;;;;=+",
"+-;;;;;;;;;;;;;&o   .$;;;;;;;;;;;;;=+",
"+-;;;;;;;;;;;;&o .#o .$;;;;;;;;;;;;=+",
"+-;;;;;;;;;;;&o .$;&o .$;;;;;;;;;;;=+",
"+-;;;;;;;;;;&o .$;;;&o .$;;;;;;;;;;=+",
"+-;;;;;;;;;&o .$;;;;;&o .$;;;;;;;;;=+",
"+-;;;;;;;;&o .$;;;;;;;&o .$;;;;;;;;=+",
"+-;;;;;;;&o .$;;;;;;;;;&o .$;;;;;;;=+",
"+-;;;;;;;&o .$;;;;;;;;;&o .$;;;;;;;=+",
"+-;;;;;;;;&o .$;;;;;;;&o .$;;;;;;;;=+",
"+-;;;;;;;;;&o .$;;;;;&o .$;;;;;;;;;=+",
"+-;;;;;;;;;;&o .$;;;&o .$;;;;;;;;;;=+",
"+-;;;;;;;;;;;&o .$;&o .$;;;;;;;;;;;=+",
"+-;;;;;;;;;;;;%X X#X X%;;;;;;;;;;;;=+",
"+-;;;;;;;;;;;;;&o   .$;;;;;;;;;;;;;=+",
"+-;;;;;;;;;;;;;;&o .$;;;;;;;;;;;;;;=+",
"+-;;;;;;;;;;;;;;;%O%;;;;;;;;;;;;;;;=+",
"+-;;;;;;;;;;;;;;;;;;;;;;;;;;;;;;;;;=+",
"+-;;;;;;;;;;;;;;;;;;;;;;;;;;;;;;;;;=+",
"+-;;;;;;;;;;;;;;;;;;;;;;;;;;;;;;;;;=+",
"+*==================================+",
"+++++++++++++++++++++++++++++++++++++",
"+++++++++++++++++++++++++++++++++++++",
"-------------------------------------",
";;;;;;;;;;;;;;;;;;;;;;;;;;;;;;;;;;;;;"
};
