/* XPM */
static char *shade_active[] = {
/* columns rows colors chars-per-pixel */
"37 32 21 1 ",
"  c #181818",
". c #313131",
"X c #353535",
"o c gray31",
"O c #4E5C5C",
"+ c #535353",
"@ c #5A5A5A",
"# c gray47",
"$ c #7E7E7E",
"% c gray53",
"& c #8E8E8E",
"* c gray58",
"= c gray63",
"- c gray75",
"; c #D8D8D8",
": c gray86",
"> c #FCD3D3",
", c #D3FCFC",
"< c #ECE6E6",
"1 c #EAEAEA",
"2 c gray97",
/* pixels */
"+++++++++++++++++++++++++++++++++++++",
"@@@@@@@@@@@@@@@@@@@@@@@@@@@@@@@@@@@@@",
"O,,,,,,,,,,,,,,,,,,,,,,,,,,,,,,,,,,,O",
"@,222222222222222222222222222222222>@",
"@,222222222222222222222222222222222>@",
"@,222222222222222222222222222222222>@",
"@,222222222222222222222222222222222>@",
"@,22222222=%%%%%%%%%%%%%%%=22222222>@",
"@,22222222o               o22222222>@",
"@,22222222#ooooooooooooooo#22222222>@",
"@,222222222222222222222222222222222>@",
"@,222222222222222222222222222222222>@",
"@,222222222222222222222222222222222>@",
"@,2222222222222222-2222222222222222>@",
"@,222222222222222% $222222222222222>@",
"@,22222222222222%   $22222222222222>@",
"@,2222222222222%  o  %2222222222222>@",
"@,222222222222%  %2&  $222222222222>@",
"@,22222222222%  %222&  $22222222222>@",
"@,2222222222%  %22222&  $2222222222>@",
"@,222222222%  %2222222&  $222222222>@",
"@,22222222*  %222222222%  *22222222>@",
"@,22222222:X%22222222222&.;22222222>@",
"@,222222222122222222222221222222222>@",
"@,222222222222222222222222222222222>@",
"@,222222222222222222222222222222222>@",
"@,222222222222222222222222222222222>@",
"@<>>>>>>>>>>>>>>>>>>>>>>>>>>>>>>>>>>@",
"@@@@@@@@@@@@@@@@@@@@@@@@@@@@@@@@@@@@@",
"@@@@@@@@@@@@@@@@@@@@@@@@@@@@@@@@@@@@@",
",,,,,,,,,,,,,,,,,,,,,,,,,,,,,,,,,,,,,",
"2222222222222222222222222222222222222"
};
