/* XPM */
static char *shade_active[] = {
/* columns rows colors chars-per-pixel */
"37 32 16 1 ",
"  c gray14",
". c #585858",
"X c #5F5F5F",
"o c #4E6262",
"O c #868686",
"+ c #8D8D8D",
"@ c #8E8E8E",
"# c gray58",
"$ c gray64",
"% c gray65",
"& c gray76",
"* c #D8D8D8",
"= c #FDCACA",
"- c #CAFDFD",
"; c #ECE2E2",
": c gray97",
/* pixels */
".....................................",
"XXXXXXXXXXXXXXXXXXXXXXXXXXXXXXXXXXXXX",
"o-----------------------------------o",
"X-:::::::::::::::::::::::::::::::::=X",
"X-:::::::::::::::::::::::::::::::::=X",
"X-:::::::::::::::::::::::::::::::::=X",
"X-:::::::::::::::::::::::::::::::::=X",
"X-:::::::&+++++++++++++++++&:::::::=X",
"X-:::::::+                 +:::::::=X",
"X-:::::::%.................%:::::::=X",
"X-:::::::::::::::::::::::::::::::::=X",
"X-:::::::::::::::::::::::::::::::::=X",
"X-:::::::::::::::::::::::::::::::::=X",
"X-::::::::::::::::&::::::::::::::::=X",
"X-:::::::::::::::+ O:::::::::::::::=X",
"X-::::::::::::::+   O::::::::::::::=X",
"X-:::::::::::::+  .  +:::::::::::::=X",
"X-::::::::::::+  @:#  O::::::::::::=X",
"X-:::::::::::+  @:::#  O:::::::::::=X",
"X-::::::::::+  @:::::#  O::::::::::=X",
"X-:::::::::+  @:::::::#  O:::::::::=X",
"X-::::::::+  @:::::::::#  O::::::::=X",
"X-:::::::*OO$:::::::::::$OO*:::::::=X",
"X-:::::::::::::::::::::::::::::::::=X",
"X-:::::::::::::::::::::::::::::::::=X",
"X-:::::::::::::::::::::::::::::::::=X",
"X-:::::::::::::::::::::::::::::::::=X",
"X;==================================X",
"XXXXXXXXXXXXXXXXXXXXXXXXXXXXXXXXXXXXX",
"XXXXXXXXXXXXXXXXXXXXXXXXXXXXXXXXXXXXX",
"-------------------------------------",
":::::::::::::::::::::::::::::::::::::"
};
