/* XPM */
static char *shade_active[] = {
/* columns rows colors chars-per-pixel */
"37 32 20 1 ",
"  c #101010",
". c #282828",
"X c #2C2C2C",
"o c #434343",
"O c gray37",
"+ c #586464",
"@ c gray42",
"# c #727272",
"$ c gray47",
"% c #7E7E7E",
"& c gray52",
"* c #929292",
"= c gray68",
"- c gray77",
"; c #C8C8C8",
": c LightGray",
"> c #E2DEDE",
", c #F0D0D0",
"< c #D0F0F0",
"1 c gray88",
/* pixels */
"OOOOOOOOOOOOOOOOOOOOOOOOOOOOOOOOOOOOO",
"OOOOOOOOOOOOOOOOOOOOOOOOOOOOOOOOOOOOO",
"+<<<<<<<<<<<<<<<<<<<<<<<<<<<<<<<<<<<+",
"O<111111111111111111111111111111111,O",
"O<111111111111111111111111111111111,O",
"O<111111111111111111111111111111111,O",
"O<111111111111111111111111111111111,O",
"O<11111111*$$$$$$$$$$$$$$$*11111111,O",
"O<11111111o               o11111111,O",
"O<11111111@ooooooooooooooo@11111111,O",
"O<111111111111111111111111111111111,O",
"O<111111111111111111111111111111111,O",
"O<111111111111111111111111111111111,O",
"O<1111111111111111=1111111111111111,O",
"O<111111111111111$ #111111111111111,O",
"O<11111111111111$   #11111111111111,O",
"O<1111111111111$  o  $1111111111111,O",
"O<111111111111$  $1%  #111111111111,O",
"O<11111111111$  $111%  #11111111111,O",
"O<1111111111$  $11111%  #1111111111,O",
"O<111111111$  $1111111%  #111111111,O",
"O<11111111&  $111111111$  &11111111,O",
"O<11111111;X$11111111111%.-11111111,O",
"O<111111111:1111111111111:111111111,O",
"O<111111111111111111111111111111111,O",
"O<111111111111111111111111111111111,O",
"O<111111111111111111111111111111111,O",
"O>,,,,,,,,,,,,,,,,,,,,,,,,,,,,,,,,,,O",
"OOOOOOOOOOOOOOOOOOOOOOOOOOOOOOOOOOOOO",
"OOOOOOOOOOOOOOOOOOOOOOOOOOOOOOOOOOOOO",
"<<<<<<<<<<<<<<<<<<<<<<<<<<<<<<<<<<<<<",
"1111111111111111111111111111111111111"
};
