/* XPM */
static char *shade_active[] = {
/* columns rows colors chars-per-pixel */
"37 32 17 1 ",
"  c gray14",
". c #585858",
"X c #5A5A5A",
"o c #566464",
"O c #626262",
"+ c #868686",
"@ c #8D8D8D",
"# c #8E8E8E",
"$ c gray58",
"% c gray64",
"& c gray65",
"* c gray76",
"= c #D8D8D8",
"- c #FBD8D8",
"; c #D8FBFB",
": c #EEEAEA",
"> c gray97",
/* pixels */
"XXXXXXXXXXXXXXXXXXXXXXXXXXXXXXXXXXXXX",
"OOOOOOOOOOOOOOOOOOOOOOOOOOOOOOOOOOOOO",
"o;;;;;;;;;;;;;;;;;;;;;;;;;;;;;;;;;;;o",
"O;>>>>>>>>>>>>>>>>>>>>>>>>>>>>>>>>>-O",
"O;>>>>>>>>>>>>>>>>>>>>>>>>>>>>>>>>>-O",
"O;>>>>>>>>>>>>>>>>>>>>>>>>>>>>>>>>>-O",
"O;>>>>>>>>>>>>>>>>>>>>>>>>>>>>>>>>>-O",
"O;>>>>>>>*@@@@@@@@@@@@@@@@@*>>>>>>>-O",
"O;>>>>>>>@                 @>>>>>>>-O",
"O;>>>>>>>&.................&>>>>>>>-O",
"O;>>>>>>>>>>>>>>>>>>>>>>>>>>>>>>>>>-O",
"O;>>>>>>>>>>>>>>>>>>>>>>>>>>>>>>>>>-O",
"O;>>>>>>>>>>>>>>>>>>>>>>>>>>>>>>>>>-O",
"O;>>>>>>>>>>>>>>>>*>>>>>>>>>>>>>>>>-O",
"O;>>>>>>>>>>>>>>>@ +>>>>>>>>>>>>>>>-O",
"O;>>>>>>>>>>>>>>@   +>>>>>>>>>>>>>>-O",
"O;>>>>>>>>>>>>>@  .  @>>>>>>>>>>>>>-O",
"O;>>>>>>>>>>>>@  #>$  +>>>>>>>>>>>>-O",
"O;>>>>>>>>>>>@  #>>>$  +>>>>>>>>>>>-O",
"O;>>>>>>>>>>@  #>>>>>$  +>>>>>>>>>>-O",
"O;>>>>>>>>>@  #>>>>>>>$  +>>>>>>>>>-O",
"O;>>>>>>>>@  #>>>>>>>>>$  +>>>>>>>>-O",
"O;>>>>>>>=++%>>>>>>>>>>>%++=>>>>>>>-O",
"O;>>>>>>>>>>>>>>>>>>>>>>>>>>>>>>>>>-O",
"O;>>>>>>>>>>>>>>>>>>>>>>>>>>>>>>>>>-O",
"O;>>>>>>>>>>>>>>>>>>>>>>>>>>>>>>>>>-O",
"O;>>>>>>>>>>>>>>>>>>>>>>>>>>>>>>>>>-O",
"O:----------------------------------O",
"OOOOOOOOOOOOOOOOOOOOOOOOOOOOOOOOOOOOO",
"OOOOOOOOOOOOOOOOOOOOOOOOOOOOOOOOOOOOO",
";;;;;;;;;;;;;;;;;;;;;;;;;;;;;;;;;;;;;",
">>>>>>>>>>>>>>>>>>>>>>>>>>>>>>>>>>>>>"
};
