/* XPM */
static char *stick_active[] = {
/* columns rows colors chars-per-pixel */
"41 32 62 1 ",
"  c gray14",
". c gray24",
"X c gray25",
"o c #585858",
"O c #5A5A5A",
"+ c #546464",
"@ c #626262",
"# c #6C6A6A",
"$ c #6A6C6C",
"% c #6C6E6E",
"& c #7B7676",
"* c #7A7878",
"= c #808282",
"- c #858D8D",
"; c #8A8888",
": c #888A8A",
"> c #908A8A",
", c #8C9292",
"< c #8B9494",
"1 c #CABEBE",
"2 c #BECACA",
"3 c #B9D0D0",
"4 c #D7C5C5",
"5 c #DCC1C1",
"6 c #C7D9D9",
"7 c gray85",
"8 c gray86",
"9 c gainsboro",
"0 c #F7D0D0",
"q c #F6D1D1",
"w c #F8D1D1",
"e c #FCD3D3",
"r c #FBD4D4",
"t c #F9DDDD",
"y c #CFF4F4",
"u c #D1F8F8",
"i c #D4F9F9",
"p c #D4FBFB",
"a c #D3FCFC",
"s c #D9FBFB",
"d c #DAFBFB",
"f c #DDF9F9",
"g c #E2E2E2",
"h c #E4E4E4",
"j c #ECE0E0",
"k c #E0ECEC",
"l c #F5E7E7",
"z c #FAE7E7",
"x c #F4EEEE",
"c c #E8F5F5",
"v c #EEF4F4",
"b c #E5F9F9",
"n c #EBF8F8",
"m c #F4F1F1",
"M c #F1F4F4",
"N c #F7F4F4",
"B c #F4F7F7",
"V c #F5F7F7",
"C c #F7F6F6",
"Z c gray97",
"A c #F8F3F3",
"S c #F5F8F8",
/* pixels */
"OOOOOOOOOOOOOOOOOOOOOOOOOOOOOOOOOOOOOOOOO",
"@@@@@@@@@@@@@@@@@@@@@@@@@@@@@@@@@@@@@@@@@",
"a++aaaaaaaaaaaaaaaaaaaaaaaaaaaaaaaaaaa++a",
"e@@aZZZZZZZZZZZZZZZZZZZZZZZZZZZZZZZZZe@@a",
"e@@aZZZZZZZZZZZZZZZZZZZZZZZZZZZZZZZZZe@@a",
"e@@aZZZZZZZZZZZZZZZZZZZZZZZZZZZZZZZZZe@@a",
"e@@aZZZZZZZZZZZZZZZZZZZZZZZZZZZZZZZZZe@@a",
"e@@aZZZZZZZZZZZZZZZZZZZZZZZZZZZZZZZZZe@@a",
"e@@aZZZZZZZZZZZZZZZZZZZZZZZZZZZZZZZZZe@@a",
"e@@aZZZZZZZZZZZZZZZZZZZZZZZZZZZZZZZZZe@@a",
"e@@aZZZZZZZZZZZZZZZZZZZZZZZZZZZZZZZZZe@@a",
"e@@aZZZZZZZZZZZZZZZZZZZZZZZZZZZZZZZZZe@@a",
"e@@aZZZZZZZZZZZZZZZ9o7ZZZZZZZZZZZZZZZe@@a",
"e@@aZZZZZZZZZZZZZZ9X .7ZZZZZZZZZZZZZZe@@a",
"e@@aZZZZZZZZZZZZZ9X   .7ZZZZZZZZZZZZZe@@a",
"e@@aZZZZZZZZZZZZZ9X   .7ZZZZZZZZZZZZZe@@a",
"e@@aZZZZZZZZZZZZZZ9X .7ZZZZZZZZZZZZZZe@@a",
"e@@aZZZZZZZZZZZZZZZ8o8ZZZZZZZZZZZZZZZe@@a",
"e@@aZZZZZZZZZZZZZZZZZZZZZZZZZZZZZZZZZe@@a",
"e@@aZZZZZZZZZZZZZZZZZZZZZZZZZZZZZZZZZe@@a",
"e@@aZZZZZZZZZZZZZZZZZZZZZZZZZZZZZZZZZe@@a",
"e@@aZZZZZZZZZZZZZZZZZZZZZZZZZZZZZZZZZe@@a",
"e@@aZZZZZZZZZZZZZZZZZZZZZZZZZZZZZZZZZe@@a",
"e@@aZZZZZZZZZZZZZZZZZZZZZZZZZZZZZZZZZe@@a",
"r#@uBZZZZZZZZZZZZZZZZZZZZZZZZZZZZZZZA0@%p",
"t>@6vZZZZZZZZZZZZZZZZZZZZZZZZZZZZZZZz5@<s",
"l1@=hxNZZZZZZZZZZZZZZZZZZZZZZZZZZZAzq&@3b",
"Cj;@*4weeeeeeeeeeeeeeeeeeeeeeeeeeew5&@-iS",
"Zmg:@@@@@@@@@@@@@@@@@@@@@@@@@@@@@@@@@-ynZ",
"ZZMk2,$@@@@@@@@@@@@@@@@@@@@@@@@@@@$<3inZZ",
"ZZZVcfpaaaaaaaaaaaaaaaaaaaaaaaaaaapdbSZZZ",
"ZZZZZZZZZZZZZZZZZZZZZZZZZZZZZZZZZZZZZZZZZ"
};
