/* XPM */
static char *stick_prelight[] = {
/* columns rows colors chars-per-pixel */
"41 32 69 1 ",
"  c #181818",
". c gray20",
"X c #373737",
"o c #4E4E4E",
"O c #495757",
"+ c #505050",
"@ c #555555",
"# c #565656",
"$ c gray34",
"% c #515858",
"& c #615F5F",
"* c #5F6161",
"= c #606262",
"- c #726D6D",
"; c #727070",
": c #787A7A",
"> c #807E7E",
", c #7B8383",
"< c #7E8080",
"1 c #878181",
"2 c #828888",
"3 c #818A8A",
"4 c #828B8B",
"5 c #C7BBBB",
"6 c #BBC7C7",
"7 c #B6CDCD",
"8 c #D7C5C5",
"9 c #DBC0C0",
"0 c #C7D9D9",
"q c #DDDDDD",
"w c #DFDFDF",
"e c #F9D2D2",
"r c #F8D3D3",
"t c #FAD3D3",
"y c #FCD3D3",
"u c #FBD4D4",
"i c #FED5D5",
"p c #F9DDDD",
"a c #CEF3F3",
"s c #D3FAFA",
"d c #D4F9F9",
"f c #D4FBFB",
"g c #D3FCFC",
"h c #D5FEFE",
"j c #D9FBFB",
"k c #DAFBFB",
"l c #DDF9F9",
"z c #E1E1E1",
"x c gray90",
"c c #ECE0E0",
"v c #E0ECEC",
"b c #F5E7E7",
"n c #FCE9E9",
"m c #E8F5F5",
"M c #E5F9F9",
"N c #EBF8F8",
"B c #E9FEFE",
"V c #F4F1F1",
"C c #F6F0F0",
"Z c #F1F4F4",
"A c #F0F6F6",
"S c #F5F7F7",
"D c #F7F6F6",
"F c gray97",
"G c #FBF6F6",
"H c #FAF7F7",
"J c #F5F8F8",
"K c #F7FAFA",
"L c #FBFBFB",
/* pixels */
"ooooooooooooooooooooooooooooooooooooooooo",
"@@@@@@@@@@@@@@@@@@@@@@@@@@@@@@@@@@@@@@@@@",
"gO%BBBBBBBBBBBBBBBBBBBBBBBBBBBBBBBBBBB%Og",
"y@$hLLLLLLLLLLLLLLLLLLLLLLLLLLLLLLLLLi$@g",
"y@$hLLLLLLLLLLLLLLLLLLLLLLLLLLLLLLLLLi$@g",
"y@$hLLLLLLLLLLLLLLLLLLLLLLLLLLLLLLLLLi$@g",
"y@$hLLLLLLLLLLLLLLLLLLLLLLLLLLLLLLLLLi$@g",
"y@$hLLLLLLLLLLLLLLLLLLLLLLLLLLLLLLLLLi$@g",
"y@$hLLLLLLLLLLLLLLLLLLLLLLLLLLLLLLLLLi$@g",
"y@$hLLLLLLLLLLLLLLLLLLLLLLLLLLLLLLLLLi$@g",
"y@$hLLLLLLLLLLLLLLLLLLLLLLLLLLLLLLLLLi$@g",
"y@$hLLLLLLLLLLLLLLLLLLLLLLLLLLLLLLLLLi$@g",
"y@$hLLLLLLLLLLLLLLLz+qLLLLLLLLLLLLLLLi$@g",
"y@$hLLLLLLLLLLLLLLzX .qLLLLLLLLLLLLLLi$@g",
"y@$hLLLLLLLLLLLLLzX   .qLLLLLLLLLLLLLi$@g",
"y@$hLLLLLLLLLLLLLzX   .qLLLLLLLLLLLLLi$@g",
"y@$hLLLLLLLLLLLLLLzX .qLLLLLLLLLLLLLLi$@g",
"y@$hLLLLLLLLLLLLLLLw+wLLLLLLLLLLLLLLLi$@g",
"y@$hLLLLLLLLLLLLLLLLLLLLLLLLLLLLLLLLLi$@g",
"y@$hLLLLLLLLLLLLLLLLLLLLLLLLLLLLLLLLLi$@g",
"y@$hLLLLLLLLLLLLLLLLLLLLLLLLLLLLLLLLLi$@g",
"y@$hLLLLLLLLLLLLLLLLLLLLLLLLLLLLLLLLLi$@g",
"y@$hLLLLLLLLLLLLLLLLLLLLLLLLLLLLLLLLLi$@g",
"y@$hLLLLLLLLLLLLLLLLLLLLLLLLLLLLLLLLLi$@g",
"u&$sKLLLLLLLLLLLLLLLLLLLLLLLLLLLLLLLGe$=f",
"p1#0ALLLLLLLLLLLLLLLLLLLLLLLLLLLLLLLn9#3j",
"b5@:xCHLLLLLLLLLLLLLLLLLLLLLLLLLLLGnr-@7M",
"Dc>#;8tiiiiiiiiiiiiiiiiiiiiiiiiiiit9-#,dJ",
"FVz<@#$$$$$$$$$$$$$$$$$$$$$$$$$$$$$#@,aNF",
"FFZv62*@@@@@@@@@@@@@@@@@@@@@@@@@@@*47dNFF",
"FFFSmlfgggggggggggggggggggggggggggfkMJFFF",
"FFFFFFFFFFFFFFFFFFFFFFFFFFFFFFFFFFFFFFFFF"
};
