/* XPM */
static char *maximize_toggled_active[] = {
/* columns rows colors chars-per-pixel */
"37 32 12 1 ",
"  c #070707",
". c gray13",
"X c #232323",
"o c #252525",
"O c gray24",
"+ c gray54",
"@ c #909090",
"# c #ACACAC",
"$ c gray77",
"% c #C6C6C6",
"& c #C8C8C8",
"* c gray88",
/* pixels */
"@@@@@@@@@@@@@@@@@@@@@@@@@@@@@@@@@@@@@",
"+++++++++++++++++++++++++++++++++++++",
"+                                   +",
"+                                   +",
"+                                   +",
"+                                   +",
"+                .#o                +",
"+               .$*&o               +",
"+              .$***&o              +",
"+             .$*&O$*&o             +",
"+            .$*&o .$*&o            +",
"+           .$*&o   .$*&o           +",
"+          .$*&o     .$*&o          +",
"+         .$*&o       .$*&o         +",
"+        .$*&o         .$*&o        +",
"+        .$*&o         .$*&o        +",
"+         .$*&o       .$*&o         +",
"+          .$*&o     .$*&o          +",
"+           .$*&o   .$*&o           +",
"+            .$*&o .$*&o            +",
"+             X%*%O%*%X             +",
"+              .$***&o              +",
"+               .$*&o               +",
"+                X#X                +",
"+                                   +",
"+                                   +",
"+                                   +",
"+                                   +",
"+++++++++++++++++++++++++++++++++++++",
"+++++++++++++++++++++++++++++++++++++",
"                                     ",
"                                     "
};
