/* XPM */
static char *bottom_left_active[] = {
/* columns rows colors chars-per-pixel */
"6 6 23 1 ",
"  c #281F21",
". c #211F28",
"X c #3A1A2A",
"o c #2A1A3A",
"O c #202020",
"+ c #771616",
"@ c #662838",
"# c #171677",
"$ c #382966",
"% c #461846",
"& c #6E5769",
"* c #6E5B72",
"= c #7C6B7C",
"- c #887788",
"; c #958495",
": c #A190A1",
"> c #A99AA9",
", c #A99BA9",
"< c #AE9DAE",
"1 c #AE9EAE",
"2 c #AE9FAE",
"3 c #B1A0B1",
"4 c None",
/* pixels */
"3=+ OO",
"2-@XOO",
">:&%o.",
"41;*$#",
"441:-=",
"444,<3"
};
