/* XPM */
static char *hide_pressed[] = {
/* columns rows colors chars-per-pixel */
"39 32 59 1 ",
"  c gray6",
". c #150F11",
"X c #100E15",
"o c #220D1B",
"O c #380C15",
"+ c #1B0D21",
"@ c #150C39",
"# c #3E0F3E",
"$ c #2B1C3A",
"% c #2F1F3E",
"& c #2F213E",
"* c #30213F",
"= c #31223F",
"- c #560A11",
"; c #6B0909",
": c #700909",
"> c #4B0B2B",
", c #731835",
"< c #57253A",
"1 c #110A56",
"2 c #2B0B4B",
"3 c #322340",
"4 c #362744",
"5 c #362844",
"6 c #3F324D",
"7 c #3B2558",
"8 c #09096B",
"9 c #090970",
"0 c #463453",
"q c #473554",
"w c #664657",
"e c #624A5F",
"r c #574765",
"t c #5F4A62",
"y c #5A4F65",
"u c #5C4F67",
"i c #5E5269",
"p c #6D5969",
"a c #69596D",
"s c #705F70",
"d c #735C7D",
"f c #756178",
"g c #786578",
"h c #78637D",
"j c #AA5B6C",
"k c #765E81",
"l c #7C6583",
"z c #806688",
"x c #806789",
"c c #AB6387",
"v c #958C9B",
"b c #A59BAA",
"n c #A99FAE",
"m c #AAA0AE",
"M c #CCC4CE",
"N c #CCC5CE",
"B c #D1CAD2",
"V c #D3CBD4",
"C c #D7CFD8",
/* pixels */
"ggggggggggggggggggggggggggggggggggggggg",
"sssssssssssssssssssssssssssssssssssssss",
":jc,,,,,,,,,,,,,,,,,,,,,,,,,,,,,,,,,,,c",
"9sx$$$$$$$$$$$$$$$$$$$$$$$$$$$$$$$$$$$x",
"9sx$$$$$$$$$$$$$$$$$$$$$$$$$$$$$$$$$$$x",
"9sx$$$$$$$$$$$$$$$$$$$$$$$$$$$$$$$$$$$x",
"9sx$$$$$$$$$$$$$$$$$$$$$$$$$$$$$$$$$$$x",
"9sx$$$$$$$$$$$$$$$$$$$$$$$$$$$$$$$$$$$x",
"9sx$$$$$$$$$$$$$$$$$$$$$$$$$$$$$$$$$$$x",
"9sx$$$$$$$$$$$$$$$$$$$$$$$$$$$$$$$$$$$x",
"9sx$$$$$$$$$$$$$$$$$$$$$$$$$$$$$$$$$$$x",
"9sx$$$$$$$$6bmv=$$$$$$$$$=vmb6$$$$$$$$x",
"9sx$$$$$$$$$yBCn3$$$$$$$&bCVi$$$$$$$$$x",
"9sx$$$$$$$$$$yBCn3$$$$$&bCVi$$$$$$$$$$x",
"9sx$$$$$$$$$$$yBCn3$$$&bCVi$$$$$$$$$$$x",
"9sx$$$$$$$$$$$$yBCn3$&bCVi$$$$$$$$$$$$x",
"9sx$$$$$$$$$$$$$yBCn4bCVi$$$$$$$$$$$$$x",
"9sx$$$$$$$$$$$$$$uBCMCBu$$$$$$$$$$$$$$x",
"9sx$$$$$$$$$$$$$$$yBCVi$$$$$$$$$$$$$$$x",
"9sx$$$$$$$$$$$$$$$$yNi$$$$$$$$$$$$$$$$x",
"9sx$$$$$$$$$$$$$$$$$5$$$$$$$$$$$$$$$$$x",
"9sx$$$$$$$$$$$$$$$$$$$$$$$$$$$$$$$$$$$x",
"9sx$$$$$$$$$$$$$$$$$$$$$$$$$$$$$$$$$$$x",
"9sx$$$$$$$$$$$$$$$$$$$$$$$$$$$$$$$$$$$x",
"8az%$$$$$$$$$$$$$$$$$$$$$$$$$$$$$$$$$$x",
"1rl0$$$$$$$$$$$$$$$$$$$$$$$$$$$$$$$$$$x",
"@7fd=$$$$$$$$$$$$$$$$$$$$$$$$$$$$$$$$$x",
"X2thkq*$$$$$$$$$$$$$$$$$$$$$$$$$$$$$$$x",
" +#eflzxxxxxxxxxxxxxxxxxxxxxxxxxxxxxxxx",
"  o><wpssssssssssssssssssssssssssssssss",
"   .O-;::::::::::::::::::::::::::::::::",
"                                       "
};
