/* XPM */
static char *menu_prelight[] = {
/* columns rows colors chars-per-pixel */
"34 28 3 1 ",
"  c gray6",
". c #790909",
"X c None",
/* pixels */
"XXXX..............................",
"XXXX                              ",
"XXXX                              ",
"XXXX                              ",
".                                 ",
".                                 ",
".                                 ",
".                                 ",
".                                 ",
".                                 ",
".                                 ",
".                                 ",
".                                 ",
".                                 ",
".                                 ",
".                                 ",
".                                 ",
".                                 ",
".                                 ",
".                                 ",
".                                 ",
".                                 ",
".                                 ",
".                                 ",
".                                 ",
".                                 ",
".                                 ",
".                                 "
};
