/* XPM */
static char *close_active[] = {
/* columns rows colors chars-per-pixel */
"30 28 20 1 ",
"  c gray2",
". c #0C0C0C",
"X c #181818",
"o c gray10",
"O c #2C2C2C",
"+ c #3A3A3A",
"@ c #3E3E3E",
"# c gray26",
"$ c #434343",
"% c #464646",
"& c #5A5A5A",
"* c #676767",
"= c #808080",
"- c gray65",
"; c #AFAFAF",
": c #CACACA",
"> c #CBCBCB",
", c #CECECE",
"< c gray84",
"1 c None",
/* pixels */
"                          1111",
"                          1111",
"o=========================1111",
" =XXXXXXXXXXXXXXXXXXXXXXXX1111",
" =XXXXXXXXXXXXXXXXXXXXXXXX1111",
" =XXXXXXXXXXXXXXXXXXXXXXXX1111",
" =XXXXXXXXXXXXXXXXXXXXXXXXXXX+",
" =XXXXXXO-;#XXXXXXX#;-OXXXXXX+",
" =XXXXXXX@:,%XXXXX$>>#XXXXXXX+",
" =XXXXXXXX@:,%XXX$>>#XXXXXXXX+",
" =XXXXXXXXX@:,%X$>>#XXXXXXXXX+",
" =XXXXXXXXXX$>>*>>$XXXXXXXXXX+",
" =XXXXXXXXXXX@:<>#XXXXXXXXXXX+",
" =XXXXXXXXXXX$><,%XXXXXXXXXXX+",
" =XXXXXXXXXX$>>*>>$XXXXXXXXXX+",
" =XXXXXXXXX$>>#X@:,%XXXXXXXXX+",
" =XXXXXXXX$>>#XXX@:,%XXXXXXXX+",
" =XXXXXXX$>>#XXXXX@:,%XXXXXXX+",
" =XXXXXXO-;#XXXXXXX#;-OXXXXXX+",
" =XXXXXXXXXXXXXXXXXXXXXXXXXXX+",
" =XXXXXXXXXXXXXXXXXXXXXXXXXXX+",
" =XXXXXXXXXXXXXXXXXXXXXXXXXXX+",
" =XXXXXXXXXXXXXXXXXXXXXXXXXXX+",
" &++++++++++++++++++++++++++++",
"                             .",
"                             .",
"=============================+",
"XXXXXXXXXXXXXXXXXXXXXXXXXXXXX+"
};
