/* XPM */
static char *close_pressed[] = {
/* columns rows colors chars-per-pixel */
"30 28 19 1 ",
"  c black",
". c #010101",
"X c #020202",
"o c #060606",
"O c #181818",
"+ c #202020",
"@ c #282828",
"# c #2C2C2C",
"$ c #2D2D2D",
"% c #313131",
"& c #3A3A3A",
"* c #555555",
"= c DimGray",
"- c #7B7B7B",
"; c gray74",
": c gray75",
"> c #C1C1C1",
", c #CACACA",
"< c None",
/* pixels */
"                          <<<<",
"                          <<<<",
"                          .o<<",
"                            .<",
"                             o",
"                             .",
"         X+         +X        ",
"         -:$       $:-        ",
"         @;>%     $::#        ",
"          @;>%   $::#         ",
"           @;>% $::#          ",
"            $::*::$           ",
"             @;,:#            ",
"             $:,>%            ",
"            $::*::$           ",
"           $::# @;>%          ",
"          $::#   @;>%         ",
"         $::#     @;>%        ",
"         -:$       $:-        ",
"         X+         +X        ",
"                              ",
"                              ",
"                              ",
"                              ",
"                              ",
"                              ",
"=============================&",
"OOOOOOOOOOOOOOOOOOOOOOOOOOOOO&"
};
