/* XPM */
static char *hide_pressed[] = {
/* columns rows colors chars-per-pixel */
"33 28 39 1 ",
"  c black",
". c #020202",
"X c gray1",
"o c gray2",
"O c #070707",
"+ c #0E0E0E",
"@ c #101010",
"# c #111111",
"$ c #151515",
"% c #161616",
"& c gray9",
"* c gray13",
"= c #232323",
"- c gray14",
"; c #252525",
": c gray15",
"> c #272727",
", c gray18",
"< c #313131",
"1 c gray20",
"2 c #343434",
"3 c #373737",
"4 c #3A3A3A",
"5 c #3C3C3C",
"6 c gray25",
"7 c #414141",
"8 c gray27",
"9 c gray31",
"0 c #505050",
"q c #606060",
"w c #646464",
"e c gray42",
"r c #888888",
"t c #AFAFAF",
"y c #C0C0C0",
"u c #C3C3C3",
"i c #CECECE",
"p c #D0D0D0",
"a c #D5D5D5",
/* pixels */
"                                 ",
"                                 ",
"w                                ",
"2                                ",
"2                                ",
"2                                ",
"2                                ",
"2                                ",
"2                                ",
"2          O,         ,O         ",
"2          ri5       5ir         ",
"2          *yp6     4iu:         ",
"2           *yp6   4iu:          ",
"2            *yp6 4iu:           ",
"2             -uieiu-            ",
"2              *yau;             ",
"2               *t;              ",
"2                .               ",
"2                                ",
"2                                ",
"1X                               ",
"<+                               ",
">:                               ",
"$7+                              ",
"#=8@                             ",
"##:92%o                          ",
"###&30qwwwwwwwwwwwwwwwwwwwwwwwwww",
"#################################"
};
