/* XPM */
static char *hide_active[] = {
/* columns rows colors chars-per-pixel */
"33 28 46 1 ",
"  c gray2",
". c #060606",
"X c #070707",
"o c #090909",
"O c #0C0C0C",
"+ c gray5",
"@ c #111111",
"# c #181818",
"$ c gray10",
"% c #1D1D1D",
"& c #1E1E1E",
"* c gray12",
"= c gray13",
"- c gray14",
"; c #282828",
": c #2D2D2D",
"> c gray19",
", c #313131",
"< c gray20",
"1 c #353535",
"2 c #373737",
"3 c gray22",
"4 c #393939",
"5 c #3A3A3A",
"6 c #3E3E3E",
"7 c #414141",
"8 c gray28",
"9 c #4B4B4B",
"0 c #4C4C4C",
"q c #4E4E4E",
"w c gray31",
"e c #515151",
"r c gray32",
"t c #606060",
"y c #676767",
"u c #767676",
"i c gray47",
"p c #7C7C7C",
"a c #808080",
"s c gray57",
"d c #B4B4B4",
"f c #C3C3C3",
"g c #C6C6C6",
"h c #D0D0D0",
"j c #D2D2D2",
"k c gray84",
/* pixels */
"                                 ",
"                                 ",
"a$$aaaaaaaaaaaaaaaaaaaaaaaaaaaaa$",
"5  a###########################5 ",
"5  a###########################5 ",
"5  a###########################5 ",
"5  a###########################5 ",
"5  a###########################5 ",
"5  a###########################5 ",
"5  a#######&7#########7&#######5 ",
"5  a#######shq#######qhs#######5 ",
"5  a#######1fje#####0hg5#######5 ",
"5  a########1fje###0hg5########5 ",
"5  a#########1fje#0hg5#########5 ",
"5  a##########3ghihg3##########5 ",
"5  a###########1fkg4###########5 ",
"5  a############1d4############5 ",
"5  a#############$#############5 ",
"5  a###########################5 ",
"5  a###########################5 ",
"4. u=##########################5 ",
"5+ 76##########################5 ",
">- Or<%########################5 ",
"%9+ o;25555555555555555555555555 ",
"#:w+                             ",
"##>t,@X                          ",
"###*8ypaaaaaaaaaaaaaaaaaaaaaaaaaa",
"#################################"
};
