/* XPM */
static char *maximize_prelight[] = {
/* columns rows colors chars-per-pixel */
"31 28 13 1 ",
"  c black",
". c #181818",
"X c #464646",
"o c gray40",
"O c DimGray",
"+ c #6C6C6C",
"@ c #747474",
"# c gray53",
"$ c #8E8E8E",
"% c #939393",
"& c #989898",
"* c gray73",
"= c gray88",
/* pixels */
"                               ",
"                               ",
" ############################# ",
" #XXXXXXXXXXXXXXXXXXXXXXXXXXXo ",
" #XXXXXXXXXXXXXXXXXXXXXXXXXXXo ",
" #XXXXXXXXXXXXXXXXXXXXXXXXXXXo ",
" #XXXXXXXXXXXXXXXXXXXXXXXXXXXo ",
" #XXXXXXXXXXXXXXXXXXXXXXXXXXXo ",
" #XXXXXXXXXXXXXXXXXXXXXXXXXXXo ",
" #XXXXXXXXXXXXX+XXXXXXXXXXXXXo ",
" #XXXXXXXXXXXX%=&XXXXXXXXXXXXo ",
" #XXXXXXXXXXX%=*=%XXXXXXXXXXXo ",
" #XXXXXXXXXX%=%X$=&XXXXXXXXXXo ",
" #XXXXXXXXX%=%XXX$=&XXXXXXXXXo ",
" #XXXXXXXX%=%XXXXX$=&XXXXXXXXo ",
" #XXXXXXXX%%XXXXXXX%%XXXXXXXXo ",
" #XXXXXXXXXXXXXXXXXXXXXXXXXXXo ",
" #XXXXXXXXXXXXXXXXXXXXXXXXXXXo ",
" #XXXXXXXXXXXXXXXXXXXXXXXXXXXo ",
" #XXXXXXXXXXXXXXXXXXXXXXXXXXXo ",
" #XXXXXXXXXXXXXXXXXXXXXXXXXXXo ",
" #XXXXXXXXXXXXXXXXXXXXXXXXXXXo ",
" #XXXXXXXXXXXXXXXXXXXXXXXXXXXo ",
" @oooooooooooooooooooooooooooo ",
"                               ",
"                               ",
"OOOOOOOOOOOOOOOOOOOOOOOOOOOOOOO",
"..............................."
};
