/* XPM */
static char *menu_pressed[] = {
/* columns rows colors chars-per-pixel */
"28 24 3 1 ",
"  c gray6",
". c #797979",
"X c None",
/* pixels */
"XXXX........................",
"XXXX                        ",
"XXXX                        ",
"XXXX                        ",
".                           ",
".                           ",
".                           ",
".                           ",
".                           ",
".                           ",
".                           ",
".                           ",
".                           ",
".                           ",
".                           ",
".                           ",
".                           ",
".                           ",
".                           ",
".                           ",
".                           ",
".                           ",
".                           ",
".                           "
};
