/* XPM */
static char *shade_active[] = {
/* columns rows colors chars-per-pixel */
"31 28 24 1 ",
"  c gray2",
". c #181818",
"X c gray10",
"o c #1B1B1B",
"O c #1D1D1D",
"+ c gray21",
"@ c #3A3A3A",
"# c #3E3E3E",
"$ c gray26",
"% c #434343",
"& c #464646",
"* c #5A5A5A",
"= c #676767",
"- c #808080",
"; c #8B8B8B",
": c #A9A9A9",
"> c #B7B7B7",
", c #B9B9B9",
"< c #C3C3C3",
"1 c gray78",
"2 c #CACACA",
"3 c #CBCBCB",
"4 c #CECECE",
"5 c gray84",
/* pixels */
"                               ",
"                               ",
"X-----------------------------X",
" -...........................@ ",
" -...........................@ ",
" -...........................@ ",
" -...........................@ ",
" -.......:>>>>>>>>>>>:.......@ ",
" -.......,11111111111,.......@ ",
" -...........................@ ",
" -...........................@ ",
" -.............O.............@ ",
" -............%<&............@ ",
" -...........%354&...........@ ",
" -..........%33=33%..........@ ",
" -.........%33$.#24&.........@ ",
" -........%33$...#24&........@ ",
" -.......%33$.....#24&.......@ ",
" -.......;3%.......%3;.......@ ",
" -.......o+.........+o.......@ ",
" -...........................@ ",
" -...........................@ ",
" -...........................@ ",
" *@@@@@@@@@@@@@@@@@@@@@@@@@@@@ ",
"                               ",
"                               ",
"-------------------------------",
"..............................."
};
