/* XPM */
static char *shade_pressed[] = {
/* columns rows colors chars-per-pixel */
"31 28 21 1 ",
"  c black",
". c gray1",
"X c #060606",
"o c #111111",
"O c #222222",
"+ c gray17",
"@ c #2F2F2F",
"# c gray19",
"$ c #343434",
"% c gray35",
"& c #646464",
"* c #818181",
"= c gray64",
"- c #B2B2B2",
"; c #B4B4B4",
": c #C0C0C0",
"> c gray77",
", c gray78",
"< c gray79",
"1 c gray80",
"2 c #D5D5D5",
/* pixels */
"                               ",
"                               ",
"                               ",
"                               ",
"                               ",
"                               ",
"                               ",
"         =-----------=         ",
"         ;>>>>>>>>>>>;         ",
"                               ",
"                               ",
"               X               ",
"              #:$              ",
"             #<21$             ",
"            #<<%<<#            ",
"           #<<@ +,1$           ",
"          #<<@   +,1$          ",
"         #<<@     +,1$         ",
"         *<#       #<*         ",
"         .O         O.         ",
"                               ",
"                               ",
"                               ",
"                               ",
"                               ",
"                               ",
"&&&&&&&&&&&&&&&&&&&&&&&&&&&&&&&",
"ooooooooooooooooooooooooooooooo"
};
