/* XPM */
static char *stick_active[] = {
/* columns rows colors chars-per-pixel */
"35 28 26 1 ",
"  c black",
". c #060606",
"X c gray3",
"o c gray6",
"O c #101010",
"+ c gray9",
"@ c #181818",
"# c gray11",
"$ c #2A2A2A",
"% c #2F2F2F",
"& c gray20",
"* c gray21",
"= c gray23",
"- c #3E3E3E",
"; c gray26",
": c #464646",
"> c gray29",
", c #535353",
"< c #565656",
"1 c #5D5D5D",
"2 c #606060",
"3 c #646464",
"4 c #AFAFAF",
"5 c #C5C5C5",
"6 c gray79",
"7 c gray88",
/* pixels */
"                                   ",
"                                   ",
"3  33333333333333333333333333333  3",
"-  3@@@@@@@@@@@@@@@@@@@@@@@@@@@-  3",
"-  3@@@@@@@@@@@@@@@@@@@@@@@@@@@-  3",
"-  3@@@@@@@@@@@@@@@@@@@@@@@@@@@-  3",
"-  3@@@@@@@@@@@@@@@@@@@@@@@@@@@-  3",
"-  3@@@@@@@@@@@@@@@@@@@@@@@@@@@-  3",
"-  3@@@@@@@@@@@@@@@@@@@@@@@@@@@-  3",
"-  3@@@@@@@@@@@@@@@@@@@@@@@@@@@-  3",
"-  3@@@@@@@@@@@@@@@@@@@@@@@@@@@-  3",
"-  3@@@@@@@@@@@@%4&@@@@@@@@@@@@-  3",
"-  3@@@@@@@@@@@%576&@@@@@@@@@@@-  3",
"-  3@@@@@@@@@@@%576&@@@@@@@@@@@-  3",
"-  3@@@@@@@@@@@@&4&+@@@@@@@@@@@-  3",
"-  3@@@@@@@@@@@@+@@+@@@@@@@@@@@-  3",
";  3@@@@@@@@@@@@+@@@@@@@@@@@@@@-  3",
"-  3@@@@@@@@@@@@@@@@@@@@@@@@@@@-  3",
"-  3@@@@@@@@@@@@@@@@@@@@@@@@@@@-  3",
"-  3@@@@@@@@@@@@@@@@@@@@@@@@@@@-  3",
"-  2#@@@@@@@@@@@@@@@@@@@@@@@@@#= .2",
"=o ;*@@@@@@@@@@@@@@@@@@@@@@@@@$$ +<",
"%$ o>%#@@@@@@@@@@@@@@@@@@@@@#$=. =-",
"#:O X%----------------------=$X +1#",
"@$:O                           +<&+",
"@@%,=+.                     .+=1&@+",
"@@@#=<13333333333333333333332<-#@@@",
"@@@@+@@@@@@@@@@@@@@@@@@@@@@@@@@@@@@"
};
