/* XPM */
static char *stick_pressed[] = {
/* columns rows colors chars-per-pixel */
"33 27 38 1 ",
"  c black",
". c #010101",
"X c #020202",
"o c #040404",
"O c #070707",
"+ c gray3",
"@ c gray5",
"# c gray6",
"$ c #111111",
"% c gray7",
"& c gray8",
"* c #191919",
"= c gray10",
"- c #1B1B1B",
"; c #1E1E1E",
": c gray12",
"> c #252525",
", c gray15",
"< c gray17",
"1 c #2C2C2C",
"2 c #2D2D2D",
"3 c #373737",
"4 c gray22",
"5 c gray25",
"6 c gray27",
"7 c gray30",
"8 c gray31",
"9 c gray38",
"0 c DimGray",
"q c gray43",
"w c #6F6F6F",
"e c gray44",
"r c #777777",
"t c gray49",
"y c gray50",
"u c #808080",
"i c gray52",
"p c gray88",
/* pixels */
"                                 ",
"XXXXXXXXXXXXXXXXXXXXXXXXXXXXXXXXX",
"i%                             %i",
"<X                             Xi",
"<X                             Xi",
"<X                             Xi",
"<X                             Xi",
"<X                             Xi",
"<X                             Xi",
"<X                             Xi",
"<X              3              Xi",
"<X             epr             Xi",
"<X            4ppp4            Xi",
"<X             0pe             Xi",
"<X              3              Xi",
"<X                             Xi",
"<X                             Xi",
"<X                             Xi",
"<X                             Xi",
"<o                             +y",
"2@                             ;w",
",>.                           .77",
"&6$.                         .-t=",
"#,8&.                       .-r3#",
"##195-OXXXXXXXXXXXXXXXXXXXO:7t3##",
"###*60uiiiiiiiiiiiiiiiiiiiuq7=###",
"#################################"
};
