/* XPM */
static char *title_1_active[] = {
/* columns rows colors chars-per-pixel */
"1 28 3 1 ",
"  c black",
". c #111111",
"X c #646464",
/* pixels */
" ",
" ",
"X",
".",
".",
".",
".",
".",
".",
".",
".",
".",
".",
".",
".",
".",
".",
".",
".",
".",
".",
".",
".",
".",
".",
".",
".",
"."
};
