/* XPM */
static char *top_left_active[] = {
/* columns rows colors chars-per-pixel */
"6 28 14 1 ",
"  c black",
". c #010101",
"X c gray1",
"o c #060606",
"O c #0C0C0C",
"+ c #111111",
"@ c #191919",
"# c #373737",
"$ c gray22",
"% c #444444",
"& c gray36",
"* c #5F5F5F",
"= c #646464",
"- c None",
/* pixels */
"---oX.",
"--X   ",
"-X O%*",
"o O&#@",
"X %$++",
". *@++",
"  =+++",
"  =+++",
"  =+++",
"  =+++",
"  =+++",
"  =+++",
"  =+++",
"  =+++",
"  =+++",
"  =+++",
"  =+++",
"  =+++",
"  =+++",
"  =+++",
"  =+++",
"  =+++",
"  =+++",
"  =+++",
"  =+++",
"  =+++",
"  =+++",
"  =+++"
};
