/* XPM */
static char *maximize_pressed[] = {
/* columns rows colors chars-per-pixel */
"25 24 15 1 ",
"  c #070707",
". c #1C1C47",
"X c #1F1F4A",
"o c #2E2E54",
"O c #303056",
"+ c #414163",
"@ c #4D4D6D",
"# c #7E7E94",
"$ c gray54",
"% c #858599",
"& c #909090",
"* c #9292A3",
"= c #BFBFC6",
"- c #C2C2C9",
"; c #DFDFDF",
/* pixels */
"&&&&&&&&&&&&&&&&$&&&&&$&&",
"$$$$$$$$$$$$$$$$$$$$$$$$$",
"*...................X...*",
"*...................X...*",
"*.......................*",
"*.......................*",
"*.......................*",
"*.......................*",
"*...........@...........*",
"*..........#;#..........*",
"*.........#-+=%.........*",
"*........#-O.o=%........*",
"*.......+=o...o=+.......*",
"*........X....XX........*",
"*.......................*",
"*.......................*",
"*.......................*",
"*.......................*",
"*.......................*",
"*.......................*",
"*************************",
"$$$$$$$$$$$$$$$$$$$$$$$$$",
"                         ",
"                         "
};
