/* XPM */
static char *stick_pressed[] = {
/* columns rows colors chars-per-pixel */
"29 24 26 1 ",
"  c #070707",
". c #0B0B0B",
"X c #151515",
"o c #3F3F3F",
"O c #1C1C47",
"+ c #22224C",
"@ c #23234D",
"# c #24244D",
"$ c #414163",
"% c #424264",
"& c #444466",
"* c #6F6F6F",
"= c #727272",
"- c #6C6C85",
"; c #73738B",
": c #838383",
"> c gray54",
", c #818195",
"< c #8C8C91",
"1 c #8E8E97",
"2 c #858599",
"3 c #909090",
"4 c #90909C",
"5 c #90909D",
"6 c #9292A3",
"7 c #DEDEDF",
/* pixels */
"3333333333333333>333333333333",
">>>>>>>>>>>>>>>>>>>>>>>>>>>>>",
" >6OOOOOOOOOOOOOOOOOOOOOOO6> ",
" >6OOOOOOOOOOOOOOOOOOOOOOO6> ",
" >6OOOOOOOOOOOOOOOOOOOOOOO6>.",
" >6OOOOOOOOOOOOOOOOOOOOOOO6> ",
" >6OOOOOOOOOOOOOOOOOOOOOOO6> ",
" >6OOOOOOOOOOOOOOOOOOOOOOO6> ",
" >6OOOOOOOOOOOOOOOOOOOOOOO6> ",
" >6OOOOOOOOOOO$OOOOOOOOOOO6> ",
" >6OOOOOOOOOO-7;OOOOOOOOOO6> ",
" >6OOOOOOOOOO-7;OOOOOOOOOO6> ",
" >6OOOOOOOOOOO$OOOOOOOOOOO6> ",
" >6OOOOOOOOOOOOOOOOOOOOOOO6> ",
" >6OOOOOOOOOOOOOOOOOOOOOOO6> ",
" >6OOOOOOOOOOOOOOOOOOOOOOO6> ",
" :6+OOOOOOOOOOOOOOOOOOOOO#6: ",
" *5%OOOOOOOOOOOOOOOOOOOOO$5* ",
" o<,#OOOOOOOOOOOOOOOOOOO#2<o ",
" .=12&+OOOOOOOOOOOOOOO+$21=. ",
"  X=<5666666666666666665>=X  ",
"   .o*:>>>>>>>>>>>>>>>:*o..  ",
"                             ",
"                             "
};
