/* XPM */
static char *close_active[] = {
/* columns rows colors chars-per-pixel */
"36 32 18 1 ",
"  c gray8",
". c #151515",
"X c #202020",
"o c #232323",
"O c gray29",
"+ c #4E4E4E",
"@ c gray31",
"# c #535353",
"$ c gray33",
"% c #818181",
"& c #8E8E8E",
"* c gray69",
"= c #B2B2B2",
"- c gray70",
"; c gray86",
": c gainsboro",
"> c gray88",
", c None",
/* pixels */
"&&&&&&&&&&&&&&&&&&&&&&&&&&&&&&&&,,,,",
"&&&&&&&&&&&&&&&&&&&&&&&&&&&&&&&&,,,,",
"&                               ,,,,",
"&                               ,,,,",
"&                               ,,,,",
"&                               ,,,,",
"&                                   ",
"&                                   ",
"&          X*$         +-o          ",
"&          O;;#       $;:O          ",
"&           +;:$     +;;$           ",
"&            +;:$   +:;$            ",
"&             +;:$ +;;$             ",
"&              #:;%:;$              ",
"&               +;>;$               ",
"&               +;>:$               ",
"&              #:;%;;#              ",
"&             +;;$ +;:$             ",
"&            #;;$   +;:$            ",
"&           +;;$     +;:$           ",
"&          O::$       #;;+          ",
"&         ..*$         +*X          ",
"&         ..                        ",
"&                                   ",
"&                                   ",
"&                                   ",
"&                                   ",
"&                                   ",
"&&&&&&&&&&&&&&&&&&&&&&&&&&&&&&&&&&&&",
"&&&&&&&&&&&&&&&&&&&&&&&&&&&&&&&&&&&&",
"                                    ",
"                                    "
};
