/* XPM */
static char *stick_pressed[] = {
/* columns rows colors chars-per-pixel */
"41 32 62 1 ",
"  c gray6",
". c #110F0F",
"X c #0F1111",
"o c #0E1212",
"O c #0C1C1C",
"+ c #0F1F1F",
"@ c #161313",
"# c #131616",
"$ c #200F0F",
"% c #2F0B0B",
"& c #360606",
"* c #390606",
"= c #271818",
"- c #1C1C3A",
"; c #0A2424",
": c #0B2F2F",
"> c #182727",
", c #063636",
"< c #063737",
"1 c #083232",
"2 c #083737",
"3 c #063939",
"4 c #0C3939",
"5 c #232323",
"6 c #3E2F2F",
"7 c #22223E",
"8 c #23233F",
"9 c #2F3E3E",
"0 c #153C59",
"q c #242440",
"w c #33334D",
"e c #35354E",
"r c #35354F",
"t c #3C3C54",
"y c #3D3D55",
"u c #3E3E56",
"i c #274545",
"p c #565D5D",
"a c #545F5F",
"s c #5F5858",
"d c #605E5E",
"f c #5E6060",
"g c #5A6464",
"h c #6F7272",
"j c #737171",
"k c #717373",
"l c gray47",
"z c #7A7A7F",
"x c #7E7E7E",
"c c #707081",
"v c #747484",
"b c #747485",
"n c #7C7C83",
"m c #7D7D88",
"M c #7E7E8C",
"N c #7F7F8D",
"B c #738D8D",
"V c #7A8E9C",
"C c #A9A9B1",
"Z c #BFBFC4",
"A c #C2C2C6",
"S c #D6D6D8",
/* pixels */
"xxxxxxxxxxxxxxxxxxxxxxxxxxxxxxxxxxxxxxxxx",
"lllllllllllllllllllllllllllllllllllllllll",
"3BV00000000000000000000000000000000000VB3",
"*lN-----------------------------------Nl3",
"*lN-----------------------------------Nl3",
"*lN-----------------------------------Nl3",
"*lN-----------------------------------Nl3",
"*lN-----------------------------------Nl3",
"*lN-----------------------------------Nl3",
"*lN-----------------------------------Nl3",
"*lN-----------------------------------Nl3",
"*lN-----------------------------------Nl3",
"*lN----------------wCr----------------Nl3",
"*lN---------------wZSAr---------------Nl3",
"*lN--------------wZSSSAr--------------Nl3",
"*lN--------------wZSSSAr--------------Nl3",
"*lN---------------wZSAr---------------Nl3",
"*lN----------------eCe----------------Nl3",
"*lN-----------------------------------Nl3",
"*lN-----------------------------------Nl3",
"*lN-----------------------------------Nl3",
"*lN-----------------------------------Nl3",
"*lN-----------------------------------Nl3",
"*lN-----------------------------------Nl3",
"&jM7---------------------------------8Mh,",
"%smt---------------------------------uma1",
"$6zc8-------------------------------qbzi;",
".=dnvy7---------------------------7ubng2o",
" @5fzmMNNNNNNNNNNNNNNNNNNNNNNNNNNNMmzg4O ",
"  #>9pklllllllllllllllllllllllllllkai2O  ",
"   X+:<333333333333333333333333333<1;o   ",
"                                         "
};
