/* XPM */
static char *top_left_active[] = {
/* columns rows colors chars-per-pixel */
"6 32 17 1 ",
"  c #070707",
". c #070A0A",
"X c #071313",
"o c #062020",
"O c #0C2525",
"+ c #0E2626",
"@ c #293A3A",
"# c #646464",
"$ c #686B6B",
"% c #727272",
"& c gray45",
"* c gray46",
"= c #777777",
"- c gray47",
"; c gray48",
": c #7C7C7C",
"> c None",
/* pixels */
">>>#%;",
">>&;=*",
">&-$@O",
"#;$+X.",
"%=@X  ",
";*O.  ",
":*o   ",
":*o   ",
":*o   ",
":*o   ",
":*o   ",
":*o   ",
":*o   ",
":*o   ",
":*o   ",
":*o   ",
":*o   ",
":*o   ",
":*o   ",
":*o   ",
":*o   ",
":*o   ",
":*o   ",
":*o   ",
":*o   ",
":*o   ",
":*o   ",
":*o   ",
":*o   ",
":*o   ",
":*o   ",
":*o   "
};
