/* XPM */
static char *close_prelight[] = {
/* columns rows colors chars-per-pixel */
"30 28 26 1 ",
"  c #100E23",
". c #0D415E",
"X c #0C4260",
"o c #0B4565",
"O c #0B4665",
"+ c #0C4565",
"@ c #0C4665",
"# c #0F4867",
"$ c #2F617B",
"% c #7C2BB7",
"& c #386781",
"* c #3D6B84",
"= c #416F87",
"- c #435BB7",
"; c #7B3DCC",
": c #545AC9",
"> c #0881AA",
", c #0793BF",
"< c #688CA0",
"1 c #0694C0",
"2 c #91ACBA",
"3 c #D9E2E7",
"4 c #DBE3E8",
"5 c #DEE6EA",
"6 c #E7EDF0",
"7 c None",
/* pixels */
"                          7777",
"                          7777",
" 1111111111111111111111111oX77",
" ,@@@@@@@@@@@@@@@@@@@@@@@@@@+7",
" ,@@@@@@@@@@@@@@@@@@@@@@@@@@@.",
" ,@@@@@@@@@@@@@@@@@@@@@@@@@@@O",
" ,@@@@@@@#$@@@@@@@@@$#@@@@@@@:",
" ,@@@@@@@24*@@@@@@@*42@@@@@@@:",
" ,@@@@@@@&35=@@@@@*44*@@@@@@@:",
" ,@@@@@@@@&35=@@@*44*@@@@@@@@:",
" ,@@@@@@@@@&35=@*44*@@@@@@@@@:",
" ,@@@@@@@@@@*44<44*@@@@@@@@@@:",
" ,@@@@@@@@@@@&364*@@@@@@@@@@@:",
" ,@@@@@@@@@@@*465=@@@@@@@@@@@:",
" ,@@@@@@@@@@*44<44*@@@@@@@@@@:",
" ,@@@@@@@@@*44*@&35=@@@@@@@@@:",
" ,@@@@@@@@*44*@@@&35=@@@@@@@@:",
" ,@@@@@@@*44*@@@@@&35=@@@@@@@:",
" ,@@@@@@@24*@@@@@@@*42@@@@@@@:",
" ,@@@@@@@#$@@@@@@@@@$#@@@@@@@:",
" ,@@@@@@@@@@@@@@@@@@@@@@@@@@@:",
" ,@@@@@@@@@@@@@@@@@@@@@@@@@@@:",
" ,@@@@@@@@@@@@@@@@@@@@@@@@@@@:",
" -;;;;;;;;;;;;;;;;;;;;;;;;;;;:",
"                              ",
"                              ",
">>>>>>>>>>>>>>>>>>>>>>>>>>>>>%",
"                             %"
};
