/* XPM */
static char *hide_active[] = {
/* columns rows colors chars-per-pixel */
"33 28 54 1 ",
"  c #100E23",
". c #121025",
"X c #14102A",
"o c #101429",
"O c #171529",
"+ c #17122F",
"@ c #12152E",
"# c #191232",
"$ c #181533",
"% c #111831",
"& c #141C38",
"* c #1B1A3E",
"= c #181D3E",
"- c #231742",
"; c #132441",
": c #1D2851",
"> c #323042",
", c #353345",
"< c #353446",
"1 c #363546",
"2 c #3F3D4E",
"3 c #232352",
"4 c #1F3664",
"5 c #312966",
"6 c #3D246E",
"7 c #3E2B76",
"8 c #174169",
"9 c #1C4472",
"0 c #4B4A59",
"q c #4D4B5B",
"w c #514F5F",
"e c #4C2B84",
"r c #602B9A",
"t c #7629AF",
"y c #7729AF",
"u c #7C2BB7",
"i c #195381",
"p c #116490",
"a c #3C4EA0",
"s c #3D4EA3",
"d c #2D5DA2",
"f c #097BA3",
"g c #097BA4",
"h c #7C7B86",
"j c #5143A7",
"k c #0881AA",
"l c #9A99A2",
"z c #C1C1C6",
"x c #D2D2D6",
"c c #D5D4D8",
"v c #D6D5D9",
"b c #E1E1E3",
"n c #E3E3E5",
"m c #E8E7E9",
/* pixels */
"                                 ",
"                                 ",
"k  kkkkkkkkkkkkkkkkkkkkkkkkkkkkk ",
"u  k                           u ",
"u  k                           u ",
"u  k                           u ",
"u  k                           u ",
"u  k                           u ",
"u  k                           u ",
"u  k       O2         2O       u ",
"u  k       lbq       qbl       u ",
"u  k       >xnw     0bv1       u ",
"u  k        >xnw   0bv1        u ",
"u  k         >xnw 0bc1         u ",
"u  k          ,cbhbc,          u ",
"u  k           >xmc<           u ",
"u  k            >z<            u ",
"u  k             .             u ",
"u  k                           u ",
"u  k                           u ",
"yX f%                          u ",
"r- i4                          u ",
"67 &s5#                        u ",
"+j* $etuuuuuuuuuuuuuuuuuuuuuuuuu ",
" 3a=                             ",
"  :d9;o                          ",
"   @8pgkkkkkkkkkkkkkkkkkkkkkkkkkk",
"                                 "
};
