/* XPM */
static char *bottom_left_active[] = {
/* columns rows colors chars-per-pixel */
"6 6 22 1 ",
"  c gray36",
". c #5D5D5D",
"X c gray37",
"o c #606060",
"O c gray38",
"+ c DimGray",
"@ c #6A6A6A",
"# c #6C6C6C",
"$ c #797878",
"% c #7F8282",
"& c #808080",
"* c #D6C0C0",
"= c #C0D9D9",
"- c #F8C7C7",
"; c #DFE0E0",
": c #C8F8F8",
"> c #F2EBEB",
", c #EBF2F2",
"< c #F7F3F3",
"1 c #F3F7F7",
"2 c gray97",
"3 c None",
/* pixels */
"XO:122",
"@o=,22",
"&.%;><",
"3+X$*-",
"33+ oO",
"333&#X"
};
