/* XPM */
static char *bottom_left_active[] = {
/* columns rows colors chars-per-pixel */
"6 6 19 1 ",
"  c gray37",
". c #626262",
"X c #6D6D6D",
"o c gray44",
"O c #747373",
"+ c #787A7A",
"@ c #808080",
"# c #818181",
"$ c #C9BCBC",
"% c #BECCCC",
"& c #DADADA",
"* c #EBCECE",
"= c #E2DDDD",
"- c #E1DFDF",
"; c #CFECEC",
": c #DFE1E1",
"> c #DDE2E2",
", c gray88",
"< c None",
/* pixels */
". ;:,,",
"o %:,,",
"@ +&=,",
"<X O$*",
"<<X   ",
"<<<#o."
};
