/* XPM */
static char *bottom_right_active[] = {
/* columns rows colors chars-per-pixel */
"6 6 18 1 ",
"  c #565656",
". c gray34",
"X c #585858",
"o c gray35",
"O c #5A5A5A",
"+ c #656565",
"@ c #676767",
"# c #747070",
"$ c gray50",
"% c #D7BFBF",
"& c #F5D6D6",
"* c #F7D6D6",
"= c #F7D7D7",
"- c #F9E8E8",
"; c #F9E9E9",
": c gray97",
"> c #F8F4F4",
", c None",
/* pixels */
"::>=OX",
"::;%X@",
">-&# $",
"*%#.+,",
"OX +,,",
"o@$,,,"
};
