/* XPM */
static char *close_prelight[] = {
/* columns rows colors chars-per-pixel */
"28 27 22 1 ",
"  c black",
". c gray12",
"X c #281E1E",
"o c #232323",
"O c #292222",
"+ c #222929",
"@ c #2C2C2C",
"# c #585858",
"$ c #5F5F5F",
"% c gray38",
"& c #676767",
"* c #EDBABA",
"= c #F0BFBF",
"- c #BAEDED",
"; c #BFF0F0",
": c #DDD8D8",
"> c #DDDDDD",
", c #F0C7C7",
"< c #C7F0F0",
"1 c #E4E4E4",
"2 c gray90",
"3 c None",
/* pixels */
"                        3333",
"........................3333",
"+<<<<<<<<<<<<<<<<<<<<<<<2133",
"o;22222222222222222222222223",
"o;22222222222222222222222222",
"o;22222222222222222222222222",
"o;2222222222222222222222222,",
"o;222222& #2222222$ %222222,",
"o;2222222& #22222$ %2222222,",
"o;22222222& #222$ %22222222,",
"o;222222222& #2$ %222222222,",
"o;2222222222$ @ $2222222222,",
"o;22222222222@ @22222222222,",
"o;2222222222$ @ $2222222222,",
"o;222222222$ %2& #222222222,",
"o;22222222$ %222& #22222222,",
"o;2222222$ %22222& #2222222,",
"o;222222$ %2222222& #222222,",
"o;2222222222222222222222222,",
"o;2222222222222222222222222,",
"o;2222222222222222222222222,",
"o;2222222222222222222222222,",
"o:=========================,",
"oooooooooooooooooooooooooooO",
"...........................X",
"---------------------------*",
">>>>>>>>>>>>>>>>>>>>>>>>>>>*"
};
