/* XPM */
static char *close_prelight[] = {
/* columns rows colors chars-per-pixel */
"30 28 31 1 ",
"  c #232323",
". c gray17",
"X c gray18",
"o c gray19",
"O c gray20",
"+ c gray30",
"@ c #565656",
"# c gray35",
"$ c gray37",
"% c #614C4C",
"& c #635757",
"* c #576363",
"= c #989898",
"- c #BBBBBB",
"; c gray75",
": c #F2BFBF",
"> c #BFF2F2",
", c #C0C0C0",
"< c gray77",
"1 c gray84",
"2 c #DFDFDF",
"3 c #F7C4C4",
"4 c #E4DCDC",
"5 c #F7D9D9",
"6 c #C4F7F7",
"7 c #D9F7F7",
"8 c #ECECEC",
"9 c gray98",
"0 c #FBFBFB",
"q c gray99",
"w c None",
/* pixels */
"OOOOOOOOOOOOOOOOOOOOOOOOOOwwww",
"##########################wwww",
"*777777777777777777777777790ww",
"$6888888888888888888888888qq0w",
"$6888888888888888888888888qqq9",
"$6888888888888888888888888qqq0",
"$68888888888888888888888888885",
"$68888881@+,8888888,+@18888885",
"$68888888<o.-88888;XX,88888885",
"$688888888<o.-888;XX,888888885",
"$6888888888<o.-8;XX,8888888885",
"$68888888888;XX=XX;88888888885",
"$688888888888<o X,888888888885",
"$688888888888;X .-888888888885",
"$68888888888;XX=XX;88888888885",
"$6888888888;XX,8<o.-8888888885",
"$688888888;XX,888<o.-888888885",
"$68888888;XX,88888<o.-88888885",
"$68888881@+,8888888,+@18888885",
"$68888888888888888888888888885",
"$68888888888888888888888888885",
"$68888888888888888888888888885",
"$68888888888888888888888888885",
"$43333333333333333333333333335",
"$$$$$$$$$$$$$$$$$$$$$$$$$$$$$&",
"#############################%",
">>>>>>>>>>>>>>>>>>>>>>>>>>>>>:",
"22222222222222222222222222222:"
};
