/* XPM */
static char *hide_active[] = {
/* columns rows colors chars-per-pixel */
"33 28 57 1 ",
"  c #181818",
". c gray11",
"X c #1E1E1E",
"o c #2A2A2A",
"O c gray17",
"+ c gray18",
"@ c #3F3F3F",
"# c #585858",
"$ c #5F5F5F",
"% c #536161",
"& c #676767",
"* c #6B6969",
"= c #696B6B",
"- c #797777",
"; c #7E8080",
": c #878585",
"> c #858787",
", c gray53",
"< c #8E8888",
"1 c #898F8F",
"2 c #B4B4B4",
"3 c #B7B7B7",
"4 c #B9B9B9",
"5 c #C9BDBD",
"6 c #BECACA",
"7 c #C6C6C6",
"8 c #CECECE",
"9 c gray81",
"0 c #D7C5C5",
"q c #C7D9D9",
"w c #D0D0D0",
"e c LightGray",
"r c #F8D1D1",
"t c #FCD3D3",
"y c #FBD4D4",
"u c #F9DDDD",
"i c #D1F8F8",
"p c #D4FBFB",
"a c #D3FCFC",
"s c #DDF9F9",
"d c #E1E1E1",
"f c #E4E4E4",
"g c #ECE0E0",
"h c #E0ECEC",
"j c #F5E7E7",
"k c #F4EEEE",
"l c #E8F5F5",
"z c #EEF4F4",
"x c gray94",
"c c #F4F1F1",
"v c #F1F4F4",
"b c gray96",
"n c #F7F4F4",
"m c #F4F7F7",
"M c #F5F7F7",
"N c #F7F6F6",
"B c gray97",
/* pixels */
"#################################",
"$$$$$$$$$$$$$$$$$$$$$$$$$$$$$$$$$",
"a%%aaaaaaaaaaaaaaaaaaaaaaaaaaaaa%",
"t$$aBBBBBBBBBBBBBBBBBBBBBBBBBBBt$",
"t$$aBBBBBBBBBBBBBBBBBBBBBBBBBBBt$",
"t$$aBBBBBBBBBBBBBBBBBBBBBBBBBBBt$",
"t$$aBBBBBBBBBBBBBBBBBBBBBBBBBBBt$",
"t$$aBBBBBBBBBBBBBBBBBBBBBBBBBBBt$",
"t$$aBBBBBBBBBBBBBBBBBBBBBBBBBBBt$",
"t$$aBBBBBBBx7BBBBBBBBB7xBBBBBBBt$",
"t$$aBBBBBBB&X3BBBBBBB3X&BBBBBBBt$",
"t$$aBBBBBBBe+.2BBBBB4Xo8BBBBBBBt$",
"t$$aBBBBBBBBe+.2BBB4Xo8BBBBBBBBt$",
"t$$aBBBBBBBBBe+.2B4XO8BBBBBBBBBt$",
"t$$aBBBBBBBBBBwOX,XOwBBBBBBBBBBt$",
"t$$aBBBBBBBBBBBe+ O9BBBBBBBBBBBt$",
"t$$aBBBBBBBBBBBBe@9BBBBBBBBBBBBt$",
"t$$aBBBBBBBBBBBBBbBBBBBBBBBBBBBt$",
"t$$aBBBBBBBBBBBBBBBBBBBBBBBBBBBt$",
"t$$aBBBBBBBBBBBBBBBBBBBBBBBBBBBt$",
"y*$imBBBBBBBBBBBBBBBBBBBBBBBBBBt$",
"u<$qzBBBBBBBBBBBBBBBBBBBBBBBBBBt$",
"j5$;fknBBBBBBBBBBBBBBBBBBBBBBBBt$",
"Ng:$-0rttttttttttttttttttttttttt$",
"Bcd>$$$$$$$$$$$$$$$$$$$$$$$$$$$$$",
"BBvh61=$$$$$$$$$$$$$$$$$$$$$$$$$$",
"BBBMlspaaaaaaaaaaaaaaaaaaaaaaaaaa",
"BBBBBBBBBBBBBBBBBBBBBBBBBBBBBBBBB"
};
