/* XPM */
static char *hide_pressed[] = {
/* columns rows colors chars-per-pixel */
"33 28 54 1 ",
"  c #1B1B1B",
". c gray12",
"X c #202020",
"o c #282828",
"O c gray16",
"+ c gray17",
"@ c gray20",
"# c gray22",
"$ c #3E4E4E",
"% c gray29",
"& c #4E4E4E",
"* c gray32",
"= c #565656",
"- c #5A5A5A",
"; c gray36",
": c #4E6262",
"> c #666464",
", c #646666",
"< c DimGray",
"1 c #828080",
"2 c #808282",
"3 c #888282",
"4 c #838B8B",
"5 c #888888",
"6 c gray55",
"7 c #8D8D8D",
"8 c #939393",
"9 c #959595",
"0 c #9D9D9D",
"q c #9F9F9F",
"w c gray64",
"e c #B1B1B1",
"r c #B2B2B2",
"t c #B7B7B7",
"y c gray72",
"u c #C0B2B2",
"i c #9BC4C4",
"p c #B2C1C1",
"a c #D7D7D7",
"s c #EFCCCC",
"d c #F5C2C2",
"f c #F4C4C4",
"g c #E2D3D3",
"h c #E9D8D8",
"j c #CCEFEF",
"k c #D3E2E2",
"l c #D9E9E9",
"z c #C3F4F4",
"x c #C2F5F5",
"c c #E4E2E2",
"v c #E2E4E4",
"b c #E3E6E6",
"n c #E6E4E4",
"m c #E6E6E6",
/* pixels */
"@@@@@@@@@@@@@@@@@@@@@@@@@@@@@@@@@",
";;;;;;;;;;;;;;;;;;;;;;;;;;;;;;;;;",
"x:$iiiiiiiiiiiiiiiiiiiiiiiiiiiii$",
"d;%yyyyyyyyyyyyyyyyyyyyyyyyyyyyy%",
"d;%yyyyyyyyyyyyyyyyyyyyyyyyyyyyy%",
"d;%yyyyyyyyyyyyyyyyyyyyyyyyyyyyy%",
"d;%yyyyyyyyyyyyyyyyyyyyyyyyyyyyy%",
"d;%yyyyyyyyyyyyyyyyyyyyyyyyyyyyy%",
"d;%yyyyyyyyyyyyyyyyyyyyyyyyyyyyy%",
"d;%yyyyyyyyyyyyyyyyyyyyyyyyyyyyy%",
"d;%yyyyyyyw@o6yyyyyyy6o@wyyyyyyy%",
"d;%yyyyyyyyq+.5yyyyy7XO0yyyyyyyy%",
"d;%yyyyyyyyyq+.5yyy7XO0yyyyyyyyy%",
"d;%yyyyyyyyyyq+.5y7XO0yyyyyyyyyy%",
"d;%yyyyyyyyyyy0OX<XO0yyyyyyyyyyy%",
"d;%yyyyyyyyyyyyq+ O0yyyyyyyyyyyy%",
"d;%yyyyyyyyyyyyyq#0yyyyyyyyyyyyy%",
"d;%yyyyyyyyyyyyyytyyyyyyyyyyyyyy%",
"d;%yyyyyyyyyyyyyyyyyyyyyyyyyyyyy%",
"d;%yyyyyyyyyyyyyyyyyyyyyyyyyyyyy%",
"f>%ryyyyyyyyyyyyyyyyyyyyyyyyyyyy%",
"s3&9yyyyyyyyyyyyyyyyyyyyyyyyyyyy%",
"hu=-eyyyyyyyyyyyyyyyyyyyyyyyyyyy%",
"ng1*=8ryyyyyyyyyyyyyyyyyyyyyyyyy%",
"mca2=&%%%%%%%%%%%%%%%%%%%%%%%%%%%",
"mmvkp4,;;;;;;;;;;;;;;;;;;;;;;;;;;",
"mmmbljzxxxxxxxxxxxxxxxxxxxxxxxxxx",
"mmmmmmmmmmmmmmmmmmmmmmmmmmmmmmmmm"
};
