/* XPM */
static char *hide_prelight[] = {
/* columns rows colors chars-per-pixel */
"33 28 40 1 ",
"  c #0C0C0C",
". c #444444",
"X c #5D5D5D",
"o c #586363",
"O c gray39",
"+ c #606666",
"@ c #676666",
"# c #767676",
"$ c #797878",
"% c #7E7E7E",
"& c #807F7F",
"* c #7F8080",
"= c #868282",
"- c #868686",
"; c #838888",
": c #BDB4B4",
"> c gray72",
", c #D2C5C5",
"< c #C6D4D4",
"1 c #D8D8D8",
"2 c #EFD2D2",
"3 c #EAD5D5",
"4 c #E5DADA",
"5 c #E1DFDF",
"6 c #F0D0D0",
"7 c #F3D6D6",
"8 c #F8D8D8",
"9 c #D9E2E2",
"0 c #DFE0E0",
"q c #DBE5E5",
"w c #D6EAEA",
"e c #D1EFEF",
"r c #D0F0F0",
"t c #D6F3F3",
"y c #D8F8F8",
"u c gray88",
"i c #F0EEEE",
"p c #EEF0F0",
"a c #E8F8F8",
"s c gray94",
/* pixels */
"XXXXXXXXXXXXXXXXXXXXXXXXXXXXXXXXX",
"XXXXXXXXXXXXXXXXXXXXXXXXXXXXXXXXX",
"ro+aaaaaaaaaaaaaaaaaaaaaaaaaaaaa+",
"6XOysssssssssssssssssssssssssss8O",
"6XOysssssssssssssssssssssssssss8O",
"6XOysssssssssssssssssssssssssss8O",
"6XOysssssssssssssssssssssssssss8O",
"6XOysssssssssssssssssssssssssss8O",
"6XOysssssssssssssssssssssssssss8O",
"6XOysssssssssssssssssssssssssss8O",
"6XOyssssssss%#sssssss%#ssssssss8O",
"6XOyssssssss- #sssss% %ssssssss8O",
"6XOysssssssss- #sss% %sssssssss8O",
"6XOyssssssssss- #s% %ssssssssss8O",
"6XOysssssssssss% . %sssssssssss8O",
"6XOyssssssssssss- %ssssssssssss8O",
"6XOysssssssssssss>sssssssssssss8O",
"6XOysssssssssssssssssssssssssss8O",
"6XOysssssssssssssssssssssssssss8O",
"6XOysssssssssssssssssssssssssss8O",
"2@Otppsssssssssssssssssssssssss8O",
"3=O<pisssssssssssssssssssssssss8O",
"4:X*uiissssssssssssssssssssssss8O",
"54&o$,78888888888888888888888888O",
"551*oOOOOOOOOOOOOOOOOOOOOOOOOOOOO",
"5509>;@XXXXXXXXXXXXXXXXXXXXXXXXXX",
"5uu0qwerrrrrrrrrrrrrrrrrrrrrrrrrr",
"0uuuuuu0uuuuuuuuuuuuuuuuuuuuuuuuu"
};
