/* XPM */
static char *maximize_toggled_active[] = {
/* columns rows colors chars-per-pixel */
"31 28 19 1 ",
"  c gray15",
". c gray16",
"X c #2A2A2A",
"o c gray24",
"O c #3F3F3F",
"+ c #414141",
"@ c #535353",
"# c #505C5C",
"$ c #5A5A5A",
"% c gray49",
"& c #AAAAAA",
"* c gray69",
"= c #DADADA",
"- c gray86",
"; c #DDDDDD",
": c #FBD8D8",
"> c #D8FBFB",
", c #EEEAEA",
"< c gray97",
/* pixels */
"@@@@@@@@@@@@@@@@@@@@@@@@@@@@@@@",
"$$$$$$$$$$$$$$$$$$$$$$$$$$$$$$$",
"#>>>>>>>>>>>>>>>>>>>>>>>>>>>>>#",
"$><<<<<<<<<<<<<<<<<<<<<<<<<<<:$",
"$><<<<<<<<<<<<<<<<<<<<<<<<<<<:$",
"$><<<<<<<<<<<<<<<<<<<<<<<<<<<:$",
"$><<<<<<<<<<<<;$=<<<<<<<<<<<<:$",
"$><<<<<<<<<<<;+ o=<<<<<<<<<<<:$",
"$><<<<<<<<<<-O.%.O-<<<<<<<<<<:$",
"$><<<<<<<<<;+.&<*Xo=<<<<<<<<<:$",
"$><<<<<<<<;+.&<<<*Xo=<<<<<<<<:$",
"$><<<<<<<;+.&<<<<<*Xo=<<<<<<<:$",
"$><<<<<<;+.&<<<<<<<*Xo=<<<<<<:$",
"$><<<<<<;+.&<<<<<<<*Xo=<<<<<<:$",
"$><<<<<<<;+.&<<<<<*Xo=<<<<<<<:$",
"$><<<<<<<<;+.&<<<*Xo=<<<<<<<<:$",
"$><<<<<<<<<;+.&<*Xo=<<<<<<<<<:$",
"$><<<<<<<<<<-O.%.O-<<<<<<<<<<:$",
"$><<<<<<<<<<<;+ o=<<<<<<<<<<<:$",
"$><<<<<<<<<<<<-$-<<<<<<<<<<<<:$",
"$><<<<<<<<<<<<<<<<<<<<<<<<<<<:$",
"$><<<<<<<<<<<<<<<<<<<<<<<<<<<:$",
"$><<<<<<<<<<<<<<<<<<<<<<<<<<<:$",
"$,::::::::::::::::::::::::::::$",
"$$$$$$$$$$$$$$$$$$$$$$$$$$$$$$$",
"$$$$$$$$$$$$$$$$$$$$$$$$$$$$$$$",
">>>>>>>>>>>>>>>>>>>>>>>>>>>>>>>",
"<<<<<<<<<<<<<<<<<<<<<<<<<<<<<<<"
};
