/* XPM */
static char *maximize_prelight[] = {
/* columns rows colors chars-per-pixel */
"31 28 30 1 ",
"  c #181818",
". c #1D1D1D",
"X c gray12",
"o c gray17",
"O c #2C2C2C",
"+ c gray18",
"@ c #2F2F2F",
"# c gray25",
"$ c #4E4E4E",
"% c #555555",
"& c gray34",
"* c #515858",
"= c DimGray",
"- c gray54",
"; c #B7B7B7",
": c #BBBBBB",
"> c #BCBCBC",
", c #CACACA",
"< c LightGray",
"1 c #D5D5D5",
"2 c #D8D8D8",
"3 c #FED5D5",
"4 c #D3FCFC",
"5 c #D5FEFE",
"6 c #EFE8E8",
"7 c #E9FEFE",
"8 c #F4F4F4",
"9 c gray97",
"0 c #F9F9F9",
"q c #FBFBFB",
/* pixels */
"$$$$$$$$$$$$$$$$$$$$$$$$$$$$$$$",
"%%%%%%%%%%%%%%%%%%%%%%%%%%%%%%%",
"*77777777777777777777777777777*",
"&5qqqqqqqqqqqqqqqqqqqqqqqqqqq3&",
"&5qqqqqqqqqqqqqqqqqqqqqqqqqqq3&",
"&5qqqqqqqqqqqqqqqqqqqqqqqqqqq3&",
"&5qqqqqqqqqqqqqqqqqqqqqqqqqqq3&",
"&5qqqqqqqqqqqqqqqqqqqqqqqqqqq3&",
"&5qqqqqqqqqqqqq0qqqqqqqqqqqqq3&",
"&5qqqqqqqqqqqq2#<qqqqqqqqqqqq3&",
"&5qqqqqqqqqqq2@ o<qqqqqqqqqqq3&",
"&5qqqqqqqqqq1OX-XO1qqqqqqqqqq3&",
"&5qqqqqqqqq2@.;q>Xo<qqqqqqqqq3&",
"&5qqqqqqqq2+.;qqq>Xo<qqqqqqqq3&",
"&5qqqqqqq2+.;qqqqq>Xo<qqqqqqq3&",
"&5qqqqqqq=X:qqqqqqq:X=qqqqqqq3&",
"&5qqqqqqq8,qqqqqqqqq,8qqqqqqq3&",
"&5qqqqqqqqqqqqqqqqqqqqqqqqqqq3&",
"&5qqqqqqqqqqqqqqqqqqqqqqqqqqq3&",
"&5qqqqqqqqqqqqqqqqqqqqqqqqqqq3&",
"&5qqqqqqqqqqqqqqqqqqqqqqqqqqq3&",
"&5qqqqqqqqqqqqqqqqqqqqqqqqqqq3&",
"&5qqqqqqqqqqqqqqqqqqqqqqqqqqq3&",
"&63333333333333333333333333333&",
"&&&&&&&&&&&&&&&&&&&&&&&&&&&&&&&",
"%%%%%%%%%%%%%%%%%%%%%%%%%%%%%%%",
"4444444444444444444444444444444",
"9999999999999999999999999999999"
};
