/* XPM */
static char *menu_pressed[] = {
/* columns rows colors chars-per-pixel */
"28 24 3 1 ",
"  c #B1E7E7",
". c gray80",
"X c None",
/* pixels */
"XXXX                        ",
"XXXX........................",
"XXXX........................",
"XXXX........................",
" ...........................",
" ...........................",
" ...........................",
" ...........................",
" ...........................",
" ...........................",
" ...........................",
" ...........................",
" ...........................",
" ...........................",
" ...........................",
" ...........................",
" ...........................",
" ...........................",
" ...........................",
" ...........................",
" ...........................",
" ...........................",
" ...........................",
" ..........................."
};
