/* XPM */
static char *menu_pressed[] = {
/* columns rows colors chars-per-pixel */
"28 24 3 1 ",
"  c #AFE9E9",
". c gray80",
"X c None",
/* pixels */
"XXXX                        ",
"XXXX........................",
"XXXX........................",
"XXXX........................",
" ...........................",
" ...........................",
" ...........................",
" ...........................",
" ...........................",
" ...........................",
" ...........................",
" ...........................",
" ...........................",
" ...........................",
" ...........................",
" ...........................",
" ...........................",
" ...........................",
" ...........................",
" ...........................",
" ...........................",
" ...........................",
" ...........................",
" ..........................."
};
