/* XPM */
static char *shade_prelight[] = {
/* columns rows colors chars-per-pixel */
"29 27 17 1 ",
"  c black",
". c gray13",
"X c gray14",
"o c #242A2A",
"O c #2D2D2D",
"+ c gray35",
"@ c #5F5F5F",
"# c gray38",
"$ c #676767",
"% c gray60",
"& c #EBBCBC",
"* c #B4E4E4",
"= c #BCEBEB",
"- c gray80",
"; c #D6D1D1",
": c #D8D8D8",
"> c #C4E9E9",
/* pixels */
"                             ",
".............................",
"o>>>>>>>>>>>>>>>>>>>>>>>>>>>o",
"X=:::::::::::::::::::::::::&X",
"X=:::::::::::::::::::::::::&X",
"X=:::::::::::::::::::::::::&X",
"X=:::::::::::::::::::::::::&X",
"X=::::::             ::::::&X",
"X=::::::@@@@@@@@@@@@@::::::&X",
"X=:::::::::::::::::::::::::&X",
"X=:::::::::::::::::::::::::&X",
"X=::::::::::::%::::::::::::&X",
"X=:::::::::::@ +:::::::::::&X",
"X=::::::::::@ O @::::::::::&X",
"X=:::::::::@ #:$ +:::::::::&X",
"X=::::::::@ #:::$ +::::::::&X",
"X=:::::::@ #:::::$ +:::::::&X",
"X=::::::@ #:::::::$ +::::::&X",
"X=:::::::::::::::::::::::::&X",
"X=:::::::::::::::::::::::::&X",
"X=:::::::::::::::::::::::::&X",
"X=:::::::::::::::::::::::::&X",
"X;&&&&&&&&&&&&&&&&&&&&&&&&&&X",
"XXXXXXXXXXXXXXXXXXXXXXXXXXXXX",
".............................",
"*****************************",
"-----------------------------"
};
