/* XPM */
static char *shade_pressed[] = {
/* columns rows colors chars-per-pixel */
"29 27 14 1 ",
"  c black",
". c gray9",
"X c gray22",
"o c #3F3F3F",
"O c #374848",
"+ c #565656",
"@ c #585858",
"# c #5D5D5D",
"$ c #626262",
"% c gray52",
"& c #91B9B9",
"* c #AEAEAE",
"= c #C4FCFC",
"- c #F8F8F8",
/* pixels */
"                             ",
"+++++++++++++++++++++++++++++",
"O&&&&&&&&&&&&&&&&&&&&&&&&&&&O",
"o***************************o",
"o***************************o",
"o***************************o",
"o***************************o",
"o*******.............*******o",
"o*******#############*******o",
"o***************************o",
"o***************************o",
"o*************%*************o",
"o************#.@************o",
"o***********#.X.#***********o",
"o**********#.#*$.@**********o",
"o*********#.#***$.@*********o",
"o********#.#*****$.@********o",
"o*******#.#*******$.@*******o",
"o***************************o",
"o***************************o",
"o***************************o",
"o***************************o",
"o***************************o",
"ooooooooooooooooooooooooooooo",
"+++++++++++++++++++++++++++++",
"=============================",
"-----------------------------"
};
