/* XPM */
static char *shade_prelight[] = {
/* columns rows colors chars-per-pixel */
"31 28 28 1 ",
"  c #252525",
". c gray18",
"X c #313131",
"o c gray20",
"O c #353535",
"+ c #393939",
"@ c #484848",
"# c #515151",
"$ c #535353",
"% c #535D5D",
"& c #5A5A5A",
"* c #5B5B5B",
"= c #989898",
"- c #A0A0A0",
"; c gray63",
": c #C6C6C6",
"> c #CACACA",
", c #CBCBCB",
"< c #D0D0D0",
"1 c #FECBCB",
"2 c #CAFDFD",
"3 c #CBFEFE",
"4 c #E4E4E4",
"5 c #EDE4E4",
"6 c #E2FEFE",
"7 c gray96",
"8 c gray97",
"9 c #FBFBFB",
/* pixels */
"$$$$$$$$$$$$$$$$$$$$$$$$$$$$$$$",
"&&&&&&&&&&&&&&&&&&&&&&&&&&&&&&&",
"%66666666666666666666666666666%",
"*39999999999999999999999999991*",
"*39999999999999999999999999991*",
"*39999999999999999999999999991*",
"*39999999999999999999999999991*",
"*3999999;@@@@@@@@@@@@@;9999991*",
"*3999999=OOOOOOOOOOOOO=9999991*",
"*39999999999999999999999999991*",
"*39999999999999999999999999991*",
"*39999999999999799999999999991*",
"*3999999999999>+:9999999999991*",
"*399999999999>X .:999999999991*",
"*39999999999>XX-XX>99999999991*",
"*3999999999>XX,9<o.:9999999991*",
"*399999999>XX,999<o.:999999991*",
"*39999999>XX,99999<o.:99999991*",
"*39999994&#,9999999,#&49999991*",
"*39999999999999999999999999991*",
"*39999999999999999999999999991*",
"*39999999999999999999999999991*",
"*39999999999999999999999999991*",
"*51111111111111111111111111111*",
"*******************************",
"&&&&&&&&&&&&&&&&&&&&&&&&&&&&&&&",
"2222222222222222222222222222222",
"8888888888888888888888888888888"
};
