/* XPM */
static char *stick_prelight[] = {
/* columns rows colors chars-per-pixel */
"35 28 72 1 ",
"  c gray14",
". c #272727",
"X c gray16",
"o c gray20",
"O c #5B5B5B",
"+ c gray36",
"@ c #5D5D5D",
"# c gray37",
"$ c #4C6262",
"% c #586464",
"& c #606060",
"* c #656363",
"= c #636565",
"- c #636666",
"; c #656868",
": c #7A7474",
"> c #787676",
", c #817F7F",
"< c #7D8080",
"1 c #7F8181",
"2 c #7B8585",
"3 c #7F8B8B",
"4 c #878080",
"5 c #818989",
"6 c #808C8C",
"7 c #A7A7A7",
"8 c #ACACAC",
"9 c #C0B1B1",
"0 c #DAB6B6",
"q c #D4BCBC",
"w c #F5BFBF",
"e c #A9C8C8",
"r c #B0C0C0",
"t c #BFD7D7",
"y c #BDEDED",
"u c #BFF5F5",
"i c #D5D5D5",
"p c gray85",
"a c gainsboro",
"s c #EDC9C9",
"d c #F4C1C1",
"f c #F6C3C3",
"g c #F4C4C4",
"h c #F9C3C3",
"j c #E2D1D1",
"k c #E7D5D5",
"l c #E1DEDE",
"z c #F4DADA",
"x c #F4DBDB",
"c c #CAEDED",
"v c #D1E2E2",
"b c #D5E7E7",
"n c #DEE1E1",
"m c #DFE4E4",
"M c #D7E9E9",
"N c #D1ECEC",
"B c #C0F2F2",
"V c #C5F1F1",
"C c #C6F1F1",
"Z c #C1F4F4",
"A c #C3F6F6",
"S c #C3F9F9",
"D c #DCFAFA",
"F c #E1E3E3",
"G c gray89",
"H c #E4E1E1",
"J c #ECE3E3",
"K c #E3ECEC",
"L c #F1ECEC",
"P c #F0EDED",
"I c #EDF0F0",
"U c gray94",
/* pixels */
"ooooooooooooooooooooooooooooooooooo",
"OOOOOOOOOOOOOOOOOOOOOOOOOOOOOOOOOOO",
"u$%DDDDDDDDDDDDDDDDDDDDDDDDDDDDD%$u",
"wO&SUUUUUUUUUUUUUUUUUUUUUUUUUUUh&Ou",
"wO&SUUUUUUUUUUUUUUUUUUUUUUUUUUUh&Ou",
"wO&SUUUUUUUUUUUUUUUUUUUUUUUUUUUh&Ou",
"wO&SUUUUUUUUUUUUUUUUUUUUUUUUUUUh&Ou",
"wO&SUUUUUUUUUUUUUUUUUUUUUUUUUUUh&Ou",
"wO&SUUUUUUUUUUUUUUUUUUUUUUUUUUUh&Ou",
"wO&SUUUUUUUUUUUUUUUUUUUUUUUUUUUh&Ou",
"wO&SUUUUUUUUUUUUUpUUUUUUUUUUUUUh&Ou",
"wO&SUUUUUUUUUUUU8X7UUUUUUUUUUUUh&Ou",
"wO&SUUUUUUUUUUU8. .7UUUUUUUUUUUh&Ou",
"wO&SUUUUUUUUUUU8. .7UUUUUUUUUUUh&Ou",
"wO&SUUUUUUUUUUUU8X7UUUUUUUUUUUUh&Ou",
"wO&SUUUUUUUUUUUUUpUUUUUUUUUUUUUh&Ou",
"wO&SUUUUUUUUUUUUUUUUUUUUUUUUUUUh&Ou",
"wO&SUUUUUUUUUUUUUUUUUUUUUUUUUUUh&Ou",
"wO&SUUUUUUUUUUUUUUUUUUUUUUUUUUUh&Ou",
"wO&SUUUUUUUUUUUUUUUUUUUUUUUUUUUh&Ou",
"d*&AIUUUUUUUUUUUUUUUUUUUUUUUUULf&;Z",
"s4#tKUUUUUUUUUUUUUUUUUUUUUUUUUz0#3V",
"k9+<aJPUUUUUUUUUUUUUUUUUUUUULxg:+eN",
"Hj,#>qfhhhhhhhhhhhhhhhhhhhhhf0:@2Bm",
"Gli1+#&&&&&&&&&&&&&&&&&&&&&&&#+2yMG",
"GGnvr5=OOOOOOOOOOOOOOOOOOOOO-6eBMGG",
"GGGFbcZuuuuuuuuuuuuuuuuuuuuuZCNmGGG",
"GGGGGGGGGGGGGGGGGGGGGGGGGGGGGGGGGGG"
};
