/* XPM */
static char *stick_pressed[] = {
/* columns rows colors chars-per-pixel */
"35 28 60 1 ",
"  c #191919",
". c #1B1B1B",
"X c #1D1D1D",
"o c gray20",
"O c #394848",
"+ c #434343",
"@ c #444444",
"# c #484848",
"$ c #494949",
"% c #4E4E4E",
"& c gray32",
"* c gray35",
"= c #4C6161",
"- c #636161",
"; c #616363",
": c #636565",
"> c #747474",
", c gray47",
"< c #7F7D7D",
"1 c #7D7F7F",
"2 c #847E7E",
"3 c #798383",
"4 c #7F8787",
"5 c #7D8989",
"6 c #7E8989",
"7 c gray52",
"8 c #868686",
"9 c #888888",
"0 c #979797",
"q c #8FB5B5",
"w c #A0A0A0",
"e c gray63",
"r c #A2A2A2",
"t c #A7A7A7",
"y c #BDAFAF",
"u c #AFBEBE",
"i c #F2BFBF",
"p c #A8C5C5",
"a c #BCEAEA",
"s c #BFF2F2",
"d c gray83",
"f c #DFD0D0",
"g c #D0DFDF",
"h c #DEDCDC",
"j c #DCDEDE",
"k c #DFDFDF",
"l c #ECC9C9",
"z c #F1C1C1",
"x c #E4D3D3",
"c c #E0DEDE",
"v c #C1EFEF",
"b c #C5EEEE",
"n c #C5EFEF",
"m c #C8EBEB",
"M c #D4E4E4",
"N c #D5E5E5",
"B c #DDE0E0",
"V c #DDE1E1",
"C c #D0E9E9",
"Z c #C0F1F1",
/* pixels */
"ooooooooooooooooooooooooooooooooooo",
"***********************************",
"s=OqqqqqqqqqqqqqqqqqqqqqqqqqqqqqO=s",
"i*+ttttttttttttttttttttttttttttt+*s",
"i*+ttttttttttttttttttttttttttttt+*s",
"i*+ttttttttttttttttttttttttttttt+*s",
"i*+ttttttttttttttttttttttttttttt+*s",
"i*+ttttttttttttttttttttttttttttt+*s",
"i*+ttttttttttttttttttttttttttttt+*s",
"i*+ttttttttttttttttttttttttttttt+*s",
"i*+tttttttttttttt0tttttttttttttt+*s",
"i*+ttttttttttttt,X>ttttttttttttt+*s",
"i*+tttttttttttt,. .>tttttttttttt+*s",
"i*+tttttttttttt,. .>tttttttttttt+*s",
"i*+ttttttttttttt,X>ttttttttttttt+*s",
"i*+tttttttttttttt0tttttttttttttt+*s",
"i*+ttttttttttttttttttttttttttttt+*s",
"i*+ttttttttttttttttttttttttttttt+*s",
"i*+ttttttttttttttttttttttttttttt+*s",
"i*+ttttttttttttttttttttttttttttt+*s",
"z-@rttttttttttttttttttttttttttte@:Z",
"l2#9ttttttttttttttttttttttttttt7$5n",
"xy&&wtttttttttttttttttttttttttw%&pC",
"cf<%%8rtttttttttttttttttttttr7%%3vV",
"khd1&#@+++++++++++++++++++++@$&3aNk",
"kkjgu4;*********************;6pvNkk",
"kkkBMmZsssssssssssssssssssssZbCVkkk",
"kkkkkkkkkkkkkkkkkkkkkkkkkkkkkkkkkkk"
};
