/* XPM */
static char *stick_active[] = {
/* columns rows colors chars-per-pixel */
"35 28 62 1 ",
"  c #181818",
". c #1B1B1B",
"X c gray11",
"o c #1D1D1D",
"O c #4E5C5C",
"+ c #535353",
"@ c #5A5A5A",
"# c #666464",
"$ c #646666",
"% c #656767",
"& c #757070",
"* c #747272",
"= c #7A7C7C",
"- c #7F8787",
"; c #848282",
": c #828484",
"> c #8B8585",
", c #868C8C",
"< c #858E8E",
"1 c #A5A5A5",
"2 c gray67",
"3 c #C8BCBC",
"4 c #DABEBE",
"5 c #BDC9C9",
"6 c #B8CFCF",
"7 c #D6C4C4",
"8 c #C7D9D9",
"9 c gray87",
"0 c #F7D0D0",
"q c #F6D1D1",
"w c #F8D1D1",
"e c #FCD3D3",
"r c #FBD4D4",
"t c #F9DDDD",
"y c #CEF3F3",
"u c #D1F8F8",
"i c #D4F9F9",
"p c #D4FBFB",
"a c #D3FCFC",
"s c #D9FBFB",
"d c #DAFBFB",
"f c #DDF9F9",
"g c #E1E1E1",
"h c #E4E4E4",
"j c #ECE0E0",
"k c #E0ECEC",
"l c #F5E7E7",
"z c #FAE7E7",
"x c #F4EEEE",
"c c #E8F5F5",
"v c #EEF4F4",
"b c #E5F9F9",
"n c #EBF8F8",
"m c #F4F1F1",
"M c #F1F4F4",
"N c #F7F4F4",
"B c #F4F7F7",
"V c #F5F7F7",
"C c #F7F6F6",
"Z c gray97",
"A c #F8F3F3",
"S c #F5F8F8",
/* pixels */
"+++++++++++++++++++++++++++++++++++",
"@@@@@@@@@@@@@@@@@@@@@@@@@@@@@@@@@@@",
"aOOaaaaaaaaaaaaaaaaaaaaaaaaaaaaaOOa",
"e@@aZZZZZZZZZZZZZZZZZZZZZZZZZZZe@@a",
"e@@aZZZZZZZZZZZZZZZZZZZZZZZZZZZe@@a",
"e@@aZZZZZZZZZZZZZZZZZZZZZZZZZZZe@@a",
"e@@aZZZZZZZZZZZZZZZZZZZZZZZZZZZe@@a",
"e@@aZZZZZZZZZZZZZZZZZZZZZZZZZZZe@@a",
"e@@aZZZZZZZZZZZZZZZZZZZZZZZZZZZe@@a",
"e@@aZZZZZZZZZZZZZZZZZZZZZZZZZZZe@@a",
"e@@aZZZZZZZZZZZZZ9ZZZZZZZZZZZZZe@@a",
"e@@aZZZZZZZZZZZZ2o1ZZZZZZZZZZZZe@@a",
"e@@aZZZZZZZZZZZ2X .1ZZZZZZZZZZZe@@a",
"e@@aZZZZZZZZZZZ2X .1ZZZZZZZZZZZe@@a",
"e@@aZZZZZZZZZZZZ2o1ZZZZZZZZZZZZe@@a",
"e@@aZZZZZZZZZZZZZ9ZZZZZZZZZZZZZe@@a",
"e@@aZZZZZZZZZZZZZZZZZZZZZZZZZZZe@@a",
"e@@aZZZZZZZZZZZZZZZZZZZZZZZZZZZe@@a",
"e@@aZZZZZZZZZZZZZZZZZZZZZZZZZZZe@@a",
"e@@aZZZZZZZZZZZZZZZZZZZZZZZZZZZe@@a",
"r#@uBZZZZZZZZZZZZZZZZZZZZZZZZZA0@%p",
"t>@8vZZZZZZZZZZZZZZZZZZZZZZZZZz4@<s",
"l3@=hxNZZZZZZZZZZZZZZZZZZZZZAzq&@6b",
"Cj;@*7weeeeeeeeeeeeeeeeeeeeew4&@-iS",
"Zmg:@@@@@@@@@@@@@@@@@@@@@@@@@@@-ynZ",
"ZZMk5,$@@@@@@@@@@@@@@@@@@@@@$<6inZZ",
"ZZZVcfpaaaaaaaaaaaaaaaaaaaaapdbSZZZ",
"ZZZZZZZZZZZZZZZZZZZZZZZZZZZZZZZZZZZ"
};
