/* XPM */
static char *stick_pressed[] = {
/* columns rows colors chars-per-pixel */
"35 28 60 1 ",
"  c #1D1D1D",
". c gray12",
"X c gray13",
"o c gray31",
"O c #445050",
"+ c #535353",
"@ c gray34",
"# c #585858",
"$ c #5A5A5A",
"% c gray36",
"& c #566464",
"* c #606060",
"= c #626262",
"- c #6C6B6B",
"; c #6A6C6C",
": c #6B6C6C",
"> c #6B6D6D",
", c #878686",
"< c #868787",
"1 c #848A8A",
"2 c #898989",
"3 c #8E8989",
"4 c #8D8D8D",
"5 c #899191",
"6 c #8B9090",
"7 c gray61",
"8 c #9D9D9D",
"9 c #9F9F9F",
"0 c gray70",
"q c gray74",
"w c gray",
"e c gray75",
"r c #C6BCBC",
"t c #ACC9C9",
"y c #BDC7C7",
"u c #B8CCCC",
"i c #C5C5C5",
"p c #FBD8D8",
"a c #FBDBDB",
"s c #D2F2F2",
"d c #D9F9F9",
"f c #D8FBFB",
"g c #DAFBFB",
"h c #DBFBFB",
"j c #DEFAFA",
"k c #E4E4E4",
"l c #EEE4E4",
"z c #E4EEEE",
"x c #F7E0E0",
"c c #F6EAEA",
"v c #E0F7F7",
"b c #EAF6F6",
"n c #E7F9F9",
"m c #EDF8F8",
"M c #F3F2F2",
"N c #F2F3F3",
"B c #F5F7F7",
"V c #F7F6F6",
"C c gray97",
"Z c #F5F8F8",
/* pixels */
"$$$$$$$$$$$$$$$$$$$$$$$$$$$$$$$$$$$",
"===================================",
"f&OtttttttttttttttttttttttttttttO&f",
"p=oiiiiiiiiiiiiiiiiiiiiiiiiiiiiio=f",
"p=oiiiiiiiiiiiiiiiiiiiiiiiiiiiiio=f",
"p=oiiiiiiiiiiiiiiiiiiiiiiiiiiiiio=f",
"p=oiiiiiiiiiiiiiiiiiiiiiiiiiiiiio=f",
"p=oiiiiiiiiiiiiiiiiiiiiiiiiiiiiio=f",
"p=oiiiiiiiiiiiiiiiiiiiiiiiiiiiiio=f",
"p=oiiiiiiiiiiiiiiiiiiiiiiiiiiiiio=f",
"p=oiiiiiiiiiiiiii0iiiiiiiiiiiiiio=f",
"p=oiiiiiiiiiiiii4X2iiiiiiiiiiiiio=f",
"p=oiiiiiiiiiiii4. .2iiiiiiiiiiiio=f",
"p=oiiiiiiiiiiii4. .2iiiiiiiiiiiio=f",
"p=oiiiiiiiiiiiii4X2iiiiiiiiiiiiio=f",
"p=oiiiiiiiiiiiiii0iiiiiiiiiiiiiio=f",
"p=oiiiiiiiiiiiiiiiiiiiiiiiiiiiiio=f",
"p=oiiiiiiiiiiiiiiiiiiiiiiiiiiiiio=f",
"p=oiiiiiiiiiiiiiiiiiiiiiiiiiiiiio=f",
"p=oiiiiiiiiiiiiiiiiiiiiiiiiiiiiio=f",
"a-oeiiiiiiiiiiiiiiiiiiiiiiiiiiiwo>g",
"x3+9iiiiiiiiiiiiiiiiiiiiiiiiiii7+5j",
"cr%*qiiiiiiiiiiiiiiiiiiiiiiiiiq%%un",
"Vl,@%8eiiiiiiiiiiiiiiiiiiiiie7%#1dZ",
"CMk<%+ooooooooooooooooooooooo+%1smC",
"CCNzy6:=====================;5udmCC",
"CCCBbvhfffffffffffffffffffffgjnZCCC",
"CCCCCCCCCCCCCCCCCCCCCCCCCCCCCCCCCCC"
};
