/* XPM */
static char *stick_pressed[] = {
/* columns rows colors chars-per-pixel */
"35 28 59 1 ",
"  c #1D1D1D",
". c gray12",
"X c gray13",
"o c #3F4E4E",
"O c #4C4C4C",
"+ c gray30",
"@ c #515151",
"# c #555555",
"$ c #585858",
"% c gray35",
"& c #5A5A5A",
"* c #5F5F5F",
"= c #4E6262",
"- c #6B6969",
"; c #696B6B",
": c #6B6D6D",
"> c #848E8E",
", c #898989",
"< c #8A8888",
"1 c #888A8A",
"2 c #8D8D8D",
"3 c #928B8B",
"4 c #8C9393",
"5 c #8A9595",
"6 c #8A9696",
"7 c gray61",
"8 c #9F9F9F",
"9 c gray70",
"0 c #BCBCBC",
"q c gray74",
"w c gray",
"e c gray75",
"r c #A2CBCB",
"t c #B8D6D6",
"y c #C5C5C5",
"u c #CEC0C0",
"i c #C0CFCF",
"p c #FDCACA",
"a c #FCCCCC",
"s c #ECDDDD",
"d c #F9D6D6",
"f c #DDECEC",
"g c #CAF7F7",
"h c #CBFCFC",
"j c #CAFDFD",
"k c #CDFCFC",
"l c #D6F8F8",
"z c #D3FCFC",
"x c #E1E1E1",
"c c #F6E5E5",
"v c #F2EFEF",
"b c #E5F6F6",
"n c #EFF2F2",
"m c #E0FAFA",
"M c #E9F9F9",
"N c #F7F5F5",
"B c #F5F7F7",
"V c gray97",
"C c #F4F8F8",
/* pixels */
"$$$$$$$$$$$$$$$$$$$$$$$$$$$$$$$$$$$",
"***********************************",
"j=orrrrrrrrrrrrrrrrrrrrrrrrrrrrro=j",
"p*OyyyyyyyyyyyyyyyyyyyyyyyyyyyyyO*j",
"p*OyyyyyyyyyyyyyyyyyyyyyyyyyyyyyO*j",
"p*OyyyyyyyyyyyyyyyyyyyyyyyyyyyyyO*j",
"p*OyyyyyyyyyyyyyyyyyyyyyyyyyyyyyO*j",
"p*OyyyyyyyyyyyyyyyyyyyyyyyyyyyyyO*j",
"p*OyyyyyyyyyyyyyyyyyyyyyyyyyyyyyO*j",
"p*OyyyyyyyyyyyyyyyyyyyyyyyyyyyyyO*j",
"p*Oyyyyyyyyyyyyyy9yyyyyyyyyyyyyyO*j",
"p*Oyyyyyyyyyyyyy2X,yyyyyyyyyyyyyO*j",
"p*Oyyyyyyyyyyyy2. .,yyyyyyyyyyyyO*j",
"p*Oyyyyyyyyyyyy2. .,yyyyyyyyyyyyO*j",
"p*Oyyyyyyyyyyyyy2X,yyyyyyyyyyyyyO*j",
"p*Oyyyyyyyyyyyyyy9yyyyyyyyyyyyyyO*j",
"p*OyyyyyyyyyyyyyyyyyyyyyyyyyyyyyO*j",
"p*OyyyyyyyyyyyyyyyyyyyyyyyyyyyyyO*j",
"p*OyyyyyyyyyyyyyyyyyyyyyyyyyyyyyO*j",
"p*OyyyyyyyyyyyyyyyyyyyyyyyyyyyyyO*j",
"a-+eyyyyyyyyyyyyyyyyyyyyyyyyyyyw+:h",
"d3@8yyyyyyyyyyyyyyyyyyyyyyyyyyy7@5z",
"cu&*qyyyyyyyyyyyyyyyyyyyyyyyyy0%&tm",
"Ns<#&7wyyyyyyyyyyyyyyyyyyyyyw7%#>kC",
"Vvx1&@+OOOOOOOOOOOOOOOOOOOOO+@&>gMV",
"VVnfi4;*********************;6tkMVV",
"VVVBblhjjjjjjjjjjjjjjjjjjjjjhzmCVVV",
"VVVVVVVVVVVVVVVVVVVVVVVVVVVVVVVVVVV"
};
