/* XPM */
static char *top_left_active[] = {
/* columns rows colors chars-per-pixel */
"6 28 16 1 ",
"  c #5D5D5D",
". c #606060",
"X c gray38",
"o c #6D6D6D",
"O c gray43",
"+ c gray44",
"@ c #717575",
"# c #808080",
"$ c #BACFCF",
"% c #CCE9E9",
"& c #CEECEC",
"* c #DFE2E2",
"= c #D8E7E7",
"- c #D0F0F0",
"; c gray88",
": c None",
/* pixels */
":::#+X",
"::o   ",
":o @$&",
"# @%=*",
"o $=;;",
"X &;;;",
"  -;;;",
"  -;;;",
"  -;;;",
"  -;;;",
"  -;;;",
"  -;;;",
"  -;;;",
"  -;;;",
"  -;;;",
"  -;;*",
"  -;;;",
"  -;;;",
"  -;;;",
"  -;;;",
"  -;;;",
"  -;;;",
"  -;;;",
"  -;;;",
"  -;;;",
"  -;;;",
"  -;;;",
"  -;;;"
};
