/* XPM */
static char *maximize_toggled_active[] = {
/* columns rows colors chars-per-pixel */
"25 24 16 1 ",
"  c #090909",
". c #0E0E0F",
"X c #101010",
"o c gray25",
"O c #666667",
"+ c #737374",
"@ c #747475",
"# c #777778",
"$ c #838385",
"% c #848485",
"& c #868687",
"* c #878789",
"= c #9A9A9C",
"- c #A7A7A9",
"; c #AEAEAF",
": c #DCDCDD",
/* pixels */
"ooooooooooooooooooooooooo",
"ooooooooooooooooooooooooo",
"o:::::::::::::::::::::::o",
"o:---------------------&o",
"o:---------------------&o",
"o:---------------------&o",
"o:----------=----------*o",
"o:---------# +---------*o",
"o:--------@.O.@--------%o",
"o:-------#.%-*X+-------*o",
"o:------#.%---*X+------*o",
"o:------#.$---*X+------%o",
"o:-------#.$-*.+-------*o",
"o:--------@.O.@--------*o",
"o:---------# +---------%o",
"o:----------=----------*o",
"o:---------------------*o",
"o:---------------------%o",
"o:---------------------*o",
"o;*%%*%***%*%**%**%**%*%o",
"ooooooooooooooooooooooooo",
"ooooooooooooooooooooooooo",
":::::::::::::::::::::::::",
"-------------------------"
};
