/* XPM */
static char *close_active[] = {
/* columns rows colors chars-per-pixel */
"30 28 17 1 ",
"  c gray10",
". c #3D0A0A",
"X c #271F1F",
"o c #0A3D3D",
"O c gray18",
"+ c gray25",
"@ c #444444",
"# c #484848",
"$ c DimGray",
"% c gray49",
"& c #A7A7A7",
"* c #AFAFAF",
"= c #CACACA",
"- c gray80",
"; c #CECECE",
": c gray84",
"> c None",
/* pixels */
"%%%%%%%%%%%%%%%%%%%%%%%%%%>>>>",
"%%%%%%%%%%%%%%%%%%%%%%%%%%>>>>",
"%ooooooooooooooooooooooooo>>>>",
"%o                        >>>>",
"%o                        >>>>",
"%o                        >>>>",
"%o                           .",
"%o      O&*@       @*&O      .",
"%o       +=;#     @--@       .",
"%o        +=;#   @--@        .",
"%o         +=;# @--@         .",
"%o          @--$--@          .",
"%o           +=:-@           .",
"%o           @-:;#           .",
"%o          @--$--@          .",
"%o         @--@ +=;#         .",
"%o        @--@   +=;#        .",
"%o       @--@     +=;#       .",
"%o      O&*@       @*&O      .",
"%o                           .",
"%o                           .",
"%o                           .",
"%o                           .",
"%X............................",
"%%%%%%%%%%%%%%%%%%%%%%%%%%%%%%",
"%%%%%%%%%%%%%%%%%%%%%%%%%%%%%%",
"ooooooooooooooooooooooooooooo.",
"                             ."
};
