/* XPM */
static char *close_pressed[] = {
/* columns rows colors chars-per-pixel */
"30 28 22 1 ",
"  c #131313",
". c #2B0909",
"X c #1E1E3A",
"o c #1F1F3A",
"O c #1F1F3C",
"+ c #311835",
"@ c #092B2B",
"# c #20203C",
"$ c #18314E",
"% c #34344E",
"& c #44445B",
"* c #48485F",
"= c #4C4C62",
"- c #6D6D7E",
"; c #7B7B7B",
": c #A9A9B1",
"> c #B2B2B9",
", c #CCCCD0",
"< c #CECED1",
"1 c #D1D1D3",
"2 c #D8D8DA",
"3 c None",
/* pixels */
";;;;;;;;;;;;;;;;;;;;;;;;;;3333",
";;;;;;;;;;;;;;;;;;;;;;;;;;3333",
";$$$$$$$$$$$$$$$$$$$$$$$$$Oo33",
";OOOOOOOOOOOOOOOOOOOOOOOOOOO#3",
";OOOOOOOOOOOOOOOOOOOOOOOOOOOOX",
";OOOOOOOOOOOOOOOOOOOOOOOOOOOOO",
";OOOOOOOOOOOOOOOOOOOOOOOOOOOO+",
";OOOOOOO%:>*OOOOOOO*>:%OOOOOO+",
";OOOOOOOO&,1=OOOOO*<<*OOOOOOO+",
";OOOOOOOOO&,1=OOO*<<*OOOOOOOO+",
";OOOOOOOOOO&,1=O*<<*OOOOOOOOO+",
";OOOOOOOOOOO*<<-<<*OOOOOOOOOO+",
";OOOOOOOOOOOO&,2<*OOOOOOOOOOO+",
";OOOOOOOOOOOO*<21=OOOOOOOOOOO+",
";OOOOOOOOOOO*<<-<<*OOOOOOOOOO+",
";OOOOOOOOOO*<<*O&,1=OOOOOOOOO+",
";OOOOOOOOO*<<*OOO&,1=OOOOOOOO+",
";OOOOOOOO*<<*OOOOO&,1=OOOOOOO+",
";OOOOOOO%:>*OOOOOOO*>:%OOOOOO+",
";OOOOOOOOOOOOOOOOOOOOOOOOOOOO+",
";OOOOOOOOOOOOOOOOOOOOOOOOOOOO+",
";OOOOOOOOOOOOOOOOOOOOOOOOOOOO+",
";OOOOOOOOOOOOOOOOOOOOOOOOOOOO+",
";OOOOOOOOOOOOOOOOOOOOOOOOOOOO+",
";;;;;;;;;;;;;;;;;;;;;;;;;;;;;;",
";;;;;;;;;;;;;;;;;;;;;;;;;;;;;;",
"@@@@@@@@@@@@@@@@@@@@@@@@@@@@@.",
"                             ."
};
