/* XPM */
static char *hide_pressed[] = {
/* columns rows colors chars-per-pixel */
"33 28 51 1 ",
"  c #131313",
". c #131515",
"X c #151414",
"o c #171616",
"O c #161717",
"+ c #1D1414",
"@ c #141D1D",
"# c #241313",
"$ c #2A1111",
"% c #231B1B",
"& c #1F1F3C",
"* c #132323",
"= c #1C2424",
"- c #112A2A",
"; c #272727",
": c #21213E",
"> c #23233F",
", c #473F3F",
"< c #1E304D",
"1 c #242440",
"2 c #252540",
"3 c #252541",
"4 c #3C3C50",
"5 c #3E3E51",
"6 c #3C3C55",
"7 c #3E3E56",
"8 c #3F3F57",
"9 c #3E4646",
"0 c #404058",
"q c #47475E",
"w c #525267",
"e c #545469",
"r c #57576C",
"t c #636767",
"y c #676464",
"u c #696868",
"i c #686969",
"p c #6D6D71",
"a c #717174",
"s c #777676",
"d c #767777",
"f c #7B7B7B",
"g c #7C7C8B",
"h c #9595A1",
"j c #B7B7BD",
"k c #C6C6CA",
"l c #C8C8CC",
"z c #C9C9CD",
"x c #D2D2D5",
"c c #D4D4D6",
"v c #D8D8DA",
/* pixels */
"fffffffffffffffffffffffffffffffff",
"fffffffffffffffffffffffffffffffff",
"-ff<<<<<<<<<<<<<<<<<<<<<<<<<<<<<f",
"$ff&&&&&&&&&&&&&&&&&&&&&&&&&&&&&f",
"$ff&&&&&&&&&&&&&&&&&&&&&&&&&&&&&f",
"$ff&&&&&&&&&&&&&&&&&&&&&&&&&&&&&f",
"$ff&&&&&&&&&&&&&&&&&&&&&&&&&&&&&f",
"$ff&&&&&&&&&&&&&&&&&&&&&&&&&&&&&f",
"$ff&&&&&&&&&&&&&&&&&&&&&&&&&&&&&f",
"$ff&&&&&&&&3q&&&&&&&&&q3&&&&&&&&f",
"$ff&&&&&&&&hxe&&&&&&&exh&&&&&&&&f",
"$ff&&&&&&&&6kcr&&&&&wxz0&&&&&&&&f",
"$ff&&&&&&&&&6kcr&&&wxz0&&&&&&&&&f",
"$ff&&&&&&&&&&6kcr&wxl0&&&&&&&&&&f",
"$ff&&&&&&&&&&&7lxgxl7&&&&&&&&&&&f",
"$ff&&&&&&&&&&&&6kvl8&&&&&&&&&&&&f",
"$ff&&&&&&&&&&&&&6j8&&&&&&&&&&&&&f",
"$ff&&&&&&&&&&&&&&:&&&&&&&&&&&&&&f",
"$ff&&&&&&&&&&&&&&&&&&&&&&&&&&&&&f",
"$ff&&&&&&&&&&&&&&&&&&&&&&&&&&&&&f",
"$sf>&&&&&&&&&&&&&&&&&&&&&&&&&&&&f",
"#yf4&&&&&&&&&&&&&&&&&&&&&&&&&&&&f",
"+,fp2&&&&&&&&&&&&&&&&&&&&&&&&&&&f",
"X%ufa51&&&&&&&&&&&&&&&&&&&&&&&&&f",
" o;ifffffffffffffffffffffffffffff",
"  O=9tdffffffffffffffffffffffffff",
"   .@*---------------------------",
"                                 "
};
