/* XPM */
static char *maximize_active[] = {
/* columns rows colors chars-per-pixel */
"31 28 23 1 ",
"  c #131313",
". c #151515",
"X c #1B1717",
"o c #191919",
"O c #2B0909",
"+ c #092B2B",
"@ c #323232",
"# c #343434",
"$ c gray21",
"% c gray24",
"& c #494949",
"* c #4B4B4B",
"= c #4E4E4E",
"- c #767676",
"; c #7B7B7B",
": c #909090",
"> c #B4B4B4",
", c #C5C5C5",
"< c #C6C6C6",
"1 c gray78",
"2 c gray82",
"3 c LightGray",
"4 c #D8D8D8",
/* pixels */
";;;;;;;;;;;;;;;;;;;;;;;;;;;;;;;",
";;;;;;;;;;;;;;;;;;;;;;;;;;;;;;;",
";+++++++++++++++++++++++++++++;",
";+                           O;",
";+                           O;",
";+                           O;",
";+                           O;",
";+                           O;",
";+             .             O;",
";+            @>$            O;",
";+           @,41$           O;",
";+          #<2-2<#          O;",
";+         @,3= &21$         O;",
";+        @<3=   &21$        O;",
";+       @<3=     &21$       O;",
";+       :2*       *2:       O;",
";+       o%         %o       O;",
";+                           O;",
";+                           O;",
";+                           O;",
";+                           O;",
";+                           O;",
";+                           O;",
";XOOOOOOOOOOOOOOOOOOOOOOOOOOOO;",
";;;;;;;;;;;;;;;;;;;;;;;;;;;;;;;",
";;;;;;;;;;;;;;;;;;;;;;;;;;;;;;;",
"+++++++++++++++++++++++++++++++",
"                               "
};
