/* XPM */
static char *menu_pressed[] = {
/* columns rows colors chars-per-pixel */
"30 25 3 1 ",
"  c #131313",
". c #092B2B",
"X c None",
/* pixels */
"XXXX..........................",
"XXXX                          ",
"XXXX                          ",
"XXXX                          ",
".                             ",
".                             ",
".                             ",
".                             ",
".                             ",
".                             ",
".                             ",
".                             ",
".                             ",
".                             ",
".                             ",
".                             ",
".                             ",
".                             ",
".                             ",
".                             ",
".                             ",
".                             ",
".                             ",
".                             ",
".                             "
};
