/* XPM */
static char *stick_prelight[] = {
/* columns rows colors chars-per-pixel */
"35 28 60 1 ",
"  c #131313",
". c #131515",
"X c #151414",
"o c #171616",
"O c #161717",
"+ c #1D1414",
"@ c #121A1A",
"# c #121F1F",
"$ c #141D1D",
"% c #241313",
"& c #2A1111",
"* c #231B1B",
"= c #132323",
"- c #122626",
"; c #1C2424",
": c #112929",
"> c #112A2A",
", c #142B2B",
"< c #1B3131",
"1 c #272727",
"2 c #373535",
"3 c #353737",
"4 c gray21",
"5 c #3F3333",
"6 c #383535",
"7 c #3B3737",
"8 c #373B3B",
"9 c #4A3131",
"0 c #4D3434",
"q c #4D3535",
"w c #4D3636",
"e c #473F3F",
"r c #3E4646",
"t c #314A4A",
"y c #344A4A",
"u c #334C4C",
"i c #3C4A4A",
"p c #414141",
"a c #484848",
"s c #564B4B",
"d c #594848",
"f c #4A5555",
"g c #626767",
"h c #636767",
"j c #676464",
"k c #626868",
"l c #666B6B",
"z c #696868",
"x c #686969",
"c c #6D6D6D",
"v c #6F7171",
"b c #717171",
"n c #757272",
"m c #747373",
"M c #777676",
"N c #767777",
"B c #7B7B7B",
"V c #D5D5D5",
"C c #D7D7D7",
"Z c #DADADA",
/* pixels */
"BBBBBBBBBBBBBBBBBBBBBBBBBBBBBBBBBBB",
"BBBBBBBBBBBBBBBBBBBBBBBBBBBBBBBBBBB",
">BByyyyyyyyyyyyyyyyyyyyyyyyyyyyyBB>",
"&BBt4444444444444444444444444449BB>",
"&BBt4444444444444444444444444449BB>",
"&BBt4444444444444444444444444449BB>",
"&BBt4444444444444444444444444449BB>",
"&BBt4444444444444444444444444449BB>",
"&BBt4444444444444444444444444449BB>",
"&BBt4444444444444444444444444449BB>",
"&BBt4444444444444a44444444444449BB>",
"&BBt444444444444cVb4444444444449BB>",
"&BBt44444444444cCZCb444444444449BB>",
"&BBt44444444444cCZCb444444444449BB>",
"&BBt444444444444cVb4444444444449BB>",
"&BBt4444444444444a44444444444449BB>",
"&BBt4444444444444444444444444449BB>",
"&BBt4444444444444444444444444449BB>",
"&BBt4444444444444444444444444449BB>",
"&BBt4444444444444444444444444449BB>",
"&MBu344444444444444444444444446qBN:",
"%jBf844444444444444444444444445dBg-",
"+eBvp7244444444444444444444465wnBi#",
"X*zBms0999999999999999999999qdnBl,.",
" o1xBBBBBBBBBBBBBBBBBBBBBBBBBBBl<@ ",
"  O;rhNBBBBBBBBBBBBBBBBBBBBBNki,@  ",
"   .$=>>>>>>>>>>>>>>>>>>>>>>:-#.   ",
"                                   "
};
