/* XPM */
static char *hide_active[] = {
/* columns rows colors chars-per-pixel */
"33 28 36 1 ",
"  c #0C0C0C",
". c gray27",
"X c #5D5D5D",
"o c #5B6666",
"O c #646464",
"+ c #6E6F6F",
"@ c gray47",
"# c #808080",
"$ c #888989",
"% c #898989",
"& c #8F8B8B",
"* c #8C9191",
"= c #BCBCBC",
"- c #C8BFBF",
"; c #BFC8C8",
": c #D6C8C8",
"> c #CAD9D9",
", c #F7DADA",
"< c #FBDBDB",
"1 c #FBDEDE",
"2 c #DAF7F7",
"3 c #DBFBFB",
"4 c #DDFBFB",
"5 c gray90",
"6 c #E7E7E7",
"7 c #EEE5E5",
"8 c #E6EFEF",
"9 c #F7E2E2",
"0 c #F6EBEB",
"q c #F4EFEF",
"w c #E3F7F7",
"e c #ECF6F6",
"r c #F4F2F2",
"t c #F2F4F4",
"y c #F7F6F6",
"u c gray97",
/* pixels */
"XXXXXXXXXXXXXXXXXXXXXXXXXXXXXXXXX",
"OOOOOOOOOOOOOOOOOOOOOOOOOOOOOOOOO",
"3oo33333333333333333333333333333o",
"<OO3uuuuuuuuuuuuuuuuuuuuuuuuuuu<O",
"<OO3uuuuuuuuuuuuuuuuuuuuuuuuuuu<O",
"<OO3uuuuuuuuuuuuuuuuuuuuuuuuuuu<O",
"<OO3uuuuuuuuuuuuuuuuuuuuuuuuuuu<O",
"<OO3uuuuuuuuuuuuuuuuuuuuuuuuuuu<O",
"<OO3uuuuuuuuuuuuuuuuuuuuuuuuuuu<O",
"<OO3uuuuuuuuuuuuuuuuuuuuuuuuuuu<O",
"<OO3uuuuuuuu#@uuuuuuu#@uuuuuuuu<O",
"<OO3uuuuuuuu% @uuuuu# #uuuuuuuu<O",
"<OO3uuuuuuuuu% @uuu# #uuuuuuuuu<O",
"<OO3uuuuuuuuuu% @u# #uuuuuuuuuu<O",
"<OO3uuuuuuuuuuu# . #uuuuuuuuuuu<O",
"<OO3uuuuuuuuuuuu% #uuuuuuuuuuuu<O",
"<OO3uuuuuuuuuuuuu=uuuuuuuuuuuuu1O",
"<OO3uuuuuuuuuuuuuuuuuuuuuuuuuuy1O",
"<OO3uuuuuuuuuuuuuuuuuuuuuuuuyyy<O",
"<OO3uuuuuuuuuuuuuuuuuuuuuuuuuyy<O",
"1+O2uuuuuuuuuuuuuuuuuuuuuuyyuuu1O",
"9&O>tuuuuuuuuuuuuuuuuuyyuuuyuuy1O",
"7:O@6quuuuuuuuuuuuuuuuuruuyyyyy<O",
"u7&O@:,<<<<<<<<<11<<1<<<11<<1<<<O",
"ut5$OOOOOOOOOOOOOOOOOOOOOOOOOOOOO",
"uut8;*+OOOOOOOOOOOOOOOOOOOOOOOOOO",
"uuuuew333333333333333333444433333",
"uuuuuuuuuuuuuuuuuuuuuuuuyyyyuuuuu"
};
