/* XPM */
static char *shade_pressed[] = {
/* columns rows colors chars-per-pixel */
"31 28 16 1 ",
"  c #0C0C0C",
". c #222222",
"X c gray14",
"o c #393939",
"O c #4C5454",
"+ c #535353",
"@ c #5D5D5D",
"# c #646464",
"$ c #686868",
"% c #979797",
"& c #ACACAC",
"* c #AFAFAF",
"= c #AFC9C9",
"- c #C5C5C5",
"; c #DBFBFB",
": c gray97",
/* pixels */
"@@@@@@@@@@@@@@@@@@@@@@@@@@@@@@@",
"###############################",
"O=============================O",
"+-----------------------------+",
"+-----------------------------+",
"+-----------------------------+",
"+-----------------------------+",
"+-----------------------------+",
"+---------           ---------+",
"+---------$$$$$$##$$$---------+",
"+-----------------------------+",
"+-----------------------------+",
"+-------------*o&-------------+",
"+------------*X .*------------+",
"+-----------*..%..&-----------+",
"+----------*..*-*..*----------+",
"+---------*X.*---*..*---------+",
"+---------o.*-----*.o---------+",
"+---------**-------**---------+",
"+-----------------------------+",
"+-----------------------------+",
"+-----------------------------+",
"+-----------------------------+",
"+-----------------------------+",
"+++++++++++++++++++++++++++++++",
"###############################",
";;;;;;;;;;;;;;;;;;;;;;;;;;;;;;;",
":::::::::::::::::::::::::::::::"
};
